<?xml version="1.0" standalone="no"?><!DOCTYPE svg PUBLIC "-//W3C//DTD SVG 1.1//EN" "http://www.w3.org/Graphics/SVG/1.1/DTD/svg11.dtd"><svg t="1765506944591" class="icon" fill="currentColor" viewBox="0 0 1024 1024" version="1.1" xmlns="http://www.w3.org/2000/svg" p-id="1650" width="64" height="64" xmlns:xlink="http://www.w3.org/1999/xlink"><path d="M951.77772031 472.12563594a39.99033563 39.99033563 0 0 0-39.99033562 39.99033562v399.90335719H111.98067125V112.21261531h399.90335719a39.99033563 39.99033563 0 0 0 0-79.98067125H71.99033563a39.99033563 39.99033563 0 0 0-39.99033563 39.99033563v879.78738469a39.99033563 39.99033563 0 0 0 39.99033562 39.99033562h879.78738469a39.99033563 39.99033563 0 0 0 39.99033563-39.99033562V512.11597156a39.99033563 39.99033563 0 0 0-39.99033563-39.99033562z" p-id="1651" stroke="currentColor"></path><path d="M311.93234938 512.11597156v159.96134344a39.99033563 39.99033563 0 0 0 39.99033562 39.99033562h159.96134344a39.99033563 39.99033563 0 0 0 28.39313812-11.5971975l439.89369188-439.89369281a39.99033563 39.99033563 0 0 0 0-56.78627625l-159.9613425-159.9613425a39.99033563 39.99033563 0 0 0-56.78627625 0l-439.89369282 439.89369188A39.99033563 39.99033563 0 0 0 311.93234938 512.11597156z m79.98067124 16.39603781l399.90335719-399.90335624L895.39134687 232.18362219l-399.90335625 399.90335719H391.91302062z" p-id="1652"  stroke="currentColor"></path></svg>