<?xml version="1.0" standalone="no"?><!DOCTYPE svg PUBLIC "-//W3C//DTD SVG 1.1//EN" "http://www.w3.org/Graphics/SVG/1.1/DTD/svg11.dtd"><svg t="1765509587702" class="icon" fill="currentColor" viewBox="0 0 1024 1024" version="1.1" xmlns="http://www.w3.org/2000/svg" p-id="1084" xmlns:xlink="http://www.w3.org/1999/xlink" width="64" height="64"><path d="M738.5685824 791.09254293H193.53086293c-23.66166293 0-45.2258624-9.25427627-61.72557546-24.49910826l154.47898773-192.66491947c8.29994987-10.30878933 19.9663744-16.29805867 32.81190187-16.7257728 12.824976-0.40844693 24.8202144 4.8409952 33.64806186 14.6283072l13.56480427 15.040608c17.98065493 19.98821013 43.12197547 30.29571413 69.18936427 28.48596053 25.9723424-1.78149653 49.63272107-15.65456213 65.0008576-37.83656853l77.92216533-113.26309867c8.416832-12.30992213 21.55135467-19.36397973 35.8624096-19.46801813h0.30055467c14.3123392 0 27.3351168 6.94488213 35.8624096 19.04415787l80.6489984 114.52311893c7.1709408 10.09043733 20.61886187 12.07872533 30.09277546 4.5121824 9.34803947-7.45865173 11.2541248-21.44217813 4.19492907-31.44912747l-80.63486933-114.50256746c-16.72448853-23.66808533-42.16893227-37.2328896-70.16295787-37.23289067h-0.520192c-28.18669013 0.21064533-53.73902613 14.08499627-70.25929067 38.07033493l-77.92088106 113.36713707c-7.7656288 11.34917227-19.87132693 18.39552427-33.23190827 19.3549888-13.24241387 0.93249173-26.16243733-4.44282347-35.32680427-14.51913173l-13.56608853-15.0367552c-17.03403413-18.9324128-41.113136-29.4467104-65.93334933-28.70816534-24.8202144 0.72698453-48.15948693 12.61176213-64.23919467 32.60125547L106.36084373 728.510256a104.13469547 104.13469547 0 0 1-6.62762986-36.4943456V307.46057707c0-54.69335253 42.05847147-99.0612192 93.7963648-99.0612192h602.36928c51.81881173 0 93.7963648 44.36786667 93.7963648 99.0612192v190.64965973c0 12.509008 9.56767573 22.61357333 21.3432768 22.61357227 11.77688533 0 21.33043307-10.10456533 21.33043413-22.61357227V307.46057707c0-79.60090773-61.1835488-144.1766208-136.5818208-144.1766208H193.53086293c-75.39955627 0-136.5959488 64.57571307-136.5959488 144.1766208V692.0159104c0 79.62145813 61.1976768 144.19203413 136.5959488 144.19203413h545.03900374c11.78973013 0 21.34456213-10.10456533 21.34456213-22.61999573-0.00128427-12.40625387-9.55611627-22.49540587-21.3458464-22.49540587z m0 0" p-id="1085"></path><path d="M963.7101696 669.00031253H908.505616v-57.3161472c0-20.40050987-15.66997547-36.9066464-34.90422827-36.9066464-19.24581333 0-34.902944 16.5074208-34.90294506 36.9066464v57.3161472h-56.37209494c-19.24581333 0-34.9157888 16.517696-34.9157888 36.91563734 0 20.40050987 15.6686912 36.9040768 34.9157888 36.9040768h56.37209494v56.67265066c0 20.40050987 15.65584747 36.9040768 34.90294506 36.90407787 19.2342528 0 34.90422827-16.5048512 34.90422827-36.90407787v-56.67265066h55.2045536c19.24581333 0 34.91707307-16.5048512 34.91707307-36.9040768 0-20.39665707-15.66997547-36.91563733-34.91707307-36.91563734zM259.04549013 399.15305493c-36.79490133 0-66.87997013-29.96048-66.87997013-66.87868586 0-36.80902933 29.974608-66.88510827 66.87997013-66.8851072 36.9040768 0 66.89281387 29.974608 66.89281494 66.8851072-0.00128427 36.91949013-30.0850688 66.87868587-66.89281494 66.87868586z m0-93.7963648c-14.8196864 0-26.9253856 12.0992768-26.9253856 26.91767894 0 14.8261088 12.10569813 26.92410133 26.9253856 26.92410133 14.8325312 0 26.91639467-12.0967072 26.91639467-26.92410133 0-14.81840213-12.08386347-26.91767893-26.91639467-26.91767894z m0 0" p-id="1086"></path></svg>