<?xml version="1.0" standalone="no"?><!DOCTYPE svg PUBLIC "-//W3C//DTD SVG 1.1//EN" "http://www.w3.org/Graphics/SVG/1.1/DTD/svg11.dtd"><svg t="1765519249108" class="icon" fill="currentColor"   viewBox="0 0 1024 1024" version="1.1" xmlns="http://www.w3.org/2000/svg" p-id="1430" xmlns:xlink="http://www.w3.org/1999/xlink" width="64" height="64"><path d="M801.64478269 947.69722487c-14.11322323 0-25.50738533-11.39416211-25.50738534-25.50738534V679.54597568c0-14.11322323 11.39416211-25.50738533 25.50738534-25.50738533 14.11322323 0 25.50738533 11.39416211 25.50738532 25.50738533v242.51438543c0 14.24270295-11.39416211 25.63686506-25.50738532 25.63686376z" p-id="1431"></path><path d="M654.81546478 800.86790826c0-13.20687039 10.7467661-23.95363649 23.95363649-23.95363649h245.62188311c13.20687039 0 23.95363649 10.7467661 23.95363648 23.95363649s-10.7467661 23.95363649-23.95363648 23.95363649H678.76910127c-13.20687039 0-23.95363649-10.7467661-23.95363649-23.95363649z" p-id="1432"></path><path d="M606.77871338 948.60357902H251.48801792c-97.10933664 0-175.96211852-78.72330213-175.96211851-175.96211852V251.3585395c0-97.10933664 78.72330213-175.96211852 175.96211851-175.96211852h521.41240071c97.10933664 0 175.96211852 78.72330213 175.96211852 175.96211852v361.24673399c0 14.24270295-11.65312023 25.89582319-25.89582319 25.89582319s-25.89582319-11.65312023-25.89582319-25.89582319v-361.24673399c0-68.62393204-55.54654138-124.17047213-124.17047214-124.17047213H251.48801792c-68.62393204 0-124.17047213 55.54654138-124.17047212 124.17047213v521.41240071c0 68.62393204 55.54654138 124.17047213 124.17047212 124.17047213h355.29069546c14.24270295 0 25.89582319 11.65312023 25.8958232 25.8958232s-11.65312023 25.76634348-25.8958232 25.76634348z" p-id="1433"></path><path d="M644.32765681 561.20206368L442.21075696 677.86274713c-37.9373813 21.88197006-85.32673798-5.43812227-85.32673797-49.20206368V395.20983684c0-43.76394141 47.38935669-71.21351345 85.32673797-49.20206368l202.11689985 116.66068345c37.80790157 22.01144978 37.80790157 76.65163702 0 98.53360707z" p-id="1434"></path></svg>