<?xml version="1.0" standalone="no"?><!DOCTYPE svg PUBLIC "-//W3C//DTD SVG 1.1//EN" "http://www.w3.org/Graphics/SVG/1.1/DTD/svg11.dtd"><svg t="1769502830473" class="icon" viewBox="0 0 1024 1024" version="1.1" xmlns="http://www.w3.org/2000/svg" p-id="23566" ><path d="M991.264206 443.099844L603.022198 38.912704A125.074196 125.074196 0 0 0 512.105691 0.000731a125.074196 125.074196 0 0 0-90.916506 38.911973L32.947177 443.099844c-40.082257 41.691399-34.889118 77.750802-28.306266 92.891362 4.754282 10.605707 20.626271 40.009114 66.559953 40.009114h56.905102v310.930064c0 70.582807 50.687964 137.069616 122.733626 137.069616H416.069189V694.930521c0-35.254832-5.339425-54.930246 30.719978-54.930247h130.633049c35.98626 0 30.719978 19.675415 30.719978 54.930247V1024H773.298648c72.045663 0 122.733627-66.48681 122.733626-137.069616V576.00032h56.905103c45.860539 0 61.80567-29.403408 66.559952-40.082257 6.582852-15.067418 11.702849-51.126821-28.306265-92.891362z" fill="currentColor" p-id="23567"></path></svg>