<svg t="1772602456030" class="icon" viewBox="0 0 1024 1024" version="1.1" xmlns="http://www.w3.org/2000/svg" p-id="8496" width="200" height="200"><path d="M422.5536 224.2048c27.648-9.0624 57.6-13.9264 89.4464-13.9264 40.448 0 77.824 7.8592 111.2832 22.144q58.368-48.128 96.512-27.8016a6.4 6.4 0 0 1-5.9904 11.3152q-29.2608-15.616-77.5424 22.4256c72.0896 35.456 124.0832 101.76 145.92 183.1424 10.5728-0.8704 22.8352-1.28 37.0176-1.28 51.2 0 51.2 51.2 51.2 64s-12.8 76.8-51.2 76.8c-9.5488 0-20.3776-2.4064-31.232-6.9632-17.8688 77.3888-78.6176 182.8864-186.368 221.952v66.5856h-51.2v-76.8c-12.8 12.8-64 12.8-76.8 0v76.8h-51.2v-66.56c-107.7504-39.0912-168.4992-144.5888-186.368-221.952-10.8544 4.5312-21.6832 6.912-31.232 6.912-38.4 0-51.2-64-51.2-76.8s0-64 51.2-64c14.1824 0 26.4448 0.4352 37.0176 1.3056 23.9872-89.344 84.3008-160.512 167.6544-192.64Q363.52 180.6848 335.8208 195.456a6.4 6.4 0 0 1-6.0416-11.3152q37.2992-19.8656 92.7744 40.064zM460.8 368.9984a38.4 38.4 0 1 1-76.8 0 38.4 38.4 0 0 1 76.8 0z m140.8 38.4a38.4 38.4 0 1 0 0-76.8 38.4 38.4 0 0 0 0 76.8z" fill="#FF4D4D" p-id="8497"></path><path d="M414.72 363.52a12.8 12.8 0 1 0 25.6 0 12.8 12.8 0 0 0-25.6 0z m179.2 0a12.8 12.8 0 1 0 25.6 0 12.8 12.8 0 0 0-25.6 0z" fill="#FFFFFF" p-id="8498"></path></svg>