<svg viewBox="0 0 1024 1024" xmlns="http://www.w3.org/2000/svg" fill="currentColor">
<path d="M849.262 849.417h-674.797c-62.115 0-112.465-50.357-112.465-112.465v-449.864c0-62.115 50.35-112.465 112.465-112.465h674.797c62.109 0 112.465 50.351 112.465 112.465v449.864c0 62.108-50.357 112.465-112.465 112.465zM905.494 287.087c0-31.058-25.176-56.233-56.233-56.233h-674.796c-31.058 0-56.233 25.176-56.233 56.233v449.864c0 31.058 25.176 56.233 56.233 56.233h674.797c31.058 0 56.233-25.176 56.233-56.233v-449.864zM821.144 736.95h-56.233c-15.532 0-28.117-12.591-28.117-28.117s12.585-28.117 28.117-28.117h56.233c15.526 0 28.117 12.591 28.117 28.117s-12.59 28.117-28.117 28.117zM821.144 568.252h-56.233c-15.532 0-28.117-12.591-28.117-28.117 0-15.532 12.585-28.117 28.117-28.117h56.233c15.526 0 28.117 12.585 28.117 28.117 0.001 15.526-12.59 28.117-28.117 28.117zM821.144 399.552h-56.233c-15.532 0-28.117-12.591-28.117-28.117 0-15.532 12.585-28.117 28.117-28.117h56.233c15.526 0 28.117 12.585 28.117 28.117 0.001 15.526-12.59 28.117-28.117 28.117zM596.214 455.786h-393.631c-15.532 0-28.117-12.591-28.117-28.117 0-15.532 12.585-28.117 28.117-28.117h28.117v-28.117c0-15.532 12.585-28.117 28.117-28.117 15.526 0 28.117 12.585 28.117 28.117v28.117h224.933v-28.117c0-15.532 12.585-28.117 28.117-28.117 15.526 0 28.117 12.585 28.117 28.117v28.117h28.117c15.526 0 28.117 12.585 28.117 28.117 0.001 15.525-12.59 28.117-28.116 28.117z"  ></path>
</svg>