<svg viewBox="0 0 1024 1024" xmlns="http://www.w3.org/2000/svg" fill="currentColor">
  <path d="M644.288 201.344l114.24 112.8a31.616 31.616 0 0 1 0 45.12l-91.392 90.24-159.936-157.92 91.392-90.24a32.608 32.608 0 0 1 45.696 0z m-22.848 67.68l-22.848 22.56 68.544 67.68 22.848-22.56-68.544-67.68z m120.64 499.2V832H225.088v-63.808H742.08z m-257.728-454.08l159.936 157.888-251.328 248.16-134.496 8.864a32.16 32.16 0 0 1-34.4-33.984l8.96-132.8 251.328-248.128z m0 90.24L295.904 590.4l-4.896 72.512 73.44-4.8 188.48-186.112-68.576-67.648z"></path>
</svg>
