<svg viewBox="0 0 1024 1024" xmlns="http://www.w3.org/2000/svg" fill="currentColor">
<path d="M562.17 512l290.275 290.275c7.166 7.166 7.166 17.919 0 25.085l-25.085 25.085c-7.166 7.166-17.919 7.166-25.085 0l-290.275-290.275-290.275 290.275c-7.166 7.166-17.919 7.166-25.085 0l-25.085-25.085c-7.166-7.166-7.166-17.919 0-25.085l290.275-290.275-293.858-290.275c-7.166-7.166-7.166-17.919 0-25.085l25.085-25.085c7.166-7.166 17.919-7.166 25.085 0l290.274 290.275 290.275-290.275c7.166-7.166 17.919-7.166 25.085 0l25.085 25.085c7.166 7.166 7.166 17.919 0 25.085l-286.692 290.275z"  ></path>
</svg>