<svg viewBox="0 0 1024 1024" xmlns="http://www.w3.org/2000/svg" fill="currentColor">
<path d="M560.097 512l327.791-327.792c13.779-13.767 13.779-36.111 0-49.878-13.779-13.778-36.1-13.778-49.878 0L510.218 462.122 182.427 134.33c-13.779-13.778-36.1-13.778-49.878 0-13.779 13.768-13.779 36.112 0 49.878L460.34 512 132.55 839.792c-13.779 13.767-13.779 36.111 0 49.878 6.889 6.888 15.914 10.334 24.939 10.334s18.05-3.445 24.939-10.334l327.791-327.792L838.01 889.67c6.889 6.888 15.914 10.334 24.939 10.334s18.05-3.445 24.939-10.334c13.779-13.767 13.779-36.112 0-49.878L560.098 512z"  ></path>
</svg>