<svg viewBox="0 0 1024 1024" xmlns="http://www.w3.org/2000/svg" fill="currentColor">
<path d="M953.597557 587.602885c0-112.784716-96.791463-121.276111-176.723957-121.915677l0-44.909839c0-15.005762-13.519921-23.351847-28.525684-23.351847L96.220459 397.425521c-15.005762 0-25.819039 8.346085-25.819039 23.351847l0 384.480698c0 96.414887 19.012006 149.192927 130.313951 149.192927l434.751638 0c88.48938 0 129.082914-30.66951 138.948609-106.796328C877.755218 833.002968 953.597557 685.194574 953.597557 587.602885zM722.529901 664.511509l0 140.747581c0 77.416184-14.169721 94.849228-87.061868 94.849228l-434.751638 0c-69.376067 0-75.970252-13.174044-75.970252-94.849228L124.746142 664.511509 124.746142 451.770244 722.529901 451.770244 722.529901 664.511509zM776.8736 791.762705 776.8736 520.102538c91.336218 1.289366 122.380258 13.277398 122.380258 67.499323C899.253858 658.872069 843.959507 772.766049 776.8736 791.762705zM173.516916 652.004661c3.529383 0 7.073092-1.486864 9.645684-3.941775 2.441609-2.573615 3.939729-6.102998 3.939729-9.644661 0-3.66139-1.49812-7.057743-3.939729-9.645684-5.028527-5.028527-14.262842-5.028527-19.290345 0-2.441609 2.454912-3.941775 5.984295-3.941775 9.645684 0 3.541663 1.500167 7.071046 3.941775 9.644661C166.459173 650.517797 169.988556 652.004661 173.516916 652.004661zM265.289062 853.313549c7.496741 0 13.586436-6.077416 13.586436-13.586436 0-7.510044-6.089695-13.585413-13.586436-13.585413-62.331627 0-72.612785-10.999518-72.612785-73.595158l0-46.463218c0-7.510044-6.089695-13.586436-13.586436-13.586436-7.509021 0-13.586436 6.075369-13.586436 13.586436l0 46.463218C165.503405 829.763181 188.296527 853.313549 265.289062 853.313549zM331.269799 236.423641c10.201339 9.181103 11.250228 15.934924 11.17041 20.206204-0.278339 12.737092-13.068643 30.754444-34.202986 48.214095-11.5695 9.553587-13.214976 26.681686-3.662413 38.251186 5.373381 6.501064 13.148461 9.869788 20.976754 9.869788 6.089695 0 12.219299-2.043542 17.286712-6.222725 34.641985-28.603455 53.296857-59.358923 53.933353-88.958054 0.331551-15.893992-4.445242-39.510876-29.148877-61.747319-41.130769-37.003775-45.852304-53.363372-24.094768-83.374896 8.810666-12.139481 6.102998-29.135574-6.049786-37.944194-12.140505-8.797363-29.123294-6.102998-37.94624 6.049786C243.756653 157.680229 302.863842 210.870662 331.269799 236.423641zM494.300896 236.423641c10.201339 9.181103 11.250228 15.934924 11.17041 20.206204-0.278339 12.737092-13.068643 30.754444-34.202986 48.214095-11.5695 9.553587-13.214976 26.681686-3.662413 38.251186 5.373381 6.501064 13.148461 9.869788 20.976754 9.869788 6.089695 0 12.219299-2.043542 17.286712-6.222725 34.641985-28.603455 53.296857-59.358923 53.933353-88.958054 0.331551-15.893992-4.445242-39.510876-29.148877-61.747319-41.130769-37.003775-45.853327-53.363372-24.094768-83.374896 8.810666-12.139481 6.102998-29.135574-6.049786-37.944194-12.140505-8.797363-29.135574-6.102998-37.945217 6.049786C406.788773 157.680229 465.895963 210.870662 494.300896 236.423641z"  ></path>
</svg>