<svg viewBox="0 0 1024 1024" xmlns="http://www.w3.org/2000/svg" fill="currentColor">
<path d="M196.95104 550.92224L102.57408 574.976c-25.46176 0-46.25408-22.52288-46.25408-50.432V329.216c0-27.904 20.79232-50.688 46.25408-50.688l94.37696 24.064v248.33024zM102.57408 321.792c-3.5072 0-6.53824 3.328-6.53824 7.168v195.328c0 3.84 3.03616 7.15776 6.53824 7.15776l54.89664-24.064V345.6l-54.89664-23.808z m691.69664 73.216H610.6624c-17.0496 0-30.83264-15.104-30.83264-33.792V338.944c0-18.688 13.78304-33.792 30.83264-33.792h183.60832c17.0496 0 30.82752 15.104 30.82752 33.792v22.272c-0.2304 18.688-14.00832 33.792-30.82752 33.792zM610.6624 334.336c-2.3296 0-4.4288 2.304-4.4288 4.864v22.272c0 2.56 2.0992 4.864 4.4288 4.864h183.60832c2.33984 0 4.43904-2.304 4.43904-4.864v-22.272c0-2.56-2.0992-4.864-4.43904-4.864H610.6624z"  ></path><path d="M769.97632 939.52H685.4144c-22.43072 0-40.18688-19.2-40.18688-43.52v-236.544c-77.09696-2.04288-128.4864-27.136-185.01632-68.096H213.76512c-29.43488 0-54.66112-26.112-54.66112-58.112V317.44c0-33.024 25.69728-64 54.66112-64h242.7136c58.16832-40.96 136.88832-67.84 222.61248-67.84 81.7664 0 159.08352 24.576 217.49248 67.84 60.73344 45.056 94.14656 105.728 94.14656 170.496 0 49.152-19.85536 96.51712-57.472 136.448-32 34.04288-75.67872 61.184-124.73856 78.592V896c0 24.576-16.8192 43.52-38.54336 43.52z m-85.49376-43.776s0.2304 0.256 0.70144 0.256h83.8656s-0.46592 0.256-0.46592 0v-289.792l14.70976-4.36224c100.21888-30.45888 167.5008-101.888 167.5008-177.664 0-49.92-27.09504-97.536-76.63104-134.144C822.528 251.648 753.16224 230.4 679.10144 230.4c-78.72 0-153.23648 23.552-204.40064 65.024l-5.13536 4.096h-255.7952c-7.4752 0-12.61568 8.704-12.61568 17.664v215.808c0 8.44288 4.67456 14.59712 12.61568 14.59712h258.36544l5.13536 4.096c53.26336 40.96 103.49056 64.512 178.46784 64.512 2.57024 0 4.43904 0.26112 5.84704 0.52224 1.16736 0.256 1.63328 0.256 2.80576 0.256l20.32128-0.256-0.2304 279.02464c0.22528 0.256 0 0 0 0z"  ></path>
</svg>