<svg viewBox="0 0 1024 1024" xmlns="http://www.w3.org/2000/svg" fill="currentColor">
<path d="M506.624 839.0144H237.7728a25.46688 25.46688 0 0 1-24.0128-26.368V461.312h7.5264c38.6048-0.1024 74.9056-18.6368 97.6384-49.8176a120.60672 120.60672 0 0 0 195.3792 0c22.7328 31.232 59.0336 49.7664 97.6384 49.7664 38.656 0 74.9568-18.4832 97.6384-49.7664a121.33376 121.33376 0 0 0 97.9968 50.4832c67.8912-0.5632 122.4704-55.9616 122.112-123.8528 0.1024-1.2288 0.1024-2.4576 0-3.6864l-32.768-220.0064a24.02304 24.02304 0 0 0-24.0128-20.992H156.3136a23.9872 23.9872 0 0 0-24.0128 20.992l-32.9216 220.0064c-0.1024 1.2288-0.1024 2.4576 0 3.6864-0.1024 45.7728 25.088 87.808 65.4336 109.3632v365.2096c-0.4608 41.0112 31.8976 74.9568 72.9088 76.4416h268.9536a25.088 25.088 0 0 0 23.6544-25.0368 25.18016 25.18016 0 0 0-23.7056-25.088zM177.408 142.4896h674.3552l29.184 197.2224c0.3584 26.6752-13.7728 51.5072-37.0176 64.7168a73.31328 73.31328 0 1 1-109.568-66.9184c0-8.704-4.6592-16.7936-12.2368-21.1456a24.4736 24.4736 0 0 0-24.4224 0 24.40704 24.40704 0 0 0-12.2368 21.1456c0.8704 26.7264-12.9024 51.8656-35.8912 65.4848a73.3952 73.3952 0 0 1-74.7008 0c-23.04-13.6192-36.8128-38.7584-35.8912-65.4848 0-8.704-4.6592-16.7936-12.2368-21.1456a24.4736 24.4736 0 0 0-24.4224 0 24.40704 24.40704 0 0 0-12.2368 21.1456c0.8704 26.7264-12.9024 51.8656-35.8912 65.4848a73.3952 73.3952 0 0 1-74.7008 0c-23.04-13.6192-36.8128-38.7584-35.8912-65.4848a24.4224 24.4224 0 1 0-48.8448 0c1.2288 26.6752-12.1344 51.8656-34.8672 65.792a73.2672 73.2672 0 0 1-74.496 1.28c-23.1936-13.1584-37.4272-37.888-37.1712-64.5632l29.184-197.5296z m0 0"  ></path><path d="M902.5536 684.6464c15.1552-19.5072 17.0496-46.2336 4.8128-67.6864l-10.1888-17.92c-11.7248-20.992-34.9696-32.768-58.7776-29.7984l-18.8416 2.4064a26.368 26.368 0 0 1-28.0576-16.0256l-7.424-22.7328a62.70976 62.70976 0 0 0-55.296-41.728h-19.4048c-23.0912 0-45.824 17.3056-55.4496 42.24l-6.9632 19.7632a27.36128 27.36128 0 0 1-28.8256 17.8688l-17.8688-2.0992c-23.9616-3.4304-47.5136 8.192-59.4432 29.2352l-10.1888 18.1248c-12.1344 21.4016-10.2912 48.0256 4.7104 67.5328l11.4688 14.8992c7.68 9.9328 7.68 23.808 0 33.7408l-11.3664 14.6432a61.1328 61.1328 0 0 0-4.7104 67.6352l9.6768 17.0496c12.1856 21.5552 36.4032 33.3312 60.8768 29.4912l17.3056-2.8672a27.07968 27.07968 0 0 1 29.6448 17.8688l5.7856 11.2128c9.216 21.9136 31.232 35.6864 54.9376 34.304h20.2752c23.5008 1.3824 45.3632-12.1344 54.7328-33.7408l6.656-14.7968a26.13248 26.13248 0 0 1 28.5184-16.0256l18.176 3.2256c24.2176 3.8912 48.2816-7.7824 60.2624-29.184l9.6768-16.8448c12.288-21.4528 10.4448-48.2304-4.7104-67.7888l-11.0592-14.2848a27.65824 27.65824 0 0 1 0-33.792l11.1104-14.336-0.0512 0.4096z m-34.7648 107.0592l-8.96 16.0256a24.05376 24.05376 0 0 1-24.9856 12.1856l-16.896-3.0208A54.3744 54.3744 0 0 0 757.76 849.92l-6.144 13.9264a23.30112 23.30112 0 0 1-23.0912 12.7488h-18.7392a24.1152 24.1152 0 0 1-23.6544-14.0288l-5.376-10.3936c-8.192-21.0432-28.3648-34.9184-50.944-35.0208-3.0208 0-5.9904 0.256-8.96 0.7168l-16.0256 2.6624c-10.24 1.6384-20.48-3.2768-25.5488-12.3392l-8.96-16.0256a25.66656 25.66656 0 0 1 1.7408-28.416l10.8032-13.312c15.7696-20.48 15.7696-48.9984 0-69.4784l-10.8032-14.1824a25.64608 25.64608 0 0 1-1.7408-28.5184l9.7792-16.7424a25.02144 25.02144 0 0 1 25.2416-12.6464l16.5888 1.9456c25.6 2.9184 49.92-12.032 58.88-36.1984l6.4-18.1248a27.97056 27.97056 0 0 1 23.1424-18.8416h18.0224c10.4448 1.1776 19.3536 8.192 22.8864 18.1248l6.9632 20.8384c8.96 23.808 33.024 38.3488 58.2656 35.2256l17.4592-2.2528c9.984-1.1776 19.6096 3.84 24.4224 12.6464l9.3696 16.64c5.0176 9.0112 4.2496 20.1216-1.9456 28.3648l-10.24 13.312c-15.872 20.48-15.872 49.1008 0 69.632l10.24 13.2096c6.3488 8.0896 7.1168 19.3024 1.9968 28.3136z m0 0"  ></path><path d="M719.104 631.8592c-32.9728-0.512-63.0272 18.9952-75.9808 49.3568a81.3824 81.3824 0 0 0 16.8448 89.0368 81.37728 81.37728 0 0 0 88.7808 18.176c30.5152-12.4928 50.4832-42.24 50.4832-75.2128 0.1536-21.4016-8.192-41.984-23.1936-57.2416a80.64 80.64 0 0 0-56.9344-24.1152z m0 122.5728a41.1904 41.1904 0 0 1-38.6048-24.9856 41.216 41.216 0 0 1 8.4992-45.2096 41.28256 41.28256 0 0 1 70.7072 28.928c0.1024 22.5792-18.0224 41.0624-40.6016 41.2672z m0 0"  ></path>
</svg>