<svg viewBox="0 0 1024 1024" xmlns="http://www.w3.org/2000/svg" fill="currentColor">
<path d="M897.024 697.26208 897.024 277.4016c0 0-15.44192-50.31936-62.52544-50.31936l-598.8352-1.26976c0 0-61.91104-0.512-61.91104 53.8624l0 417.71008-67.52256-0.06144-2.41664 54.43584C103.81312 751.73888 102.4 819.2 153.12896 819.2l760.09472 0C961.72032 819.2 962.56 751.73888 962.56 751.73888l0-54.4768L897.024 697.26208zM641.92512 778.93632l-188.33408 0c-14.848 0-26.91072-7.08608-26.91072-15.85152 0-8.76544 12.04224-15.872 26.91072-15.872l188.33408 0c14.86848 0 26.91072 7.10656 26.91072 15.872C668.83584 771.82976 656.7936 778.93632 641.92512 778.93632zM828.1088 678.89152 240.49664 678.89152 240.49664 279.6544l587.61216 0L828.1088 678.89152zM897.536 778.93632l-53.82144 0c-7.43424 0-13.45536-6.08256-13.45536-13.59872 0-7.51616 6.02112-13.59872 13.45536-13.59872l53.82144 0c7.43424 0 13.45536 6.08256 13.45536 13.59872C910.99136 772.85376 904.97024 778.93632 897.536 778.93632z"  ></path>
</svg>