<svg viewBox="0 0 1024 1024" xmlns="http://www.w3.org/2000/svg" fill="currentColor">
<path d="M257.9 414.3h85.3l-37.9 213.4h96.3l37.1-213.4h86.2l13.3-76.3h-267l-13.3 76.3z m414.9 116.3l-16.6-192.6h-96.7L608 627.8h96.3l152.5-289.8h-96.3l-87.7 192.6z m-1.2 319.9H362.8c-15 0-27.2 12.1-27.2 27.1s12.2 27.1 27.2 27.1h308.8c15 0 27.2-12.1 27.2-27.1 0-15-12.1-27.1-27.2-27.1z m300.6-705.5H57.8c-20.1 0-32.1 12-32.1 32v583.7c0 20 20.1 32 40.1 32h906.4c20.1 0 32.1-12 32.1-32V177c0-19.9-12-32-32.1-32z m-16.1 583.7c0 10-6.1 16-16.1 16H89.8c-10 0-16.1-6.1-16.1-16V209c0-10 6.1-16 16.1-16h850.3c10 0 16.1 6.1 16.1 16l-0.1 519.7z"  ></path>
</svg>