<svg viewBox="0 0 1024 1024" xmlns="http://www.w3.org/2000/svg" fill="currentColor">
<path d="M981.333333 440.888889c0-43.619556-30.407111-80.199111-71.111111-89.856V270.222222c0-58.908444-47.758222-99.555556-106.666666-99.555555h-80.810667c-9.671111-42.666667-46.222222-71.111111-89.856-71.111111h-241.777778c-43.619556 0-80.184889 28.444444-89.856 71.111111H220.444444C161.536 170.666667 113.777778 211.313778 113.777778 270.222222v80.810667c-40.704 9.671111-71.111111 46.236444-71.111111 89.856v142.222222h71.111111v241.777778c0 58.908444 47.758222 113.777778 106.666666 113.777778h583.111112c58.908444 0 106.666667-54.869333 106.666666-113.777778V583.111111h71.111111V440.888889zM391.111111 142.222222h241.777778c19.825778 0 36.977778 14.222222 44.970667 28.444445H346.140444c8.007111-14.222222 25.159111-28.444444 44.970667-28.444445z m-170.666667 71.111111h583.111112c35.342222 0 64 21.546667 64 56.888889v28.444445H156.444444v-28.444445c0-35.342222 28.657778-56.888889 64-56.888889zM85.333333 540.444444v-99.555555c0-19.811556 14.222222-36.963556 28.444445-44.970667V540.444444H85.333333z m718.222223 355.555556h-583.111112c-35.342222 0-64-35.768889-64-71.111111h711.111112c0 35.342222-28.657778 71.111111-64 71.111111z m64-113.777778H156.444444V341.333333h711.111112v440.888889z m71.111111-241.777778h-28.444445V395.918222c14.222222 8.007111 28.444444 25.159111 28.444445 44.970667v99.555555z"  ></path><path d="M625.777778 519.111111a106.666667 106.666667 0 0 0-106.666667-106.666667h-14.222222a106.666667 106.666667 0 0 0-106.666667 106.666667v113.777778a106.666667 106.666667 0 0 0 106.666667 106.666667h14.222222a106.666667 106.666667 0 0 0 106.666667-106.666667v-113.777778z m-42.666667 113.777778a64 64 0 0 1-64 64h-14.222222a64 64 0 0 1-64-64v-113.777778a64 64 0 0 1 64-64h14.222222a64 64 0 0 1 64 64v113.777778z"  ></path><path d="M554.666667 518.826667a6.826667 6.826667 0 0 0-6.826667-6.826667h-71.68a6.826667 6.826667 0 0 0-6.826667 6.826667v0.568889c0 3.768889 3.057778 6.826667 6.826667 6.826666h71.68a6.826667 6.826667 0 0 0 6.826667-6.826666v-0.568889zM554.666667 575.715556a6.826667 6.826667 0 0 0-6.826667-6.826667h-71.68a6.826667 6.826667 0 0 0-6.826667 6.826667v0.568888c0 3.768889 3.057778 6.826667 6.826667 6.826667h71.68a6.826667 6.826667 0 0 0 6.826667-6.826667v-0.568888zM554.666667 632.604444a6.826667 6.826667 0 0 0-6.826667-6.826666h-71.68a6.826667 6.826667 0 0 0-6.826667 6.826666v0.568889c0 3.768889 3.057778 6.826667 6.826667 6.826667h71.68a6.826667 6.826667 0 0 0 6.826667-6.826667v-0.568889z"  ></path>
</svg>