<svg viewBox="0 0 1024 1024" xmlns="http://www.w3.org/2000/svg" fill="currentColor">
<path d="M516.32 927.835625c-9.2221875 0-18.4228125-3.62625001-25.269375-10.869375-13.2009375-13.92-12.624375-35.990625 1.3059375-49.213125 139.4878125-132.2765625 302.3821875-323.5125 302.38218749-427.171875 0-153.52312501-124.8928125-278.4178125-278.41781249-278.4178125-153.545625 0-278.4178125 124.8946875-278.4178125 278.41781251 0 67.775625 62.6925 174.579375 176.59031251 300.67312499a1439.94375001 1439.94375001 0 0 0 19.85531248 21.5990625c13.115625 14.079375 12.324375 36.0871875-1.71093749 49.1803125-14.101875 13.1484375-36.0759375 12.3571875-49.213125-1.6678125a1951.5065625 1951.5065625 0 0 1-20.5846875-22.4559375C233.729375 644.9459375 168.295625 528.085625 168.295625 440.58125001c0-191.8996875 156.135-348.0234375 348.0234375-348.02343751S864.3434375 248.6815625 864.3434375 440.58125c0 153.72749999-226.6171875 385.265625-324.10125 477.710625-6.6984375 6.3778125-15.320625 9.54375001-23.9221875 9.54375" fill="currentColor" ></path><path d="M516.32 564.8975c-68.53406251 0-124.2946875-55.760625-124.2946875-124.3275 0-68.52281249 55.760625-124.275 124.2946875-124.275 68.514375 0 124.275 55.75124999 124.275 124.275-0.0009375 68.5678125-55.760625 124.3275-124.275 124.3275m0-178.985625c-30.1490625 0-54.6909375 24.5203125-54.6909375 54.658125 0 30.181875 24.541875 54.72375001 54.6909375 54.72375s54.669375-24.541875 54.669375-54.72375c0-30.1378125-24.5203125-54.658125-54.669375-54.658125" fill="currentColor" ></path>
</svg>