<svg viewBox="0 0 1024 1024" xmlns="http://www.w3.org/2000/svg" fill="currentColor">
<path d="M484.1472 841.6256H247.4496c-11.3152 0-20.7872-10.3936-20.7872-22.6304V171.0592c0-12.2368 9.472-22.6304 20.7872-22.6304H772.608c11.3152 0 20.7872 10.3936 20.7872 22.6304v318.464a30.5664 30.5664 0 0 0 30.6176 30.6176 30.5664 30.5664 0 0 0 30.6176-30.6176v-318.464c0-46.2336-36.8128-83.8656-82.0224-83.8656H247.3472c-45.2096 0-82.0224 37.632-82.0224 83.8656v647.8336c0 46.2336 36.8128 83.8656 82.0224 83.8656h236.6976a30.5664 30.5664 0 0 0 30.6176-30.6176 30.464 30.464 0 0 0-30.5152-30.5152z"  ></path><path d="M888.1152 773.7856a44.35456 44.35456 0 0 1-19.2512-36.5056c0-14.4896 7.168-28.16 18.944-36.352l13.8752-9.6768-5.7344-15.8208c-7.68-21.5552-19.2-41.3184-34.304-58.6752l-10.9056-12.544-15.0016 7.0144c-5.9392 2.7648-12.2368 4.1984-18.688 4.1984-23.04 0-42.0352-17.2544-44.1856-40.192l-1.536-16.64-16.3328-3.072a184.2688 184.2688 0 0 0-67.84 0l-16.3328 3.072-1.536 16.64c-2.048 22.9376-21.0944 40.192-44.1856 40.192a43.8784 43.8784 0 0 1-18.688-4.1984l-15.0016-7.0144-10.9056 12.544c-15.0016 17.3568-26.4192 37.1712-34.304 58.6752l-5.7344 15.8208 13.8752 9.6768a44.39552 44.39552 0 0 1 18.944 36.352c0 14.592-7.2192 28.3648-19.3024 36.5056l-13.8752 9.472 5.5296 15.9232c7.424 21.5552 18.7904 41.3184 33.5872 58.7776l11.008 12.9536 15.4112-7.424c5.9904-2.9696 12.544-4.4032 19.3024-4.4032 23.2448 0 42.752 18.176 44.288 41.3184l1.1264 17.0496 16.8448 3.072a188.40064 188.40064 0 0 0 67.7888 0l16.8448-3.072 1.1264-17.0496c1.536-23.1424 21.0432-41.3184 44.288-41.3184 6.8608 0 13.2608 1.536 19.3024 4.4032l15.4112 7.424 11.008-12.9536c14.7968-17.4592 26.112-37.2224 33.5872-58.7776l5.5296-15.9232-13.9776-9.472z m-49.664 43.9808c-6.9632-1.6384-13.9776-2.56-21.1968-2.56-39.9872 0-74.3936 27.0336-84.8896 64.2048-7.3216 0.512-14.7968 0.512-22.1184 0-10.496-37.1712-44.9024-64.2048-84.8896-64.2048-7.2192 0-14.2848 0.9216-21.1968 2.56a141.7216 141.7216 0 0 1-11.1104-19.3024c15.616-16.2304 24.576-38.144 24.576-61.1328 0-22.7328-8.7552-44.3904-24.064-60.5184 3.2768-6.9632 7.168-13.4656 11.52-19.8144 6.6048 1.536 13.3632 2.3552 20.224 2.3552 22.1696 0 43.3664-8.2944 59.6992-23.1424 11.7248-10.7008 20.224-24.2688 24.6784-39.168 7.68-0.6144 15.4112-0.6144 23.04 0 4.5568 14.8992 13.056 28.4672 24.6784 39.168 16.3328 14.8992 37.4272 23.1424 59.6992 23.1424 6.912 0 13.6704-0.8192 20.224-2.3552 4.4032 6.2464 8.2432 12.8512 11.52 19.8144-15.3088 16.2304-24.064 37.8368-24.064 60.5184 0 23.04 9.0112 44.8 24.576 61.1328-3.072 6.656-6.8608 13.056-10.9056 19.3024z"  ></path><path d="M721.2032 659.9168c-43.0592 0-78.1824 35.0208-78.1824 78.1824 0 43.0592 35.0208 78.1824 78.1824 78.1824s78.1824-35.0208 78.1824-78.1824c-0.0512-43.2128-35.1232-78.1824-78.1824-78.1824z m0 112.3328c-18.8928 0-34.304-15.4112-34.304-34.304 0-18.8928 15.4112-34.304 34.304-34.304s34.304 15.4112 34.304 34.304c-0.0512 18.8928-15.4624 34.304-34.304 34.304z m-41.5232-495.7184h-339.456a30.5664 30.5664 0 0 0-30.6176 30.6176 30.5664 30.5664 0 0 0 30.6176 30.6176h339.456a30.5664 30.5664 0 0 0 30.6176-30.6176c0-16.9472-13.7216-30.6176-30.6176-30.6176z m30.5664 189.9008a30.5664 30.5664 0 0 0-30.6176-30.6176h-339.456a30.5664 30.5664 0 0 0-30.6176 30.6176 30.5664 30.5664 0 0 0 30.6176 30.6176h339.456a30.5664 30.5664 0 0 0 30.6176-30.6176z m-369.5616 128.6656a30.5664 30.5664 0 0 0-30.6176 30.6176 30.5664 30.5664 0 0 0 30.6176 30.6176H483.328c16.9472 0 30.6176-13.6704 30.6176-30.6176s-13.6704-30.6176-30.6176-30.6176H340.6848z"  ></path>
</svg>