<svg viewBox="0 0 1024 1024" xmlns="http://www.w3.org/2000/svg" fill="currentColor">
<path d="M202.3 342.9c-49.1-98.3-63.2-175.5-45.6-228.1 28.1-56.2 77.2-42.1 84.2-38.6 14 7 379.1 165 473.8 196.5 94.8 31.6 179 80.7 147.4 186-7 21.1-31.6 70.2-77.2 147.4 28.1 7 42.1 31.6 42.1 66.7C827 725.4 662 915 644.5 936c-17.5 21.1-45.6 17.6-63.2 10.5-14-7-31.6-28.1-28.1-45.6 3.5-28.1 7-63.2 10.5-105.3-35.1-10.5-52.7-28.1-52.7-49.1v-45.6c-52.6 7-98.3-7-133.4-38.6-52.6-45.6-66.7-77.2-77.2-119.3-28.1-17.5-67.4-57.6-94.8-108.8-20-37.4-10.2-81.2-4.3-88.2 2.1-2.2 1.3-2.7 1-3.1z m115.9-172c-31.6-14-77.2-45.6-105.3-35.1-28.1 7 0 119.3 31.6 172 21.1 38.6 98.3 70.2 228.1 98.3-115.8-21.1-182.5-31.6-200.1-31.6-24.6 0-35.1 17.6-28.1 38.6 17.5 38.6 45.6 77.2 101.8 101.8 24.6 10.5 105.3 10.5 147.4 10.5-42.1 0-115.8 3.5-129.9 14-28.1 28.1 45.6 87.7 77.2 108.8 31.6 21.1 91.3 14 115.8 0 14-10.5 24.6 0 24.6 7 0 3.5-10.5 38.6-14 63.2-7 24.6 0 35.1 14 38.6H627c3.5 0 3.5 3.5 3.5 7-10.5 59.8-21 122.9-21 130 0 3.5 3.5 7 10.5 0 73.7-91.3 133.4-165 150.9-193 10.5-14 0-31.6-10.5-31.6h-63.2C774.4 532.5 813 462.3 816.5 455.3c10.5-24.6 3.5-84.2-63.2-105.3-73.6-24.6-403.5-165-435.1-179.1z m0 0"  ></path>
</svg>