<svg viewBox="0 0 1024 1024" xmlns="http://www.w3.org/2000/svg" fill="currentColor">
<path d="M216.064 709.632v-78.336h-46.08v68.096c0 107.52 32.768 140.8 138.24 147.456l9.728 0.512h108.032v-46.08H300.544c-47.616-4.096-84.48-44.032-84.48-91.648z m532.992-222.208h-64l-166.4 409.6h50.688l45.056-106.496 3.072-7.168h199.68l3.072 7.168 45.056 106.496h50.688l-166.912-409.6z m-32.256 49.152l13.312 32.768 60.416 151.04 7.68 19.456h-162.816l7.68-19.456 60.416-151.04 13.312-32.768zM340.992 112.128h-46.08v79.872H130.048v256h164.864v119.808h46.08V448h164.864V191.488H340.992V112.128zM293.888 235.52v168.96H166.912V235.52h126.976z m173.056 2.56v163.328h-122.88V238.08h122.88z m141.824-39.936H721.92c50.688 0 91.648 40.96 91.648 91.648v78.336h51.2V300.032c0-77.824-60.416-142.336-138.24-147.456l-9.728-0.512h-108.032v46.08z m0 0"  ></path>
</svg>