<svg viewBox="0 0 1024 1024" xmlns="http://www.w3.org/2000/svg" fill="currentColor">
<path d="M195.2 719.88363594l-0.04363594-72.96H134.54545438v72.96a158.26909125 158.26909125 0 0 0 147.92727281 157.96363687l10.38545437 0.34909125h115.63636407v-60.56727281H292.55272719L285.65818156 817.45454562a97.87636406 97.87636406 0 0 1-90.45818156-97.57090968z m558.89454562-226.42909031H685.67272719L507.81090875 931.78181844h65.0181825l48.17454469-113.80363688 3.14181844-7.81090875h191.38909124l3.14181844 7.85454563 48.04363594 113.76h65.28l-177.90545438-438.32727282v0.04363594z m-34.21090968 77.27999999l11.52 28.88727282 53.19272812 132.96 6.76363594 17.01818156h-143.12727281l6.80727281-17.01818156 53.28-132.96 11.56363594-28.8v-0.08727281zM323.22909125 92H262.61818156l0.13090969 85.30909125H92v273.94909031h170.74909125l-0.04363687 128.11636407h60.52363687V451.34545437h170.74909031V177.22181844H323.36V92.04363594h-0.08727281zM262.74909125 237.78909125v152.98909031H152.48V237.78909125h110.26909125z m170.70545437 0v152.98909031H323.22909125V237.78909125H433.45454562z m170.74909032-42.63272719h115.68a97.83272719 97.83272719 0 0 1 97.83272812 97.74545438v73.00363593h60.39272719l0.08727281-72.96a158.26909125 158.26909125 0 0 0-147.92727281-157.96363593l-10.38545531-0.30545438h-115.63636313V195.2v-0.04363594z" fill="currentColor" ></path>
</svg>