<svg viewBox="0 0 1024 1024" xmlns="http://www.w3.org/2000/svg" fill="currentColor">
<path d="M623.85996056 286.84018326h-278.81755829v-80.28345108c0-29.21504975-20.12300491-40.20506858-44.69701768-24.42646981L150.76927376 278.08571053c-24.61649895 15.77859878-24.61649895 41.57621384 0 57.33318329l149.57611083 95.976305c24.59564209 15.77859878 44.69701767 4.76772308 44.69701768-24.44732665V339.95410156h265.52865029c146.66464806 0 225.70286751 65.7701683 225.7028675 212.4139595 0 111.24815941-43.6217308 212.4139595-225.7028675 212.41395951H238.83542251c-0.16917229 0-0.31671524 0.10582924-0.48511504 0.1266861-0.40014267-0.02162932-0.78020095-0.12668609-1.18188858-0.1266861-18.33008767 0-33.18094253 14.87093926-33.18094255 33.20102691s14.84930992 33.18094253 33.18094255 33.18094254c0.40014267 0 0.78020095-0.10582924 1.18188858-0.1266861 0.16917229 0 0.31671524 0.12668609 0.48511504 0.1266861h385.02453805c146.66464806 0 265.52865029-92.32712746 265.52865028-238.97091866v-79.65002059c0-146.66464806-118.86322975-225.70286751-265.52865028-225.70286751z m0 0z" fill="" ></path>
</svg>