<svg viewBox="0 0 1024 1024" xmlns="http://www.w3.org/2000/svg" fill="currentColor">
<path d="M342.016 379.392h356.864c14.336 0 25.6-11.264 25.6-25.6s-11.264-25.6-25.6-25.6H342.016c-14.336 0-25.6 11.264-25.6 25.6s11.264 25.6 25.6 25.6z m203.776 105.984H342.016c-14.336 0-25.6 11.264-25.6 25.6s11.264 25.6 25.6 25.6h203.776c14.336 0 25.6-11.264 25.6-25.6-0.512-14.848-11.776-25.6-25.6-25.6z m0 0"  ></path><path d="M526.848 887.808c-5.12 0-10.752-1.536-14.848-5.12l-125.952-94.72c-33.28 21.504-111.104 73.728-137.216 94.208-7.68 6.144-17.92 7.168-27.136 3.072-8.704-4.096-14.336-12.8-14.336-23.04V192c0-32.256 25.6-58.88 56.832-58.88h510.976c31.232 0 57.344 26.112 57.344 58.88v670.72c0 9.216-5.12 18.432-13.824 23.04-8.704 4.608-18.944 3.584-26.624-2.048L660.48 789.504c-14.336 11.264-31.232 24.064-48.64 37.376-25.6 18.944-52.224 38.912-66.56 53.248-5.12 5.12-11.776 7.68-18.432 7.68zM386.56 732.16c5.12 0 10.752 1.536 15.36 5.12l123.392 92.672c15.872-13.312 36.352-28.672 55.296-43.008 23.04-16.896 46.08-34.816 60.416-47.616 9.216-8.192 22.528-9.216 32.256-2.048l107.52 76.8V192c0-4.096-2.56-7.68-6.144-7.68H264.192c-3.072 0-5.632 3.072-5.632 7.68v620.544c47.104-32.768 110.592-74.752 114.176-76.8 4.096-2.56 9.216-3.584 13.824-3.584z m0 0"  ></path>
</svg>