<svg viewBox="0 0 1024 1024" xmlns="http://www.w3.org/2000/svg" fill="currentColor">
<path d="M611.84 577.024c5.632-12.288-0.512-26.624-12.8-32.256-10.752-4.608-21.504-8.704-32.256-12.288 12.288-7.68 23.552-16.896 34.304-27.648 38.4-37.888 59.392-89.088 59.392-142.848s-20.992-104.448-59.392-142.848c-38.4-37.888-89.088-58.88-142.848-58.88S353.28 181.248 315.392 219.136C276.992 257.536 256 308.224 256 361.984s20.992 104.448 59.392 142.848c10.752 10.752 22.016 19.968 34.304 27.648-9.728 3.072-19.456 6.656-28.672 10.752-41.984 17.92-79.872 43.008-112.64 75.776-32.256 32.256-57.856 70.144-75.776 112.128-18.432 43.52-27.648 89.6-27.648 137.216 0 13.312 10.752 24.576 24.576 24.576 13.312 0 24.576-10.752 24.576-24.576 0-167.424 136.704-303.616 304.64-303.616 41.984 0 82.944 8.192 121.344 25.088 12.288 5.12 26.624-0.512 31.744-12.8z m-306.688-215.04c0-84.48 68.608-153.088 153.088-153.088s153.088 68.608 153.088 153.088-68.608 153.088-153.088 153.088-153.088-68.608-153.088-153.088z m626.176 335.872c-9.728-9.728-25.088-9.728-34.816 0l-86.016 86.016-86.016-86.016c-4.608-4.608-10.752-7.168-17.408-7.168-6.656 0-12.8 2.56-17.408 7.168l-103.424 103.424c-9.728 9.728-9.728 25.088 0 34.816 9.728 9.728 25.088 9.728 34.816 0l86.016-86.016 86.016 86.016c4.608 4.608 10.752 7.168 17.408 7.168 6.144 0 12.8-2.56 17.408-7.168l103.424-103.424c9.728-9.728 9.728-25.088 0-34.816z m0 0"  ></path>
</svg>