<svg viewBox="0 0 1024 1024" xmlns="http://www.w3.org/2000/svg" fill="currentColor">
<path d="M864.256 331.8784l12.1856-35.7888c13.4656-39.9872-8.3968-83.3024-48.384-96.768L377.856 99.6352c-39.936-13.056-82.8416 8.3968-96.3072 48.384-0.4096 1.6896-4.1984 14.7456-5.0688 19.7632l-1.6896-0.4096c-19.7632-4.608-40.3968-1.6896-57.6512 8.8576-17.2544 10.0864-29.8496 27.7504-34.5088 47.104l-28.2112 114.8416c-34.5088 18.0736-56.3712 52.992-56.3712 92.5696v395.4688c0 56.7808 46.2848 103.4752 103.4752 103.4752h632.7808c57.2416-0.4096 103.4752-46.2848 103.4752-103.4752V430.7456c-0.3584-45.056-30.208-85.8624-73.5232-98.8672zM231.0656 236.8l0.4096-0.8192c3.7888-13.8752 17.664-22.3232 31.5392-18.944l456.9088 74.9056c6.7072 1.6896 12.6464 5.888 15.9744 12.1856 3.3792 5.4784 4.608 12.6464 2.9184 19.7632-0.4096 1.28-0.4096 2.5088-0.8192 4.1984H209.152l21.9136-91.2896z m94.208-61.0304l3.7888-11.3664c4.1984-13.4656 18.944-20.6336 31.9488-16.384h0.4096l450.6112 98.8672c6.2976 2.0992 11.776 6.7072 15.1552 12.6464 2.9696 6.2976 3.3792 13.056 1.28 19.7632l-15.9744 47.5648h-23.1424c5.4784-38.7072-19.3536-75.3152-57.2416-84.5824l-408.064-62.72 1.2288-3.7888z m561.664 650.0352c0 29.0304-23.552 52.992-52.5824 52.992H201.5744c-29.0304-0.4096-52.5824-23.9616-52.992-52.992V430.2848c0-29.0304 23.552-52.992 52.992-52.992h632.7808c29.0304 0 52.5824 23.9616 52.992 52.992l-0.4096 395.52z m0 0"  ></path><path d="M605.9008 668.8768h-62.2592v-39.5264h62.2592c14.7456 0 26.0608-11.3664 26.0608-26.0608 0-14.7456-11.3664-26.0608-26.0608-26.0608h-25.2416l41.6256-41.6768c10.0864-10.496 10.0864-26.5216 0-36.608a25.92768 25.92768 0 0 0-36.608 0l-67.7376 67.7376-68.096-67.7888a25.92768 25.92768 0 0 0-36.608 0c-10.0864 10.0864-10.0864 26.0608 0 36.608l41.6768 41.6768h-25.6512c-14.7456 0-26.0608 11.3664-26.0608 26.0608 0 14.7456 11.3664 26.0608 26.0608 26.0608H491.52v39.5264H429.2096c-14.7456 0-26.0608 11.3664-26.0608 26.0608 0 14.7456 11.3664 26.0608 26.0608 26.0608h62.2592v58.88c0 14.7456 11.3664 26.0608 26.0608 26.0608 14.7456 0 26.0608-11.3664 26.0608-26.0608v-58.88h62.2592c14.7456 0 26.0608-11.3664 26.0608-26.0608 0.1024-14.6432-11.264-26.0096-26.0096-26.0096z m0 0"  ></path>
</svg>