<svg viewBox="0 0 1024 1024" xmlns="http://www.w3.org/2000/svg" fill="currentColor">
<path d="M512 85.333333a128 128 0 0 1 127.445333 116.053334 375.594667 375.594667 0 0 1 243.584 411.306666 34.346667 34.346667 0 0 1-1.536 6.058667 128 128 0 1 1-128.64 220.8 33.28 33.28 0 0 1-8.618666 10.154667A373.930667 373.930667 0 0 1 512 930.133333c-86.613333 0-168.789333-29.44-234.922667-82.56a34.133333 34.133333 0 0 1-6.912-7.509333 128 128 0 0 1-127.957333-221.184 21.76 21.76 0 0 1-0.725333-3.2 375.594667 375.594667 0 0 1 243.114666-414.293333A127.914667 127.914667 0 0 1 512 85.333333zM397.013333 269.653333l-9.6 4.096a307.370667 307.370667 0 0 0-179.626666 323.797334L213.333333 597.333333a128 128 0 0 1 107.392 197.717334l-0.896-0.725334A305.706667 305.706667 0 0 0 512 861.866667c69.973333 0 136.234667-23.381333 189.994667-65.792l1.365333-0.938667A128 128 0 0 1 810.666667 597.333333l5.461333 0.170667 1.450667-11.008a307.370667 307.370667 0 0 0-190.592-316.8 128.085333 128.085333 0 0 1-229.973334 0zM213.333333 665.6a59.733333 59.733333 0 1 0 0 119.466667 59.733333 59.733333 0 0 0 0-119.466667z m597.333334 0a59.733333 59.733333 0 1 0 0 119.466667 59.733333 59.733333 0 0 0 0-119.466667z m-298.666667-512a59.733333 59.733333 0 1 0 0 119.466667 59.733333 59.733333 0 0 0 0-119.466667z"  ></path>
</svg>