<svg viewBox="0 0 1024 1024" xmlns="http://www.w3.org/2000/svg" fill="currentColor">
<path d="M738.304 97.28H218.112c-53.248 0-96.768 43.52-96.768 96.768v520.192c0 53.248 43.52 96.768 96.768 96.768h259.072c12.288 0 22.528-10.24 22.528-22.528 0-12.288-10.24-22.528-22.528-22.528H218.112c-28.672 0-52.224-23.552-52.224-52.224V194.048c0-28.672 23.552-52.224 52.224-52.224h520.192c28.672 0 52.224 23.552 52.224 52.224v217.088c0 12.288 10.24 22.528 22.528 22.528 12.288 0 22.528-10.24 22.528-22.528V194.048c-0.512-53.248-43.52-96.768-97.28-96.768z m0 0"  ></path><path d="M335.36 233.472c6.656-3.072 14.848-2.048 20.992 2.048 6.144 4.096 9.728 11.264 9.728 18.432v91.648c0 60.928 50.176 110.08 111.616 110.08s111.616-49.664 111.616-110.08V253.952c0-12.288 10.24-22.528 22.528-22.528 12.288 0 22.528 10.24 22.528 22.528v91.648c0 85.504-70.144 154.624-156.16 154.624S322.048 430.592 322.048 345.088V253.952c-0.512-9.216 5.12-16.896 13.312-20.48z m325.632 253.952c-18.944 34.304-38.4 63.488-59.392 87.552-25.6 28.672-53.248 51.2-82.432 67.584l23.552 37.888c39.424-27.136 69.632-53.248 91.648-78.336 21.504-23.552 43.008-54.784 64-92.16l-37.376-22.528z m13.312 210.944c-9.728 38.4-23.04 69.632-39.936 93.696-20.992 27.136-52.736 51.712-93.696 73.728l28.16 35.84c46.592-26.624 81.92-56.832 105.472-89.6 18.432-28.16 32.768-66.048 44.032-113.664h103.424c-2.048 65.536-7.168 108.032-14.848 128.512-7.168 18.944-23.04 28.672-45.568 28.672-23.552 0-49.664-1.024-76.288-2.048l11.776 43.008H783.36c23.552-1.536 40.448-9.216 50.688-23.04 10.752-14.336 17.92-39.424 22.528-74.752 4.608-36.352 7.168-83.456 9.216-141.824H588.8v41.472h85.504z m125.952-216.576l-37.888 21.504c28.16 71.68 77.312 130.048 147.968 175.616l29.184-34.304c-68.096-39.936-114.176-94.72-139.264-162.816z m64.512 35.84"  ></path>
</svg>