<svg viewBox="0 0 1024 1024" xmlns="http://www.w3.org/2000/svg" fill="currentColor">
<path d="M640 165.376c-0.512 0.512-1.024 0.512-2.048 1.024l-17.408 9.728c-2.56 1.024-5.632 2.048-8.192 2.048-11.776 0-22.016-9.216-22.016-22.016v-23.552c0-12.288-9.728-22.016-22.016-22.016H480.256c-12.288 0-22.016 9.728-22.016 22.016v23.552c0 12.8-10.752 22.016-22.016 22.016-3.584 0-7.68-1.024-10.752-3.072l-20.48-11.776c-3.584-2.048-7.168-3.072-10.752-3.072-7.68 0-14.848 4.096-18.944 10.752l-44.032 76.288c-6.144 10.752-2.56 24.064 8.192 29.696l20.48 11.776c13.824 8.192 14.848 27.648 2.048 36.864l-17.92 10.24c-0.512 0.512-1.536 1.024-2.048 1.536l-2.56 1.536c-7.68 4.608-11.776 12.288-11.776 19.456 0 3.584 1.024 7.68 3.072 10.752L374.784 445.44c4.096 7.168 11.776 10.752 18.944 10.752 3.584 0 7.68-1.024 10.752-3.072l20.48-11.776c3.584-2.048 7.168-3.072 10.752-3.072 11.776 0 22.016 9.216 22.016 22.016v23.04c0 12.288 9.728 22.016 22.016 22.016h88.064c12.288 0 22.016-9.728 22.016-22.016v-23.552c0-12.8 10.752-22.016 22.016-22.016 3.584 0 7.68 1.024 10.752 3.072l20.48 11.776c3.584 2.048 7.168 3.072 10.752 3.072 7.68 0 14.848-4.096 18.944-10.752L716.8 368.64c6.144-10.752 2.56-24.064-8.192-29.696l-20.48-11.776c-14.848-8.704-14.848-29.696 0-37.888l20.48-11.776c10.752-6.144 14.336-19.456 8.192-29.696l-44.032-76.288c-4.096-7.168-11.776-10.752-18.944-10.752-3.584 0-7.68 1.024-10.752 3.072l-3.072 1.536zM500.224 467.968c0-1.536-0.512-3.584-0.512-5.12-1.536-36.352-32.256-65.536-69.12-65.536-12.288 0-24.064 3.072-34.816 9.216l-1.536 1.024-22.528-38.912c6.656-4.096 12.8-9.728 17.408-15.872 11.264-12.288 17.92-29.184 17.92-46.08 0-24.576-13.312-47.616-34.816-59.904l-1.024-1.024 23.04-39.936 3.072 1.536c9.728 5.632 21.504 8.192 32.768 8.192 33.28 0 60.928-23.04 67.584-54.784 1.536-5.12 2.048-10.752 2.56-16.384h45.568v1.536c0 37.888 31.232 69.632 69.12 69.632 5.632 0 11.776-1.024 17.408-2.56 6.656-1.024 13.312-3.072 19.456-6.656l22.016 38.4-1.536 1.024c-21.504 12.288-34.816 35.328-34.816 59.904 0 24.576 13.312 47.104 34.816 59.904l1.536 1.024-23.04 39.936-1.536-1.024c-10.752-6.144-22.528-9.216-34.816-9.216-37.888 0-69.12 31.232-69.12 69.632v1.536h-45.056zM501.76 455.68"  ></path><path d="M563.712 249.856c-2.56-4.608-7.168-7.168-12.288-7.168H494.08c-5.12 0-9.728 2.56-12.288 7.168l-28.672 49.664c-2.56 4.608-2.56 9.728 0 13.824l28.672 49.664c2.56 4.608 7.168 7.168 12.288 7.168h57.344c5.12 0 9.728-2.56 12.288-7.168l28.672-49.664c2.56-4.608 2.56-9.728 0-13.824l-28.672-49.664z m-24.064 86.528h-34.304l-16.896-29.696 16.896-29.696h34.304l16.896 29.696-16.896 29.696z m5.632 152.064v50.688h256.512c32.768 0 45.056 7.68 45.056 40.448v62.976c57.344 14.848 94.72 70.144 87.04 129.024s-57.856 102.912-117.248 102.912c-59.392 0-109.568-44.032-116.736-102.912-7.168-58.88 38.4-118.784 101.376-129.024v-43.008c0-9.728-7.168-18.432-17.408-19.456h-239.104v62.976c57.344 14.848 101.888 70.144 94.208 129.024s-57.856 102.912-117.248 102.912c-59.392 0-109.568-44.544-116.736-102.912-7.168-58.88 34.816-110.592 92.672-125.44v-62.464l-225.28-1.536c-9.728 0-24.576 5.12-25.6 15.36v2.56l0.512 43.008c62.976 11.264 105.472 70.144 97.792 129.024S287.232 875.52 227.84 875.52c-59.392 0-109.568-44.544-116.736-102.912-7.168-58.88 36.352-115.712 94.208-130.56v-58.88c0-32.256 26.112-40.448 58.88-40.448l233.984 1.536v-50.688l47.104-5.12z m-22.528 189.952c-43.52 0-78.336 34.816-78.336 78.336s34.816 78.336 78.336 78.336 78.336-34.816 78.336-78.336-53.76-78.336-78.336-78.336z m294.4 1.024c-42.496 0-77.312 34.304-77.312 77.312 0 42.496 34.304 77.312 77.312 77.312s77.312-34.304 77.312-77.312c0-43.008-34.304-77.312-77.312-77.312z m-589.312 0c-42.496 0-77.312 34.304-77.312 77.312 0 42.496 34.304 77.312 77.312 77.312 42.496 0 77.312-34.304 77.312-77.312-0.512-43.008-34.816-77.312-77.312-77.312z m0 18.432"  ></path>
</svg>