<svg viewBox="0 0 1025 1024" xmlns="http://www.w3.org/2000/svg" fill="currentColor">
<path d="M307.08095989 316.81689453c0-81.69708252 67.58239747-149.32891846 149.27947998-149.32891846 81.69708252 0 149.32891846 67.63183594 149.32891846 149.32891846s-67.63183594 149.30419922-149.32891846 149.30419922c-81.72180176 0-149.27947998-67.6071167-149.27947998-149.30419922zM211.76357708 848.20635987a44.19799805 44.19799805 0 0 1-44.79125977-44.81597901c0-149.30419922 115.51300049-272.72735596 261.70257568-286.7678833h30.77545167c33.7664795-2.64495849 81.62292481-11.42028809 106.68823242-33.81591797l11.44500732-8.35510254c47.88116455-39.50134278 75.9375-95.71289063 75.9375-157.63458252C653.5210844 207.03875732 563.44340763 116.98657227 451.09446965 116.98657227c-104.0927124 0-194.09545898 90.05218506-194.09545898 199.83032226 0 61.9216919 28.08105469 118.13323974 75.96221923 157.63458252l14.04052734 8.35510254-14.0158081 5.71014404C203.40770207 539.01812744 116.49563274 662.836792 116.49563274 803.39038086a94.82299805 94.82299805 0 0 0 95.71289063 95.71289062h255.99243163c8.35510254 0 22.39562989-8.3303833 22.39562989-25.46081543 0-19.75067138-14.04052734-25.43609619-22.39562988-25.43609618H211.76357708z m649.4732666-112.39837647c-42.14630127 5.68542481-73.34197998 39.42718506-73.34197998 84.24316407 0 8.35510254 2.64495849 19.77539063 5.71014405 25.5102539l-36.46087648 19.75067139-14.0158081-14.04052735c-16.73492432-11.44500732-30.75073242-16.66076661-47.88116455-16.6607666-14.11468506 0-30.75073242 5.66070557-47.88116455 16.6607666-5.71014404 5.66070557-11.42028809 8.35510254-14.08996582 14.04052735l-33.76647949-19.75067139c2.62023926-5.73486328 5.68542481-16.71020508 5.6854248-25.5102539a84.73754883 84.73754883 0 0 0-73.34197998-84.24316407c0-5.73486328-2.66967773-16.71020508-2.66967773-28.15521241 0-8.35510254 2.66967773-19.77539063 2.66967773-28.10577392 42.09686279-5.73486328 73.34197998-39.55078125 73.34197998-84.31732178 0-8.37982177-2.62023926-19.75067138-5.6854248-25.43609618l36.46087646-19.80010987c2.62023926 2.64495849 8.28094482 8.35510254 14.04052735 11.44500732 16.63604737 11.39556885 30.75073242 16.66076661 44.815979 16.66076661 14.0158081 0 28.08105469-5.68542481 44.74182129-16.66076661 5.75958252-5.68542481 11.42028809-8.35510254 14.11468506-11.44500732l36.43615723 19.80010987c-2.62023926 5.68542481-5.75958252 16.68548584-5.75958253 25.43609618a84.83642578 84.83642578 0 0 0 73.4161377 84.31732178c0 5.68542481 2.62023926 16.68548584 2.62023926 28.10577392 3.97979737 8.3303833 0.84045411 19.75067138 0.8404541 28.15521241z m39.57550049-70.30151367c-2.69439698-14.08996583-14.11468506-25.48553467-25.48553467-25.48553467h-2.66967773c-25.41137695 0-44.74182129-19.77539063-44.74182129-44.79125977 0-5.71014404 2.62023926-14.08996583 2.62023925-16.68548584 5.66070557-14.04052734 0-30.77545166-11.44500732-39.52606201L768.61308537 510.91235352h-14.08996582c-8.28094482 0-19.72595215 2.62023926-25.43609619 11.39556885-5.71014404 5.73486328-22.42034912 19.77539063-33.79119873 19.77539062-11.44500732 0-28.1552124-14.04052734-36.51031495-19.77539062-5.66070557-5.68542481-14.04052734-11.39556885-25.46081542-11.39556885-5.66070557 0-8.30566406 0-11.42028809 2.62023925l-53.54187011 28.10577393c-11.44500732 8.35510254-16.73492432 25.46081543-11.44500734 39.50134277 0 0 2.62023926 8.37982177 2.62023927 16.71020508a44.12384033 44.12384033 0 0 1-44.7418213 44.81597901h-2.69439696c-11.42028809 0-22.39562989 11.44500732-25.46081544 25.46081542 0 2.64495849-5.68542481 22.39562989-5.6854248 42.19573975 0 16.71020508 2.62023926 39.52606201 5.6854248 42.07214356 2.66967773 14.11468506 14.0158081 25.53497315 25.46081544 25.53497314h2.69439696c25.46081543 0 44.74182129 19.77539063 44.7418213 44.815979 0 5.66070557-2.62023926 14.0158081-2.62023927 16.61132813-5.66070557 14.11468506 0 30.70129395 11.44500734 39.52606201l50.45196532 28.17993165c5.75958252-2.64495849 8.40454102-2.64495849 14.06524659-2.64495851 8.35510254 0 19.77539063-2.62023926 25.53497314-11.46972656 5.66070557-5.68542481 22.37091065-22.29675293 36.43615722-22.29675293 11.42028809 0 30.67657471 14.0158081 36.43615724 22.29675293 5.68542481 5.73486328 14.06524658 11.46972656 25.48553466 11.46972656 5.66070557 0 8.3303833 0 14.0158081-2.62023925l50.47668458-28.13049317c11.42028809-8.3303833 16.73492432-25.43609619 11.42028808-39.57550048 0 0-2.59552002-8.28094482-2.59552001-16.63604737 0-25.48553467 19.77539063-44.81597901 44.815979-44.815979h2.62023926c11.39556885 0 22.39562989-11.44500732 25.43609619-25.46081543 0 0 5.68542481-22.37091065 5.6854248-42.19573975-5.24047852-14.04052734-7.83599854-36.43615723-7.83599854-39.47662353zM695.2965971 744.11364747c-19.77539063 0-36.51031494-16.71020508-36.51031494-36.46087648 0-19.77539063 16.73492432-36.46087646 36.51031494-36.46087646 19.72595215 0 36.43615723 16.68548584 36.43615722 36.46087646 0.39550781 19.75067138-16.73492432 36.46087646-36.43615722 36.46087647z m14.0158081-112.42309572c-53.59130859-11.44500732-101.44775391 36.43615723-90.05218505 92.64770508 5.73486328 30.72601318 30.77545166 56.18682862 61.89697265 61.87225343 53.64074708 11.4944458 101.49719239-36.38671875 90.0769043-89.97802735-5.26519776-33.37097168-30.75073242-58.85650635-61.9216919-64.54193116z"  ></path>
</svg>