<svg viewBox="0 0 1024 1024" xmlns="http://www.w3.org/2000/svg" fill="currentColor">
<path d="M731.136 838.656c-3.072-5.12-8.192-8.704-14.336-10.24-6.144-1.536-12.288-0.512-17.408 3.072-52.736 33.28-114.176 51.2-177.152 51.2-63.488 0-125.44-17.92-178.688-51.712-4.096-2.56-8.192-3.584-12.288-3.584-7.68 0-15.36 3.584-19.968 10.752-6.656 10.752-3.584 25.088 7.168 32.256 60.928 38.912 131.072 59.392 203.776 59.392 71.68 0 141.312-19.968 201.728-57.856 5.12-3.584 9.216-8.704 10.24-14.336 1.024-7.68 0-13.824-3.072-18.944z m-420.352-164.352c-19.968-34.816-57.344-56.32-97.28-56.32-19.456 0-38.912 5.12-55.808 15.36-26.112 14.848-44.544 39.424-52.224 68.096-7.68 29.184-3.584 59.392 11.264 84.992 19.968 34.816 57.344 56.32 97.28 56.32 19.456 0 38.912-5.12 55.808-14.848 53.76-31.232 71.68-99.84 40.96-153.6z m-64 113.152c-10.24 5.632-21.504 8.704-32.768 8.704s-22.528-3.072-32.768-8.704-18.432-13.824-24.576-24.576c-8.704-15.36-11.264-32.768-6.656-49.664 4.608-16.896 15.36-31.232 30.72-39.936 10.24-5.632 21.504-8.704 32.768-8.704s22.528 3.072 32.256 8.704c10.24 5.632 18.432 14.336 24.576 24.576 18.432 31.232 7.68 71.68-23.552 89.6z m-80.384-194.048H167.936c6.144-0.512 11.776-3.072 15.872-7.68 4.096-4.608 6.144-10.752 5.632-16.896-0.512-5.632-0.512-11.776-0.512-19.968 0-125.44 69.12-239.104 181.248-296.448 11.264-5.632 15.872-19.968 10.24-31.232-4.096-8.192-12.288-12.8-20.992-12.8-3.584 0-7.168 1.024-10.752 2.56C287.744 242.176 236.032 289.792 199.68 348.16c-37.376 60.416-57.344 129.536-57.344 200.192 0 7.68 0 15.36 0.512 22.528 1.536 12.8 11.776 22.528 23.552 22.528zM675.84 253.44c110.592 57.856 179.2 171.008 179.2 295.424 0 7.168 0 14.848-0.512 22.016-0.512 6.144 1.536 12.288 5.632 16.896 4.096 4.608 9.728 7.68 15.872 7.68H877.568c12.288 0 22.528-9.728 23.04-21.504 0.512-8.704 1.024-16.896 1.024-25.088 0-70.656-19.456-139.776-56.832-199.168-35.84-58.368-87.04-105.472-147.456-137.216-5.632-3.072-11.776-3.584-17.92-1.536-5.632 2.048-10.752 6.144-13.824 11.264-3.072 5.12-3.584 11.264-1.536 17.408 2.56 6.144 6.144 11.264 11.776 13.824z m-152.576 56.832c61.952 0 112.128-50.176 112.128-112.128 0-61.952-50.176-112.128-112.128-112.128-61.952 0-112.128 50.176-112.128 112.128 0 61.952 50.176 112.128 112.128 112.128z m0-177.664c36.352 0 65.536 29.696 65.536 65.536 0 36.352-29.696 65.536-65.536 65.536-36.352 0-65.536-29.696-65.536-65.536 0-36.352 29.184-65.536 65.536-65.536z m362.496 502.784c-16.896-9.728-36.352-14.848-55.808-14.848-39.936 0-77.312 21.504-97.28 56.32-30.72 53.76-12.288 122.368 40.96 153.088 16.896 9.728 36.352 14.848 55.808 14.848 39.936 0 77.312-21.504 97.28-56.32 31.232-53.248 12.8-122.368-40.96-153.088z m1.024 130.048c-6.144 10.24-14.336 18.944-24.576 24.576-9.728 5.632-21.504 8.704-32.256 8.704-11.264 0-22.528-3.072-32.768-8.704-31.232-17.92-41.984-58.368-24.064-90.112 6.144-10.24 14.336-18.944 24.576-24.576 9.728-5.632 21.504-8.704 32.256-8.704 11.776 0 22.528 3.072 32.768 8.704 15.36 8.704 26.112 23.04 30.72 39.936 4.608 17.408 2.048 34.816-6.656 50.176z m0 0"  ></path>
</svg>