<svg viewBox="0 0 1024 1024" xmlns="http://www.w3.org/2000/svg" fill="currentColor">
<path d="M512 64L123.904 288.256v448.512l388.096 223.744 388.096-223.744V288.256L512 64z m329.216 638.464L512 892.416l-329.216-189.952V322.56L512 131.584 841.216 322.56v379.904z"  ></path><path d="M319.488 368.128c-14.336-7.68-32.256-2.56-40.448 11.264-8.192 13.824-3.072 31.744 10.752 39.424l192.512 110.592v219.648c0.512 16.384 13.312 29.184 29.696 29.696 16.384 0 29.696-13.312 29.696-29.696v-219.648L732.16 418.816c13.824-7.68 18.944-25.6 11.264-39.424 0-0.512-0.512-0.512-0.512-0.512-8.192-13.824-26.112-18.944-40.448-11.264L512 478.208 319.488 368.128z"  ></path>
</svg>