<svg viewBox="0 0 1024 1024" xmlns="http://www.w3.org/2000/svg" fill="currentColor">
<path d="M796.16 926.72h-547.84c-37.888 0-68.608-30.72-68.608-68.608V153.6c0-37.888 30.72-68.608 68.608-68.608h547.84c37.888 0 68.608 30.72 68.608 68.608v704.512c-0.512 37.888-31.232 68.608-68.608 68.608zM247.808 143.872c-5.632 0-9.728 4.608-9.728 9.728v704.512c0 5.632 4.608 9.728 9.728 9.728h547.84c5.632 0 9.728-4.608 9.728-9.728V153.6c0-5.632-4.608-9.728-9.728-9.728h-547.84z"  ></path><path d="M355.84 593.92h332.8v58.88h-332.8V593.92z m0 117.248h195.584v58.88H355.84v-58.88z m126.976-222.72L363.008 369.152 404.48 327.68l78.336 78.336 156.672-156.672 41.472 41.472-198.144 197.632z"  ></path>
</svg>