<svg viewBox="0 0 1024 1024" xmlns="http://www.w3.org/2000/svg" fill="currentColor">
<path d="M832 928H192c-52.8 0-96-43.2-96-96V352c0-52.8 43.2-96 96-96h96v-64c0-52.8 43.2-96 96-96h448c52.8 0 96 43.2 96 96v640c0 52.8-43.2 96-96 96zM192 320c-17.6 0-32 14.4-32 32v480c0 17.6 14.4 32 32 32h640c17.6 0 32-14.4 32-32V192c0-17.6-14.4-32-32-32H384c-17.6 0-32 14.4-32 32v544c0 17.6-14.4 32-32 32s-32-14.4-32-32V320h-96z m544 352H480c-17.6 0-32-14.4-32-32s14.4-32 32-32h256c17.6 0 32 14.4 32 32s-14.4 32-32 32z m0-256H480c-17.6 0-32-14.4-32-32s14.4-32 32-32h256c17.6 0 32 14.4 32 32s-14.4 32-32 32z"  ></path>
</svg>