<svg viewBox="0 0 1024 1024" xmlns="http://www.w3.org/2000/svg" fill="currentColor">
<path d="M525.312 564.736c-130.048 0-236.032-105.472-236.032-235.52s105.472-235.52 236.032-235.52 236.032 105.472 236.032 235.52-105.472 235.52-236.032 235.52z m0-52.736c100.864 0 182.784-81.92 182.784-182.784 0-100.864-81.92-182.784-182.784-182.784-100.864 0-182.784 81.92-182.784 182.784 0 100.864 81.92 182.784 182.784 182.784z m0 0"  ></path><path d="M918.528 904.704c0-216.576-176.128-392.704-393.216-392.704s-392.704 175.616-392.704 392.704c0 9.216 5.12 18.432 13.312 23.04 8.192 4.608 18.432 4.608 26.624 0s13.312-13.312 13.312-23.04c0-187.392 152.064-339.456 339.456-339.456 187.392 0 339.968 152.064 339.968 339.456 0 14.848 11.776 26.624 26.624 26.624 14.336-0.512 26.624-12.288 26.624-26.624z m0 0"  ></path><path d="M459.264 784.384l72.704 59.904 72.704-59.904-72.704-132.608-72.704 132.608z m212.48 13.312l-140.288 115.2-140.288-115.2 140.288-256.512 140.288 256.512z m0 0"  ></path>
</svg>