<svg viewBox="0 0 1024 1024" xmlns="http://www.w3.org/2000/svg" fill="currentColor">
<path d="M713.728 336.896c0-135.168-110.08-245.248-245.248-245.248S223.232 201.728 223.232 336.896c0 88.576 47.104 166.4 117.76 209.408-137.728 51.712-236.032 184.832-236.032 340.48 0 16.384 13.312 29.184 29.184 29.184 16.384 0 29.184-13.312 29.184-29.184 0-167.936 136.704-304.64 304.64-304.64 135.68 0 245.76-110.08 245.76-245.248z m-245.248 186.368C365.568 523.264 281.6 439.808 281.6 336.896c0-102.912 83.456-186.368 186.368-186.368 102.912 0 186.368 83.456 186.368 186.368 0.512 102.912-83.456 186.368-185.856 186.368z m468.992 216.576V691.2l-48.64-10.752c-4.608-16.896-11.264-32.256-20.48-46.08l25.6-40.448-34.304-34.304-41.984 26.624c-14.336-8.192-30.208-14.848-47.104-17.92l-10.24-46.592H711.68l-10.752 48.64c-16.896 4.608-32.256 11.264-46.08 20.48l-40.448-25.6-34.304 34.304 26.624 41.984c-8.192 14.336-14.848 30.208-17.92 47.104l-46.592 10.24v48.64l48.64 10.752c4.608 16.896 11.264 32.256 20.48 46.08l-25.6 40.448 34.304 34.304 41.984-26.624c14.336 8.192 30.208 14.848 47.104 17.92l10.24 46.592h48.64l10.752-48.64c16.896-4.608 32.256-11.264 46.08-20.48l40.448 25.6 34.304-34.304-26.624-41.984c8.192-14.336 14.848-30.208 17.92-47.104l46.592-10.24z m-301.056-20.48c0-57.344 46.592-103.424 103.424-103.424 57.344 0 103.936 46.592 103.936 103.424 0 57.344-46.592 103.424-103.424 103.424-57.344 0.512-103.936-46.08-103.936-103.424z m0 0"  ></path>
</svg>