<?xml version="1.0" standalone="no"?><!DOCTYPE svg PUBLIC "-//W3C//DTD SVG 1.1//EN" "http://www.w3.org/Graphics/SVG/1.1/DTD/svg11.dtd"><svg class="icon" width="64px" height="64.00px" viewBox="0 0 1024 1024" version="1.1" xmlns="http://www.w3.org/2000/svg"><path fill="#1a1a1a" d="M426.666667 921.514667H81.493333a34.986667 34.986667 0 0 1-34.986666-34.986667V82.688a34.986667 34.986667 0 0 1 34.986666-34.986667h713.984a34.986667 34.986667 0 0 1 34.986667 34.986667v343.893333a34.986667 34.986667 0 1 1-69.973333 0V117.76H116.48v733.866667H426.666667a34.986667 34.986667 0 1 1 0 69.973333zM620.458667 290.986667h-368.64a34.986667 34.986667 0 1 1 0-69.973334h368.64a34.986667 34.986667 0 1 1 0 69.973334zM535.125333 494.08h-283.306666a34.986667 34.986667 0 1 1 0-69.973333h283.306666a34.986667 34.986667 0 1 1 0 69.973333zM426.666667 708.778667H251.818667a34.986667 34.986667 0 1 1 0-69.973334h174.933333a34.986667 34.986667 0 1 1 0 69.973334zM718.506667 984.490667c-142.165333 0-257.706667-115.626667-257.706667-257.792s115.541333-257.792 257.706667-257.792 257.792 115.626667 257.792 257.706666-115.626667 257.877333-257.706667 257.877334z m0-445.610667c-103.594667 0-187.733333 84.224-187.733334 187.733333s84.138667 187.904 187.733334 187.904 187.818667-84.224 187.818666-187.818666-84.224-187.818667-187.733333-187.818667zM831.658667 774.485333H718.506667a34.986667 34.986667 0 0 1-34.986667-34.986666V639.146667a34.986667 34.986667 0 1 1 69.973333 0v65.365333h78.165334a34.986667 34.986667 0 1 1 0 69.973333z" /></svg>