<svg viewBox="0 0 1024 1024" xmlns="http://www.w3.org/2000/svg" fill="currentColor">
<path d="M177.664 896c-15.36-0.512-27.648-12.8-28.16-28.16 0-203.264 163.84-365.056 367.104-365.056 72.704 0 143.36 22.528 204.8 63.488 12.8 7.68 20.48 24.064 12.8 37.376-7.68 12.8-24.064 20.48-37.376 12.8-2.048-2.048-3.584-2.048-5.632-3.584-141.824-96.768-335.36-59.392-430.592 81.92-35.328 52.224-54.272 111.616-54.272 175.104-1.024 13.312-13.824 26.112-28.672 26.112z m336.896-337.408c-58.88 0-115.2-23.04-157.184-64.512-41.472-41.472-65.024-98.304-64.512-157.184 0-122.88 98.816-223.744 221.696-223.744 122.88 0 221.696 98.816 221.696 221.696 0 123.392-98.816 223.744-221.696 223.744z m0-389.12c-91.648 0-165.888 74.24-165.888 165.888s74.24 165.376 165.888 165.888c91.648 0 165.888-74.24 165.888-165.888s-74.24-165.888-165.888-165.888zM758.784 896c-9.728-0.512-18.432-5.12-24.064-12.8l-104.448-163.84c-7.68-13.312-3.584-30.208 9.216-38.912 13.312-7.68 29.696-3.584 37.376 7.68l104.448 163.84c7.68 13.312 3.584 30.72-9.216 38.912-2.048 3.072-7.68 5.12-13.312 5.12z m0 0c-15.36-0.512-27.648-12.8-28.16-28.16 0-5.632 2.048-11.264 3.584-14.848l104.448-163.84c9.216-12.8 26.112-16.896 38.912-7.68 12.8 7.68 16.896 24.064 7.68 37.376l-104.448 163.84c-4.096 8.192-12.8 13.312-22.016 13.312z m0 0"  ></path>
</svg>