<svg viewBox="0 0 1036 1024" xmlns="http://www.w3.org/2000/svg" fill="currentColor">
<path d="M435.084595 811.322163c-26.740122 0-39.900365-6.047744-47.771955-22.177075-3.18976-0.343859-10.957005-0.137114-16.459571 0.497357-12.793856 18.863616-31.691059 21.568205-47.45472 21.568205-5.433958 0-11.502387-0.317235-18.296422-0.690688-4.405555-0.248627-9.142579-0.496333-14.243942-0.68864-30.110003-1.077555-40.929792-14.50025-46.273741-27.41033-3.956224-0.346931-8.796672-0.510669-13.587968-0.470733-10.024755 8.851558-29.357773 17.51081-66.58519 17.828045-0.014336 0-0.028672 0-0.034816 0-26.568192 0-45.382451-6.767104-57.147904-20.104909-3.39753-3.864986-5.813658-7.817011-7.532851-11.626803-21.356237-2.195968-34.943283-6.848-42.663424-10.424422-27.832013-2.80279-34.473574-45.279232-37.421773-91.066061-6.082765-94.159565 51.866317-134.381568 108.123853-140.624794 14.719795-1.63625 32.201728-2.465178 51.955405-2.465178 28.611789 0 53.447475 1.720218 60.50345 2.251264 93.645517-9.975194 272.235213-156.413338 274.485555-244.526182 2.457088-95.766118 69.638861-103.209677 90.17129-103.209677 20.9152 0 39.985254 5.807309 50.845082 11.240038l2.893005 1.457152c18.836787 9.506509 62.955315 31.772672 120.040755 31.772672 20.22441 0 40.441651-2.831462 60.089958-8.409498 23.206502-6.586982 44.39593-9.920922 62.990131-9.920922 39.666995 0 60.759245 14.975078 71.475712 27.533107 12.178842 14.285312 17.432781 33.278976 14.414848 52.111872-3.733197 23.371264-0.57815 47.404646 0.697958 55.414067 30.890803 59.926835 35.137638 124.80553 37.443277 159.941734 0.516813 8.000205 1.168691 17.841357 1.893171 21.408563 13.221683 27.085926 6.419456 124.758426 1.731482 145.415885-6.559642 28.914586-8.664678 46.587085-8.664678 72.799027 0 33.526579-25.6768 48.784077-49.532109 48.784077l-1.525862-0.027648c0.994714 0.234291-159.292314-1.286246-185.536102-1.286246-33.562726 0-48.766669-23.085773-52.122214-35.29175l-0.745984-5.136998-1.215693-54.391808c-2.478592-0.938394-6.59241-2.113126-13.118259-2.996224-23.115366-3.079168-61.88288 24.164352-82.535117 42.502042-23.219814 41.108275-89.356698 50.923827-120.025395 53.272269-12.104192 25.214259-34.260685 25.877402-65.448243 26.814669l-6.876877 0.222106C439.538278 811.295539 437.23264 811.322163 435.084595 811.322163zM424.390656 768.295219c2.574746 0.385741 8.064 0.759296 16.252826 0.526029l6.973133-0.221082c12.428595-0.387789 25.276723-0.774656 28.618957-2.334208-0.199578-0.04096 0.863744-1.961677 2.306662-7.719834l3.956224-15.795712 16.31529-0.262963c27.41033-0.428749 87.761306-9.236378 99.312845-33.789542l1.75401-3.726848 3.015782-2.791629c6.62313-6.144922 70.046106-62.496358 119.696896-55.81312 24.70359 3.342131 40.189952 11.764941 47.344128 25.752474 4.342067 8.478106 4.411699 17.108685 2.61673 23.956582l1.001882 44.518912c1.208525 1.298534 4.14249 3.20297 10.550682 3.20297 26.297958 0 186.66793 1.298534 186.66793 1.298534 0.007168 0 0.02048 0 0.034816 0 7.47049 0 7.47049-2.80279 7.47049-6.349619 0-29.441536 2.450944-50.181939 9.714688-82.186854 5.784986-25.46391 6.324326-100.864205 2.202214-116.12887-4.786176-7.898931-5.455462-18.171904-6.787891-38.539776-2.284134-34.830234-6.104269-93.130035-34.162381-145.842586l-1.464422-2.748621-0.607846-3.058688c-0.303923-1.498112-7.243264-36.991488-1.457254-73.16951 0.61399-3.851674 0.807424-11.301376-4.8128-17.895629-12.530893-14.679347-46.902067-16.708506-90.607206-4.32855-23.412122 6.649446-47.522202 10.024346-71.668122 10.024346-67.178701 0-117.617459-25.447629-139.15177-36.322304l-2.754867-1.380454c-4.673638-2.339328-17.350861-6.765056-31.872205-6.765056-11.418522 0-46.175539 0-47.762739 61.8752-2.845901 111.446221-200.457523 275.59168-314.795213 285.860557l-1.83081 0.158618-1.822618-0.15145c-0.276275-0.021504-27.603763-2.258432-58.949939-2.258432-18.199245 0-34.108211 0.74496-47.274598 2.201088-28.424499 3.155866-75.375718 19.787674-70.466765 95.746662 1.954611 30.393242 5.316301 45.030605 7.463322 51.603251l4.839424 3.505869c-0.006144 0-0.006144 0-0.006144 0 0.13097 0 12.462285 6.794752 43.38688 7.788339l26.761626 0.869786-6.4 22.991667c0.200602 2.677965 9.031066 6.780416 25.201971 6.780416 25.200947-0.20777 35.267686-4.57216 38.42263-6.421197l3.100774-10.051891 14.568346-0.995635c0 0 5.509734-0.372531 13.035418-0.372531 10.218086 0 19.06903 0.678502 26.319462 1.988301 17.661952 3.21833 22.687642 17.715507 24.579789 23.184998 0.172954 0.497357 0.324403 1.034547 0.525005 1.573888 1.172787 0.387789 3.776205 0.994611 8.623718 1.159373 5.391974 0.193434 10.404352 0.469709 15.058534 0.731648 5.931315 0.319283 11.227136 0.621158 15.969382 0.621158 11.48201 0 11.916902-1.021235 14.334054-6.764032l4.364595-10.356838 11.02551-2.208256c1.518694-0.304947 15.286784-2.983936 29.164442-2.983936 13.801882 0 23.668019 2.596147 31.056589 8.11991C419.528704 759.236915 422.615142 764.596019 424.390656 768.295219zM573.974426 464.271974c0 15.22985-12.345651 27.576013-27.576115 27.576013-15.238656 0-27.583283-12.345139-27.583283-27.576013 0-15.230874 12.344627-27.576013 27.583283-27.576013C561.628774 436.695962 573.974426 449.041101 573.974426 464.271974M637.012685 380.219699c0 15.22985-12.343603 27.576013-27.569971 27.576013-15.243776 0-27.588403-12.346163-27.588403-27.576013 0-15.223706 12.343603-27.567821 27.588403-27.567821C624.669082 352.650752 637.012685 364.995891 637.012685 380.219699M494.994534 522.805043c0 15.532749-12.593357 28.132762-28.149248 28.132762-15.541555 0-28.14208-12.600013-28.14208-28.132762 0-15.541965 12.600525-28.141978 28.14208-28.141978C482.401178 494.663168 494.994534 507.262054 494.994534 522.805043"  ></path>
</svg>