<svg viewBox="0 0 1024 1024" xmlns="http://www.w3.org/2000/svg" fill="currentColor">
<path d="M188.1 313.5c-26.8 24.5-26.5 66.7 0.8 90.7l138.5 121.1c11.9 10.5 27.1 15.8 42.2 15.8 13.2 0 26.4-4.2 37.4-12.6 33.8-25.9 76-41.5 121.8-41.5s88 15.6 121.7 41.5c11.1 8.6 24.3 12.6 37.4 12.6 15.1 0 30.1-5.3 42.2-15.8l138.5-121.1c27.3-23.8 27.6-66.2 0.8-90.7-89.9-82-209.4-132.2-340.7-132.2-131.1 0-250.7 50-340.6 132.2z m645.4 45.1c0 2.1-1.3 3.1-1.7 3.5L693.3 483.3c-1.5 1.3-3.4 2-5.3 2-2 0-2.8-0.7-3.2-1-39-30.1-84.8-47.9-133.3-52.1l-77.7-145.7c-7.3-13.6-24.3-18.8-37.8-11.5-13.6 7.3-18.8 24.3-11.5 37.9l64.8 121.4c-42.2 6.6-81.7 23.5-116.2 50-0.3 0.3-1.3 1-3.2 1-2 0-3.9-0.7-5.3-2L225.9 362.1c-0.4-0.4-1.7-1.4-1.7-3.5 0-2.2 1.3-3.4 1.7-3.8 83-75.8 190.7-117.5 303-117.5 112.3 0 220 41.8 303 117.5 0.3 0.3 1.6 1.6 1.6 3.8z"  ></path><path d="M735.7 64.5H288.3c-123.1 0-223.8 100.7-223.8 223.8v447.5c0 123.1 100.7 223.8 223.8 223.8h447.5c123.1 0 223.8-100.7 223.8-223.8V288.3c-0.1-123.1-100.8-223.8-223.9-223.8z m167.9 671.2c0 92.5-75.3 167.8-167.8 167.8H288.3c-92.5 0-167.8-75.3-167.8-167.8V288.3c0-92.5 75.3-167.8 167.8-167.8h447.5c92.5 0 167.8 75.3 167.8 167.8v447.4z"  ></path><path d="M777.6 683.3c-8.6-5-19.3-5-27.9 0-8.6 5-14 14.3-14 24.3s5.3 19.3 14 24.3c8.6 5 19.3 5 27.9 0 8.6-5 13.9-14.3 13.9-24.3s-5.3-19.3-13.9-24.3zM260.1 679.5c-15.4 0-27.9 12.6-27.9 28s12.5 28 27.9 28c15.4 0 27.9-12.6 27.9-28s-12.5-28-27.9-28zM511.9 623c-61.7 0-111.7 49.2-111.7 109.9s50 109.9 111.7 109.9 111.7-49.2 111.7-109.9S573.5 623 511.9 623z m0 156.1c-26.5 0-47.9-20.7-47.9-46.3 0-25.5 21.6-46.1 47.9-46.1 26.5 0 47.9 20.7 47.9 46.1 0 25.7-21.4 46.3-47.9 46.3z"  ></path>
</svg>