<svg viewBox="0 0 1024 1024" xmlns="http://www.w3.org/2000/svg" fill="currentColor">
<path d="M372.8404232421875 444.01916181640627l301.64335576171874 0c40.47985107421875 0 73.41619482421876-32.93500869140625 73.41619482421876-73.41325839843749L747.899973828125 135.42927734375002c0-40.4871486328125-32.93634375-73.42927646484375-73.41619482421876-73.42927646484375L372.84043115234374 62c-40.47985107421875 0-73.41619482421876 32.9421287109375-73.41619482421876 73.42927646484375l0 235.17668232421875C299.4242284179688 411.084153125 332.3605721679687 444.01916181640627 372.8404232421875 444.01916181640627zM349.2547490234375 135.42924570312493c0-13.01696806640625 10.58418984375-23.601603515625 23.585673339843748-23.601603515625l301.64335576171874 0c13.00148349609375 0 23.58478388671875 10.583745117187501 23.58478388671875 23.601603515625l0 235.17668232421875c0 13.00094912109375-10.58241005859375 23.5855845703125-23.58478388671875 23.5855845703125L372.84043115234374 394.19151259765624c-13.00148349609375 0-23.585673339843748-10.58552490234375-23.585673339843748-23.5855845703125L349.2547578125 135.42927734375002zM877.1073066406251 344.362213671875l-48.50007451171875 0c-42.247946777343756 0-80.7160412109375 36.219263378906255-80.7160412109375 75.99046992187499l0 44.510384179687506c-7.43680546875-2.5470439453125-15.28626708984375-4.23584736328125-23.57588408203125-4.23584736328125L323.00988242187503 460.62721953125003c-8.297715234375 0-16.14886787109375 1.68791396484375-23.592793359375 4.2420770507812495l0-44.51660947265625c0-41.903813671875-31.849571777343748-75.99046992187499-70.99098134765626-75.99046992187499L179.92514638671872 344.36221718749994c-41.77744541015625 0-79.83208212890625 36.219263378906255-79.83208212890625 75.99046992187499L100.09306337890627 823.6772008789062c0 38.44433408203125 36.8379369140625 85.416338671875 79.83208212890625 85.416338671875l53.0589076171875 0 0 33.22048710937499 66.4401392578125 0 0-33.22048710937499 465.0863124023437 0 0 33.22048710937499 66.4410287109375 0 0-33.22048710937499 46.1557353515625 0c41.3131728515625 0 70.10871328125-45.011063671875 70.10871328125-85.416338671875L947.2159830078126 420.3526501953125C947.216019921875 377.7418267578125 916.41762265625 344.362213671875 877.1073066406251 344.362213671875zM299.4242284179688 534.0564168945313c0-13.016077734375001 10.58418984375-23.598933398437502 23.585673339843748-23.598933398437502l401.3053435546875 0c12.975676171875 0 23.5350369140625 10.542007617187501 23.57588408203125 23.51892919921875l0 119.08150664062501c-0.04093681640625 12.97425146484375-10.600208789062501 23.50113134765625-23.57588408203125 23.50113134765625L323.00988242187503 676.5590515625c-13.00148349609375 0-23.585673339843748-10.573955859375-23.585673339843748-23.58380478515625L299.424208203125 534.0564485351562zM897.3836298828124 823.6772158203125c0 17.177172363281247-11.89958291015625 35.589643945312496-20.27641201171875 35.589643945312496L179.92514638671872 859.2668606445313c-11.77775244140625 0-30.00147275390625-21.621083203125-30.00147275390625-35.589643945312496L149.9236736328125 420.3526501953125c0-12.220132324218751 15.978181640625-26.16110595703125 30.00147275390625-26.16110595703125l48.50007451171875 0c13.07347822265625 0 21.15957041015625 13.584382031250001 21.15957041015625 26.16110595703125l0 306.0357908203125 73.42513242187499 0 401.3053435546875 0 73.4082345703125 0 0-73.33052431640625c0-0.032927343750000004 0.00889892578125-0.0507251953125 0.00889892578125-0.0826734375l0-118.91965078125c0-0.024027539062500002-0.00889892578125-0.0560654296875-0.00889892578125-0.08000419921875L797.7235009765625 420.3526501953125c0-11.979141503906249 16.73853046875-26.16110595703125 30.88373994140625-26.16110595703125l48.50007451171875 0c12.691968750000001 0 20.27641201171875 13.298894824218749 20.27641201171875 26.16110595703125L897.3837283203125 823.6772008789062z"  ></path>
</svg>