<svg viewBox="0 0 1024 1024" xmlns="http://www.w3.org/2000/svg" fill="currentColor">
<path d="M873.728 322.56c0 0-1.6-2.24-2.496-3.072-10.624-10.624-28.224-10.24-38.912 0.448-8.96 8.896-9.792 24.96-4.224 32.896 0.512 0.832 0.768 1.408 1.024 1.664 73.216 117.632 94.656 262.528 55.232 399.168l-0.64 2.176L883.2 758.144c-1.984 10.304-7.04 19.712-14.464 27.2-10.112 9.856-23.296 15.424-37.568 15.424-14.08 0-27.456-5.568-37.504-15.424-2.304-2.304-4.288-4.864-6.464-7.936l-8.192-12.032c47.808-86.72 32.512-306.88-89.28-428.48C598.848 246.016 494.976 221.824 403.456 221.824c-3.264 0-11.392 0.064-12.224 0.128-0.064 0-0.128 0-0.192 0l0 0c-6.4 0.384-12.672 2.88-17.536 7.808-10.688 10.688-10.688 27.968 0 38.592 5.312 5.312 12.288 8 19.328 8 2.944-0.064 7.744 0 10.688 0 99.968 0 180.992 32.384 247.68 99.072 50.88 50.752 85.76 130.112 95.68 217.728 9.408 82.112-7.04 139.712-21.76 154.432-95.04 94.848-241.088 158.72-363.264 158.72-73.984 0-133.76-22.208-177.664-65.984-54.976-54.912-65.088-131.392-63.808-185.856C123.072 535.68 181.888 398.016 266.112 308.032c0 0 0-0.064 0.128-0.064 19.52-21.44 33.6-37.12 33.6-37.12S272.192 254.016 255.232 243.52l0.256-0.064c-0.064 0-0.128 0.064-0.256 0.064l-9.216-6.4C243.136 235.136 240.704 233.152 238.656 231.104c-20.608-20.608-20.608-54.208 0-74.816 5.44-5.44 12.032-9.6 19.52-12.224l17.216-6.208c42.816-11.712 87.04-17.664 131.776-17.664 132.608 0 257.408 51.584 351.232 145.216 7.68 7.68 14.912 15.616 22.016 23.68l25.792-25.664 0 0 10.624-10.56 2.368-2.496 0 0 71.872-71.744c12.352-12.288 12.352-32.32 0-44.672-12.48-12.288-32.512-12.288-44.8 0l-71.808 71.616c-104.384-93.312-235.84-140.032-367.296-140.032-56.448 0-112.832 8.64-167.104 25.792-0.192 0.384-0.256 0.832-0.448 1.28C225.216 97.856 211.584 106.112 200 117.632c-42.048 41.984-42.048 110.08 0 152.064C204.608 274.368 209.6 278.4 214.784 281.92c0 0.512 0 0.896 0 1.344-143.232 163.392-215.104 450.176-69.312 595.712 57.728 57.664 134.464 82.048 216.32 82.048 132.096 0 277.504-63.488 378.688-153.088 0.576 0 1.088 0 1.536 0.064 3.776 5.632 8.064 10.944 12.928 15.872 21.056 20.928 48.64 31.488 76.16 31.488s55.168-10.56 76.16-31.488c15.744-15.68 25.536-34.88 29.504-55.168C979.776 619.968 958.848 456.96 873.728 322.56z"  ></path>
</svg>