<svg viewBox="0 0 1024 1024" xmlns="http://www.w3.org/2000/svg" fill="currentColor">
<path d="M878.592 303.616c-8.704-15.872-18.944-31.232-30.208-46.08l31.744 11.776c15.36 5.632 31.744-2.048 37.376-17.408 5.632-15.36-2.048-31.744-17.408-37.376l-164.864-59.904c-15.36-5.632-31.744 2.048-37.376 17.408-1.536 4.608-2.048 9.728-1.536 14.848 1.024 8.192 5.632 16.384 13.312 20.992 101.376 65.024 161.792 175.616 161.792 295.424 0 193.536-157.184 350.72-350.72 350.72-16.384 0-29.184 13.312-29.184 29.184 0 16.384 13.312 29.184 29.184 29.184 55.296 0 109.056-10.752 159.232-32.256 48.64-20.48 92.672-50.176 130.048-87.552 37.376-37.376 67.072-81.408 87.552-130.048 21.504-50.688 32.256-103.936 32.256-159.232 1.024-70.144-16.896-139.264-51.2-199.68zM332.288 798.72c-101.376-65.024-161.792-175.616-161.792-295.424 0-193.536 157.184-350.72 350.72-350.72 16.384 0 29.184-13.312 29.184-29.184 0-16.384-13.312-29.184-29.184-29.184-55.296 0-109.056 10.752-159.232 32.256-48.64 20.48-92.672 50.176-130.048 87.552C194.56 250.88 164.864 294.912 144.384 343.552 122.88 394.24 112.128 447.488 112.128 502.784c0 70.144 17.92 138.752 51.712 199.68 8.704 15.872 18.944 31.232 30.208 46.08l-31.744-11.776c-15.36-5.632-31.744 2.048-37.376 17.408-5.632 15.36 2.048 31.744 17.408 37.376L307.2 851.456c15.36 5.632 31.744-2.048 37.376-17.408 1.536-4.608 2.048-9.728 1.536-14.848-1.536-7.68-6.144-15.872-13.824-20.48z m0 0"  ></path><path d="M492.032 707.584c0 16.384 13.312 29.184 29.184 29.184 16.384 0 29.184-13.312 29.184-29.184v-87.552h116.736c16.384 0 29.184-13.312 29.184-29.184 0-16.384-13.312-29.184-29.184-29.184h-116.736V502.784h116.736c16.384 0 29.184-13.312 29.184-29.184 0-16.384-13.312-29.184-29.184-29.184h-69.12l74.24-74.24c11.264-11.264 11.264-29.696 0-41.472-11.264-11.264-29.696-11.264-41.472 0l-109.568 109.568-108.032-108.544c-11.264-11.264-29.696-11.264-41.472 0-11.264 11.264-11.264 29.696 0 41.472L445.44 444.416H375.296c-16.384 0-29.184 13.312-29.184 29.184 0 16.384 13.312 29.184 29.184 29.184h116.736v58.368H375.296c-16.384 0-29.184 13.312-29.184 29.184 0 16.384 13.312 29.184 29.184 29.184h116.736v88.064z m0 0"  ></path>
</svg>