<svg viewBox="0 0 1024 1024" xmlns="http://www.w3.org/2000/svg" fill="currentColor">
<path d="M790.335193 147.012262c-0.37146-36.359093-30.064736-65.824171-66.51081-65.824171l-409.322479 0c-36.389792 0-66.048275 29.371958-66.509786 65.654302l-40.891316 678.797887-0.046049 1.538029c0 36.676317 29.838585 66.514903 66.514903 66.514903l11.256368 0 0 23.536043c0 14.129812 11.453866 25.582655 25.582655 25.582655s25.582655-11.452843 25.582655-25.582655l0-23.536043 354.063945 0 0 23.536043c0 14.129812 11.452843 25.582655 25.582655 25.582655s25.582655-11.452843 25.582655-25.582655l0-23.536043 15.349593 0c36.676317 0 66.514903-29.838585 66.514903-66.514903l0-0.61603L790.335193 147.012262zM280.791128 453.264271c0.243547 0.173962 0.477884 0.357134 0.723477 0.529049 19.641339 13.818727 42.753733 21.12411 66.837244 21.12411s47.195905-7.30436 66.837244-21.12411c6.65149-4.679579 12.724813-9.996678 18.186198-15.841803 5.461385 5.845125 11.535731 11.162224 18.186198 15.841803 19.641339 13.818727 42.753733 21.12411 66.836221 21.12411 24.083511 0 47.195905-7.30436 66.837244-21.12411 6.78759-4.77577 12.975523-10.212596 18.522865-16.19996 5.547343 5.987365 11.735275 11.425214 18.522865 16.200984 19.641339 13.818727 42.75271 21.12411 66.836221 21.12411 23.277146 0 45.636387-6.842849 64.842821-19.776416l5.649674 117.235075L273.615705 572.377112 280.791128 453.264271zM299.152311 147.702993c0-8.463766 6.885827-15.349593 15.349593-15.349593l409.322479 0c8.463766 0 15.349593 6.885827 15.349593 15.349593l0 0.61603 11.205203 232.503355c-0.116657 0.279363-0.23536 0.557702-0.343831 0.843204-9.513678 25.173332-33.994232 42.085514-60.917418 42.085514-26.923186 0-51.40374-16.913205-60.917418-42.086537-3.933589-10.407024-13.924127-16.747429-24.446785-16.534582-10.518564-0.207731-20.506033 6.130627-24.437575 16.535605-9.513678 25.173332-33.994232 42.085514-60.917418 42.085514-26.923186 0-51.40374-16.913205-60.917418-42.085514-3.869121-10.237155-13.600763-16.539698-23.932062-16.540721-0.047072-0.001023-0.094144-0.002047-0.140193-0.002047-0.099261 0.001023-0.198521 0.00307-0.297782 0.004093-10.298554 0.038886-19.9821 6.331195-23.839965 16.537651-9.513678 25.173332-33.995255 42.086537-60.917418 42.086537-26.923186 0-51.40374-16.913205-60.917418-42.085514-0.567935-1.50426-1.2689-2.918469-2.073218-4.244674l13.746072-228.179886L299.152311 147.702993zM756.570181 842.527902l-483.000526 0c-8.267291 0-15.029298-6.569626-15.338337-14.763239l12.302187-204.224288 491.542062 0 9.836019 204.107631C771.663948 835.895855 764.876358 842.527902 756.570181 842.527902z"  ></path><path d="M513.023306 654.239562c-42.318828 0-76.747965 34.429137-76.747965 76.747965s34.429137 76.747965 76.747965 76.747965c42.318828 0 76.747965-34.429137 76.747965-76.747965S555.342134 654.239562 513.023306 654.239562zM513.023306 756.570181c-14.106276 0-25.582655-11.476379-25.582655-25.582655s11.476379-25.582655 25.582655-25.582655 25.582655 11.476379 25.582655 25.582655S527.129582 756.570181 513.023306 756.570181z"  ></path><path d="M437.298648 218.311121l155.542542 0c14.128789 0 25.582655-11.453866 25.582655-25.582655s-11.453866-25.582655-25.582655-25.582655l-155.542542 0c-14.128789 0-25.582655 11.453866-25.582655 25.582655S423.169859 218.311121 437.298648 218.311121z"  ></path>
</svg>