<svg viewBox="0 0 1024 1024" xmlns="http://www.w3.org/2000/svg" fill="currentColor">
<path d="M399.74390000000005 83.61773017578128L171.78136894531252 83.61773017578128c-53.1813603515625 0-96.44463017578124 43.2705603515625-96.44463017578124 96.44066982421874l0 648.8003135742188c0 53.1549 43.2651603515625 96.44246982421875 96.44463017578124 96.44246982421875L399.7438569335937 925.3011833984375c53.1822603515625 0 96.44643017578124-43.2885603515625 96.44643017578124-96.44336982421875L496.190287109375 180.05935537109377C496.1921301757813 126.89008964843754 452.92696982421876 83.61773017578128 399.74390000000005 83.61773017578128zM443.58371035156244 828.8587698242187c0 24.181019824218748-19.665989648437503 43.838100000000004-43.8399 43.838100000000004L171.78136894531252 872.6968698242188c-24.1721103515625 0-43.8399-19.65708017578125-43.8399-43.838100000000004L127.94146894531252 180.05935537109377c0-24.177419824218752 19.6686896484375-43.838100000000004 43.8399-43.838100000000004L399.7438569335937 136.22125537109378c24.174810351562503 0 43.8399 19.659780175781247 43.8399 43.838100000000004L443.5837569335937 828.8587698242187zM855.6724698242188 83.61773017578128L627.7090431640625 83.61773017578128c-53.17956035156249 0-96.44553017578126 43.2705603515625-96.44553017578126 96.44066982421874l0 648.8003135742188c0 53.1549 43.2660603515625 96.44246982421875 96.44553017578126 96.44246982421875L855.6724302734376 925.3011833984375c53.1813603515625 0 96.44463017578124-43.2885603515625 96.44463017578124-96.44336982421875L952.1170604492188 180.05935537109377C952.1179999999999 126.89008964843754 908.8537396484375 83.61773017578128 855.6724698242188 83.61773017578128zM899.5095801757814 828.8587698242187c0 24.181019824218748-19.6650896484375 43.838100000000004-43.8372 43.838100000000004L627.7090431640625 872.6968698242188c-24.1712103515625 0-43.839-19.65708017578125-43.839-43.838100000000004L583.8700431640625 539.5240390625l315.64043701171875 0L899.5104801757811 828.8587698242187 899.5095801757814 828.8587698242187zM899.5095801757814 486.9214103515625L583.8700686523437 486.9214103515625 583.8700686523437 180.05935537109377c0-24.177419824218752 19.667789648437502-43.838100000000004 43.839-43.838100000000004L855.6724302734376 136.22125537109378c24.1721103515625 0 43.8372 19.659780175781247 43.8372 43.838100000000004L899.5096302734376 486.92140332031255zM163.01375000000002 171.29303017578127l245.49858017578129 0 0 52.601760351562504-245.49858017578129 0 0-52.601760351562504ZM163.01375000000002 258.9673396484375l245.49858017578129 0 0 52.6026603515625-245.49858017578129 0 0-52.6026603515625ZM163.01375000000002 346.63903964843746l245.49858017578129 0 0 52.6071603515625-245.49858017578129 0 0-52.6071603515625ZM655.4771000000001 390.47795c-16.9614 0-30.68486982421875 13.749839648437499-30.68486982421875 30.6863103515625s13.72346982421875 30.683610351562503 30.68486982421875 30.683610351562503c16.9371 0 30.68576982421875-13.7480396484375 30.68576982421875-30.683610351562503S672.4141999999999 390.47795 655.4771000000001 390.47795zM655.4771000000001 644.7455c16.9371 0 30.68576982421875-13.7696396484375 30.68576982421875-30.6872103515625 0-16.95258017578125-13.74866982421875-30.685410351562503-30.68576982421875-30.6845103515625-16.9614 0-30.68486982421875 13.73373017578125-30.68486982421875 30.6845103515625C624.7922301757812 630.9758603515626 638.5156999999999 644.7455 655.4771000000001 644.7455z"  ></path>
</svg>