<svg viewBox="0 0 1024 1024" xmlns="http://www.w3.org/2000/svg" fill="currentColor">
<path d="M642.969379 188.443883 642.969379 119.453602c0-15.703657-12.727882-28.431539-28.431539-28.431539-15.70161 0-28.429493 12.727882-28.429493 28.431539l0 82.027202c0 8.506744 3.818979 16.570397 10.394744 21.967314 1.532913 1.264806 153.637146 127.60526 153.637146 247.52549l0.022513 338.771657c-0.644683 15.770172-11.038404 154.236803-176.649256 154.236803l-52.731992 0-17.569144 0-52.706409 0c-165.633365 0-176.028109-138.466632-176.649256-153.215544l0-339.791893c0-119.587656 152.127769-246.283196 153.661705-247.52549 6.550183-5.420453 10.372232-13.46057 10.372232-21.967314l0-82.027202c0-15.703657-12.728906-28.431539-28.430516-28.431539-15.705704 0-28.430516 12.727882-28.430516 28.431539l0 68.990281C343.158059 222.115774 216.995661 343.746972 216.995661 470.974631l0.021489 340.726172c2.333138 72.320119 54.128805 209.144344 233.489822 209.144344l52.705386 0 17.569144 0 52.731992 0c179.335435 0 231.133148-136.824225 233.487775-210.077599L807.001269 470.974631C807.002292 343.746972 680.839895 222.115774 642.969379 188.443883zM386.026402 60.016909l257.787204 0c15.703657 0 28.431539-12.749372 28.431539-28.431539 0-15.724123-12.727882-28.430516-28.431539-28.430516L386.026402 3.154853c-15.705704 0-28.431539 12.70537-28.431539 28.430516C357.594863 47.267537 370.321722 60.016909 386.026402 60.016909zM417.432693 596.603887c-8.196683-13.305027-25.653263-17.457604-38.981826-9.283434-13.415544 8.172123-17.635659 25.675776-9.44 39.069831 1.37737 2.243087 34.339086 55.218626 90.978061 61.948911 4.064572 0.488117 8.106632 0.731664 12.149714 0.731664 32.341592 0 64.169485-15.437597 94.755084-46.044686 1.444908-1.422396 2.841721-3.197832 3.931542-4.907777 0.198521-0.288572 19.546172-29.918403 49.931203-33.207309 23.233144-2.397606 48.776913 10.372232 76.517721 38.115086 11.106965 11.106965 29.098735 11.106965 40.202631 0 11.106965-11.105942 11.106965-29.096688 0-40.201607-40.802288-40.803311-82.380242-59.08263-123.606179-54.351885-50.02023 5.753027-80.783885 44.491307-89.022523 56.17337-20.635993 20.079314-40.092114 29.319769-57.861826 27.276227C437.933609 628.633371 417.765267 597.114516 417.432693 596.603887z"  ></path>
</svg>