<svg viewBox="0 0 1024 1024" xmlns="http://www.w3.org/2000/svg" fill="currentColor">
<path d="M966.950679 512.007163c0-129.291668-54.293557-246.059092-141.176346-328.966337-1.37737-1.723248-2.947122-3.233648-4.710278-4.494361C739.850381 103.220896 631.235638 57.049321 511.991814 57.049321c-250.855328 0-454.943516 204.088188-454.943516 454.958866 0 36.580127 4.459568 72.119551 12.651135 106.225323 0.143263 0.986467 0.402159 1.929955 0.665149 2.88163 49.01432 198.320834 228.380454 345.836563 441.627233 345.836563 54.838979 0 107.443058-9.754155 156.171875-27.616988 0.313132-0.095167 0.599657-0.245593 0.912789-0.354064C842.768379 874.879728 966.950679 707.679681 966.950679 512.007163zM661.058874 891.060245c-39.503712-17.206894-45.356001-48.651047-45.166689-66.561975 0.417509-37.98001 26.779923-73.964572 62.702064-85.583191 74.753541-24.122397 129.735783 4.50971 155.018609 22.757307C789.050943 818.945811 729.585597 864.015286 661.058874 891.060245zM511.991814 104.57473c105.679901 0 202.072275 40.457434 274.54896 106.675578 8.443299 29.05371 20.355607 96.376001-4.076852 139.724275-12.190647 21.627577-31.961946 35.256992-60.428278 41.661865-57.798381 13.010315-101.285824 67.096141-147.326417 124.367519-71.319325 88.708368-123.734092 144.542001-200.421682 111.883183-40.099277-17.032932-56.31254-60.118216-71.999824-101.781104-18.286482-48.562019-39.016619-103.606683-101.811804-104.241133-0.216941 0-0.432859 0-0.649799 0-42.499953 0-73.821309 41.72838-95.178733 86.267782C106.206904 285.795095 288.307312 104.57473 511.991814 104.57473zM117.704772 614.69901c15.567557-62.362326 51.482535-144.307663 82.121346-144.307663 0.061398 0 0.12382 0 0.169869 0 27.398 0.278339 38.660508 22.602787 57.81373 73.469292 17.404392 46.225811 39.07904 103.776551 97.882308 128.776945 22.246677 9.452279 42.993187 13.644765 62.454424 13.644765 81.452103 0 140.395564-73.314773 193.598276-139.498124 40.703027-50.619888 79.132268-98.423637 120.717386-107.768469 41.739637-9.406231 72.495104-31.172977 91.399663-64.697511 17.117866-30.368658 21.396309-65.842591 20.475334-97.558943 47.212278 66.505693 75.086116 147.656945 75.086116 235.247862 0 77.035514-21.503756 149.141762-58.807361 210.647581-33.783431-24.1357-103.293551-59.135842-196.642612-28.960589-55.647391 17.992793-94.958722 71.566966-95.608521 130.278135-0.360204 33.609469 12.168134 63.088874 34.924417 85.011162-29.375028 6.754844-59.906391 10.44284-91.299379 10.44284C322.806034 919.42527 163.343205 789.79284 117.704772 614.69901z"  ></path>
</svg>