<svg viewBox="0 0 1024 1024" xmlns="http://www.w3.org/2000/svg" fill="currentColor">
<path d="M975.677399 539.835002c0-59.269127-26.495537-101.766697-76.635687-122.904879-28.452742-12.000009-59.530148-14.983111-84.770398-15.825392l0-0.399901L79.613088 400.704829l0 290.364462c0 155.709897 74.385628 230.565122 142.672573 260.615217l-92.582889 0 0 50.087597 651.17453 0 0-50.087597L673.383318 951.684508c25.215996-10.304533 47.546712-25.289665 66.705456-45.084845 74.050333-76.54969 74.491633-196.798781 74.213938-211.975813C915.837219 686.715849 975.677399 630.179312 975.677399 539.835002zM703.914357 871.9538c-29.839298 30.751003-70.650082 46.33801-121.311265 46.33801l-292.89506 0.032337c-6.52998-0.357528-160.00528-11.347709-160.00528-227.254809L129.702753 450.794466l634.47697 0 0.016169 242.900427C764.228176 694.81893 766.862945 807.077918 703.914357 871.9538zM814.270405 644.470711 814.270405 451.292323c20.847249 0.773565 44.781684 3.129528 65.310715 11.787999 31.387439 13.239128 46.006655 37.62305 46.006655 76.754728C925.587776 615.708138 869.708389 639.513427 814.270405 644.470711zM263.27616 0l50.091645 0 0 333.922402-50.091645 0 0-333.922402ZM430.243626 0l50.091645 0 0 333.922402-50.091645 0 0-333.922402ZM580.515629 0l50.091645 0 0 333.922402-50.091645 0 0-333.922402Z"  ></path>
</svg>