<?xml version="1.0" standalone="no"?><!DOCTYPE svg PUBLIC "-//W3C//DTD SVG 1.1//EN" "http://www.w3.org/Graphics/SVG/1.1/DTD/svg11.dtd"><svg class="icon" width="64px" height="61.25px" viewBox="0 0 1070 1024" version="1.1" xmlns="http://www.w3.org/2000/svg"><path fill="#1a1a1a" d="M1023.867543 444.939613h-22.432152A461.995527 461.995527 0 0 0 534.098875 0.035251a462.529626 462.529626 0 0 0-467.336516 444.904362H44.330207a44.864306 44.864306 0 0 0-44.330207 44.864306v177.854925a44.864306 44.864306 0 0 0 44.330207 44.864306h111.626665a44.864306 44.864306 0 0 0 44.330206-44.864306V489.803919a44.864306 44.864306 0 0 0-44.330206-44.864306H133.524719A395.767266 395.767266 0 0 1 534.098875 66.79761a395.767266 395.767266 0 0 1 400.574156 378.142003h-22.432152a44.864306 44.864306 0 0 0-44.330207 44.864306v177.854925a44.330207 44.330207 0 0 0 44.330207 44.330207h33.11413a261.708449 261.708449 0 0 1-267.049438 245.151384v66.762359a329.004907 329.004907 0 0 0 336.482292-311.913743h11.216076a44.330207 44.330207 0 0 0 44.330207-44.330207V489.803919a44.864306 44.864306 0 0 0-46.466603-44.864306zM133.524719 645.226692H66.762359v-133.524719H133.524719z m867.910672 0H934.673031v-133.524719h66.76236zM699.135427 666.056548l-47.000701-47.5348a166.638849 166.638849 0 0 1-236.071702 0l-47.000701 47.5348a232.86711 232.86711 0 0 0 330.073104 0z" /></svg>