<svg viewBox="0 0 1024 1024" xmlns="http://www.w3.org/2000/svg" fill="currentColor">
<path d="M936.1408 599.3984c-2.6112-15.0016-12.3904-24.832-25.4464-24.832h-1.3312c-18.944 0-34.6112-15.6672-34.6112-34.6112 0-4.5568 1.9456-10.4448 3.2768-13.056 5.888-13.056 1.28-29.3888-11.1104-37.888h-0.6656l-43.776-24.1664-1.3312-0.6656c-3.8912-1.9456-7.8336-2.6112-12.3904-2.6112-9.1648 0-17.6128 3.8912-23.5008 9.7792-5.2224 5.2224-19.6096 16.3328-27.4432 16.3328-8.4992 0-22.2208-11.1104-28.1088-16.3328-5.888-6.5536-15.0016-9.7792-23.5008-9.7792-4.5568 0-8.4992 0.6656-13.056 2.6112h-0.6656l-45.056 24.832-1.3312 0.6656c-11.7248 8.4992-16.3328 24.1664-10.4448 37.2224 1.3312 2.6112 3.2768 8.4992 3.2768 13.056 0 18.944-15.6672 34.6112-34.6112 34.6112h-1.9456c-12.3904 0-22.2208 9.7792-24.832 24.832 0 0.6656-3.8912 20.2752-3.8912 35.9424 0 15.6672 3.8912 34.6112 3.8912 35.9424 2.6112 14.3872 13.056 24.832 25.4464 24.832h1.3312c18.944 0 34.6112 15.6672 34.6112 34.6112 0 4.5568-1.9456 11.1104-3.2768 13.056-5.888 13.056-1.3312 29.3888 11.1104 37.888h0.6656l43.1104 24.1664 1.3312 0.6656c3.8912 1.9456 7.8336 2.6112 12.3904 2.6112 9.1648 0 18.2784-3.8912 24.1664-10.4448 6.5536-7.168 20.8896-17.6128 28.1088-17.6128 8.4992 0 22.8864 11.7248 28.7232 17.6128 5.888 6.5536 15.0016 10.4448 24.1664 10.4448 4.5568 0 8.4992-0.6656 13.056-2.6112h0.6656l44.3904-24.832 1.3312-0.6656c11.7248-8.4992 16.3328-24.1664 10.4448-37.2224-0.6656-1.9456-3.2768-8.4992-3.2768-13.056 0-18.944 15.6672-34.6112 34.6112-34.6112h1.9456c12.3904 0 22.2208-9.7792 24.832-24.832 0.6656-1.9456 3.8912-20.8896 3.8912-35.9424-1.28-14.3872-4.5568-32.0512-5.1712-35.9424z m-102.5536 130.6112c0 7.168 1.3312 14.3872 3.2768 20.2752l-26.7776 15.0016c-2.6112-2.6112-6.5536-5.888-11.7248-9.7792-14.3872-11.1104-28.7232-16.3328-42.4448-16.3328-13.056 0-27.4432 5.2224-41.7792 16.3328-4.5568 3.2768-8.4992 6.5536-11.1104 9.1648l-25.4464-14.3872c1.9456-5.2224 3.2768-13.056 3.2768-20.2752 0-37.2224-27.4432-68.5568-63.3344-74.4448-0.6656-5.888-1.9456-13.7216-1.9456-20.2752 0-6.5536 0.6656-14.3872 1.9456-20.2752 35.9424-5.888 63.3344-37.888 63.3344-74.4448 0-7.168-1.3312-14.3872-3.2768-20.2752l28.1088-15.6672c2.6112 2.6112 6.5536 5.888 11.7248 9.1648 14.3872 10.4448 28.1088 15.6672 41.1648 15.6672 13.056 0 26.7776-5.2224 41.1648-15.0016 4.5568-3.2768 8.4992-6.5536 11.1104-9.1648l26.7776 15.0016c-1.9456 5.2224-3.2768 12.3904-3.2768 20.2752 0 37.2224 27.4432 68.5568 63.3344 74.4448 0.6656 5.888 1.9456 13.7216 1.9456 20.2752 0 6.5536-0.6656 14.3872-1.9456 20.2752-36.6592 5.888-64.1024 37.2224-64.1024 74.4448z"  ></path><path d="M756.48 564.7872c-38.5536 0-69.888 31.3344-69.888 69.888s31.3856 69.888 69.888 69.888c38.5024 0 69.888-31.3344 69.888-69.888s-31.3344-69.888-69.888-69.888z m0 99.2768c-15.6672 0-28.7232-13.056-28.7232-28.7232 0-15.6672 13.056-28.7232 28.7232-28.7232 15.6672 0 28.7232 13.056 28.7232 28.7232 0.0512 15.616-13.0048 28.7232-28.7232 28.7232z"  ></path><path d="M479.5904 925.952h-5.888c-3.8912 0-6.5536-0.6656-9.7792-1.9456l-3.2768-1.3312-339.6096-207.6672c-1.9456-1.3312-3.8912-2.6112-5.2224-4.5568l-0.6656-0.6656c-6.5536-4.5568-10.4448-11.7248-10.4448-19.6096V305.5104c0-1.9456 0-3.2768 0.6656-5.2224v-1.9456c-1.3312-5.888-0.6656-11.1104 1.9456-15.6672 2.6112-4.5568 5.888-7.8336 10.4448-9.7792l0.6656-0.6656c1.9456-1.28 3.2768-2.6112 5.2224-3.2768l333.7728-172.4416c5.2224-3.8912 11.1104-6.5536 16.9984-6.5536 3.2768 0 5.888 0.6656 9.1648 1.9456l352.7168 176.9984 0.6656 0.6656c5.2224 2.6112 9.1648 5.888 11.7248 10.4448 1.9456 3.2768 2.6112 7.168 2.6112 11.1104 0 1.9456 0.6656 3.2768 0.6656 4.5568v101.2224c0 12.3904-10.4448 23.5008-23.5008 23.5008-12.3904 0-23.5008-10.4448-23.5008-23.5008V329.6256L503.0912 498.7904v364.4416l84.9408-47.0016c3.2768-1.9456 6.5536-2.6112 10.4448-2.6112 8.4992 0 16.3328 4.5568 20.2752 12.3904 3.2768 5.2224 3.8912 11.1104 1.9456 17.6128-1.9456 5.888-5.888 10.4448-11.1104 13.7216L492.6976 922.624c-1.3312 0.6656-1.9456 1.3312-2.6112 1.9456-3.328 1.3824-7.8848 1.3824-10.496 1.3824z m-329.1648-248.1664l306.3296 186.112V507.9552L150.4256 333.568v344.2176z m23.5008-384.0512l296.4992 170.496 307.6096-172.4416-303.0016-152.2176-301.1072 154.1632z"  ></path><path d="M395.9808 598.7328c-3.8912 0-6.5536-0.6656-9.7792-1.9456l-3.2768-1.3312-164.608-96c-5.2224-3.2768-9.1648-8.4992-11.1104-14.3872-1.3312-5.888-0.6656-12.3904 3.2768-18.2784 3.8912-7.168 11.7248-11.7248 19.6096-11.7248 4.5568 0 9.1648 1.28 13.056 3.8912l165.2224 96c5.2224 3.2768 9.1648 8.4992 11.1104 14.3872 1.3312 5.888 0.6656 12.3904-3.2768 18.2784-4.5568 7.2192-11.7248 11.1104-20.224 11.1104z"  ></path>
</svg>