<svg viewBox="0 0 1024 1024" xmlns="http://www.w3.org/2000/svg" fill="currentColor">
<path d="M812.99989 296.639071 628.637975 156.769486c-10.505261-7.971555-25.441439-5.921873-33.412994 4.582365-7.952112 10.467399-5.904477 25.440415 4.582365 33.375132l174.939311 132.736117 0 56.487525L240.746598 383.950625l0-56.394405 181.178409-135.921669c10.541077-7.895831 12.663414-22.833031 4.768607-33.375132-7.91732-10.5421-22.852474-12.664438-33.376155-4.767584L202.603883 296.565393c-5.997598 4.50664-9.535167 11.546987-9.535167 19.071358l0 518.055926c0 42.949184 34.939767 77.886905 77.906347 77.886905l473.544153 0c42.966581 0 77.906347-34.938744 77.906347-77.886905L822.425563 315.63675C822.42454 308.167638 818.942229 301.146735 812.99989 296.639071zM774.746658 431.629531l0 257.46384L240.746598 689.093371l0-257.46384L774.746658 431.629531zM744.518193 863.903745 270.97404 863.903745c-16.669658 0-30.228465-13.55983-30.228465-30.210046l0-96.9204 534.00006 0 0 96.9204C774.746658 850.343915 761.188874 863.903745 744.518193 863.903745z"  ></path><path d="M394.900513 129.651872l235.207953 0c13.167904 0 23.838941-10.652618 23.838941-23.838941 0-13.149485-10.671037-23.838941-23.838941-23.838941L394.900513 81.97399c-13.167904 0-23.838941 10.69048-23.838941 23.838941C371.061572 118.999255 381.733633 129.651872 394.900513 129.651872z"  ></path>
</svg>