<svg viewBox="0 0 1030 1024" xmlns="http://www.w3.org/2000/svg" fill="currentColor">
<path d="M516.022447 80.448934z m-81.598205 0q0 34.478114 24.134681 58.038159T516.022447 162.047138q33.328844 0 57.463524-23.560045t24.13468-57.463524q0-33.903479-24.13468-57.463524T516.022447 0q-33.328844 0-57.463524 23.560045T434.424242 80.448934zM198.823793 214.91358z m-79.299663 0q0 32.179574 23.560045 55.739619T198.823793 294.213244q32.179574 0 55.739619-23.560045T278.123457 214.91358q0-32.179574-23.560045-55.739618T198.823793 135.613917q-32.179574 0-55.739618 23.560045T119.52413 214.91358z m-47.12009 296.511785z m-72.40404 0q0 19.537598 9.768799 36.20202t26.433221 25.858586q16.664422 9.194164 35.627385 9.194164t35.627385-9.194164q16.664422-9.194164 26.433221-25.858586T143.65881 511.425365q0-29.881033-21.261504-51.142537t-50.567901-21.261504q-29.306397 0-50.567901 21.261504T0 511.425365z m189.62963 322.945005z m-62.060606 0q0 26.433221 17.813692 44.821549t43.672278 18.388328q25.858586 0 44.246914-18.388328t18.388328-44.246913q0-25.858586-18.388328-44.246914t-44.246914-18.388328q-25.858586 0-43.672278 18.388328T127.569024 834.37037z m390.751964 135.613917z m-54.015713 0q0 13.791246 7.470258 26.433221t20.112234 20.112234q12.641975 7.470258 27.007856 7.470258t27.007856-7.470258q12.641975-7.470258 19.537598-20.112234t6.895623-27.007856q0-14.365881-6.895623-27.007856t-19.537598-19.537598q-12.641975-6.895623-27.007856-6.895623t-27.007856 6.895623q-12.641975 6.895623-20.112234 19.537598t-7.470258 27.582491z m388.453423-124.121212z m-39.075196 0q0 16.089787 11.492705 27.007857t27.582491 10.918069q16.089787 0 27.582492-10.918069t11.492705-27.007857q0-16.089787-11.492705-27.582491t-27.582492-11.492705q-16.089787 0-27.582491 11.492705t-11.492705 27.582491z m189.629629-335.586981z m-27.582491 0q0 11.492705 8.044893 19.537598t18.962963 8.044894q10.91807 0 19.537598-8.044894t8.619529-19.537598q0-11.492705-8.619529-19.537598t-19.537598-8.044893q-10.91807 0-18.962963 8.044893t-8.044893 19.537598z m-63.209877-289.616161z m-19.537598 0q0 11.492705 9.768799 17.239057t19.537598 0q9.768799-5.746352 9.768799-17.239057t-9.768799-17.239058q-9.768799-5.746352-19.537598 0t-9.768799 17.239058z"  ></path>
</svg>