<svg viewBox="0 0 1031 1024" xmlns="http://www.w3.org/2000/svg" fill="currentColor">
<path d="M998.940262 42.799821 54.312155 42.799821c-17.383629 0-31.48841 14.103245-31.48841 31.486157l0 293.874097c0 17.381888 14.104781 31.485133 31.48841 31.485133l115.455159 0 0 514.275833c0 17.381888 14.102733 31.487181 31.48841 31.487181L851.998717 945.408222c17.382605 0 31.48841-14.104269 31.48841-31.487181L883.487126 399.645073l115.453112 0c17.385677 0 31.48841-14.103245 31.48841-31.485133L1030.428648 74.28589C1030.427648 56.902963 1016.325939 42.799821 998.940262 42.799821zM683.491123 105.77408c-3.731149 22.262067-13.037466 52.64087-36.03927 76.829798-25.78944 27.140096-64.021709 40.895386-113.629491 40.895386-113.570202 0-147.681382-73.775309-158.012109-117.724262L683.491144 105.775002zM232.743117 882.435789l0-41.98216 587.768184 0 0 41.98216L232.743135 882.435789zM967.452877 336.67287 851.998717 336.67287c-17.385677 0-31.48841 14.104269-31.48841 31.487181l0 430.311513L232.743135 798.471564 232.743135 368.159988c0-17.382912-14.104781-31.487181-31.48841-31.487181L85.799554 336.672807 85.799554 105.774045l247.43125 0c10.804531 54.158438 51.024179 159.706419 200.591565 159.706419 61.560525 0 110.021222-18.141184 144.052634-53.953843 32.635597-34.313523 44.073574-76.932198 48.010342-105.752576L967.452853 105.774045 967.452853 336.672856z"  ></path>
</svg>