<svg viewBox="0 0 1024 1024" xmlns="http://www.w3.org/2000/svg" fill="currentColor">
<path d="M518.1952 544.4608c-3.072 0-9.1648 0-12.2368-3.072L108.544 358.6048c-12.2368-6.0928-18.3296-15.2064-18.3296-27.4432 0-12.1856 6.0928-21.3504 18.3296-27.392l397.4656-182.784c9.1648-3.072 18.3296-3.072 24.4224 0l397.4656 182.784c12.2368 6.0928 18.3296 15.2064 18.3296 27.392 0 12.1856-6.0928 21.3504-18.3296 27.4432l-397.4656 182.784c-3.072 3.072-9.1648 3.072-12.2368 3.072z m-324.096-213.248l324.096 149.2992 324.096-149.2992-324.096-149.2992-324.096 149.2992z m0 0"  ></path><path d="M518.1952 727.2448c-3.072 0-9.1648 0-12.2368-3.072l-397.4656-182.784C93.184 535.296 87.04 517.0176 93.184 501.76c6.144-15.2576 24.4736-21.2992 39.7824-15.2064l385.2288 176.6912 385.2288-176.6912c15.2576-6.0928 33.6384 0 39.7824 15.2064 6.0928 15.2064 0 33.4848-15.2576 39.6288l-397.4656 182.784c-3.1232 3.072-9.216 3.072-12.288 3.072z m0 0"  ></path><path d="M518.1952 910.0288c-3.072 0-9.1648 0-12.2368-3.072l-397.4656-182.784c-15.2576-6.0928-21.4016-24.3712-15.2576-39.6288 6.144-15.2064 24.4736-21.2992 39.7824-15.2064l385.2288 176.6912 385.2288-176.6912c15.2576-6.0928 33.6384 0 39.7824 15.2064 6.0928 15.2064 0 33.4848-15.2576 39.6288l-397.4656 182.784c-3.1744 3.072-9.2672 3.072-12.3392 3.072z m0 0"  ></path>
</svg>