<svg viewBox="0 0 1024 1024" xmlns="http://www.w3.org/2000/svg" fill="currentColor">
<path d="M947.339264 238.078976C920.210432 146.250752 818.006016 99.546112 813.668352 97.605632L798.408704 90.760192l-12.526592 11.091968c-5.469184 4.844544-134.853632 119.92064-206.180352 229.307392-11.227136 17.246208-21.792768 33.672192-31.84128 49.289216-97.71008 151.938048-140.254208 218.036224-272.169984 212.898816-5.301248-0.88576-19.414016-2.90304-38.221824-2.90304-77.79328 0-134.634496 33.045504-160.022528 93.059072-46.882816 110.866432 86.84032 206.138368 91.517952 209.370112 5.738496 4.467712 60.082176 43.608064 198.280192 43.608064 17.789952 0 36.49536-0.666624 55.286784-1.967104 3.528704-0.200704 86.571008-6.078464 117.970944-97.847296 50.900992-148.724736 122.24512-274.942976 172.028928-305.463296 2.548736 0.28672 6.126592 1.073152 7.985152 3.241984 1.199104 1.36704 4.864 7.189504 2.312192 24.419328-9.72288 65.654784 0.472064 335.301632 0.912384 346.74688l0.96256 24.9344 97.864704 0-0.708608-26.611712c-0.083968-3.485696-7.967744-350.178304 95.466496-509.830144C952.01792 340.562944 962.111488 288.069632 947.339264 238.078976zM873.802752 365.913088c-73.418752 113.319936-95.366144 302.94528-101.64736 424.65792-2.040832-88.050688-2.970624-190.758912 1.958912-224.118784 4.135936-27.904-0.673792-50.071552-14.331904-65.888256-22.299648-25.864192-57.347072-20.960256-57.331712-20.960256l-4.5568 0.666624-3.731456 1.857536c-77.606912 38.812672-157.712384 206.196736-202.718208 337.742848-19.888128 58.10688-70.06208 62.71488-72.205312 62.884864-17.87904 1.230848-35.386368 1.865728-51.995648 1.865728-120.201216 0-166.305792-32.600064-167.488512-33.453056-1.062912-0.7424-104.767488-75.96032-74.533888-147.465216 21.458944-50.745344 72.87808-61.400064 112.247808-61.400064 17.845248 0 30.455808 2.331648 30.507008 2.33984l3.816448 0.448512c163.41504 7.064576 217.540608-77.786112 319.676416-236.585984 9.99424-15.5392 20.512768-31.873024 31.686656-49.016832 54.663168-83.842048 149.322752-174.737408 183.94624-206.804992 25.22112 14.56128 75.565056 49.153024 90.570752 100.312064C907.869184 287.73888 899.83488 325.732352 873.802752 365.913088z"  ></path>
</svg>