<svg viewBox="0 0 1024 1024" xmlns="http://www.w3.org/2000/svg" fill="currentColor">
<path d="M661.063475 509.93705l65.152512-241.958707L607.099187 156.10839l-98.497229 73.18784-99.715072-74.983834L290.520371 268.528845l73.224602 241.739674L14.107853 793.510502l142.623027 145.367859 124.071731-107.372442 109.085798 105.506918 122.210304-105.691136 115.165594 106.223309L743.188173 829.246362l112.670618 109.797683 156.235571-144.739533L661.063475 509.93705zM412.677427 215.882854l95.755674 72.019251 95.151923-70.712525 69.995008 65.747456-57.124352 212.164096-208.271811 0-64.436122-212.715725L412.677427 215.882854zM743.877939 764.376986 627.06985 873.504358l-113.960038-105.09353L391.661978 873.423565l-109.09911-105.502822L159.35785 874.528768l-75.594752-77.043712 315.325235-255.451034 227.040016 0 314.340864 254.654874-83.784602 77.609574L743.877939 764.376986zM437.38921 128.740147c12.062208 0 21.823898-9.778688 21.823898-21.825024 0-12.046336-9.76169-21.824102-21.823898-21.824102-12.046848 0-21.809562 9.777664-21.809562 21.824102C415.578624 118.961357 425.342362 128.740147 437.38921 128.740147zM504.995738 128.740147c12.062208 0 21.82185-9.778688 21.82185-21.825024 0-12.046336-9.760666-21.824102-21.82185-21.824102-12.047872 0-21.80137 9.777664-21.80137 21.824102S492.94889 128.740147 504.995738 128.740147zM572.608307 128.740147c12.06528 0 21.823898-9.778688 21.823898-21.825024 0-12.046336-9.760666-21.824102-21.823898-21.824102-12.045824 0-21.808538 9.777664-21.808538 21.824102S560.562483 128.740147 572.608307 128.740147z"  ></path>
</svg>