<svg viewBox="0 0 1024 1024" xmlns="http://www.w3.org/2000/svg" fill="currentColor">
<path d="M381.952 541.184h-31.232v-16.384h31.232c14.848 0 25.6-8.704 25.6-19.968s-11.776-19.968-25.6-19.968h-17.408L402.432 419.84c4.096-6.656 5.12-14.848 3.584-20.992-1.024-5.12-4.608-9.728-9.216-12.288-10.24-5.632-24.576 0-31.232 12.288l-26.624 49.664c-9.728 17.92-10.24 19.456-10.24 19.456l-0.512 1.024c-12.8-24.576-35.84-67.584-36.864-70.144-6.656-12.288-21.504-17.92-31.744-11.776-4.608 3.072-8.192 7.68-9.728 12.8-2.048 6.656-0.512 14.336 3.072 20.48L288.256 481.28l2.048 3.584H271.36c-14.848 0-25.6 8.704-25.6 19.968s11.776 19.968 25.6 19.968h33.28v16.384H271.36c-14.848 0-25.6 8.704-25.6 19.968 0 10.752 10.24 18.944 24.064 19.968h35.328v20.992c0 14.336 10.24 25.6 22.528 25.6 12.8 0 22.528-11.264 22.528-25.088v-22.016h36.352c12.8-2.048 20.48-9.728 20.48-19.456 0.512-11.264-10.24-19.968-25.088-19.968z"  ></path><path d="M811.52 358.912c81.92 0 148.48-66.56 148.48-148.48s-66.56-148.48-148.48-148.48-148.48 66.56-148.48 148.48c0 13.312 1.536 25.088 4.608 37.376l-137.216 91.136c-5.632-6.656-11.264-13.312-17.92-19.456-50.176-50.176-116.224-77.312-186.88-77.312s-137.216 27.136-186.88 77.312S61.44 435.712 61.44 506.368s27.136 137.216 77.312 186.88c50.176 50.176 116.224 77.312 186.88 77.312 70.144 0 136.704-27.136 186.368-76.8l144.384 100.864c-6.144 14.336-9.216 30.208-9.216 46.592 0 67.584 54.784 122.368 122.368 122.368s122.368-54.784 122.368-122.368-54.784-122.368-122.368-122.368c-29.184 0-55.808 10.24-76.8 27.136l-142.848-99.84c26.112-41.984 40.448-90.624 40.448-140.8 0-41.472-9.728-81.92-27.136-117.76l131.584-87.552c27.648 35.84 69.632 58.88 116.736 58.88z m0-245.76c53.76 0 97.28 43.52 97.28 97.28s-43.52 97.28-97.28 97.28-97.28-43.52-97.28-97.28c0.512-53.76 44.032-97.28 97.28-97.28z m-40.96 666.112c34.304 0 61.952 27.648 61.952 61.952 0 34.304-27.648 61.952-61.952 61.952-34.304 0-61.952-27.648-61.952-61.952 0-34.304 27.648-61.952 61.952-61.952zM327.168 711.68c-113.152 0-205.312-92.16-205.312-205.312s92.16-205.312 205.312-205.312 205.312 92.16 205.312 205.312C531.456 619.52 439.808 711.68 327.168 711.68z"  ></path>
</svg>