<svg viewBox="0 0 1024 1024" xmlns="http://www.w3.org/2000/svg" fill="currentColor">
<path d="M816.128 156.16l4.096 6.656 93.696 183.296c5.12 6.656 7.168 30.72 5.632 38.912v442.88c0 29.184-22.528 53.248-51.712 56.32l-6.144 0.512H191.488c-29.184 0.512-54.272-21.504-57.856-50.688l-0.512-6.144v-69.632c0-15.36 12.288-28.16 27.648-29.696 15.872-1.024 26.624 9.216 28.672 24.576l0.512 4.608v61.44c-1.024 4.096 0 7.68 3.584 10.24 3.072 2.56 8.192 3.584 14.336 3.072h618.496c17.92 0 32.256-14.336 32.256-32.256V402.944c0-4.096-1.536-8.704-4.608-11.776-3.072-3.072-7.168-4.608-11.776-4.608h-624.64c-7.68-1.024-14.336 0-18.944 2.56-3.584 2.048-6.144 6.144-6.144 11.776v25.6c0 14.336-3.072 36.864-23.552 36.864l-5.12 0.512c-14.848 0-27.136-10.24-30.208-24.576l0.512-4.096-0.512-56.832c-1.536-8.192 2.56-33.792 8.192-40.448l91.136-175.104c13.312-26.112 39.424-43.52 68.608-46.08l8.192-0.512h433.152c29.696 0 57.344 14.848 73.216 39.936z m-462.336 489.472c1.536 13.824-9.728 26.112-25.6 28.16l-5.12 0.512H155.648c-15.872 0-29.184-10.24-30.72-24.064-1.536-13.824 9.728-26.112 25.6-28.16l5.12-0.512h167.424c15.872 0 29.184 10.752 30.72 24.064z m111.616-120.832c1.536 13.824-9.728 26.112-25.6 28.16l-5.12 0.512H155.648c-15.872 0-29.184-10.24-30.72-24.064-1.536-13.824 9.728-26.112 25.6-28.16l5.12-0.512h279.04c15.872 0 29.184 10.752 30.72 24.064zM304.64 169.984c-8.192 0-15.872 3.584-20.992 9.728l-2.56 4.096L204.8 334.336h643.072l-75.776-150.528c-3.584-7.168-10.752-12.288-18.432-13.312l-5.12-0.512H304.64z m0 0"  ></path>
</svg>