<svg viewBox="0 0 1024 1024" xmlns="http://www.w3.org/2000/svg" fill="currentColor">
<path d="M366.4896 86.1696H197.0688c-54.5792 0-99.0208 44.4416-99.0208 99.0208V354.304c0 54.5792 44.4416 99.0208 99.0208 99.0208h169.4208c54.5792 0 99.0208-44.4416 99.0208-99.0208V185.2416c0-54.6304-44.4416-99.072-99.0208-99.072z m46.6432 268.1344c0 25.7024-20.9408 46.6432-46.6432 46.6432H197.0688c-25.7024 0-46.6432-20.9408-46.6432-46.6432V185.2416c0-25.7024 20.9408-46.6432 46.6432-46.6432h169.4208c25.7024 0 46.6432 20.9408 46.6432 46.6432V354.304z m498.3296-87.808c-14.4384 0-26.2144 11.7248-26.2144 26.2144V354.304c0 25.7024-20.9408 46.6432-46.6432 46.6432H669.184c-25.7024 0-46.6432-20.9408-46.6432-46.6432V185.2416c0-25.7024 20.9408-46.6432 46.6432-46.6432h169.4208c10.7008 0 20.7872 3.584 29.1328 10.3424 11.264 9.1136 27.7504 7.3216 36.8128-3.9424s7.3216-27.7504-3.9424-36.8128a99.0464 99.0464 0 0 0-62.0544-21.9648H669.184c-54.5792 0-99.0208 44.4416-99.0208 99.0208V354.304c0 54.5792 44.4416 99.0208 99.0208 99.0208h169.4208c54.5792 0 99.0208-44.4416 99.0208-99.0208V292.7104c0-14.4384-11.6736-26.2144-26.1632-26.2144zM366.4896 558.7968H197.0688c-54.5792 0-99.0208 44.4416-99.0208 99.0208v169.1136c0 54.5792 44.4416 99.0208 99.0208 99.0208h169.4208c54.5792 0 99.0208-44.4416 99.0208-99.0208v-169.1136c0-54.5792-44.4416-99.0208-99.0208-99.0208z m46.6432 268.1344c0 25.7024-20.9408 46.6432-46.6432 46.6432H197.0688c-25.7024 0-46.6432-20.9408-46.6432-46.6432v-169.1136c0-25.7024 20.9408-46.6432 46.6432-46.6432h169.4208c25.7024 0 46.6432 20.9408 46.6432 46.6432v169.1136z m425.472-268.1344H669.184c-54.5792 0-99.0208 44.4416-99.0208 99.0208v169.1136c0 54.5792 44.4416 99.0208 99.0208 99.0208h169.4208c54.5792 0 99.0208-44.4416 99.0208-99.0208v-169.1136c0-54.5792-44.3904-99.0208-99.0208-99.0208z m46.6944 268.1344c0 25.7024-20.9408 46.6432-46.6432 46.6432h-169.4208c-25.7024 0-46.6432-20.9408-46.6432-46.6432v-169.1136c0-25.7024 20.9408-46.6432 46.6432-46.6432h169.4208c25.7024 0 46.6432 20.9408 46.6432 46.6432v169.1136z"  ></path><path d="M891.8528 175.9744l-117.6576 117.6576c-4.0448 4.0448-10.5984 4.0448-14.6432 0l-40.0896-40.0896c-10.24-10.24-26.7776-10.24-37.0176 0s-10.24 26.8288 0 37.0688l40.0896 40.0896c12.2368 12.2368 28.3136 18.3296 44.3904 18.3296 16.0768 0 32.1536-6.0928 44.3904-18.3296l117.6576-117.6576c10.24-10.24 10.24-26.8288 0-37.0688-10.2912-10.24-26.88-10.24-37.12 0z"  ></path>
</svg>