<svg viewBox="0 0 1024 1024" xmlns="http://www.w3.org/2000/svg" fill="currentColor">
<path d="M806.144 943.616H217.8048a61.7472 61.7472 0 0 1-60.3136-49.3056l-70.912-348.16a61.44 61.44 0 0 1 17.7664-56.7296c57.7024-54.3232 99.2256-143.36 113.8176-244.0704a512 512 0 0 0 3.8912-114.688 46.5408 46.5408 0 0 1 12.0832-35.2768 46.08 46.08 0 0 1 33.792-14.7968H332.8a46.08 46.08 0 0 1 46.08 46.08V360.96a125.7984 125.7984 0 0 0 40.4992 92.16 124.16 124.16 0 0 0 95.0272 32.9728c64.6656-5.12 115.3536-61.44 115.3536-128.3584V126.464a46.08 46.08 0 0 1 46.08-46.08h85.3504a46.08 46.08 0 0 1 33.792 14.7968 46.5408 46.5408 0 0 1 12.0832 35.2768 512 512 0 0 0 3.8912 114.688C825.1392 343.04 865.28 430.592 920.7808 485.2736a60.7744 60.7744 0 0 1 16.7936 55.6544l-71.0656 353.28a61.7984 61.7984 0 0 1-60.3648 49.408zM273.4592 131.584a562.0224 562.0224 0 0 1-4.608 120.8832c-16.2304 112.0256-63.4368 211.9168-129.4336 274.0224a10.24 10.24 0 0 0-2.6624 9.2672l70.8608 348.16a10.24 10.24 0 0 0 10.24 8.2944h588.288a10.24 10.24 0 0 0 10.24-8.2944l71.1168-353.28a10.24 10.24 0 0 0-2.5088-9.0624c-63.4368-62.3616-108.8512-160.512-124.6208-269.312a562.0224 562.0224 0 0 1-4.608-120.8832H680.96v226.2528c0 93.3888-71.3728 172.2368-162.56 179.2a174.7968 174.7968 0 0 1-133.7856-46.4384A177.0496 177.0496 0 0 1 327.68 360.96V131.584z"  ></path>
</svg>