<svg viewBox="0 0 1024 1024" xmlns="http://www.w3.org/2000/svg" fill="currentColor">
<path d="M686.4896 222.2592a22.4768 22.4768 0 0 1-10.752-15.36L650.24 49.3568A22.1696 22.1696 0 0 0 628.3776 30.72H397.312a22.1696 22.1696 0 0 0-21.9136 18.6368l-25.6 157.2864a22.3232 22.3232 0 0 1-10.752 15.36 337.6128 337.6128 0 0 0-0.768 578.9696 22.528 22.528 0 0 1 10.6496 15.36l26.368 158.0032a22.1696 22.1696 0 0 0 22.016 18.944h231.0656a22.2208 22.2208 0 0 0 21.9136-18.5344l26.3168-158.0032a22.528 22.528 0 0 1 10.6496-15.36 337.5616 337.5616 0 0 0-0.768-578.9696z m-280.32-42.2912l14.7968-91.6992A7.6288 7.6288 0 0 1 428.4416 81.92h168.96a7.5264 7.5264 0 0 1 7.4752 6.3488L619.52 179.968a7.5264 7.5264 0 0 1-9.5744 8.448 336.3328 336.3328 0 0 0-194.304 0 7.4752 7.4752 0 0 1-9.472-8.448z m214.016 663.9104l-15.36 92.16a7.5776 7.5776 0 0 1-7.4752 6.2976h-168.96a7.5264 7.5264 0 0 1-7.424-6.2976l-15.36-92.16a7.4752 7.4752 0 0 1 9.5232-8.448 337.1008 337.1008 0 0 0 195.5328 0 7.5264 7.5264 0 0 1 9.5232 8.448z m-88.576-45.7728a286.72 286.72 0 1 1 267.3664-267.3664 287.0784 287.0784 0 0 1-267.3664 267.3664z"  ></path><path d="M690.2272 501.76H537.6V379.8528a26.2144 26.2144 0 0 0-20.48-26.0608 25.6 25.6 0 0 0-30.72 25.088v148.48a25.6 25.6 0 0 0 25.6 25.6h179.2a25.6 25.6 0 0 0 25.088-30.72 26.3168 26.3168 0 0 0-26.0608-20.48z"  ></path>
</svg>