<svg viewBox="0 0 1024 1024" xmlns="http://www.w3.org/2000/svg" fill="currentColor">
<path d="M811.5712 124.0064a62.208 62.208 0 0 0-79.9232 0 449.8944 449.8944 0 0 0-83.3536 92.416 217.2928 217.2928 0 0 0-36.7616 128c-43.776-28.7744-107.8272-22.016-136.0384-17.1008-5.12 0.8704-10.5472 2.2528-17.152 3.84C434.1248 337.0496 389.12 348.16 364.3392 332.8a93.4912 93.4912 0 0 1 99.1232-158.72 25.6 25.6 0 1 0 27.136-43.4176 144.6912 144.6912 0 1 0-153.6 245.4016c42.9568 26.8288 99.4816 13.1072 133.12 5.12 5.7344-1.3824 10.7008-2.6112 13.8752-3.1232 38.656-6.7584 87.04-5.9904 107.52 16.4352 12.9536 14.336 14.7456 39.0656 5.4272 73.3184a390.7584 390.7584 0 0 1-18.176 51.2 397.1072 397.1072 0 0 1-192.6656 198.656 192.5632 192.5632 0 0 0-7.1168-57.6512c-19.5072-69.376-74.24-119.9104-139.3664-128.7168l-10.9568-1.4848-8.4992 6.912a153.6 153.6 0 0 0-25.1904 26.0608 166.4 166.4 0 0 0-127.744 7.3216l-9.8816 5.12-3.072 10.6496c-18.2272 63.1296 5.9904 133.5296 61.44 179.2a185.9072 185.9072 0 0 0 106.9568 42.6496h0.4608A164.3008 164.3008 0 0 0 281.6 841.9328a87.4496 87.4496 0 0 1 17.7664 7.5264 445.44 445.44 0 0 0 512-725.4528zM101.12 611.1232a116.0704 116.0704 0 0 1 69.632-2.2016 185.6 185.6 0 0 0-2.2016 110.2848 189.44 189.44 0 0 0 8.96 24.8832 141.9776 141.9776 0 0 1-29.0304-18.3808c-35.84-29.3888-53.9648-74.3936-47.36-114.5856z m224.3584 194.56a138.24 138.24 0 0 0-27.9552-12.1856c-37.3248-12.1344-67.8912-46.08-79.7184-87.9104-12.5952-44.8-1.9456-92.16 26.4192-121.1904 39.4752 10.24 73.1136 44.8512 85.7088 89.6512a136.4992 136.4992 0 0 1 1.792 68.352 31.2832 31.2832 0 0 0 41.2672 36.6592 444.8768 444.8768 0 0 0 138.24-83.1488 364.4416 364.4416 0 0 0 140.6464 143.36 394.24 394.24 0 0 1-326.6048-33.8432z m431.1552-20.1728a395.3152 395.3152 0 0 1-42.8544 26.9824 311.7056 311.7056 0 0 1-164.1472-154.4192A451.7376 451.7376 0 0 0 603.2896 583.68a361.2672 361.2672 0 0 0 248.064 99.0208h3.2256a394.24 394.24 0 0 1-97.9456 102.5536zM883.9168 629.76a308.7872 308.7872 0 0 1-256.4608-94.208 442.2656 442.2656 0 0 0 35.84-174.4896c0-5.4272 0-10.8032-0.3072-16.1792a166.7072 166.7072 0 0 1 28.0064-99.9424 396.4928 396.4928 0 0 1 73.8304-81.92 11.1104 11.1104 0 0 1 14.1312 0A394.5472 394.5472 0 0 1 897.024 332.8a17.4592 17.4592 0 0 0-2.304 2.4576 241.8176 241.8176 0 0 1-152.576 92.16 25.6 25.6 0 0 0 4.3008 50.8416 31.744 31.744 0 0 0 4.3008-0.3584 292.6592 292.6592 0 0 0 162.4064-85.8624 393.1136 393.1136 0 0 1-29.2352 237.7216z"  ></path><path d="M776.3968 299.9808m-26.4704 0a26.4704 26.4704 0 1 0 52.9408 0 26.4704 26.4704 0 1 0-52.9408 0Z"  ></path>
</svg>