<svg viewBox="0 0 1024 1024" xmlns="http://www.w3.org/2000/svg" fill="currentColor">
<path d="M851.2 326.144V238.2848a154.2656 154.2656 0 0 0-154.112-154.112h-370.176a154.2656 154.2656 0 0 0-154.112 154.112V326.144a121.4464 121.4464 0 0 0-95.6928 118.528v335.6672a75.7248 75.7248 0 0 0 75.6224 75.6736h126.3616v53.9648a25.6 25.6 0 0 0 51.2 0v-53.9648h368.64v53.9648a25.6 25.6 0 0 0 51.2 0v-53.9648h121.0368a75.7248 75.7248 0 0 0 75.6224-75.6736V444.672a121.4464 121.4464 0 0 0-95.5904-118.528zM326.912 135.3728h370.176a103.0144 103.0144 0 0 1 102.912 102.912V326.144a121.4464 121.4464 0 0 0-95.6416 118.528v89.856a120.3712 120.3712 0 0 0-69.4784-22.0672H389.12a120.3712 120.3712 0 0 0-69.5296 22.0672V444.672A121.4464 121.4464 0 0 0 224 326.144V238.2848a103.0144 103.0144 0 0 1 102.912-102.912z m-7.2704 497.7664A69.5808 69.5808 0 0 1 389.12 563.6608h245.76a69.5808 69.5808 0 0 1 69.5296 69.4784v38.7584H319.6416z m576.0512 147.2a24.4736 24.4736 0 0 1-24.4224 24.4736H152.7296a24.4736 24.4736 0 0 1-24.4224-24.4736V444.672a70.0928 70.0928 0 1 1 140.1344 0v230.7584a47.7696 47.7696 0 0 0 47.7184 47.6672h391.68a47.7696 47.7696 0 0 0 47.7184-47.6672V444.672a70.0928 70.0928 0 1 1 140.1344 0z"  ></path>
</svg>