<svg viewBox="0 0 1024 1024" xmlns="http://www.w3.org/2000/svg" fill="currentColor">
<path d="M953.088 436.736L800.768 115.0976a54.784 54.784 0 0 0-49.2544-31.1296H678.912a54.8864 54.8864 0 0 0-43.6736 21.4016c-26.624 35.328-72.704 56.32-123.2384 56.32s-96.6144-21.0944-123.2384-56.32a54.8864 54.8864 0 0 0-43.7248-21.4016H272.4352a54.6304 54.6304 0 0 0-49.152 31.0784L70.912 435.968a54.4768 54.4768 0 0 0 39.7312 76.8l101.7344 17.9712a3.2768 3.2768 0 0 1 2.6624 3.2256v353.536A54.4768 54.4768 0 0 0 269.4656 942.08h485.0688A54.4768 54.4768 0 0 0 808.96 887.6544v-353.28a3.2256 3.2256 0 0 1 2.6624-3.2256l101.632-17.7152a54.4256 54.4256 0 0 0 39.8336-76.8z m-46.336 24.7808a3.0208 3.0208 0 0 1-2.304 1.6896L808.96 479.8464V445.44a25.6 25.6 0 0 0-51.2 0v442.2144a3.2256 3.2256 0 0 1-3.2256 3.2256H269.4656a3.2256 3.2256 0 0 1-3.2256-3.2256V445.44a25.6 25.6 0 0 0-51.2 0v33.9456l-95.488-16.896a2.8672 2.8672 0 0 1-2.304-1.6896 3.0208 3.0208 0 0 1 0-2.8672l152.2688-320.9216a3.2256 3.2256 0 0 1 2.9184-1.8432h72.6016a3.6352 3.6352 0 0 1 2.816 1.0752C384 184.32 445.44 212.992 512 212.992s128-28.672 164.1472-76.8a3.4816 3.4816 0 0 1 2.7648-1.0752h72.6016a3.2768 3.2768 0 0 1 2.9696 1.8432l152.32 321.6384a3.0208 3.0208 0 0 1-0.0512 2.9184z"  ></path><path d="M604.16 778.24H394.24a25.6 25.6 0 0 0 0 51.2h209.92a25.6 25.6 0 0 0 0-51.2z"  ></path>
</svg>