<svg viewBox="0 0 1024 1024" xmlns="http://www.w3.org/2000/svg" fill="currentColor">
<path d="M316.16 527.36h391.68a54.5792 54.5792 0 0 0 53.76-64.1024l-26.1632-148.224A120.8832 120.8832 0 0 0 616.2432 215.04H407.7568a120.8832 120.8832 0 0 0-119.1936 99.9936l-26.1632 148.48A54.5792 54.5792 0 0 0 316.16 527.36z m22.8352-203.4176A69.7344 69.7344 0 0 1 407.7568 266.24h208.4864a69.7344 69.7344 0 0 1 68.7616 57.7024l26.1632 148.224a3.2256 3.2256 0 0 1-0.7168 2.7648 3.328 3.328 0 0 1-2.6112 1.2288h-391.68a3.328 3.328 0 0 1-2.6112-1.2288 3.2256 3.2256 0 0 1-0.7168-2.7648z"  ></path><path d="M891.904 477.1328l-49.408-268.1344A148.9408 148.9408 0 0 0 696.0128 87.04H327.9872a148.9408 148.9408 0 0 0-146.4832 121.9584L132.096 477.1328A116.8384 116.8384 0 0 0 30.72 592.7936v150.7328A116.7872 116.7872 0 0 0 147.3536 860.16h49.4592a117.76 117.76 0 0 0 220.7744 0h204.1856a117.76 117.76 0 0 0 220.7744 0h34.0992A116.7872 116.7872 0 0 0 993.28 743.5264v-150.7328a116.8384 116.8384 0 0 0-101.376-115.6608z m50.176 266.24A65.4848 65.4848 0 0 1 876.6464 808.96H801.28l-3.584 21.3504a66.56 66.56 0 0 1-131.072 0l-3.584-21.3504h-286.72l-3.584 21.3504a66.56 66.56 0 0 1-131.072 0l-3.584-21.3504H147.3536A65.4848 65.4848 0 0 1 81.92 743.5264v-150.7328A65.4848 65.4848 0 0 1 147.3536 527.36h27.5456l56.9344-309.0432A97.792 97.792 0 0 1 327.9872 138.24h368.0256a97.792 97.792 0 0 1 96.1536 80.0768L849.1008 527.36h27.5456A65.4848 65.4848 0 0 1 942.08 592.7936z"  ></path><path d="M294.4 593.92A89.6 89.6 0 1 0 384 683.52 89.7024 89.7024 0 0 0 294.4 593.92z m0 128a38.4 38.4 0 1 1 38.4-38.4 38.4 38.4 0 0 1-38.4 38.4zM724.48 593.92a89.6 89.6 0 1 0 89.6 89.6 89.7024 89.7024 0 0 0-89.6-89.6z m0 128a38.4 38.4 0 1 1 38.4-38.4 38.4 38.4 0 0 1-38.4 38.4z"  ></path>
</svg>