<svg viewBox="0 0 1024 1024" xmlns="http://www.w3.org/2000/svg" fill="currentColor">
<path d="M750.336 209.92H645.12V134.8096A63.1808 63.1808 0 0 0 581.9904 71.68H436.8896A63.1808 63.1808 0 0 0 373.76 134.8096V209.92H273.664A89.4464 89.4464 0 0 0 184.32 299.264v527.872A89.4464 89.4464 0 0 0 273.664 916.48H373.76v20.48a25.6 25.6 0 0 0 51.2 0v-20.48h168.96v20.48a25.6 25.6 0 0 0 51.2 0v-20.48h105.216A89.4464 89.4464 0 0 0 839.68 827.136V299.264A89.4464 89.4464 0 0 0 750.336 209.92zM424.96 134.8096A11.9296 11.9296 0 0 1 436.8896 122.88h145.1008a11.9296 11.9296 0 0 1 11.9296 11.9296V209.92H424.96z m363.52 692.3264a38.1952 38.1952 0 0 1-38.144 38.144h-476.672a38.1952 38.1952 0 0 1-38.144-38.144V299.264A38.1952 38.1952 0 0 1 273.664 261.12h476.672a38.1952 38.1952 0 0 1 38.144 38.144z"  ></path><path d="M399.36 363.52a25.6 25.6 0 0 0-25.6 25.6v353.28a25.6 25.6 0 0 0 51.2 0V389.12a25.6 25.6 0 0 0-25.6-25.6zM619.52 363.52a25.6 25.6 0 0 0-25.6 25.6v353.28a25.6 25.6 0 0 0 51.2 0V389.12a25.6 25.6 0 0 0-25.6-25.6z"  ></path>
</svg>