<svg viewBox="0 0 1024 1024" xmlns="http://www.w3.org/2000/svg" fill="currentColor">
<path d="M538.8288 37.3248A342.784 342.784 0 0 0 178.2272 391.168a341.9648 341.9648 0 0 0 135.68 262.5024 83.3024 83.3024 0 0 1 33.1776 72.3456l-7.936 112.64a51.2 51.2 0 0 0 51.2 54.6816h7.5264a132.6592 132.6592 0 0 0 242.5856 0h12.3904a51.2 51.2 0 0 0 51.2-54.6816l-7.936-112.64a84.0192 84.0192 0 0 1 33.6384-72.704A343.04 343.04 0 0 0 538.8288 37.3248zM483.6352 303.1552h70.6048l-18.0224 334.9504H501.76z m101.12 386.1504h63.232a134.0416 134.0416 0 0 0-3.5328 36.8128H398.336a133.8368 133.8368 0 0 0-3.4816-36.8128h189.9008z m-65.792 231.9872a81.3056 81.3056 0 0 1-61.44-27.7504h122.4704a81.3056 81.3056 0 0 1-61.0304 27.7504z m-128.7168-78.848l4.5568-65.1264h253.2352l4.608 65.024z m308.0704-229.8368a139.3664 139.3664 0 0 0-25.6 25.6h-85.1968l20.7872-386.1504h-178.688l20.9408 386.048H370.3296a139.52 139.52 0 0 0-25.6-25.1904 292.5056 292.5056 0 0 1-28.16-441.3952 288.768 288.768 0 0 1 204.3392-83.456c5.12 0 10.24 0 15.36 0.3584a292.096 292.096 0 0 1 162.048 524.1856z"  ></path>
</svg>