<svg viewBox="0 0 1024 1024" xmlns="http://www.w3.org/2000/svg" fill="currentColor">
<path d="M766.7712 66.56H257.2288A101.1712 101.1712 0 0 0 156.16 167.6288v688.7424A101.1712 101.1712 0 0 0 257.2288 957.44h509.5424a101.1712 101.1712 0 0 0 101.0688-101.0688V167.6288A101.1712 101.1712 0 0 0 766.7712 66.56z m49.8688 789.8112a49.92 49.92 0 0 1-49.8688 49.8688H257.2288a49.92 49.92 0 0 1-49.8688-49.8688V167.6288A49.92 49.92 0 0 1 257.2288 117.76h509.5424a49.92 49.92 0 0 1 49.8688 49.8688z"  ></path><path d="M690.0736 143.36H333.9264A78.0288 78.0288 0 0 0 256 221.2864v473.9072A78.0288 78.0288 0 0 0 333.9264 773.12h356.1472A78.0288 78.0288 0 0 0 768 695.1936V221.2864A78.0288 78.0288 0 0 0 690.0736 143.36zM716.8 695.1936a26.7264 26.7264 0 0 1-26.7264 26.7264H333.9264a26.7264 26.7264 0 0 1-26.7264-26.7264V221.2864A26.7264 26.7264 0 0 1 333.9264 194.56h356.1472a26.7264 26.7264 0 0 1 26.7264 26.7264z"  ></path><path d="M506.88 829.44m-35.84 0a35.84 35.84 0 1 0 71.68 0 35.84 35.84 0 1 0-71.68 0Z"  ></path>
</svg>