<svg viewBox="0 0 1024 1024" xmlns="http://www.w3.org/2000/svg" fill="currentColor">
<path d="M886.1184 395.4176c-59.8016-132.7616-141.9264-227.6864-237.6192-274.5344a299.3664 299.3664 0 0 0-132.5056-31.5392c-125.9008 0-243.2 81.3056-330.3424 228.9664-84.6336 143.36-131.2256 333.568-131.2256 535.3984a25.6 25.6 0 0 0 51.2 0c0-19.4048 0.5632-38.656 1.4336-57.8048L296.96 846.7968v6.912a25.6 25.6 0 0 0 51.2 0v-3.6864l576.2048-63.8464c1.2288 22.272 1.9456 44.8 1.9456 67.5328a25.6 25.6 0 0 0 51.2 0c0.0512-166.9632-31.5904-325.4784-91.392-458.2912z m9.3696 189.0816l-93.3376 10.24c-7.2704-92.16-40.3456-172.9536-87.04-212.4288-23.552-19.8656-49.92-28.8256-76.3392-26.0096C558.08 364.7488 501.76 482.8672 509.3888 626.0224l-142.592 15.36A972.8 972.8 0 0 1 432.4352 422.4c51.6608-117.2992 124.3136-205.7216 204.8-249.6C756.224 237.5168 849.92 391.68 895.488 584.4992z m-335.104 35.84c-5.5296-120.32 38.9632-208.7424 83.712-213.5552 12.3392-1.28 25.088 3.4816 37.8368 14.2336 36.4544 30.72 63.3856 100.5056 69.3248 178.7904zM229.7856 344.32c77.5168-131.4304 179.2-203.776 286.208-203.776A240.3328 240.3328 0 0 1 578.56 148.992C450.816 237.5168 356.096 414.976 316.8768 629.76l-172.4928-46.08a24.6784 24.6784 0 0 0-7.936-0.7168c21.0432-88.32 52.48-169.3696 93.3376-238.6432zM126.1568 631.296a26.8288 26.8288 0 0 0 5.12 1.9456L308.7872 680.96q-7.68 55.3984-10.24 113.3056l-187.8016-50.2784q4.9664-57.9072 15.4112-112.6912z m223.232 167.0656q2.4064-53.0944 9.216-104.3968a25.6 25.6 0 0 0 4.4032 0.4608 25.6 25.6 0 0 0 10.24-2.2016L906.24 634.88c6.144 32.5632 11.008 66.048 14.336 100.2496z"  ></path>
</svg>