<svg viewBox="0 0 1024 1024" xmlns="http://www.w3.org/2000/svg" fill="currentColor">
<path d="M848.384 81.92H175.6672a128 128 0 0 0-128 128v241.7152A85.76 85.76 0 0 0 72.448 512a85.76 85.76 0 0 0-24.7808 60.3648V814.08a128 128 0 0 0 128 128H848.384a128 128 0 0 0 128-128V209.92a128 128 0 0 0-128-128z m76.8 732.16a76.8 76.8 0 0 1-76.8 76.8H175.6672a76.8 76.8 0 0 1-76.8-76.8v-241.7152a34.7648 34.7648 0 0 1 34.7136-34.7648h589.568a76.8 76.8 0 0 1 0 153.6H322.56a25.6 25.6 0 0 0 0 51.2h400.5888a128 128 0 0 0 76.0832-230.8608A128 128 0 0 0 721.92 281.6H321.3312a25.6 25.6 0 1 0 0 51.2H721.92a76.8 76.8 0 0 1 0 153.6H133.5808a34.7648 34.7648 0 0 1-34.7136-34.7648V209.92a76.8 76.8 0 0 1 76.8-76.8H848.384a76.8 76.8 0 0 1 76.8 76.8z"  ></path>
</svg>