<svg viewBox="0 0 1024 1024" xmlns="http://www.w3.org/2000/svg" fill="currentColor">
<path d="M983.7056 581.9392l-126.72-303.5136a131.1232 131.1232 0 0 0-126.8224-98.4064H295.5776a131.072 131.072 0 0 0-125.3888 93.3376l-0.9216-0.4096-128.9728 309.1456a156.3136 156.3136 0 0 0 85.1456 203.6736 154.2144 154.2144 0 0 0 49.8176 11.3152 131.072 131.072 0 0 0 120.32 79.36h434.5856a131.072 131.072 0 0 0 120.3712-79.4624 155.904 155.904 0 0 0 133.12-215.04z m-896 19.712l76.8-184.6272v327.2704a103.2704 103.2704 0 0 1-19.7632-5.9392 104.9088 104.9088 0 0 1-57.1392-136.704z m722.2784 143.872a79.7696 79.7696 0 0 1-79.7184 79.7184h-434.688a79.7696 79.7696 0 0 1-79.7184-79.7184V310.9376a79.7696 79.7696 0 0 1 79.7184-79.7184h434.5856a79.8208 79.8208 0 0 1 77.5168 61.44l0.6144 1.3824a79.36 79.36 0 0 1 1.792 16.8448z m69.2736-7.168a99.1744 99.1744 0 0 1-18.0736 5.4784v-322.56l75.3152 180.3264a105.0624 105.0624 0 0 1-57.344 136.7552z"  ></path><path d="M379.64431 446.739502m-50.080021 11.819959a51.456 51.456 0 1 0 100.160042-23.639917 51.456 51.456 0 1 0-100.160042 23.639917Z"  ></path><path d="M644.321901 446.698535m-36.384886 36.384887a51.456 51.456 0 1 0 72.769773-72.769774 51.456 51.456 0 1 0-72.769773 72.769774Z"  ></path><path d="M609.8944 692.0192a115.5072 115.5072 0 0 1-66.2016-70.3488 61.952 61.952 0 0 0 19.7632-46.08c0-32.4608-23.04-58.8288-51.2-58.8288S460.8 542.72 460.8 575.3856a61.9008 61.9008 0 0 0 19.8144 46.08 115.5072 115.5072 0 0 1-66.2016 70.3488 25.6 25.6 0 1 0 19.2512 47.4624 166.5024 166.5024 0 0 0 78.336-65.6896 166.8608 166.8608 0 0 0 78.6432 65.8944 25.6 25.6 0 0 0 19.2512-47.4624z"  ></path>
</svg>