<svg viewBox="0 0 1024 1024" xmlns="http://www.w3.org/2000/svg" fill="currentColor">
<path d="M965.9904 393.4208c0-102.4-77.568-185.7536-172.9024-185.7536a162.4064 162.4064 0 0 0-57.4464 10.5984C698.9312 119.9616 609.28 53.4528 509.44 53.4528s-189.44 66.56-226.2016 164.8128a162.4064 162.4064 0 0 0-57.4464-10.5984c-95.3344 0-172.9024 83.3536-172.9024 185.7536 0 82.3296 49.152 151.9616 118.3232 176.384l25.6 313.8048a93.1328 93.1328 0 0 0 92.16 85.1456h440.9344a93.1328 93.1328 0 0 0 92.16-85.1456l25.6-313.9072c68.8128-24.6272 118.3232-94.3104 118.3232-176.2816z m-194.56 486.0416a41.6768 41.6768 0 0 1-41.3184 38.0928H288.9728a41.6768 41.6768 0 0 1-41.3184-38.0928l-24.1152-297.984h571.8016z m21.8624-351.4368H221.696c-65.7408-2.6112-117.248-61.44-117.248-134.4512-0.3584-74.3424 54.272-134.7072 121.344-134.7072a111.0528 111.0528 0 0 1 54.8864 14.5408L286.72 276.48h32.8704l5.12-19.0976C348.16 167.5264 424.1408 104.6528 509.44 104.6528s161.28 62.8736 185.0368 152.9344l5.12 19.0976H732.16l5.8368-3.2768a111.0528 111.0528 0 0 1 54.8864-14.5408c67.1232 0 121.7024 60.3648 121.7024 134.5536S860.16 528.0256 793.088 528.0256z"  ></path><path d="M378.88 837.632a25.6 25.6 0 0 0 25.6 22.528 21.3504 21.3504 0 0 0 3.1232 0 25.6 25.6 0 0 0 22.4768-28.672l-20.48-168.96a25.6 25.6 0 1 0-51.2 6.144zM606.208 860.16a21.3504 21.3504 0 0 0 3.1232 0 25.6 25.6 0 0 0 25.344-22.528l20.48-168.96a25.6 25.6 0 1 0-50.7904-6.144l-20.48 168.96a25.6 25.6 0 0 0 22.3232 28.672zM466.9952 148.48A141.1584 141.1584 0 0 0 368.64 247.2448a25.6 25.6 0 1 0 49.408 13.4144 89.8048 89.8048 0 0 1 62.5152-62.9248A25.6 25.6 0 0 0 466.9952 148.48z"  ></path>
</svg>