<svg viewBox="0 0 1024 1024" xmlns="http://www.w3.org/2000/svg" fill="currentColor">
<path d="M884.6848 496.3328a36.4032 36.4032 0 0 0-28.7744-13.9776h-276.8896c41.984-37.376 78.7968-89.1392 104.9088-149.0432 42.6496-97.7408 49.7152-203.2128 18.5344-275.3024A39.4752 39.4752 0 0 0 678.9632 35.84a41.3696 41.3696 0 0 0-33.6384 3.4304c-57.9072 31.7952-110.7456 91.3408-147.3024 165.2736-35.328-34.0992-73.6256-57.8048-111.8208-69.0688a39.6288 39.6288 0 0 0-32.2048 3.8912 41.2672 41.2672 0 0 0-18.8416 28.0064c-13.824 70.9632 1.792 158.72 42.8544 240.1792A473.5488 473.5488 0 0 0 424.96 482.3552H153.6a36.5056 36.5056 0 0 0-35.4304 45.2608l26.2656 106.3424a62.208 62.208 0 0 0 57.1904 47.3088l45.1584 236.7488a72.704 72.704 0 0 0 71.3728 59.0848H691.2a72.8064 72.8064 0 0 0 71.68-59.0848l45.1072-236.7488a62.3104 62.3104 0 0 0 57.2928-47.3088l26.2656-106.3424a36.5056 36.5056 0 0 0-6.8608-31.2832zM659.968 89.9584c20.224 59.1872 11.8272 143.36-22.9376 222.8736-29.6448 67.8912-75.776 125.3376-124.928 156.2112-20.48-59.2384-11.8272-143.36 22.9376-222.9248 29.5936-67.8912 75.7248-125.3376 124.928-156.16z m-276.48 98.56C414.72 200.4992 447.1296 223.8976 476.16 255.5392 454.5024 316.6208 446.3104 378.88 452.4032 433.1008a435.6096 435.6096 0 0 1-28.672-48.6912c-33.2288-66.1504-47.9232-138.3936-40.192-195.8912z m328.9088 719.9232a21.4528 21.4528 0 0 1-21.0944 17.4592H318.3104a21.504 21.504 0 0 1-21.0944-17.4592l-43.264-227.0208h501.76z m102.9632-286.72a11.2128 11.2128 0 0 1-10.8544 8.5504H205.1584a11.1616 11.1616 0 0 1-10.5984-8.6016l-21.8112-88.1152h664.4224z"  ></path>
</svg>