<svg viewBox="0 0 1024 1024" xmlns="http://www.w3.org/2000/svg" fill="currentColor">
<path d="M437.0432 419.84a51.8656 51.8656 0 0 0 1.792-13.312V249.1392A199.2704 199.2704 0 0 0 239.8208 50.1248a52.8384 52.8384 0 0 0-52.736 52.736v303.4112a51.8656 51.8656 0 0 0 1.792 13.312 89.2416 89.2416 0 0 0-45.1072 77.5168v387.4816a89.344 89.344 0 0 0 89.2416 89.2928h159.8976a89.3952 89.3952 0 0 0 89.2928-89.2928V497.1008A89.2928 89.2928 0 0 0 437.0432 419.84zM238.2848 102.8608a1.5872 1.5872 0 0 1 1.536-1.536 147.968 147.968 0 0 1 147.8144 147.8144v157.1328a1.536 1.536 0 0 1-1.536 1.536H239.8208a1.536 1.536 0 0 1-1.536-1.536z m192.7168 781.7216a38.144 38.144 0 0 1-38.0928 38.0928H233.0112a38.0928 38.0928 0 0 1-38.0416-38.0928V497.1008a38.0928 38.0928 0 0 1 38.0416-38.0928h159.8976a38.144 38.144 0 0 1 38.0928 38.0928zM807.168 417.5872l69.4272-191.0272a59.9552 59.9552 0 0 0-42.496-78.8992c-39.6288-9.3696-89.9072-14.1312-149.504-14.1312-58.6752 0-107.52 4.6592-145.4592 13.7728a59.8016 59.8016 0 0 0-42.0864 78.7456l69.632 191.5392a56.32 56.32 0 0 0 29.5936 31.9488 69.1712 69.1712 0 0 0-4.8128 19.9168l-37.2224 431.1552a67.4816 67.4816 0 0 0 67.1744 73.2672H752.64a67.4816 67.4816 0 0 0 67.2256-73.2672l-37.2224-431.1552a67.584 67.584 0 0 0-4.864-19.9168 56.32 56.32 0 0 0 29.3888-31.9488z m-262.0416-208.9984a9.0624 9.0624 0 0 1 0.512-7.2704 8.3968 8.3968 0 0 1 5.5296-4.2496c23.296-5.632 65.3824-12.3392 133.4272-12.3392 69.3248 0 113.1008 6.9632 137.6768 12.8a8.8064 8.8064 0 0 1 6.2464 11.52l-69.4784 191.0272a5.12 5.12 0 0 1-4.7616 3.3792h-16.5376l9.472-52.736a25.6 25.6 0 1 0-50.3808-9.0624l-9.3696 52.224-8.8576-52.0704a25.6 25.6 0 0 0-50.4832 8.6016l9.0112 53.0432H619.52a5.12 5.12 0 0 1-4.8128-3.328z m186.2144 265.2672l2.6624 30.72H640l2.6112-30.72a16.128 16.128 0 0 1 16.1792-14.848h56.32a16.128 16.128 0 0 1 16.2304 14.848z m33.024 443.5456a16.128 16.128 0 0 1-11.9808 5.12h-130.9696a16.2304 16.2304 0 0 1-16.1792-17.664l30.1568-349.4912h103.0144l30.1568 349.4912a16.128 16.128 0 0 1-4.1984 12.544z"  ></path>
</svg>