<svg viewBox="0 0 1024 1024" xmlns="http://www.w3.org/2000/svg" fill="currentColor">
<path d="M955.6992 540.2112l-240.64-240.64a97.28 97.28 0 0 0-40.96-24.4736l3.84-3.8912a94.0032 94.0032 0 0 0 0-133.12l-4.864-5.12a94.0544 94.0544 0 0 0-133.12 0l-39.936 39.936a83.968 83.968 0 0 0-138.3936-26.4704l-13.9776 13.9264a144.128 144.128 0 1 0-195.5328 195.584L138.24 369.8176a83.9168 83.9168 0 0 0 26.88 138.5984l-39.8848 39.936a93.952 93.952 0 0 0 0 133.12l4.8128 4.864a94.0032 94.0032 0 0 0 133.12 0l3.84-3.84a97.28 97.28 0 0 0 24.5248 40.96l240.64 240.64a97.6384 97.6384 0 0 0 137.9328 0l285.7984-285.7984a97.6896 97.6896 0 0 0-0.2048-138.0864zM212.0704 343.7568a37.8368 37.8368 0 0 0-23.808-27.4944A92.9792 92.9792 0 1 1 279.808 157.184a93.5424 93.5424 0 0 1 28.2624 39.424A37.888 37.888 0 0 0 370.432 209.92l27.392-27.392a33.9456 33.9456 0 0 1 43.4688-4.7616 32.9728 32.9728 0 0 1 4.2496 50.176L219.8016 453.7856a32.9216 32.9216 0 0 1-50.176-4.3008 34.048 34.048 0 0 1 4.7616-43.4688l27.4432-27.136a37.7344 37.7344 0 0 0 10.24-35.1232z m-15.36 318.72a42.3424 42.3424 0 0 1-30.208-12.544l-4.864-5.12a42.752 42.752 0 0 1 0-60.5184l414.72-414.72a42.8032 42.8032 0 0 1 60.4672 0l5.12 4.864a42.752 42.752 0 0 1 0 60.5184l-64.8192 64.6144-285.7472 285.7984-64.6144 64.5632a42.3424 42.3424 0 0 1-30.2592 12.544z m722.9952-20.48l-285.7984 285.7472a46.08 46.08 0 0 1-65.4848 0l-25.1392-25.088 149.3504-149.2992a25.6 25.6 0 0 0-36.1984-36.1984L506.88 866.4064l-39.0144-39.0144 149.2992-149.2992a25.6 25.6 0 0 0-36.1984-36.2496l-149.2992 149.3504-39.0656-39.0656L602.112 542.72a25.6 25.6 0 1 0-36.1984-36.1984l-209.5104 209.408L327.68 687.104a46.4384 46.4384 0 0 1 0-65.536l142.7968-142.8992 142.848-142.8992a46.336 46.336 0 0 1 65.536 0l240.64 240.64a46.3872 46.3872 0 0 1 0 65.536z"  ></path>
</svg>