<svg viewBox="0 0 1024 1024" xmlns="http://www.w3.org/2000/svg" fill="currentColor">
<path d="M966.8608 734.7712L754.1248 522.24l173.056-173.0048a117.3504 117.3504 0 0 0 0-165.632l-64.8192-65.024a117.0944 117.0944 0 0 0-165.632 0L523.7248 291.84 320 87.9104a53.504 53.504 0 0 0-75.6736 0L106.3936 225.8432a53.504 53.504 0 0 0 0 75.6736l203.7248 203.7248-113.3056 113.3056L99.4304 906.24a38.0416 38.0416 0 0 0 47.872 47.872l280.2176-105.472 112.9984-112.9984 212.736 212.736a53.504 53.504 0 0 0 75.6736 0l137.9328-137.9328a53.504 53.504 0 0 0 0-75.6736z m-711.68-102.4l447.3344-447.3344L860.672 343.04l-447.3344 447.3856z m570.9824-477.5936L890.88 219.5968a65.6896 65.6896 0 0 1 5.4784 87.04L739.328 149.2992a65.9968 65.9968 0 0 1 86.8352 5.4784zM142.592 265.3184a2.304 2.304 0 0 1 0-3.2768l137.9328-137.9328a2.304 2.304 0 0 1 3.2768 0l52.6336 52.6848-61.44 61.44 36.1984 36.1984 61.44-61.44 48.0256 48.128-61.44 61.44 36.1984 36.1984 61.44-61.44 30.72 30.72-141.2608 141.0048zM230.4 679.68l136.8064 136.96L157.0304 896z m700.4672 94.5664l-137.9328 137.9328a2.304 2.304 0 0 1-3.2768 0l-212.736-212.736L717.9264 558.08l39.6288 39.68-61.44 61.44 36.1984 36.1984 61.44-61.44 48.0256 48.0256-61.44 61.44 36.1984 36.1984 61.44-61.44 52.6848 52.6336a2.304 2.304 0 0 1 0 3.4304z"  ></path>
</svg>