<svg viewBox="0 0 1024 1024" xmlns="http://www.w3.org/2000/svg" fill="currentColor">
<path d="M741.9392 66.56H282.0608A97.8944 97.8944 0 0 0 184.32 164.3008v695.3984A97.8944 97.8944 0 0 0 282.0608 957.44h459.8784A97.8944 97.8944 0 0 0 839.68 859.6992V164.3008A97.8944 97.8944 0 0 0 741.9392 66.56zM282.0608 117.76h459.8784a46.592 46.592 0 0 1 46.5408 46.5408V389.12H235.52V164.3008A46.592 46.592 0 0 1 282.0608 117.76z m459.8784 788.48H282.0608a46.592 46.592 0 0 1-46.5408-46.5408V440.32h552.96v419.3792a46.592 46.592 0 0 1-46.5408 46.5408z"  ></path><path d="M706.56 332.8a25.6 25.6 0 0 0 25.6-25.6V225.28a25.6 25.6 0 0 0-51.2 0v81.92a25.6 25.6 0 0 0 25.6 25.6zM706.56 481.28a25.6 25.6 0 0 0-25.6 25.6v102.4a25.6 25.6 0 0 0 51.2 0V506.88a25.6 25.6 0 0 0-25.6-25.6z"  ></path>
</svg>