<svg viewBox="0 0 1024 1024" xmlns="http://www.w3.org/2000/svg" fill="currentColor">
<path d="M965.5296 200.7552L790.272 92.672a53.4016 53.4016 0 0 0-28.1088-7.936h-129.3824a53.5552 53.5552 0 0 0-46.8992 27.904l-71.68 130.56a2.304 2.304 0 0 1-4.096 0L438.1184 112.64a53.5552 53.5552 0 0 0-46.8992-27.6992H261.8368a53.4016 53.4016 0 0 0-28.1088 7.936L58.4704 200.7552a53.504 53.504 0 0 0-18.7904 71.3728l44.1344 80.1792A53.6064 53.6064 0 0 0 158.72 372.3264l66.56-40.192a2.048 2.048 0 0 1 2.3552 0 2.0992 2.0992 0 0 1 1.1776 2.048V885.76a53.6064 53.6064 0 0 0 53.5552 53.504H445.44A53.6064 53.6064 0 0 0 498.8928 885.76v-192.3584a2.3552 2.3552 0 0 1 2.304-2.3552h21.6064a2.3552 2.3552 0 0 1 2.304 2.3552V885.76A53.6064 53.6064 0 0 0 578.56 939.264h163.84A53.6064 53.6064 0 0 0 795.6992 885.76V334.1312a2.0992 2.0992 0 0 1 1.1776-2.048 2.048 2.048 0 0 1 2.3552 0l66.56 40.192a53.6064 53.6064 0 0 0 74.6496-20.0192l44.1344-80.1792a53.504 53.504 0 0 0-19.0464-71.3216z m-26.0608 46.6944L895.3344 327.68a2.0992 2.0992 0 0 1-1.4336 1.1264 1.9968 1.9968 0 0 1-1.792 0l-66.56-40.192a53.5552 53.5552 0 0 0-81.2544 46.08V885.76a2.304 2.304 0 0 1-2.3552 2.304H578.56a2.3552 2.3552 0 0 1-2.3552-2.304v-192.3584A53.6064 53.6064 0 0 0 522.8032 640h-21.6064a53.6064 53.6064 0 0 0-53.504 53.5552V885.76a2.3552 2.3552 0 0 1-2.3552 2.304H281.856a2.304 2.304 0 0 1-2.3552-2.304V334.1312a53.5552 53.5552 0 0 0-81.2544-46.08l-66.56 40.192a2.048 2.048 0 0 1-1.792 0 2.0992 2.0992 0 0 1-1.4336-1.1264l-43.9296-79.6672a2.304 2.304 0 0 1 0.8192-3.1232L260.608 136.2432a2.4576 2.4576 0 0 1 1.2288-0.3072h129.3824a2.3552 2.3552 0 0 1 2.048 1.1776l71.68 130.56a53.504 53.504 0 0 0 93.7984 0l71.68-130.56a2.3552 2.3552 0 0 1 2.048-1.1776h129.3824a2.4576 2.4576 0 0 1 1.2288 0.3072l175.2576 108.0832a2.304 2.304 0 0 1 1.1264 3.1232z"  ></path><path d="M512 404.48m-25.6 0a25.6 25.6 0 1 0 51.2 0 25.6 25.6 0 1 0-51.2 0Z"  ></path><path d="M512 512m-25.6 0a25.6 25.6 0 1 0 51.2 0 25.6 25.6 0 1 0-51.2 0Z"  ></path>
</svg>