<svg viewBox="0 0 1024 1024" xmlns="http://www.w3.org/2000/svg" fill="currentColor">
<path d="M883.3024 840.9088l-164.352-359.0144c-0.5632-1.28-1.28-2.4064-1.9456-3.6352 0.3584-1.024 0.7168-2.0992 1.024-3.2256l52.5824-188.8256a45.568 45.568 0 0 0-15.8208-48.3328c-20.48-15.616-33.4848-45.2608-33.4848-77.3632a117.4528 117.4528 0 0 1 3.4304-28.16 45.2608 45.2608 0 0 0-8.192-39.2192 42.6496 42.6496 0 0 0-33.792-16.6912h-0.5632l-42.9056 1.024c-10.8032 0.3072-21.6064 0.6144-29.696 0.9216l-10.24 0.4608c-26.9824 1.5872-27.7504 23.4496-27.7504 25.9072 0 38.6048-28.3136 69.9904-63.1296 69.9904S445.44 143.36 445.44 104.7552c0-4.096-1.3312-24.5248-28.3136-25.9584l-11.3152-0.4096c-9.0112-0.3072-21.0432-0.6656-33.0752-0.9216-23.9104-0.5632-47.8208-1.024-48.3328-1.024a42.6496 42.6496 0 0 0-33.792 16.6912 45.2608 45.2608 0 0 0-8.192 39.2192 117.4528 117.4528 0 0 1 3.4304 28.16c0 28.8256-10.24 55.9104-27.904 72.4992A45.7216 45.7216 0 0 0 245.76 278.1696l53.0944 196.5568c0.3072 1.1776 0.6656 2.304 1.0752 3.4304-0.7168 1.2288-1.4336 2.4576-2.048 3.7376l-157.2352 343.5008a67.4304 67.4304 0 0 0 2.048 60.0064 60.8256 60.8256 0 0 0 44.8512 31.6928c34.0992 5.12 83.7632 5.12 126.9248-20.1728 45.4656-26.9824 52.1216-22.4768 80.2304-3.584a306.8416 306.8416 0 0 0 107.52 48.8448l4.8128 1.2288 5.12-0.7168c30.72-4.4032 54.9888-20.9408 76.544-35.5328 39.3216-26.6752 63.0784-42.752 114.8416 2.8672 31.6928 27.904 60.5696 37.5296 85.8624 37.5296 28.2624 0 52.1216-11.9808 70.6048-23.808a65.8432 65.8432 0 0 0 23.296-82.8416zM299.7248 281.9072a27.2896 27.2896 0 0 1 5.12-24.32 155.136 155.136 0 0 0 32.3072-97.28v-3.584a27.8528 27.8528 0 0 1 28.5184-28.416h10.24a27.392 27.392 0 0 1 25.6 18.1248c16.1792 46.08 58.1632 79.0528 107.2128 79.0528s91.0848-32.9728 107.52-79.2064a27.4944 27.4944 0 0 1 25.6-18.1248h0.512a27.8528 27.8528 0 0 1 28.6208 28.416v3.4816c0 40.96 14.336 78.8992 39.1168 105.0624a27.8016 27.8016 0 0 1 6.6048 26.5728L675.84 435.8656a27.8528 27.8528 0 0 1-26.8288 20.48H368.2304a27.9552 27.9552 0 0 1-26.9312-20.48zM832.3584 880.64c-26.9312 17.2032-52.6336 28.3648-95.0784-9.0112-34.9184-30.72-65.0752-41.5232-91.2896-41.5232-34.9696 0-63.0272 18.9952-86.1184 34.6624a198.8608 198.8608 0 0 1-41.984 23.9616 27.4944 27.4944 0 0 1-16.7424 0 257.9968 257.9968 0 0 1-77.8752-38.0416c-38.1952-25.6-65.1264-39.3216-134.912 1.9968-30.3104 17.9712-67.584 17.3056-93.5424 13.568a10.24 10.24 0 0 1-7.168-5.5296 15.872 15.872 0 0 1-0.4608-14.1824l147.8656-322.9696a27.8528 27.8528 0 0 1 25.6-16.2816h296.0384a27.8016 27.8016 0 0 1 25.344 16.2816l154.9824 338.4832a15.36 15.36 0 0 1-4.6592 18.5856z"  ></path>
</svg>