<svg viewBox="0 0 1024 1024" xmlns="http://www.w3.org/2000/svg" fill="currentColor">
<path d="M614.8096 906.9568h-9.8304l-28.6208-1.1264v-0.3072c-6.1952 0-15.36-0.256-29.3888-0.768-31.5392-1.2288-88.064-20.0704-213.9648-168.96-51.968-61.44-98.4064-124.7232-124.8768-161.9968l-5.12 296.2432a36.7104 36.7104 0 0 1-36.5056 35.84h-49.6128a36.5056 36.5056 0 0 1-36.4544-34.6112l-11.0592-215.04c-1.792-34.4064-10.24-86.1184-18.944-140.8512C39.424 447.1296 28.0576 376.6784 28.5184 332.3392c1.4848-140.4928 78.4896-215.04 133.5808-215.04 61.44 0 137.2672 109.824 256 289.0752C457.3696 465.92 494.592 522.24 527.36 565.4016c47.0528 62.0544 63.5392 68.2496 66.56 68.864 39.1168 6.4 57.856-3.6864 79.5136-15.36 18.6368-10.24 39.68-21.4016 71.0656-20.992 48.8448 0.7168 209.152 112.2816 239.8208 149.9136 5.9392 7.2704 13.5168 18.5856 10.8544 32.4096-2.2016 11.4176-7.3216 38.2464-161.1264 85.0432-33.2288 10.24-143.2576 41.6768-219.2384 41.6768zM579.84 855.04c6.144 0 14.6944 0.3584 27.136 0.8704 90.0608 3.584 278.272-55.1424 329.6256-84.2752-38.0928-36.9664-166.8608-119.9616-193.28-122.2144-17.8688-0.3072-29.5424 6.0928-46.08 14.848-24.832 13.3632-55.7568 30.0032-112.128 20.736-47.616-7.7312-107.8272-95.6416-209.92-250.368-44.288-66.9696-90.0608-136.2432-130.5088-187.904-59.4944-76.288-80.4352-78.4896-82.5856-78.4896-27.392 0-81.2544 58.112-82.3808 164.608-0.4096 39.9872 10.5984 108.288 21.248 174.336 9.0624 56.32 17.6128 109.1584 19.5584 146.3296l10.24 200.96h21.0432l5.7344-322.56a30.208 30.208 0 0 1 30.0544-29.5424h14.848a35.328 35.328 0 0 1 29.0816 15.36c113.6128 165.0688 259.1232 333.3632 317.44 335.616l28.3648 1.024v0.6656z m367.9744-91.3408z"  ></path>
</svg>