<svg viewBox="0 0 1024 1024" xmlns="http://www.w3.org/2000/svg" fill="currentColor">
<path d="M968.5504 603.392l-0.9216-0.6144a55.6032 55.6032 0 0 0-78.08 18.432 202.1376 202.1376 0 0 1-15.36 20.48C860.16 584.2432 829.44 532.48 808.2944 497.7664c-5.12-8.7552-9.8816-16.384-13.4656-22.8864a144.64 144.64 0 0 1-7.4752-53.0944c9.216 16.3328 23.7568 28.8768 47.104 28.4672a83.3024 83.3024 0 0 0 63.6416-28.2112c37.7344-42.1888 33.5872-110.8992 31.3344-131.4816a696.32 696.32 0 0 1-0.9728-106.24 44.1856 44.1856 0 0 0-28.5696-44.7488 221.6448 221.6448 0 0 0-191.8464 16.896C619.52 203.3664 575.9488 307.2 560.1792 354.2016H382.9248a261.12 261.12 0 0 0-159.744 40.3456 44.544 44.544 0 0 0-8.6016 67.6864l9.6256 10.24a40.6016 40.6016 0 0 1 6.1952 7.68c-0.8192 5.12-8.8064 17.8176-23.8592 38.1952a39.5776 39.5776 0 0 0-3.072 4.7616 451.5328 451.5328 0 0 0-52.0704 147.2 254.6176 254.6176 0 0 1-30.0032-31.6928A55.7056 55.7056 0 0 0 40.96 629.76l-0.6144 0.5632a59.0336 59.0336 0 0 0-8.704 78.2336l0.6144 0.8704c84.5312 109.0048 267.776 179.5072 466.8416 179.5072 220.16 0 411.2896-82.3296 486.8608-209.92l0.8192-1.4848a58.9824 58.9824 0 0 0-18.2272-74.1376z m-27.0336 50.688c-65.9968 109.9264-243.5072 183.7056-442.2656 183.7056-183.5008 0-350.5664-62.464-425.9328-159.1296a7.9872 7.9872 0 0 1 1.024-9.8816 4.608 4.608 0 0 1 6.1952 0.9728l0.4096 0.5632a305.5616 305.5616 0 0 0 47.0528 47.4624 44.544 44.544 0 0 0 72.0896-28.4672 400.6912 400.6912 0 0 1 47.616-140.8c32.1024-43.52 49.8688-72.192 14.0288-110.6944l-4.0448-4.352a209.2032 209.2032 0 0 1 121.7024-28.2112h185.6a44.4416 44.4416 0 0 0 42.3936-30.72c9.7792-30.3104 47.5648-132.352 125.1328-173.1584l1.1776-0.6656a170.752 170.752 0 0 1 143.36-15.0528 753.2032 753.2032 0 0 0 1.3824 109.6192v0.6144c4.1984 37.9392-3.2768 74.9056-18.5856 92.16a32.1024 32.1024 0 0 1-25.6 11.1616h-0.512c-6.4-4.1984-11.0592-32.2048-12.5952-41.3696-3.072-18.688-6.6048-39.8848-28.1088-43.3664-13.9776-2.2528-25.6 5.12-34.6624 22.3232a197.0176 197.0176 0 0 0-12.032 155.0848 48.384 48.384 0 0 0 3.2256 7.2704c4.096 7.424 8.96 15.36 14.592 24.9344 21.8624 36.5568 51.8144 86.5792 62.464 140.6464a44.1344 44.1344 0 0 0 31.0272 33.8944 44.7488 44.7488 0 0 0 44.9536-12.032 254.208 254.208 0 0 0 30.0544-38.0928l0.7168-1.1776a4.6592 4.6592 0 0 1 2.816-2.0992 4.1472 4.1472 0 0 1 3.0208 0.3584 7.424 7.424 0 0 1 2.304 8.4992z"  ></path><path d="M808.96 277.8624a30.72 30.72 0 0 0 0-61.44v-4.1984a30.72 30.72 0 0 0-30.72 34.816 30.72 30.72 0 0 0 30.72 30.8224zM511.5904 533.76h-16.6912a40.2944 40.2944 0 0 0-4.3008 0 256 256 0 0 0-219.5456 170.24 46.4896 46.4896 0 0 0 33.4336 60.7232c71.1168 16.5376 180.1728 23.7568 192.1536 24.6784h6.2464a720.64 720.64 0 0 0 237.824-40.2944 46.5408 46.5408 0 0 0 29.3376-57.3952c-14.1312-47.36-67.6864-157.952-258.4576-157.952z m-8.6016 204.8h-2.816c-4.608-0.3072-110.3872-7.2704-179.2-22.1696a204.8 204.8 0 0 1 173.7216-131.2256h16.6912c146.176 0 193.1264 71.68 208.128 117.4016a669.8496 669.8496 0 0 1-216.5248 35.7888z"  ></path>
</svg>