<svg viewBox="0 0 1024 1024" xmlns="http://www.w3.org/2000/svg" fill="currentColor">
<path d="M721.4592 373.76H542.72V317.44h81.3056A62.1568 62.1568 0 0 0 686.08 255.3856V169.5744A62.1568 62.1568 0 0 0 624.0256 107.52H405.0944A62.1568 62.1568 0 0 0 343.04 169.5744v15.36a289.536 289.536 0 0 0-147.9168 52.736A25.6 25.6 0 0 0 209.92 284.3136a25.6 25.6 0 0 0 14.7456-4.7104A238.7456 238.7456 0 0 1 343.04 236.3904v18.9952A62.1568 62.1568 0 0 0 405.0944 317.44H491.52v56.32H302.5408A118.3744 118.3744 0 0 0 184.32 491.9296v347.3408A118.3744 118.3744 0 0 0 302.5408 957.44h418.9184A118.3744 118.3744 0 0 0 839.68 839.2704V491.9296A118.3744 118.3744 0 0 0 721.4592 373.76zM394.24 255.3856V169.5744A10.8544 10.8544 0 0 1 405.0944 158.72h218.9312a10.8544 10.8544 0 0 1 10.8544 10.8544v85.8112a10.8544 10.8544 0 0 1-10.8544 10.8544H405.0944A10.8544 10.8544 0 0 1 394.24 255.3856zM302.5408 424.96h418.9184A67.072 67.072 0 0 1 788.48 491.9296v156.0576a264.2944 264.2944 0 0 0-140.4928-38.7072c-61.9008 0-101.6832 29.1328-140.1344 57.344-37.12 27.2384-72.2432 52.992-129.9968 55.296-92.9792 3.8912-132.096-42.6496-142.336-57.8048V491.9296A67.072 67.072 0 0 1 302.5408 424.96z m418.9184 481.28H302.5408A67.072 67.072 0 0 1 235.52 839.2704v-104.192c28.3648 20.0704 70.8608 38.2976 131.7376 38.2976 4.1472 0 8.3456 0 12.6464-0.256 73.3696-2.9696 118.4768-35.84 158.2592-65.2288 34.7136-25.6 64.6656-47.4112 109.824-47.4112 77.6704 0 124.5696 36.3008 140.4928 51.2v127.6416A67.072 67.072 0 0 1 721.4592 906.24z"  ></path>
</svg>