<svg viewBox="0 0 1024 1024" xmlns="http://www.w3.org/2000/svg" fill="currentColor">
<path d="M843.0592 188.5696h-68.7616V123.8016a65.2288 65.2288 0 0 0-65.1776-65.1264H225.28a65.1776 65.1776 0 0 0-65.0752 65.1264v191.5392A65.1776 65.1776 0 0 0 225.28 380.4672h483.84a65.2288 65.2288 0 0 0 65.1776-65.1264V239.7696h68.7616a20.736 20.736 0 0 1 20.736 20.736v183.3472a20.48 20.48 0 0 1-20.736 20.48h-375.808v0.6144a25.6 25.6 0 0 0-20.48 24.9856v88.064h-36.352a50.2784 50.2784 0 0 0-50.2272 50.2272v291.84a50.2784 50.2784 0 0 0 50.2272 50.2272h123.9552a50.2784 50.2784 0 0 0 50.2272-50.2272v-291.84a50.2784 50.2784 0 0 0-50.2272-50.2272h-36.1472v-62.464h344.832a71.9872 71.9872 0 0 0 71.936-71.68V260.5056a71.9872 71.9872 0 0 0-71.936-71.936z m-119.9616 126.7712a13.9264 13.9264 0 0 1-13.9776 13.9264H225.28a13.9264 13.9264 0 0 1-13.9264-13.9264V123.8016A13.9264 13.9264 0 0 1 225.28 109.8752h483.84a13.9264 13.9264 0 0 1 13.9776 13.9264z m-189.44 604.16H411.648v-289.792h122.0096z"  ></path>
</svg>