<svg viewBox="0 0 1024 1024" xmlns="http://www.w3.org/2000/svg" fill="currentColor">
<path d="M956.8768 398.5408a47.872 47.872 0 0 0-33.792-13.824c-6.8608 0-13.6192 0-20.48-0.6144V290.816a44.7488 44.7488 0 0 0-13.5168-32.1536 45.4144 45.4144 0 0 0-32.256-12.9024c-75.7248 0-146.0736-26.9824-193.024-74.0352a59.8528 59.8528 0 0 0-80.896-3.2768l-133.12 114.4832a239.36 239.36 0 0 1-93.7984 49.408l-124.3136 32.768a219.2896 219.2896 0 0 0-162.816 211.712 75.5712 75.5712 0 0 0 5.9904 29.6448 80.6912 80.6912 0 0 0 4.096 8.1408 244.6848 244.6848 0 0 0-45.4656 141.9776 82.944 82.944 0 0 0 82.8416 82.7904H888.32a82.8928 82.8928 0 0 0 82.7904-82.7904V432.5376a47.1552 47.1552 0 0 0-14.2336-33.9968zM244.8384 414.72L368.64 381.6448a290.7136 290.7136 0 0 0 114.176-60.0064l133.376-114.4832a8.2432 8.2432 0 0 1 11.3152 0.6144c55.296 55.3984 136.4992 87.6544 223.744 89.1904v80.4352c-58.5216-12.0832-110.9504-38.8608-149.5552-77.568a64.256 64.256 0 0 0-87.04-3.5328L463.5648 426.0352a274.8416 274.8416 0 0 1-107.52 56.6272l-140.4928 37.3248a243.3024 243.3024 0 0 0-95.232 49.7664A168.1408 168.1408 0 0 1 244.8384 414.72z m-160.1536 342.016a193.8944 193.8944 0 0 1 143.872-187.136l140.544-37.3248a322.8672 322.8672 0 0 0 31.9488-10.24l87.808 98.816a25.6 25.6 0 0 0 38.2976-34.048l-78.0288-88.064a322.56 322.56 0 0 0 47.7696-33.8944l9.0112-7.68 79.5648 89.4976a25.6 25.6 0 0 0 38.2464-33.9968L544.768 423.7824l103.2704-88.6272a12.4416 12.4416 0 0 1 8.1408-3.072 13.0048 13.0048 0 0 1 9.2672 3.9424c62.7712 62.8736 155.392 99.1744 254.464 99.8912v112.2816c-145.152 21.6064-255.5392 120.4736-270.848 239.9744h-532.48a31.6416 31.6416 0 0 1-31.8976-31.5904z m803.84 31.5904h-187.7504c15.36-92.16 103.2192-168.2432 219.136-188.0576v156.4672a31.5904 31.5904 0 0 1-31.5904 31.4368z"  ></path>
</svg>