<svg viewBox="0 0 1024 1024" xmlns="http://www.w3.org/2000/svg" fill="currentColor">
<path d="M558.848 754.176a305.3568 305.3568 0 0 0 171.52-52.3776c98.816-66.56 148.1216-187.6992 125.6448-308.1216l-48.0256-256.9728a70.7072 70.7072 0 0 0-69.4784-57.6512H300.8512A70.7072 70.7072 0 0 0 231.3728 136.704l-48.0256 256.9728c-22.4768 120.4224 26.8288 241.3568 125.6448 308.1216a305.3568 305.3568 0 0 0 171.52 52.3776H491.52v154.9312H327.68a25.6 25.6 0 0 0 0 51.2h378.88a25.6 25.6 0 0 0 0-51.2h-163.84V754.176zM281.6 146.1248a19.456 19.456 0 0 1 19.1488-15.872h437.6576a19.456 19.456 0 0 1 19.1488 15.872l35.84 190.3616A259.8912 259.8912 0 0 0 661.7088 302.08c-63.488 0-104.0896 31.744-143.36 62.464-37.888 29.696-73.728 57.4464-132.4544 59.904-92.5184 3.84-133.12-44.4416-144.5888-62.208z m56.0128 513.2288C262.0416 608.3072 221.4912 518.656 230.4 426.24 258.9696 450.9696 305.0496 476.16 375.0912 476.16c4.2496 0 8.6016 0 13.0048-0.3072 75.1104-3.1744 121.1904-39.168 161.792-70.9632C585.2672 376.9856 615.8848 353.28 661.7088 353.28c82.688 0 131.2768 43.264 145.2544 57.856 15.36 97.6896-25.6 194.56-105.216 248.4224a254.1568 254.1568 0 0 1-142.8992 43.6224h-78.336a254.1568 254.1568 0 0 1-142.8992-43.8272z"  ></path>
</svg>