<svg viewBox="0 0 1024 1024" xmlns="http://www.w3.org/2000/svg" fill="currentColor">
<path d="M871.936 539.136h-14.848v227.328c0 66.048 14.848 122.88 14.848 122.88 0 16.384-13.312 29.696-29.696 29.696H201.216c-16.384 0-29.696-13.312-29.696-29.696 0 0 14.848-54.272 14.848-119.808v-230.4h-14.848c-16.384 0-29.696-13.312-29.696-29.696V360.448c0-16.384 13.312-29.696 29.696-29.696H424.96v-163.84c0-40.96 33.28-74.752 74.752-74.752h44.544c40.96 0 74.752 33.28 74.752 74.752v163.84h253.44c16.384 0 29.696 13.312 29.696 29.696v148.992c-0.512 16.384-13.824 29.696-30.208 29.696zM357.888 889.344v-197.632c0-6.144 5.12-11.264 11.264-11.264h7.68c6.144 0 11.264 5.12 11.264 11.264v197.632h126.464v-197.632c0-6.144 5.12-11.264 11.264-11.264h7.68c6.144 0 11.264 5.12 11.264 11.264v197.632h119.296v-197.632c0-6.144 5.12-11.264 11.264-11.264h7.68c6.144 0 11.264 5.12 11.264 11.264v197.632h148.992s-14.848-53.76-14.848-119.808v-230.4H216.064v230.4c0 66.048-14.848 119.808-14.848 119.808h156.672zM871.936 375.296c0-8.192-6.656-14.848-14.848-14.848H588.8V174.08c0-29.184-23.04-52.224-52.224-52.224H506.88c-29.184 0-52.224 23.04-52.224 52.224v186.368H186.368c-8.192 0-14.848 6.656-14.848 14.848v119.296c0 8.192 6.656 14.848 14.848 14.848h670.208c8.192 0 14.848-6.656 14.848-14.848V375.296z m0 0"  ></path><path d="M871.936 539.136h-14.848v227.328c0 66.048 14.848 122.88 14.848 122.88 0 16.384-13.312 29.696-29.696 29.696H201.216c-16.384 0-29.696-13.312-29.696-29.696 0 0 14.848-54.272 14.848-119.808v-230.4h-14.848c-16.384 0-29.696-13.312-29.696-29.696V360.448c0-16.384 13.312-29.696 29.696-29.696H424.96v-163.84c0-40.96 33.28-74.752 74.752-74.752h44.544c40.96 0 74.752 33.28 74.752 74.752v163.84h253.44c16.384 0 29.696 13.312 29.696 29.696v148.992c-0.512 16.384-13.824 29.696-30.208 29.696zM357.888 879.616v-187.904c0-6.144 5.12-11.264 11.264-11.264h7.68c6.144 0 11.264 5.12 11.264 11.264v187.904h126.464v-187.904c0-6.144 5.12-11.264 11.264-11.264h7.68c6.144 0 11.264 5.12 11.264 11.264v187.904h119.296v-187.904c0-6.144 5.12-11.264 11.264-11.264h7.68c6.144 0 11.264 5.12 11.264 11.264v187.904h139.264s-14.848-44.032-14.848-110.592v-230.4H225.792v230.4c0 66.048-14.848 110.592-14.848 110.592h146.944v9.728-9.728z m504.32-494.592c0-8.192-6.656-14.848-14.848-14.848h-268.288V174.08c0-29.184-23.04-42.496-52.224-42.496h-10.752c-29.184 0-52.224 13.312-52.224 42.496v195.584H196.096c-8.192 0-14.848 6.656-14.848 14.848v99.84c0 8.192 6.656 14.848 14.848 14.848h651.264c8.192 0 14.848-6.656 14.848-14.848V385.024h9.728-9.728z m0 0"  ></path>
</svg>