<svg viewBox="0 0 1024 1024" xmlns="http://www.w3.org/2000/svg" fill="currentColor">
<path d="M839.0656 246.7328l-275.1488-139.8784a118.33344 118.33344 0 0 0-107.1616 0l-275.0464 141.312c-37.632 17.152-62.2592 57.088-62.2592 99.8912v318.2592c0 42.8032 24.6272 81.3568 62.2592 101.3248l276.5824 141.3632c15.9744 8.5504 34.7648 12.8512 53.6064 12.8512 18.6368 0 36.9664-4.4032 53.5552-12.8512l273.664-139.8784c39.0656-20.0192 62.2592-58.5216 62.2592-101.3248V348.0576c-0.0512-42.8544-24.6784-82.7904-62.3104-101.3248zM484.3008 156.8256c8.6528-4.2496 17.3568-7.1168 26.0608-7.1168s18.8416 1.4336 26.0608 5.6832l275.1488 139.8784c4.352 1.4336 7.2704 4.2496 11.5712 7.1168L510.3616 462.2336 197.632 305.2544c3.2768-3.1744 7.2704-5.632 11.5712-7.1168l275.0976-141.312zM209.2032 716.2368a56.74496 56.74496 0 0 1-31.8976-51.3536V358.0416l115.8656 58.5216v128.4608c0 11.4176 5.7856 21.4016 15.9744 25.7024l20.2752 9.984c1.4336 1.4336 4.352 1.4336 5.7856 1.4336 8.6528 0 14.4896-5.6832 14.4896-14.2848V445.1328l130.2528 65.6384v343.8592l-270.7456-138.3936z m602.368 0l-272.2304 139.8784V510.72l304.0768-152.7296v306.8416c0.1024 21.9136-12.288 41.8816-31.8464 51.4048z"  ></path>
</svg>