<svg viewBox="0 0 1024 1024" xmlns="http://www.w3.org/2000/svg" fill="currentColor">
<path d="M723.476 332.517h-18.193v456.881h-60.034v-456.881h-100.059v456.881h-60.034v-456.881h-100.051v456.881h-60.034v-456.881h-38.202c-45.206 0-81.866-0.655-81.866 0v477.361c0 43.95 36.659 79.571 81.866 79.571h436.599c45.22 0 81.858-35.621 81.858-79.571v-477.361c0.006-3.359-36.631 0-81.852 0zM844.657 189.083h-179.398v-48.825c0-28.297-50.572-51.228-80.049-51.228h-160.085c-29.463 0-80.043 22.931-80.043 51.228v48.825h-179.364c-22.508 0-40.749 17.92-40.749 40.025 0 22.098 18.234 40.018 40.749 40.018h678.94c22.487 0 40.721-17.92 40.721-40.018-0.006-22.105-18.241-40.025-40.721-40.025zM585.216 189.083h-160.085v-20.009h160.085v20.009z"  ></path>
</svg>