<svg viewBox="0 0 1024 1024" xmlns="http://www.w3.org/2000/svg" fill="currentColor">
<path d="M468.48 833.024H247.808c-7.68 0.512-15.36-3.072-19.968-9.216-5.12-6.656-8.192-12.8-6.656-19.456l42.496-441.344c1.536-13.312 13.312-23.552 26.624-23.552h434.176c13.312 0 25.088 10.24 26.624 23.552l10.752 109.056c1.536 14.336 14.848 25.088 29.184 23.552 7.168-0.512 13.312-4.096 17.92-9.216 4.608-5.12 6.656-12.288 6.144-19.456l-10.752-109.056c-4.096-40.448-38.4-70.144-79.872-70.144H680.96v-12.8c0-93.696-76.8-168.96-172.544-168.96-95.744 0-172.544 75.264-172.544 168.96v12.8h-45.056c-40.96 0-75.776 29.696-79.872 70.144l-42.496 441.344c-1.536 22.016 5.12 44.032 20.992 59.904 15.36 15.872 36.352 25.6 58.368 26.112h220.672c14.848 0 26.624-11.776 26.624-26.112-0.512-14.336-12.288-26.112-26.624-26.112zM388.608 274.432c0-65.024 53.248-116.736 119.296-116.736 66.56 0 119.296 51.712 119.296 116.736v12.8H388.608v-12.8z m280.576 343.04c-42.496 0-76.8 33.792-76.8 75.264s34.304 75.264 76.8 75.264 76.8-33.792 76.8-75.264-34.304-75.264-76.8-75.264z m0 98.816c-6.144 0-12.288-2.56-16.896-6.656-4.608-4.608-7.168-10.24-7.168-16.896 0-12.8 10.752-23.552 24.064-23.552s24.064 10.24 24.064 23.552c-0.512 12.8-10.752 23.552-24.064 23.552z m201.728-62.464c-2.048-12.288-12.8-20.992-25.088-20.992-14.848-1.536-27.648-7.68-34.304-20.992-7.168-12.288-7.68-27.648-1.536-40.448 5.12-10.752 2.56-23.552-6.656-31.232-20.48-16.896-44.032-30.208-69.12-38.912-11.264-4.096-24.064 0-30.72 10.24-8.192 11.776-21.504 19.456-35.84 19.456-14.336 0.512-28.16-7.168-35.84-19.456-6.656-10.24-18.944-14.336-30.72-10.24-13.312 4.096-25.088 10.24-35.84 15.36-11.776 6.144-22.528 14.336-31.744 23.552-9.216 7.68-11.776 20.48-6.656 31.232 6.656 12.8 6.656 27.136-1.536 40.448-7.68 12.288-20.48 19.968-34.304 20.992-12.288 0.512-22.528 8.704-25.088 20.992-5.12 25.6-5.12 52.224 0 77.824 2.56 11.776 11.776 20.992 25.088 20.992 14.848 1.536 27.648 7.68 34.304 20.992 6.656 11.776 7.68 27.136 1.024 40.448-5.12 10.752-2.56 23.552 6.656 31.232 19.968 16.896 44.032 29.696 69.12 38.912 2.56 1.024 5.12 1.536 8.192 1.536 9.216 0 17.408-4.096 22.528-11.776 8.192-11.776 21.504-19.456 35.84-19.456 14.848 0 27.648 6.656 35.84 19.456 6.656 10.24 19.968 14.336 30.72 10.24 13.312-4.096 25.088-10.24 35.84-15.36 11.776-6.656 22.528-14.336 31.744-23.552 9.216-7.68 11.776-20.48 6.656-31.232-6.656-12.8-6.144-28.16 1.536-40.448 7.68-12.288 20.48-19.968 34.304-20.992 12.288-0.512 22.528-8.704 25.088-20.992 5.632-25.6 5.632-52.224 0.512-77.824z m-49.152 50.688c-23.552 6.144-43.52 22.016-55.808 43.008-12.288 20.992-15.872 45.568-9.216 68.608-2.56 2.56-6.656 4.096-10.752 6.656-4.096 1.024-6.656 4.096-10.752 5.12-17.92-16.896-41.984-26.112-66.56-26.112-25.088 0-47.616 9.216-66.56 26.112-6.656-4.096-14.848-7.68-20.992-11.776 5.12-23.552 2.56-48.128-10.752-68.608-12.288-20.992-32.256-36.352-55.808-43.008V680.96c23.552-6.144 43.52-22.016 55.808-43.008 11.776-20.992 15.872-45.568 9.216-68.608 2.56-2.56 6.656-4.096 10.752-6.656 4.096-1.536 6.656-4.096 10.752-5.12 17.408 16.896 41.472 26.112 66.56 26.112s47.616-9.216 66.56-26.112c6.656 4.096 14.848 7.68 21.504 11.776-5.12 23.552-2.56 48.128 10.752 68.608 11.776 20.992 31.744 36.352 55.808 43.008v23.552z m0 0"  ></path>
</svg>