<svg viewBox="0 0 1024 1024" xmlns="http://www.w3.org/2000/svg" fill="currentColor">
<path d="M854.3744 130.1504c-3.9424-11.8784-11.8784-15.8208-23.7568-15.8208H201.2672c-11.8784 0-19.8144 7.936-23.7568 15.8208L82.5344 391.3728v7.936c0 55.3984 31.6416 102.912 83.0976 122.7264 7.936 3.9424 15.8208 3.9424 27.6992 7.936v352.256c0 11.8784 7.936 19.8144 19.8144 19.8144h613.5296c11.8784 0 19.8144-7.936 19.8144-19.8144v-352.256c7.936 0 15.8208-3.9424 23.7568-7.936 47.5136-19.8144 83.0976-67.2768 83.0976-122.7264v-3.9424l-98.9696-265.216zM791.04 842.5984H248.7808v-320.6144c27.6992-7.936 51.456-23.7568 67.2768-43.52 23.7568 31.6416 63.3344 51.456 102.912 51.456s79.1552-19.8144 102.912-51.456c23.7568 31.6416 63.3344 51.456 102.912 51.456s79.1552-19.8144 102.912-51.456c15.8208 23.7568 35.6352 39.5776 63.3344 43.52v320.6144z m35.584-368.128c-39.5776 0-75.2128-31.6416-75.2128-75.2128v-7.936h-55.3984v7.936c0 39.5776-31.6416 75.2128-75.2128 75.2128-39.5776 0-75.2128-31.6416-75.2128-75.2128v-7.936H490.1888v7.936c0 39.5776-31.6416 75.2128-75.2128 75.2128-39.5776 0-75.2128-31.6416-75.2128-75.2128v-7.936H288.3584v7.936c0 39.5776-31.6416 75.2128-75.2128 75.2128-39.5776 0-71.2192-31.6416-75.2128-71.2704l83.0976-233.5232h585.7792l83.0976 233.5232c4.0448 39.6288-27.648 71.2704-63.2832 71.2704z"  ></path>
</svg>