<svg viewBox="0 0 1024 1024" xmlns="http://www.w3.org/2000/svg" fill="currentColor">
<path d="M846.336 219.136H196.608c-38.4 0-70.144 31.232-70.144 70.144v452.096c0 38.4 31.232 70.144 70.144 70.144h649.728c38.912 0 70.144-31.232 70.144-70.144V289.28c0-38.912-31.744-70.144-70.144-70.144z m20.48 522.24c0 11.264-9.216 20.48-20.48 20.48H196.608c-11.264 0-20.48-9.216-20.48-20.48V289.28c0-11.264 9.216-20.48 20.48-20.48h649.728c11.264 0 20.48 9.216 20.48 20.48v452.096zM428.544 365.056H270.336c-13.824 0-24.576 11.264-24.576 24.576 0 13.824 11.264 24.576 24.576 24.576h158.208c13.824 0 24.576-11.264 24.576-24.576 0-13.824-10.752-24.576-24.576-24.576z m0 122.368H270.336c-13.824 0-24.576 11.264-24.576 24.576 0 13.824 11.264 24.576 24.576 24.576h158.208c13.824 0 24.576-11.264 24.576-24.576 0-13.312-10.752-24.576-24.576-24.576z m0 122.368H270.336c-13.824 0-24.576 11.264-24.576 24.576 0 13.824 11.264 24.576 24.576 24.576h158.208c13.824 0 24.576-11.264 24.576-24.576 0-13.312-10.752-24.576-24.576-24.576z m291.84-87.552c17.92-17.92 29.184-42.496 29.184-69.632 0-54.272-44.032-98.816-98.816-98.816-54.272 0-98.816 44.032-98.816 98.816 0 25.6 10.24 49.152 26.624 67.072-47.104 24.576-79.872 73.728-79.872 130.56 0 13.824 11.264 24.576 24.576 24.576s24.576-11.264 24.576-24.576c0-54.272 44.544-98.816 98.816-98.816 54.272 0 98.816 44.032 98.816 98.816 0 13.824 11.264 24.576 24.576 24.576s24.576-11.264 24.576-24.576c0-54.784-30.208-101.888-74.24-128z m-69.632-118.784c27.136 0 49.152 22.016 49.152 49.152s-22.016 49.152-49.152 49.152-49.152-22.016-49.152-49.152c-0.512-27.136 22.016-49.152 49.152-49.152z m0 0"  ></path>
</svg>