<svg viewBox="0 0 1024 1024" xmlns="http://www.w3.org/2000/svg" fill="currentColor">
<path d="M877.54 542c0-138.85-80.3-258.94-197-316.37a153.43 153.43 0 0 0-306.78-1.94c-118.87 56.63-201 177.87-201 318.31-19.79 0-32.43 15.43-29 34.4l58 318.84c3.4 18.72 21.93 34.4 41.26 34.4h564.27c19.33 0 37.81-15.4 41.26-34.4l58-318.84c3.37-18.7-9.55-34.4-29.01-34.4z m-350.4-410.06a95.9 95.9 0 1 1-95.9 95.9 96 96 0 0 1 95.9-95.9zM377 281.39c22.82 59.59 80.63 102 148.15 102s125.34-42.43 148.15-102c92.54 52.24 151.35 150.37 151.39 260.5l-39-0.07c-65.9-0.22-141.34-0.41-260.24 0.17-59.23-0.31-108.47-0.41-150.91-0.41-46.8 0-85.35 0.14-119.86 0.24l-29 0.07c-0.05-110.13 58.76-208.26 151.32-260.5z m421.18 595.38h-64.07L748.53 712a26.43 26.43 0 0 0-52.66-4.61L681 876.77h-66l5.81-166.44a26.43 26.43 0 0 0-52.83-1.84l-5.88 168.28h-69l-5.88-168.28a26.43 26.43 0 0 0-52.83 1.84l5.81 166.44h-67.38L358 707.42a26.43 26.43 0 0 0-52.65 4.58l14.41 164.75h-67.67l-51.24-281.9h648.57z"  ></path>
</svg>