<svg viewBox="0 0 1024 1024" xmlns="http://www.w3.org/2000/svg" fill="currentColor">
<path d="M68.76458017578125 451.97468017578126L68.76458017578125 606.7786396484375c0 173.1434396484375 154.39743017578124 234.9369 210.0189603515625 251.58014999999997l0 62.11188808593751 468.50436298828123 0 0.0017991210937500003 0 0-61.96798564453125c55.9182603515625-16.4066396484375 210.0198603515625-78.2199896484375 210.0198603515625-261.12716982421875L957.3095612304687 451.9737977539063 68.76458017578125 451.97468017578126 68.76458017578125 451.97468017578126zM908.8402396484374 597.3755301757813c0 181.41146982421873-182.3543103515625 217.04805-190.06875000000002 218.46816035156252l-19.948410351562497 3.5651698242187506 0 52.5972392578125L327.250035546875 872.0060987304687l-0.0486-52.265339648437504-19.561680175781248-3.8340896484375c-7.7791500000000005-1.52801982421875-190.41138017578126-39.3141603515625-190.41138017578126-209.12715l0-25.558871484375 791.6109442382811 0L908.8393194335938 597.375515234375zM908.8402396484374 548.9037801757813L117.23021826171873 548.9037801757813l0-48.46544033203125 791.6109442382811 0L908.8402396484374 548.9037801757813 908.8402396484374 548.9037801757813zM440.33678017578126 161.19016982421874l500.81445 0 0 48.465450000000004-500.81445 0 0-48.465450000000004ZM84.91921982421871 161.19016982421874l48.467430175781246 0 0 48.465450000000004-48.467430175781246 0 0-48.465450000000004ZM84.91921982421871 258.1183698242188l48.467430175781246 0 0 48.465450000000004-48.467430175781246 0 0-48.465450000000004ZM440.33678017578126 258.1183698242188l500.81445 0 0 48.465450000000004-500.81445 0 0-48.465450000000004ZM142.45738964843753 431.25361982421873c50.8635-10.82051982421875 68.89698017578125-51.1941603515625 71.5296603515625-73.34433017578125l0.1664103515625-182.07611982421875c0-30.29958017578125 33.3840603515625-38.81861982421875 37.87938017578126-38.874330175781246l-0.0072-48.46365c-29.162160351562502 0-86.3360103515625 26.3700896484375-86.3360103515625 87.33798017578125l0 177.32287529296877c-0.94616982421875 4.69305-6.5711698242187495 25.003980175781248-33.3147603515625 30.691710351562502L142.45738964843753 431.25361982421873zM239.3894603515625 431.25361982421873c50.864399999999996-10.82051982421875 68.89608017578125-51.1941603515625 71.5305603515625-73.34433017578125l0.1664103515625-182.07611982421875c0-30.29958017578125 33.3849603515625-38.81861982421875 37.88028017578125-38.874330175781246l-0.0081-48.46365c-29.163060351562503 0-86.33871035156251 26.3700896484375-86.33871035156251 87.33798017578125l0 177.32287529296877c-0.9470698242187501 4.69305-6.5685603515625 25.003980175781248-33.3129603515625 30.691710351562502L239.3894603515625 431.25361982421873zM336.31981982421877 431.25361982421873c50.8671-10.82051982421875 68.89698017578125-51.1941603515625 71.53236035156249-73.34433017578125l0.1646103515625-182.07611982421875c0-30.29958017578125 33.3831603515625-38.81861982421875 37.881180175781246-38.874330175781246l-0.0081-48.46365c-29.163060351562503 0-86.3378103515625 26.3700896484375-86.3378103515625 87.33798017578125l0 177.32287529296877c-0.9479698242187499 4.69305-6.570269824218751 25.003980175781248-33.3129603515625 30.691710351562502L336.31981982421877 431.25361982421873z"  ></path>
</svg>