<svg viewBox="0 0 1024 1024" xmlns="http://www.w3.org/2000/svg" fill="currentColor">
<path d="M864.256 197.632l-330.752-113.664c-6.656-2.56-14.336-2.56-20.992 0L182.272 197.632c-13.312 4.096-22.016 16.384-22.016 30.208v351.232c9.216 207.36 337.408 334.336 351.232 339.456 7.168 2.56 15.36 2.56 23.04 0 13.824-5.12 342.016-132.608 351.232-340.992V228.352c0-13.312-8.192-26.112-21.504-30.72z m-26.112 383.488c-7.68 155.136-261.632 269.824-313.856 291.84-68.096-28.16-132.608-64.512-191.488-108.544-79.36-60.928-120.832-122.368-123.392-181.76V238.08l314.368-107.52 313.344 108.032 1.024 342.528z m-15.36-4.096"  ></path><path d="M523.776 522.752c-54.272 0-97.792-44.032-97.792-97.792 0-54.272 44.032-97.792 97.792-97.792 54.272 0 97.792 44.032 97.792 97.792 0 26.112-10.24 50.688-28.672 69.12-17.92 18.432-43.008 28.672-69.12 28.672z m0-152.064c-22.016 0-41.472 13.312-50.176 33.28-8.704 20.48-3.584 43.52 11.776 58.88s38.912 19.968 58.88 11.776c20.48-8.704 33.28-28.16 33.28-50.176 0.512-29.696-23.552-53.76-53.76-53.76z m0 12.288"  ></path><path d="M520.704 725.504c-6.656 0-12.8-3.072-17.408-8.192-4.608-5.12-7.168-12.288-7.168-19.968v-181.76c0-15.36 11.264-28.16 25.088-28.16s25.088 12.8 25.088 28.16v181.76c0 7.168-2.56 14.336-7.168 19.968-5.12 5.12-11.776 8.192-18.432 8.192z m0 0"  ></path><path d="M593.92 632.32h-55.808c-15.36 0-28.16-10.24-28.16-23.04s12.8-23.04 28.16-23.04H593.92c15.36 0 28.16 10.24 28.16 23.04 0 12.288-12.8 23.04-28.16 23.04z m0 0"  ></path>
</svg>