<?xml version="1.0" standalone="no"?><!DOCTYPE svg PUBLIC "-//W3C//DTD SVG 1.1//EN" "http://www.w3.org/Graphics/SVG/1.1/DTD/svg11.dtd"><svg t="1769480567274" class="icon" viewBox="0 0 1024 1024" version="1.1" xmlns="http://www.w3.org/2000/svg" p-id="5757" xmlns:xlink="http://www.w3.org/1999/xlink" width="200" height="200"><path d="M885.76 961.024H105.984c-17.92 0-31.744-14.336-31.744-32.256s14.336-31.744 31.744-31.744H885.76c17.92 0 32.256 14.336 32.256 31.744 0 17.92-14.336 32.256-32.256 32.256z" p-id="5758"></path><path d="M463.872 901.632v-181.248c0-17.92 14.336-31.744 32.256-31.744s31.744 14.336 31.744 31.744v181.248c0 17.92-14.336 32.256-31.744 32.256-17.92-0.512-32.256-14.848-32.256-32.256zM684.032 329.728h-123.392L629.76 261.12c12.288-12.288 12.288-32.768 0-45.056-12.288-12.288-32.768-12.288-45.056 0L496.128 304.128 407.552 216.064c-12.288-12.288-32.768-12.288-45.056 0-12.288 12.288-12.288 32.768 0 45.056l68.608 68.608H307.712c-17.92 0-32.256 14.336-32.256 31.744 0 17.92 14.336 32.256 32.256 32.256h156.16v50.688H334.336c-17.92 0-31.744 14.336-31.744 32.256s14.336 32.256 31.744 32.256h129.536v48.64c0 17.92 14.336 32.256 32.256 32.256s32.256-14.336 32.256-32.256v-48.64h129.536c17.92 0 32.256-14.336 32.256-32.256s-14.336-32.256-32.256-32.256h-129.536v-50.688h156.16c17.92 0 32.256-14.336 32.256-32.256-0.512-17.408-14.848-31.744-32.768-31.744z" p-id="5759"></path><path d="M882.688 66.048h-773.12c-33.792 0-61.44 27.648-61.44 61.44v542.72c0 33.792 27.648 61.44 61.44 61.44h773.12c33.792 0 61.44-27.648 61.44-61.44v-542.72c0-33.792-27.648-61.44-61.44-61.44z m-2.56 601.6h-768v-537.6h768v537.6z" p-id="5760"></path></svg>