<svg viewBox="0 0 1024 1024" xmlns="http://www.w3.org/2000/svg" fill="currentColor">
<path d="M506.368 520.704c-64.512 0.512-117.248-51.2-117.76-115.712-0.512-64.512 51.2-117.248 115.712-117.76 64.512-0.512 117.248 51.2 117.76 115.712v1.024c0 64.512-51.712 116.224-115.712 116.736z m0-180.224c-35.328 0-64 28.16-64.512 62.976-0.512 35.328 27.648 64 62.976 64 35.328 0.512 64-27.648 64-62.976v-0.512c0.512-34.816-27.648-62.976-62.464-63.488z m0 404.992c-14.336 0-26.624-11.776-26.112-26.624V495.104c0-14.336 11.776-26.112 26.112-26.112s26.112 11.776 26.112 26.112v223.744c0 14.848-11.776 26.624-26.112 26.624z m91.648-119.296H507.392c-14.848-0.512-26.112-12.8-25.6-27.136 0.512-14.336 11.776-25.6 25.6-25.6h90.624c14.848 0.512 26.112 12.8 25.6 27.136-0.512 13.824-11.776 25.088-25.6 25.6z m-90.624 301.056l-8.192-2.56c-5.12-1.536-124.416-41.984-198.656-101.888-51.712-41.472-98.304-89.088-138.752-141.824-5.12-8.192-7.68-17.408-7.68-27.136V250.368c0-15.36 9.216-29.184 23.552-34.304l324.608-130.56h9.216l4.608 1.536 320.512 129.024c14.336 5.632 23.552 18.944 23.552 34.304v402.944c0 9.728-2.56 18.944-7.68 27.136-40.448 52.224-87.04 99.84-138.752 141.824-74.24 59.904-193.536 99.84-198.144 101.888l-8.192 3.072z m-301.056-273.92c37.376 47.104 79.872 90.112 126.976 128 56.32 45.568 146.432 79.872 174.08 90.112 27.648-9.728 117.248-44.544 174.08-90.112 47.104-37.376 89.6-80.384 126.976-128V262.144L507.392 140.288 206.336 262.144v391.168z"  ></path>
</svg>