<svg viewBox="0 0 1024 1024" xmlns="http://www.w3.org/2000/svg" fill="currentColor">
<path d="M514.816 94.976L127.7952 199.5776l1.6896 396.7488 0.3584 4.864c0.5632 2.9696 13.1584 74.1376 76.2368 142.6944 48.4864 52.8896 226.7648 110.4896 277.5552 139.8272 7.8848 4.6592 13.8752 8.0896 17.3056 10.24l11.9808 7.2192 14.7456-8.2432c29.6448-16.128 238.4896-88.0128 294.5024-148.9408 63.232-68.608 75.776-139.776 76.288-142.6432l2.048-401.664-385.7408-104.5504v-0.1536z m326.7072 498.2272c-2.3552 10.4448-15.9744 62.0544-61.952 112.0256-46.7456 50.944-220.7232 103.0656-257.8432 123.5456l-6.4-3.584c-44.5952-25.856-224-72.8576-267.2128-119.8592-46.08-50.1248-59.5456-101.5808-61.952-112.0256l-1.4848-346.624 330.1376-87.808 328.0384 87.808-1.3312 346.5216z m-486.7584 92.0576h44.9536v-18.0224h229.0688v18.0224h44.5952v-125.184H354.7648v125.184z m45.056-93.44h228.9152v44.9536H399.8208v-44.9536z m119.3472-263.3728H418.0992l19.9168-39.8336-46.6432-5.2224a376.46848 376.46848 0 0 1-82.8416 123.904l8.0896 27.1872 5.0176 19.6608c12.0832-12.288 23.7056-24.9856 34.9184-38.0928v128.512h43.3152v-13.312h300.2368v-31.744h-141.1072v-28.672h122.7776v-26.5728h-122.7264v-28.3136h122.7264v-28.7744h-122.7264v-28.3136h134.1952v-30.464h-124.416a304.03072 304.03072 0 0 0-24.576-46.7968l-44.9536 6.8608 10.1376 20.224 9.7792 19.712v0.0512z m-3.4304 171.1616H399.8208v-28.672h115.9168v28.672z m0-55.296H399.8208v-28.3648h115.9168v28.3648z m0-57.088H399.8208V358.912h115.9168v28.3136z m0 0"  ></path>
</svg>