<svg viewBox="0 0 1024 1024" xmlns="http://www.w3.org/2000/svg" fill="currentColor">
<path d="M751.006515 783.459635 255.109431 783.459635l0-683.977863 495.897106 0L751.006537 783.459598zM306.409882 732.162253l393.297246 0L699.707127 150.779052 306.409873 150.779052 306.409873 732.162282 306.409882 732.162253zM548.413235 867.922227c0 23.175885-18.795827 41.946317-41.964442 41.946317-23.169638 0-41.965466-18.770534-41.965466-41.946317 0-23.176909 18.794803-41.981133 41.965466-41.981133C529.617408 825.94007 548.413235 844.744397 548.413235 867.922227M749.293466 1005.751398 256.820469 1005.751398c-48.086118 0-87.212749-39.143526-87.212749-87.217459L169.607721 101.192703c0-48.083149 39.126733-87.207219 87.212749-87.207219l492.472983 0c48.086118 0 87.213773 39.125094 87.213773 87.207219l0 817.341267C836.506214 966.607872 797.379584 1005.751398 749.293466 1005.751398zM256.820429 65.283891c-19.805901 0-35.911373 16.104755-35.911373 35.908813l0 817.341267c0 19.804058 16.106496 35.918029 35.911373 35.918029l492.472983 0c19.805901 0 35.913421-16.112947 35.913421-35.918029L785.206832 101.192703c0-19.804058-16.106496-35.908813-35.913421-35.908813L256.820469 65.283891z"  ></path>
</svg>