<svg viewBox="0 0 1137 1024" xmlns="http://www.w3.org/2000/svg" fill="currentColor">
<path d="M796.6281942749023 186.311765838623l229.85893240356444 0 0 37.46607852172851-229.85893240356444 0 0-37.46607852172851Z"  ></path><path d="M892.8149601135254 90.125l37.46607852172851 0 0 229.85893240356444-37.46607852172851 0 0-229.85893240356444Z"  ></path><path d="M352.4455162658692 371.7872103271484m-56.208779296875 0a2.396942138671875 2.396942138671875 0 1 0 112.41755776977539 0 2.396942138671875 2.396942138671875 0 1 0-112.41755776977539 0Z"  ></path><path d="M951.9993844604493 683.1092617797851l0-246.36023767089847-37.46607852172851 0 0 208.77822509765625 0 0L715.8220367736817 446.23630813598635 455.76223739624027 719.9377017822267l-126.87069204711914-127.19917199707032L127.59107852172855 794.599345489502 127.59107852172855 259.35033035278326c0-41.388519836425786 33.562959411621094-74.95147924804687 74.95147924804687-74.95147924804687l460.935174407959 0L663.4777321777343 163.58865713500973c-0.38644738769531245-5.526198303222656-0.656960723876953-11.052396606445312-0.656960723876953-16.6752067565918L202.54255776977539 146.9134503784179C140.47910021972655 146.9134503784179 90.125 197.2482283935547 90.125 259.35033035278326l0 562.1071118774414c0 62.082779754638665 50.35410021972656 112.41755776977539 112.41755776977539 112.41755776977539l637.0392689208985 0c62.082779754638665 0 112.41755776977539-50.35410021972656 112.41755776977539-112.41755776977539l0-138.1163123474121 0.11593405151367187-0.11593405151367187L951.9993844604493 683.1092617797851zM914.5526281433106 821.4381200256347L914.5526281433106 821.4381200256347 914.5526281433106 821.4381200256347c-0.01932220458984375 41.388519836425786-33.58228161621094 74.95147924804687-74.9708014526367 74.95147924804687L202.54255776977539 896.3895992736817c-37.137598571777346 0-67.76355734252931-27.08996484375-73.6955252380371-62.565838989257806l6.067224975585937 6.086547180175781 193.97728866577148-194.51831451416018 127.52765277099607 127.89477713012697 260.0404771728516-273.7400380554199L914.5526281433106 698.2000337524414 914.5526281433106 821.4381200256347z"  ></path>
</svg>