<svg viewBox="0 0 1024 1024" xmlns="http://www.w3.org/2000/svg" fill="currentColor">
<path d="M840.192 307.712c-36.352-57.344-87.552-103.936-148.48-134.656-13.312-6.656-29.696-1.024-36.352 12.288-6.656 13.312-1.024 29.696 12.288 36.352 52.224 26.112 95.744 66.048 126.976 115.2 31.744 50.688 48.64 109.056 48.64 169.472 0 84.992-33.28 164.864-93.184 224.768-59.904 59.904-139.776 93.184-224.768 93.184-84.992 0-164.864-33.28-224.768-93.184-59.904-60.416-93.184-140.288-93.184-225.28 0-59.904 16.896-118.784 49.152-169.472 31.232-49.152 75.264-89.088 127.488-115.2 13.312-6.656 18.432-23.04 12.288-36.352-6.656-13.312-23.04-18.432-36.352-12.288-60.928 30.72-112.64 76.8-148.992 134.656C173.568 367.104 153.6 435.2 153.6 505.856c0 50.176 9.728 98.816 29.184 144.896 18.944 44.544 45.568 83.968 79.872 118.272 34.304 34.304 73.728 60.928 118.272 79.872 46.08 19.456 94.72 29.184 144.896 29.184s98.816-9.728 144.896-29.184c44.544-18.944 83.968-45.568 118.272-79.872 34.304-34.304 60.928-73.728 79.872-118.272 19.456-46.08 29.184-94.72 29.184-144.896-1.024-70.656-20.48-138.752-57.856-198.144z m0 0"  ></path><path d="M525.312 567.296c14.848 0 26.624-12.288 26.624-27.136V160.768c0-14.848-11.776-27.136-26.624-27.136-14.848 0-26.624 12.288-26.624 27.136v379.392c0 14.848 11.776 27.136 26.624 27.136z m0 0"  ></path>
</svg>