<svg viewBox="0 0 1024 1024" xmlns="http://www.w3.org/2000/svg" fill="currentColor">
<path d="M601.088 522.24h5.12c10.24-5.12 15.36-15.36 15.36-25.6s-10.24-20.48-20.48-20.48H507.904v-20.48l93.184-93.184 5.12-5.12c0-5.12 5.12-5.12 5.12-10.24s0-10.24-5.12-15.36c-10.24-10.24-25.6-10.24-36.352 0l-82.432 81.92L394.24 325.632c-5.12-10.24-20.48-10.24-31.232 0-5.12 10.24-5.12 20.48 0 31.232l103.424 98.304v20.48H363.52c-5.12 5.12-15.36 10.24-15.36 20.48s5.12 20.48 15.36 20.48h98.304v36.352L363.52 558.08c-5.12 5.12-15.36 10.24-15.36 20.48s5.12 20.48 15.36 20.48h98.304v93.184c5.12 15.36 15.36 25.6 25.6 25.6s20.48-5.12 20.48-15.36V604.16h93.184c15.36-5.12 20.48-15.36 20.48-25.6s-10.24-20.48-20.48-20.48H507.904v-35.84h93.184z m0 0"  ></path><path d="M926.72 475.648c-10.24-10.24-25.6-10.24-36.352 0l-20.48 20.48c-5.12-206.848-175.616-367.104-382.464-367.104-211.968 0-382.464 170.496-382.464 382.464 0 211.968 170.496 382.464 382.464 382.464 118.784 0 222.208-51.712 289.28-134.656 5.12 0 5.12-5.12 5.12-10.24s5.12-5.12 5.12-10.24c0-15.36-10.24-25.6-25.6-25.6-10.24 0-15.36 5.12-20.48 10.24-61.952 72.192-150.016 118.784-253.44 118.784-186.368 0-330.752-150.016-330.752-330.752s150.016-330.752 330.752-330.752 330.752 150.016 330.752 330.752v5.12l-41.472-41.472c-10.24-10.24-25.6-10.24-36.352 0-10.24 10.24-10.24 25.6 0 36.352l67.072 67.072c5.12 5.12 10.24 5.12 15.36 5.12h5.12c5.12 0 10.24 0 15.36-5.12l83.456-66.56c5.12-10.24 5.12-26.112 0-36.352z m0 0"  ></path>
</svg>