<svg viewBox="0 0 1024 1024" xmlns="http://www.w3.org/2000/svg" fill="currentColor">
<path d="M859.428571 256a18.285714 18.285714 0 0 1-18.285714-18.285714V146.285714H182.857143v91.428572a18.285714 18.285714 0 0 1-36.571429 0v-109.714286a18.285714 18.285714 0 0 1 18.285715-18.285714h694.857142a18.285714 18.285714 0 0 1 18.285715 18.285714v109.714286a18.285714 18.285714 0 0 1-18.285715 18.285714z"  ></path><path d="M512 932.571429a18.285714 18.285714 0 0 1-18.285714-18.285715V128a18.285714 18.285714 0 0 1 36.571428 0V914.285714a18.285714 18.285714 0 0 1-18.285714 18.285715z"  ></path><path d="M694.857143 932.571429H329.142857a18.285714 18.285714 0 0 1 0-36.571429h365.714286a18.285714 18.285714 0 0 1 0 36.571429z"  ></path>
</svg>