<svg viewBox="0 0 1024 1024" xmlns="http://www.w3.org/2000/svg" fill="currentColor">
<path d="M862.72 734.208c-2.56-13.312-10.752-22.016-22.528-22.016h-1.024c-16.896 0-30.72-13.824-30.72-30.72 0-4.096 1.536-9.216 3.072-11.776 5.12-11.776 1.024-26.112-9.728-33.28h-0.512l-38.912-21.504-1.024-0.512c-3.584-1.536-7.168-2.56-10.752-2.56-8.192 0-15.36 3.584-20.992 8.704-4.608 4.608-17.408 14.336-24.064 14.336-7.68 0-19.456-9.728-25.088-14.336-5.12-5.632-13.312-8.704-20.992-8.704-4.096 0-7.68 0.512-11.776 2.56h-0.512l-39.936 22.016-1.024 0.512c-10.24 7.68-14.336 21.504-9.216 32.768 1.024 2.56 3.072 7.68 3.072 11.776 0 16.896-13.824 30.72-30.72 30.72h-1.536c-10.752 0-19.456 8.704-22.016 22.016 0 0.512-3.584 17.92-3.584 31.744s3.584 30.72 3.584 31.744c2.56 12.8 11.776 22.016 22.528 22.016h1.024c16.896 0 30.72 13.824 30.72 30.72 0 4.096-1.536 9.728-3.072 11.776-5.12 11.776-1.024 26.112 9.728 33.28h0.512l38.4 21.504 1.024 0.512c3.584 1.536 7.168 2.56 10.752 2.56 8.192 0 16.384-3.584 21.504-9.216 5.632-6.144 18.432-15.36 25.088-15.36 7.68 0 20.48 10.24 25.6 15.36 5.12 5.632 13.312 9.216 21.504 9.216 4.096 0 7.68-0.512 11.776-2.56h0.512l39.424-22.016 1.024-0.512c10.24-7.68 14.336-21.504 9.216-32.768-0.512-1.536-3.072-7.68-3.072-11.776 0-16.896 13.824-30.72 30.72-30.72h1.536c10.752 0 19.456-8.704 22.016-22.016 0.512-1.536 3.584-18.432 3.584-31.744-1.536-12.8-4.608-28.672-5.12-31.744zM772.096 849.92c0 6.144 1.024 12.8 3.072 17.92l-23.552 13.312c-2.56-2.56-5.632-5.12-10.24-8.704-12.8-9.728-25.6-14.336-37.376-14.336s-24.064 4.608-36.864 14.336c-4.096 3.072-7.68 5.632-9.728 8.192l-22.528-12.8c1.536-4.608 3.072-11.776 3.072-17.92 0-32.768-24.064-60.928-55.808-66.048-0.512-5.12-1.536-12.288-1.536-17.92s0.512-12.8 1.536-17.92c31.744-5.12 55.808-33.28 55.808-66.048 0-6.144-1.024-12.8-3.072-17.92l25.088-13.824c2.56 2.56 5.632 5.12 10.24 8.192 12.8 9.216 25.088 13.824 36.352 13.824 11.776 0 23.552-4.608 36.352-13.312 4.096-3.072 7.68-5.632 9.728-8.192l23.552 13.312c-1.536 4.608-3.072 10.752-3.072 17.92 0 32.768 24.064 60.928 55.808 66.048 0.512 5.12 1.536 12.288 1.536 17.92s-0.512 12.8-1.536 17.92c-32.768 5.12-56.832 32.768-56.832 66.048z"  ></path><path d="M704 703.488c-34.304 0-61.952 27.648-61.952 61.952 0 34.304 27.648 61.952 61.952 61.952 34.304 0 61.952-27.648 61.952-61.952s-28.16-61.952-61.952-61.952z m0 88.064c-13.824 0-25.6-11.776-25.6-25.6s11.776-25.6 25.6-25.6 25.6 11.776 25.6 25.6c-0.512 13.824-11.776 25.6-25.6 25.6z"  ></path><path d="M240.128 811.008v-619.52c0-29.696 24.064-53.76 53.76-53.76h456.704c29.696 0 53.76 24.064 53.76 53.76v406.528h53.76V190.976c0-59.392-48.128-108.032-107.52-108.032H293.888c-59.392 0-107.52 48.128-107.52 108.032v619.52c0 59.392 48.128 108.032 107.52 108.032h215.04v-53.76h-215.04c-29.696 0-53.76-24.064-53.76-53.76z m0 0"  ></path><path d="M710.656 407.04c0-14.848-12.288-26.624-26.624-26.624H360.96c-14.848 0-26.624 12.288-26.624 26.624 0 14.848 12.288 26.624 26.624 26.624h322.56c14.848 0 27.136-11.776 27.136-26.624z m0 0M354.304 514.56c-11.264 0-19.968 8.704-19.968 19.968s8.704 19.968 19.968 19.968h107.52c11.264 0 19.968-8.704 19.968-19.968s-8.704-19.968-19.968-19.968h-107.52z m0 0M683.52 245.248h-322.56c-14.848 0-26.624 12.288-26.624 26.624 0 14.848 12.288 26.624 26.624 26.624h322.56c14.848 0 26.624-12.288 26.624-26.624 0.512-14.848-11.776-26.624-26.624-26.624z m0 0M542.208 514.56h-13.312c-11.264 0-19.968 8.704-19.968 19.968s8.704 19.968 19.968 19.968h13.312c11.264 0 19.968-8.704 19.968-19.968 0.512-10.752-8.704-19.968-19.968-19.968z m0 0"  ></path>
</svg>