<svg viewBox="0 0 1024 1024" xmlns="http://www.w3.org/2000/svg" fill="currentColor">
<path d="M666.112 155.648c-40.96-43.008-96.256-67.072-154.624-67.072s-113.152 23.552-154.624 67.072c-40.96 42.496-63.488 99.328-63.488 159.744s22.528 117.248 63.488 159.744c11.264 11.776 24.064 22.528 37.376 31.232-45.056 15.36-96.256 41.472-140.8 85.504C179.2 665.6 141.824 770.048 141.312 902.656c0 16.384 12.8 29.184 29.184 29.184 15.872 0 29.184-12.8 29.184-29.184 0.512-150.016 52.224-255.488 154.624-314.368 77.824-44.544 157.184-45.056 158.208-45.056 3.072 0 5.632-0.512 8.192-1.024 54.784-2.56 105.472-26.112 144.384-66.56 40.96-42.496 63.488-99.328 63.488-159.744 0.512-60.928-22.016-117.76-62.464-160.256z m-154.624 327.68c-88.064 0-159.232-75.264-159.232-167.936s71.68-167.936 159.232-167.936S670.72 222.72 670.72 315.392s-71.168 167.936-159.232 167.936z m239.616 81.408c-13.824-8.192-31.744-3.584-39.936 10.24s-3.584 31.744 10.24 39.936c0 0 24.064 15.36 48.128 55.296 24.576 40.96 54.272 114.688 54.272 235.52 0 16.384 13.312 29.184 29.184 29.184 16.384 0 29.184-13.312 29.184-29.184 0.512-260.608-125.44-337.92-131.072-340.992z"  ></path>
</svg>