<svg viewBox="0 0 1024 1024" xmlns="http://www.w3.org/2000/svg" fill="currentColor">
<path d="M784 272h-139.2L624 209.6c-12.8-40-49.6-65.6-91.2-65.6H318.4c-41.6 0-78.4 25.6-91.2 65.6l-22.4 65.6c-72 16-126.4 80-126.4 156.8v320c0 88 72 160 160 160h544c88 0 160-72 160-160V432c1.6-88-70.4-160-158.4-160z m-496-41.6c4.8-12.8 16-22.4 30.4-22.4h214.4c14.4 0 25.6 8 30.4 22.4l14.4 41.6H275.2l12.8-41.6zM880 752c0 52.8-43.2 96-96 96H240c-52.8 0-96-43.2-96-96V432c0-52.8 43.2-96 96-96h544c52.8 0 96 43.2 96 96v320z" fill="currentColor" ></path><path d="M752 240h64c17.6 0 32-14.4 32-32s-14.4-32-32-32h-64c-17.6 0-32 14.4-32 32s14.4 32 32 32zM512 432c-88 0-160 72-160 160s72 160 160 160 160-72 160-160-72-160-160-160z m0 256c-52.8 0-96-43.2-96-96s43.2-96 96-96 96 43.2 96 96-43.2 96-96 96z" fill="currentColor" ></path>
</svg>