<svg viewBox="0 0 1024 1024" xmlns="http://www.w3.org/2000/svg" fill="currentColor">
<path d="M647.68 890.88c13.312 0 24.064-10.24 24.064-23.04v-251.904c0-6.144-2.56-12.288-7.168-16.384-4.608-4.096-10.24-6.656-16.896-6.656-6.144 0-12.288 2.048-16.896 6.656-4.608 4.096-7.168 10.24-7.168 16.384v251.904c0 12.8 10.752 23.04 24.064 23.04z m-208.896 0c13.312 0 24.064-10.24 24.064-23.04v-352.768c0-6.144-2.56-12.288-7.168-16.384-4.608-4.096-10.24-6.656-16.896-6.656-6.144 0-12.288 2.048-16.896 6.656-4.608 4.096-7.168 10.24-7.168 16.384v352.768c0 6.144 2.56 12.288 7.168 16.384 4.608 4.608 10.752 7.168 16.896 6.656z m-181.76-224.768v201.728c0 6.144-2.56 12.288-7.168 16.384-4.608 4.096-10.24 6.656-16.896 6.656-6.144 0-15.36-2.048-19.968-6.144-4.608-4.096-7.168-10.24-7.168-16.384v-201.728c0-12.8 13.824-23.04 27.136-23.04 13.312-0.512 24.064 9.728 24.064 22.528zM916.48 336.384c-13.312 0-27.136-10.24-27.136-23.552V206.848L619.52 481.792s-0.512 0-0.512 0.512c-0.512 0-1.024 0.512-1.536 1.024l-0.512 0.512c-9.216 8.704-23.552 8.704-32.256 0l-193.536-189.44L148.992 532.48c-9.728 9.728-27.136 9.728-37.376 0s-10.24-31.232 1.536-43.52L370.176 235.52c2.56-2.56 5.632-4.608 9.216-5.632 8.704-3.584 18.432-2.048 25.088 4.608l0.512 0.512 0.512 0.512 0.512 0.512v0.512l191.488 187.904L851.968 174.08h-107.52c-6.144 0-12.288-2.56-16.896-6.656-4.608-4.608-7.168-15.36-7.168-21.504 0-12.8 10.752-23.552 24.064-23.552h164.864c5.12-1.024 10.24-0.512 15.36 1.536 9.728 3.584 15.872 11.776 15.872 22.016v166.912c0 12.8-10.752 23.552-24.064 23.552zM861.184 890.88c-13.312 0-23.552-10.24-24.064-23.552v-358.4c0-12.8 10.752-23.552 24.064-23.552s24.064 10.24 24.064 23.552v358.4c0 13.312-10.752 23.552-24.064 23.552z m0 0"  ></path>
</svg>