<svg viewBox="0 0 1024 1024" xmlns="http://www.w3.org/2000/svg" fill="currentColor">
<path d="M765.952 732.16c-29.696 0-56.32-19.968-64-48.64-8.192-28.672 4.096-59.392 29.696-74.752s58.368-12.288 79.872 8.192c19.968 18.432 26.624 46.592 16.896 72.192-9.216 25.088-33.28 42.496-59.904 43.52-1.024-0.512-1.536-0.512-2.56-0.512z m0-86.528h-0.512c-10.752 0-19.456 9.216-18.944 19.456 0 10.752 8.704 19.456 19.456 19.456 10.752 0 19.456-8.704 19.456-19.456 0-10.752-8.704-19.456-19.456-19.456z m0 0"  ></path><path d="M731.648 840.192c-8.192 0-15.36-4.096-19.968-10.752l-28.672-45.568-53.76-12.288c-6.144-1.536-11.264-5.12-14.336-10.24-3.072-5.12-4.096-11.776-3.072-17.408l12.288-53.76-29.184-46.592c-6.656-10.752-3.584-25.088 7.168-32.256l46.592-29.184 12.288-52.736c1.536-6.144 5.12-11.264 10.24-14.336 5.12-3.072 11.776-4.096 17.408-3.072l52.736 12.288 45.568-28.672c5.12-3.072 11.776-4.096 17.408-3.072 6.144 1.536 11.264 5.12 14.336 10.24l28.672 45.568 53.76 12.288c6.144 1.536 11.264 5.12 14.336 10.24 3.072 5.12 4.096 11.776 3.072 17.408l-12.288 53.76 29.184 46.592c6.656 10.752 3.584 25.088-7.168 32.256l-46.592 29.184-12.288 52.736c-1.536 6.144-5.12 11.264-10.24 14.336-5.12 3.072-11.776 4.096-17.408 3.072l-52.736-12.288-45.568 28.672c-3.072 2.048-7.168 3.584-11.776 3.584z m-68.608-109.568l40.448 9.216c6.144 1.536 11.264 5.12 14.336 10.24l21.504 34.304 34.304-21.504c5.12-3.072 11.776-4.096 17.408-3.072l39.424 9.216 9.216-39.424c1.536-6.144 5.12-11.264 10.24-14.336l35.328-22.016-22.016-35.328c-3.072-5.12-4.096-11.776-3.072-17.408l9.216-40.448-40.448-9.216c-6.144-1.536-11.264-5.12-14.336-10.24l-21.504-34.304-34.304 21.504c-5.12 3.072-11.776 4.096-17.408 3.072l-39.424-9.216-9.216 39.424c-1.536 6.144-5.12 11.264-10.24 14.336l-35.328 22.016 22.016 35.328c3.072 5.12 4.096 11.776 3.072 17.408l-9.216 40.448z m0 0"  ></path><path d="M267.264 841.728c-14.336 0-26.112-11.776-26.112-26.112v-90.112H163.84c-32.768 0-59.392-26.624-59.392-59.392V245.76c0-32.768 26.624-59.392 59.392-59.392h653.824c32.768 0 59.392 26.624 59.392 59.392v187.904c0 13.824-11.264 25.088-25.088 25.088s-25.088-11.264-25.088-25.088V245.76c0-4.608-4.096-8.704-8.704-8.704H163.84c-4.608 0-8.704 4.096-8.704 8.704v420.352c0 4.608 4.096 8.704 8.704 8.704h128v91.648l121.856-91.648h128.512c13.824 0 25.088 11.264 25.088 25.088s-11.264 25.088-25.088 25.088H430.592l-147.456 111.104c-4.608 4.096-10.24 5.632-15.872 5.632z m0 0"  ></path><path d="M664.576 408.576H307.712c-13.824 0-25.088-11.264-25.088-25.088s11.264-25.088 25.088-25.088h356.864c13.824 0 25.088 11.264 25.088 25.088 0 13.312-11.264 25.088-25.088 25.088z m-83.456 137.216H307.712c-13.824 0-25.088-11.264-25.088-25.088s11.264-25.088 25.088-25.088h273.408c13.824 0 25.088 11.264 25.088 25.088 0.512 13.824-11.264 25.088-25.088 25.088z m0 0"  ></path>
</svg>