<svg viewBox="0 0 1024 1024" xmlns="http://www.w3.org/2000/svg" fill="currentColor">
<path d="M758.272 361.984h-32.256c-16.384-114.688-122.88-194.56-238.08-177.664-92.16 13.312-164.352 85.504-177.664 177.664h-32.256c-99.328 0-180.224 80.384-180.224 180.224S178.688 721.92 278.016 721.92h30.208c16.384 0 30.208-13.312 30.208-30.208 0-16.384-13.312-30.208-30.208-30.208h-30.208c-66.048 0-119.808-53.76-119.808-119.808s53.76-119.808 119.808-119.808H337.92c16.384 0 30.208-13.312 30.208-30.208 0-82.944 67.072-150.016 150.016-150.016s150.016 67.072 150.016 150.016c0 16.384 13.312 30.208 30.208 30.208h59.904c66.048 0 119.808 53.76 119.808 119.808s-53.76 119.808-119.808 119.808h-30.208c-16.384 0-30.208 13.312-30.208 30.208 0 16.384 13.312 30.208 30.208 30.208h30.208c99.328 0 180.224-80.384 180.224-180.224s-80.896-179.712-180.224-179.712z"  ></path><path d="M603.136 684.544L547.84 739.84V481.792c-1.024-16.384-14.848-29.184-31.744-28.16-15.36 1.024-27.648 12.8-28.16 28.16v257.536l-54.784-54.784c-11.776-11.776-30.72-11.776-42.496 0-11.776 11.776-11.776 30.72 0 42.496L496.64 833.024c11.776 11.776 30.72 11.776 42.496 0L645.12 727.04c11.776-11.776 11.776-30.72 0-42.496-11.264-11.264-30.208-11.264-41.984 0z"  ></path>
</svg>