<svg viewBox="0 0 1024 1024" xmlns="http://www.w3.org/2000/svg" fill="currentColor">
<path d="M361.503846 382.828032c0 27.324314-22.143181 49.468621-49.468621 49.468621-27.317248 0-49.470669-22.144307-49.470669-49.468621 0-27.315098 22.153421-49.467597 49.470669-49.467597C339.360666 333.360435 361.503846 355.512934 361.503846 382.828032M361.503846 382.828032c0 27.324314-22.143181 49.468621-49.468621 49.468621-27.317248 0-49.470669-22.144307-49.470669-49.468621 0-27.315098 22.153421-49.467597 49.470669-49.467597C339.360666 333.360435 361.503846 355.512934 361.503846 382.828032M796.873011 382.828032c0 27.324314-22.144205 49.468621-49.469645 49.468621-27.317248 0-49.469645-22.144307-49.469645-49.468621 0-27.315098 22.151373-49.467597 49.469645-49.467597C774.728806 333.360435 796.873011 355.512934 796.873011 382.828032M852.259635 939.328614 199.206993 939.328614c-55.014195 0-99.772314-44.763546-99.772314-99.769242l0-507.918032c0-55.009894 44.758221-99.76617 99.772314-99.76617l653.052677 0c55.014195 0 99.77129 44.756378 99.77129 99.76617l0 507.918032C952.031027 894.565069 907.27383 939.328614 852.259635 939.328614zM199.207014 286.293402c-25.004442 0-45.350707 20.346368-45.350707 45.34784l0 507.918032c0 24.997274 20.346163 45.349888 45.350707 45.349888l653.052677 0c25.004442 0 45.350707-20.353536 45.350707-45.349888l0-507.918032c0-25.002394-20.347187-45.34784-45.350707-45.34784L199.206993 286.293402zM770.627174 376.99113l-54.42063 0L716.206544 150.244886c0-25.002394-20.347187-45.34784-45.350707-45.34784L380.610799 104.897046c-25.004442 0-45.350707 20.346368-45.350707 45.34784l0 226.746234-54.42063 0L280.839462 150.244886c0-55.009894 44.757197-99.767194 99.772314-99.767194L670.855865 50.477692c55.014195 0 99.77129 44.756378 99.77129 99.767194L770.627154 376.99112z"  ></path>
</svg>