<svg viewBox="0 0 1024 1024" xmlns="http://www.w3.org/2000/svg" fill="currentColor">
<path d="M442.368 920.576c-38.912 0-71.68-30.208-74.24-69.12l-5.632-40.448c-15.36-7.168-30.208-15.872-44.544-25.088l-38.912 15.872c-35.328 16.896-77.824 4.608-97.792-29.184v-0.512l-67.072-113.664c-19.968-33.792-9.728-77.824 23.552-99.328l32.768-25.088c-1.536-16.896-1.536-33.792 0-50.176L138.24 458.752c-32.768-21.504-43.52-64.512-23.552-98.816l66.56-114.176c19.968-33.792 62.464-46.592 97.792-29.696l38.912 15.872c14.336-9.728 29.184-17.92 44.544-25.088l5.632-40.96c3.072-39.424 35.328-69.632 74.24-69.632h134.656c39.936 0 72.192 30.208 74.752 69.12l5.632 40.448c15.36 7.168 30.208 15.872 44.544 25.088l38.912-15.872c35.328-16.896 77.824-4.096 97.792 29.696l66.56 113.664c19.968 33.792 9.728 77.824-23.04 99.328l-33.28 25.088c1.536 16.384 1.536 33.28 0 49.664l11.264 8.704c11.776 9.216 14.336 26.112 5.12 37.888-9.216 11.776-26.112 14.336-37.888 5.12l-23.04-17.92c-7.68-5.632-11.776-15.36-10.24-25.088 3.072-22.528 3.072-45.056 0-67.584-1.024-9.728 2.56-18.944 10.24-25.088l46.08-34.816c0.512-0.512 1.536-1.024 2.048-1.536 8.704-5.632 11.776-17.408 6.656-26.624l-66.56-113.664c-5.632-9.728-17.92-13.312-27.648-7.68-0.512 0.512-1.536 0.512-2.048 1.024L709.632 286.72c-8.704 3.584-18.432 2.048-26.112-3.072-18.944-13.824-38.912-25.088-60.416-34.304-8.704-3.584-14.848-11.776-16.384-20.992l-7.68-56.32v-2.56c-0.512-10.752-9.728-18.944-20.992-18.944H442.368c-10.752 0-19.968 8.704-20.48 19.968v2.048l-7.68 56.32c-1.536 9.728-7.68 17.408-16.384 21.504-21.504 9.216-41.472 20.48-60.416 34.304-7.68 5.632-17.408 6.656-26.112 3.072L257.536 266.24c-0.512-0.512-1.536-0.512-2.048-1.024-9.728-5.12-22.016-1.536-27.648 8.192l-66.56 113.664c-5.12 9.216-2.56 20.48 6.656 26.112 1.024 0.512 1.536 1.024 2.048 1.536l45.568 34.816c7.68 6.144 11.776 15.872 10.24 25.088-3.072 22.016-3.072 44.544 0 67.072 1.536 9.728-2.56 19.456-10.24 25.6l-46.08 34.816c-0.512 0.512-1.536 1.024-2.048 1.536-9.216 5.632-12.288 17.408-6.656 26.112l67.072 113.664c5.632 9.728 18.432 13.312 28.16 8.192 0.512-0.512 1.536-0.512 2.048-1.024l53.248-21.504c8.704-3.584 18.432-2.048 26.112 3.072 18.944 13.824 38.912 25.088 60.416 34.304 8.704 3.584 14.848 11.776 16.384 20.992l7.68 56.32v2.56c0.512 10.752 9.216 18.944 19.968 18.944h53.76c9.728 0 18.944 5.12 24.064 13.312 5.12 8.704 5.12 18.944 0 27.136-5.12 8.704-13.824 13.824-24.064 13.312l-53.248 1.536z m67.584-216.576c-109.056 0-198.144-87.552-198.144-195.072s89.088-195.072 198.144-195.072 198.144 87.552 198.144 195.072c0 23.04-4.096 45.568-11.776 67.072-3.584 9.216-11.264 15.872-20.992 17.408-9.728 1.536-19.456-2.048-25.6-9.728a27.3408 27.3408 0 0 1-4.096-27.136c5.632-15.36 8.704-31.744 8.704-47.616 0-77.824-64.512-140.8-143.872-140.8-79.36 0-143.872 63.488-143.872 140.8 0 77.824 64.512 140.8 143.872 140.8 14.848 0 27.136 12.288 27.136 27.136-1.024 14.848-12.8 27.136-27.648 27.136z m0 0"  ></path><path d="M903.68 684.544h-305.664c-9.728 0-18.944-5.12-24.064-13.312-5.12-8.704-5.12-18.944 0-27.136 5.12-8.704 13.824-13.824 24.064-13.312h305.664c9.728 0 18.944 5.12 24.064 13.312 5.12 8.704 5.12 18.944 0 27.136-5.12 8.192-13.824 13.312-24.064 13.312z m0 111.104h-305.664c-9.728 0-18.944-5.12-24.064-13.312-5.12-8.704-5.12-18.944 0-27.136 5.12-8.704 13.824-13.824 24.064-13.312h305.664c9.728 0 18.944 5.12 24.064 13.312 5.12 8.704 5.12 18.944 0 27.136-5.12 8.704-13.824 13.824-24.064 13.312z m0 111.616h-305.664c-9.728 0-18.944-5.12-24.064-13.312-5.12-8.704-5.12-18.944 0-27.136 5.12-8.704 13.824-13.824 24.064-13.312h305.664c9.728 0 18.944 5.12 24.064 13.312 5.12 8.704 5.12 18.944 0 27.136-5.12 8.704-13.824 13.824-24.064 13.312z m0 0"  ></path>
</svg>