<svg viewBox="0 0 1024 1024" xmlns="http://www.w3.org/2000/svg" fill="currentColor">
<path d="M647.8848 929.5872H148.5312c-21.9648 0-39.7824-17.8176-39.7824-39.7824V303.2576c0-9.5232 3.4304-18.7392 9.6256-25.9584l90.9312-105.6768a39.75168 39.75168 0 0 1 30.1568-13.824h317.4912c11.6224 0 22.6304 5.0688 30.1568 13.824l90.9312 105.6768a39.89504 39.89504 0 0 1 9.6256 25.9584V889.856c0 21.9136-17.8176 39.7312-39.7824 39.7312z m-442.6752-47.5648h394.2912c21.9648 0 39.7824-17.8176 39.7824-39.7824V318.8224c0-9.6256-3.5328-18.944-9.8304-26.2144l-64.512-73.728a39.76704 39.76704 0 0 0-29.952-13.568h-265.216c-11.4688 0-22.3744 4.9664-29.952 13.568l-64.5632 73.728a39.7568 39.7568 0 0 0-9.8304 26.2144V842.24c0 21.9648 17.8176 39.7824 39.7824 39.7824z"  ></path><path d="M406.9376 375.0912c-45.1072 0-81.8688-36.9664-81.8688-82.432s36.7104-82.432 81.8688-82.432 81.8688 36.9664 81.8688 82.432c-0.0512 45.4656-36.7616 82.432-81.8688 82.432z m0-117.2992c-18.8928 0-34.2528 15.6672-34.2528 34.8672s15.4112 34.8672 34.2528 34.8672c18.8928 0 34.2528-15.6672 34.2528-34.8672 0-19.2-15.36-34.8672-34.2528-34.8672zM608.3072 424.9088l-147.4048 168.0384h116.1216v37.12H441.7024v51.1488h135.3216v37.632H441.7024v74.496H372.1728V718.848H231.7312v-37.632h140.3904v-51.1488H231.7312v-37.12h119.808L205.568 424.9088h78.4384c68.2496 83.456 109.568 136.448 124.2624 158.7712h1.4848c4.9664-9.1648 18.5344-27.7504 40.8576-55.7568l83.5072-103.0144h74.1888z"  ></path><path d="M721.5104 857.1392c-12.9536 0-24.6272-7.4752-27.648-18.5344-3.4304-12.8 6.0928-25.5488 21.3504-28.4672l146.944-26.88a17.34144 17.34144 0 0 0 13.568-21.7088L723.3024 216.6272c-1.1264-4.096-3.7888-7.6288-7.3728-9.9328l-102.3488-65.2288c-3.7376-2.4064-8.2944-3.2256-12.6464-2.4064l-89.856 17.664c-15.3088 2.9696-30.464-4.9664-34.048-17.7152-3.584-12.8 5.888-25.6 21.1456-28.5696l109.4656-21.4528a36.3008 36.3008 0 0 1 28.416 6.3488L757.3504 184.32c6.656 4.9152 11.4688 11.8784 13.6192 19.8656l161.9968 594.3808c2.6624 9.728-3.5328 19.6608-13.4656 21.5552l-191.6416 36.4544c-2.1504 0.3584-4.2496 0.5632-6.3488 0.5632z"  ></path>
</svg>