<svg viewBox="0 0 1024 1024" xmlns="http://www.w3.org/2000/svg" fill="currentColor">
<path d="M762.8288 98.3552H292.864c-45.2608 0-82.7392 37.4784-82.7392 82.7392v654.1824c0 45.2608 37.4784 82.7392 82.7392 82.7392h469.9648c45.2608 0 82.7392-37.4784 82.7392-82.7392V181.0944c0-45.2608-37.4784-82.7392-82.7392-82.7392zM267.8784 181.0944c0-12.4928 10.9056-24.9856 24.9856-24.9856h469.9648c14.0288 0 24.9856 10.9056 24.9856 24.9856v432.4864H267.8784V181.0944z m518.3488 654.1824c0 12.4928-10.9056 24.9856-24.9856 24.9856H292.864c-14.0288 0-24.9856-10.9056-24.9856-24.9856v-160.8192h518.3488v160.8192z m0 0"  ></path><path d="M481.792 796.2624h90.5728c15.616 0 29.6448-12.4928 29.6448-29.6448s-12.4928-29.6448-29.6448-29.6448h-92.16c-15.616 0-29.6448 12.4928-29.6448 29.6448s14.0288 29.6448 31.232 29.6448z m0 0"  ></path>
</svg>