<svg viewBox="0 0 1024 1024" xmlns="http://www.w3.org/2000/svg" fill="currentColor">
<path d="M752.6912 758.4256h-0.6656c-6.8096 0-13.568-1.4336-20.1728-4.0448l-4.2496-2.0992-35.9936-19.7632c-18.5344-12.7488-26.2656-35.7888-19.5584-56.576-21.6064-2.2528-38.6048-18.432-42.8544-40.7552-1.9456-10.1376-3.1232-20.48-3.2768-30.8224 0.2048-11.1616 1.28-21.5552 3.2768-31.744 4.352-22.4768 21.6064-38.7584 42.6496-40.704a50.61632 50.61632 0 0 1 19.5584-56.4224l3.7888-2.2528 34.304-18.7392c6.8096-2.9184 13.8752-4.352 21.1456-4.352h0.6144c14.2336 0 28.1088 5.7856 38.0928 15.9744 10.0864-10.496 24.8832-15.872 38.9632-16.384 6.8608 0.1024 13.8752 1.3312 20.5312 4.1472l4.1472 2.048 35.072 19.3536c18.688 12.9536 26.4704 36.096 19.7632 56.7808 21.6064 2.2528 38.6048 18.432 42.8544 40.7552 1.9456 10.0352 3.1232 20.48 3.2768 30.8224a180.48 180.48 0 0 1-3.2768 31.6416c-4.352 22.6816-21.7088 38.912-42.8544 40.8064 6.656 20.8896-1.1776 44.032-19.968 56.7808l-3.2256 1.9968-35.584 19.2c-6.5024 2.816-13.3632 4.5568-20.8384 4.1472h-0.3072c-13.8752 0-27.4432-5.4784-37.4272-15.2064-9.6768 9.728-23.4496 15.4112-37.7856 15.4112z m44.6976-20.5824c-0.1024 0.1024-0.3072 0.2048-0.4096 0.2048 0.1536-0.0512 0.3072-0.1536 0.4096-0.2048z m-44.9536-19.6608c3.584 0 6.656-1.3312 8.9088-3.584 4.5568-4.6592 9.6768-8.4992 15.3088-11.6224 3.9936-2.2528 9.1136-3.4816 14.08-3.584 4.6592 0 9.216 1.1264 13.3632 3.328 5.9392 3.2256 11.1616 7.0144 15.7184 11.6224 2.2016 2.2528 5.2224 3.2256 8.6016 3.4816 2.1504-0.2048 3.2256-0.3072 4.5568-0.8704l31.6928-17.3568c3.9936-2.7648 5.5296-8.0384 3.4816-12.544-0.8704-1.9968-1.28-3.328-1.6384-4.608-0.768-2.2528-1.3312-5.2736-1.536-8.2944-0.2048-21.248 16.4864-37.888 37.2224-38.0928 4.9664 0 7.2704-4.2496 8.0384-8.2432v-0.1024c1.536-7.8336 2.4064-15.9744 2.6112-24.1152-0.2048-7.3728-0.9728-15.4112-2.6112-23.3472-0.768-4.1472-3.1232-8.2432-6.5024-8.2432-22.272-0.2048-38.9632-16.8448-38.8608-37.0176 0.2048-3.6864 0.6656-6.5024 1.536-9.1648v-0.9216l1.7408-3.8912c2.048-4.5568 0.4608-9.8304-3.584-12.6464l-32.2048-17.5616c-1.28-0.4608-2.7136-0.8704-4.0448-0.768h-0.1024c-3.4816 0-6.6048 1.3312-8.8064 3.6864-4.864 5.12-10.2912 9.3696-16.4864 12.7488-8.9088 4.4544-18.6368 4.4544-26.7776 0.2048-6.2976-3.4816-11.7248-7.6288-16.4864-12.4928a11.9808 11.9808 0 0 0-8.7552-3.7888h-0.1024c-1.6384 0-3.1232 0.3072-4.4544 0.8704l-31.1296 17.2032c-3.9936 2.7648-5.5296 8.1408-3.4816 12.544 1.7408 4.5568 2.7136 8.2432 3.1232 11.9808l0.1024 2.048c0.2048 20.224-16.5888 36.864-37.3248 37.0688-4.9664 0-7.2704 4.0448-8.0384 8.2432-1.536 8.0384-2.4064 16.0768-2.6112 24.1152 0.2048 7.3728 0.9728 15.5136 2.5088 23.4496 0.768 4.0448 3.1232 8.2432 6.5024 8.2432 22.272 0.3072 38.9632 16.8448 38.8608 37.0176-0.2048 3.9424-0.768 7.0144-1.7408 10.0352-0.2048 0.768-0.5632 1.8944-1.0752 3.0208-2.4064 5.376-0.8704 10.752 3.2256 13.6192l32.8704 17.7664c1.4848 0.256 2.6112 0.4608 4.3008 0.5632z"  ></path><path d="M795.1872 666.112c-26.368-0.2048-49.664-16.5376-58.0096-40.7552-0.4608-1.536-0.768-2.816-0.9728-4.0448-3.1232-11.3664-2.816-23.4496 0.9728-34.56l1.28-4.0448c9.6768-22.8864 31.7952-37.3248 56.6272-37.4272 8.9088 0 17.8176 1.9968 25.9072 5.6832a59.7504 59.7504 0 0 1 31.0272 31.1808c0.6656 1.6896 1.0752 3.2256 1.3312 4.6592 3.6864 11.0592 4.1472 22.6816 1.28 33.8432-0.2048 1.536-0.4608 3.0208-0.9728 4.4544-4.4544 12.6464-12.9024 23.3472-23.8592 30.5152-9.984 6.8096-22.016 10.496-34.6112 10.496z m-23.8592-49.6128c3.8912 8.96 13.312 15.3088 23.9616 15.3088a25.6 25.6 0 0 0 14.5408-4.5568 26.112 26.112 0 0 0 9.5744-11.0592v-0.3584l0.768-2.7648a25.4464 25.4464 0 0 0-0.6144-16.5376l-1.0752-3.3792c-2.4064-4.5568-6.8608-8.704-12.288-11.0592-3.584-1.6896-7.3728-2.4576-11.0592-2.4576-9.7792 0-18.688 5.376-23.0912 13.8752l-0.9728 2.816a25.20576 25.20576 0 0 0-0.5632 16.896l0.8704 2.6624-0.0512 0.6144z"  ></path><path d="M607.744 732.6208H144.2816c-33.9456 0-61.696-26.9312-61.696-60.1088V193.2288c0-33.0752 27.648-60.1088 61.696-60.1088h698.112c33.9456 0 61.696 26.9312 61.696 60.1088v204.3904c0 14.1824-11.8272 25.7024-26.368 25.7024-14.5408 0-26.368-11.52-26.368-25.7024V193.2288c0-4.608-4.0448-8.6016-8.8064-8.6016H144.3328c-4.7616 0-8.8064 3.9424-8.8064 8.6016v479.3856c0 4.6592 4.0448 8.6016 8.8064 8.6016h463.4624c14.5408 0 26.368 11.52 26.368 25.7024-0.0512 14.1824-11.8784 25.7024-26.4192 25.7024z"  ></path><path d="M244.8384 579.072c-5.2224 0-10.5472-1.536-15.104-4.7104-11.9296-8.1408-14.7968-24.2176-6.4-35.7888l130.304-180.7872c5.3248-7.3728 15.5136-9.6256 23.552-5.2736l132.0448 71.0656c8.448 4.5568 18.9952 1.8944 24.1664-6.0416L635.904 258.56c6.6048-10.1888 21.504-11.1616 29.3888-1.792l96.9728 114.8928c9.3184 10.9568 7.68 27.1872-3.584 36.1984-11.264 9.0624-27.9552 7.4752-37.12-3.4816l-50.432-59.6992c-7.8848-9.3696-22.784-8.3968-29.3888 1.792L551.424 486.0928c-5.1712 7.936-15.7184 10.5984-24.1664 6.0416L392.96 419.84c-8.1408-4.352-18.3296-2.048-23.552 5.2736l-102.9632 142.9504a26.8544 26.8544 0 0 1-21.6064 11.008z m248.3712 283.392c-14.5408 0-26.368-11.52-26.368-25.7024v-129.9456c0-14.1824 11.8272-25.7024 26.368-25.7024s26.368 11.52 26.368 25.7024v129.9456c0.1024 14.1824-11.7248 25.7024-26.368 25.7024z"  ></path><path d="M676.1984 862.464H310.272c-14.5408 0-26.368-11.52-26.368-25.7024 0-14.1824 11.8272-25.7024 26.368-25.7024h366.0288c14.5408 0 26.368 11.52 26.368 25.7024 0 14.1824-11.8272 25.7024-26.4704 25.7024z"  ></path>
</svg>