<svg viewBox="0 0 1024 1024" xmlns="http://www.w3.org/2000/svg" fill="currentColor">
<path d="M281.1904 567.7056c-14.7968 0-26.624-11.6736-26.624-26.2656V281.088c0-14.592 11.8272-25.856 26.624-25.856 14.3872 0 26.2144 11.6736 26.2144 25.856v260.4032c0.4096 14.5408-11.4688 26.2144-26.2144 26.2144z m158.1056 0c-14.7968 0-26.624-11.6736-26.624-26.2656V437.2992c0-14.592 11.8272-26.2656 26.624-26.2656s26.624 11.6736 26.624 26.2656v104.1408c0 14.592-11.8272 26.2656-26.624 26.2656z m158.1056 0c-14.7968 0-26.624-11.6736-26.624-26.2656V281.088c0-14.592 11.8272-26.2656 26.624-26.2656s26.624 11.6736 26.624 26.2656v260.4032c-0.4096 14.5408-12.2368 26.2144-26.624 26.2144z m158.1056 0c-14.7968 0-26.624-11.6736-26.624-26.2656V437.2992c0-14.592 11.8272-26.2656 26.624-26.2656s26.624 11.6736 26.624 26.2656v104.1408c-0.4096 14.592-12.2368 26.2656-26.624 26.2656z m-45.6704 339.6096H334.848c-14.7968 0-26.624-11.6736-26.624-26.2656s11.8272-26.2656 26.624-26.2656h374.9888c14.7968 0 26.624 11.6736 26.624 26.2656s-11.776 26.2656-26.624 26.2656z"  ></path><path d="M861.6448 711.4752H174.6432c-43.5712 0-79.5136-38.3488-79.5136-85.4016V171.4688c0-47.104 35.5328-85.4016 79.5136-85.4016h687.0016c43.5712 0 79.5136 38.3488 79.5136 85.4016v454.5536c-0.0512 47.104-35.5328 85.4528-79.5136 85.4528z m-687.0016-568.32c-14.7968 0-26.624 12.9024-26.624 28.3136v454.5536c0 15.8208 11.8272 28.3136 26.624 28.3136h687.0016c14.3872 0 26.624-12.9024 26.624-28.3136V171.4688c0-15.8208-11.8272-28.3136-26.624-28.3136H174.6432z"  ></path>
</svg>