<svg viewBox="0 0 1024 1024" xmlns="http://www.w3.org/2000/svg" fill="currentColor">
<path d="M187.392 900.096c-14.336 0-25.088-11.776-25.088-25.088 0-45.568 8.704-89.088 26.112-131.584 16.896-41.472 41.984-79.872 74.24-111.616 32.256-32.256 68.608-56.32 111.104-74.24l13.824-5.632-12.288-7.68c-44.032-27.136-77.824-67.584-97.28-115.2-38.4-92.672-17.92-198.144 53.76-269.824 45.568-46.08 107.52-72.192 173.568-72.192 66.048 0 128 26.112 175.104 72.192 47.104 47.104 72.192 109.056 72.192 175.104 0 66.048-26.112 128-72.192 175.104-45.056 45.568-104.96 70.656-168.96 72.192h-1.536c-1.536 0-3.584 0.512-4.608 0.512-78.336 0-151.04 30.72-206.336 86.016-55.296 55.296-86.016 128.512-86.016 206.336 0.512 14.336-11.264 25.6-25.6 25.6zM504.832 138.24c-108.544 0-196.096 88.064-196.096 196.096 0 108.544 88.064 196.096 196.096 196.096 108.544 0 196.096-88.064 196.096-196.096 1.024-108.032-87.552-196.096-196.096-196.096z m66.56 779.264c-17.92 0-25.088-7.68-25.088-25.088v-108.544c0-17.92 7.68-25.088 25.088-25.088 17.92 0 25.088 7.68 25.088 25.088v108.544c0.512 17.92-7.168 25.088-25.088 25.088z m143.36 0c-17.92 0-25.088-7.68-25.088-25.088v-259.072c0-17.92 7.68-25.088 25.088-25.088 17.92 0 25.088 7.68 25.088 25.088v258.048c0 18.944-7.68 26.112-25.088 26.112z m142.848 0c-17.92 0-25.088-7.68-25.088-25.088v-166.912c0-17.92 7.68-25.088 25.088-25.088 17.92 0 25.088 7.68 25.088 25.088v166.912c0 17.92-7.168 25.088-25.088 25.088z m0 0"  ></path>
</svg>