<svg viewBox="0 0 1024 1024" xmlns="http://www.w3.org/2000/svg" fill="currentColor">
<path d="M919.48718 521.197476c11.860119 0 21.48022-9.642614 21.48022-21.503756L940.9674 261.108856c0-45.133943-36.555567-81.691557-81.691557-81.691557L160.077324 179.417299c-45.134966 0-81.691557 36.557614-81.691557 81.691557l0 494.90567c0 45.133943 36.556591 81.670068 81.691557 81.670068l699.198519 0c45.13599 0 81.691557-36.535101 81.691557-81.670068L940.9674 665.244196c-0.065492-11.816117-9.643638-21.393239-21.48022-21.393239-11.838629 0-21.459754 9.577123-21.50478 21.393239l0 0.044002c0 0.046049 0 0.046049 0 0.089028l0 0.046049 0 86.290295c0 23.765263-19.286252 43.007513-43.004443 43.007513L421.001985 794.721083c-0.022513 0-0.022513 0-0.045025 0L164.377256 794.721083c-23.720238 0-43.007513-19.243273-43.007513-43.007513L121.369743 265.409812c0-23.741727 19.287275-43.007513 43.007513-43.007513l690.600701 0c23.719214 0 43.004443 19.265786 43.004443 43.007513L897.9824 499.69372C897.9824 511.554862 907.603525 521.197476 919.48718 521.197476zM284.997428 334.710155c0-6.361895-5.16565-11.527544-11.550057-11.527544l-57.749262 0c-6.385431 0-11.55108 5.16565-11.55108 11.527544l0 57.681724c-0.021489 6.363941 5.164626 11.506055 11.55108 11.506055l57.749262 0c6.384407 0 11.550057-5.142114 11.550057-11.506055L284.997428 334.710155zM284.997428 482.264768c0-6.361895-5.16565-11.528568-11.550057-11.528568l-57.749262 0c-6.385431 0-11.55108 5.166673-11.55108 11.528568l0 57.68377c-0.021489 6.361895 5.164626 11.505032 11.55108 11.505032l57.749262 0c6.384407 0 11.550057-5.143137 11.550057-11.505032L284.997428 482.264768zM273.447371 618.289792l-57.749262 0c-6.385431 0-11.55108 5.166673-11.55108 11.528568l0 57.684794c-0.021489 6.360871 5.164626 11.491729 11.55108 11.491729l57.749262 0c6.384407 0 11.550057-5.131881 11.550057-11.491729l0-57.684794C284.997428 623.456465 279.831778 618.289792 273.447371 618.289792zM793.458835 419.659919 347.003644 419.659919c-11.882632 0-21.503756 9.620102-21.503756 21.503756 0 11.860119 9.620102 21.481244 21.503756 21.481244l446.455191 0c11.859096 0 21.481244-9.621125 21.481244-21.481244C814.940079 429.281043 805.31793 419.659919 793.458835 419.659919zM793.458835 564.821019 347.003644 564.821019c-11.882632 0-21.503756 9.620102-21.503756 21.502733 0 11.860119 9.620102 21.482267 21.503756 21.482267l446.455191 0c11.859096 0 21.481244-9.622148 21.481244-21.482267C814.940079 574.442144 805.31793 564.821019 793.458835 564.821019z"  ></path>
</svg>