<svg viewBox="0 0 1024 1024" xmlns="http://www.w3.org/2000/svg" fill="currentColor">
<path d="M731.306798 836.55384c-0.360204 0.436952-1.534959 1.257643-3.452635 1.257643L310.85484 837.811484c-1.919722 0-3.092431-0.820692-3.452635-1.257643L307.402205 428.455235l-53.844326 0L253.55788 836.852646c0 30.219255 25.702382 54.803163 57.296961 54.803163l416.999322 0c31.594579 0 57.296961-24.584931 57.296961-54.803163L785.151124 428.455235l-53.844326 0L731.306798 836.55384z"  ></path><path d="M955.258383 324.001255 813.002448 150.35131c-11.328-13.831007-28.079522-21.763676-45.959751-21.763676L586.738192 128.587634l-4.63353 21.165042c-0.487094 2.230808-12.666484 54.616922-74.354452 54.616922-58.929134 0-70.601988-48.269353-71.692832-53.531194l-4.103458-21.98164L251.774257 128.856763c-18.391882 0-36.039821 8.724709-47.213301 23.344684L73.681116 323.531558c-16.486486 21.583574-14.439874 52.344159 4.76042 71.552639l115.447359 115.492384 38.08234-38.07006-115.449405-115.492384c-0.213871-0.214894-0.236384-0.557702-0.050142-0.797156L247.347434 184.891987c1.047866-1.37123 2.703575-2.189875 4.426823-2.189875l138.172943 0C404.311349 216.495776 439.668625 258.213923 507.751233 258.213923c68.107167 0 104.613616-42.057885 119.783107-75.781964l139.508357 0c1.676176 0 3.243881 0.741897 4.306072 2.038426l142.256958 173.651992c0.190335 0.230244 0.184195 0.561795-0.010233 0.784876l-99.733469 114.994034 40.678468 35.278481 99.733469-114.994034C971.69882 374.092094 972.113259 344.576873 955.258383 324.001255z"  ></path><path d="M429.02317 394.352533c0.722454-1.913583 1.452071-3.846608 2.166339-5.812379l2.325975-6.423293-6.771217 0.905626c-0.295735 0.040932-0.542352 0.052189-0.73985 0.064468-0.805342 0.044002-2.479471 0.141216-3.749394 1.577938-18.141172 20.394493-33.652448 39.379892-39.746236 65.255213-4.596691 19.504216 5.535063 37.604456 25.211195 45.042869 5.513574 2.083451 10.843976 2.879584 15.98302 2.879584 9.070586 0 17.540492-2.483564 25.345248-4.776793 13.507642-3.964288 26.693965-9.445116 39.443337-14.743796l1.104147-0.457418c21.417799-8.902764 42.784432-17.922185 64.151066-26.942629 16.504906-6.965645 33.009811-13.930267 49.53723-20.842701 15.809057-6.609535 31.654954-13.133112 47.50085-19.653619 11.195993-4.606925 22.38994-9.213849 33.571606-13.849426 3.074012-1.274016 6.081509-2.717901 9.086959-4.16588 1.344624-0.64673 2.692319-1.294482 4.045129-1.925862l3.409656-1.589195-3.019777-8.473999-4.960988 0.983397c-1.217734 0.226151-2.433422 0.453325-3.624551 0.772596l-34.935674 9.428743c-23.122627 6.249331-46.242184 12.498662-69.391417 18.646686-29.407774 7.814989-59.335387 15.60542-88.951915 23.156396-14.371312 3.660366-26.1598 6.342452-37.105083 8.433066-9.582239 1.843998-17.915022 0.445138-24.780383-4.146437-9.778714-6.528694-13.267165-18.250666-9.329483-31.355125C425.993161 402.366044 427.463652 398.470317 429.02317 394.352533z"  ></path>
</svg>