<svg viewBox="0 0 1024 1024" xmlns="http://www.w3.org/2000/svg" fill="currentColor">
<path d="M550.912 833.536l345.088-348.16c10.752-10.752 10.752-28.672 0-39.424-10.752-10.752-28.672-10.752-39.424 0l-345.088 348.16L168.96 437.76c-6.656-8.192-17.408-11.264-27.648-8.704-10.24 2.56-17.92 10.24-20.48 20.48s1.024 20.992 8.704 27.648l342.528 356.352c10.24 10.24 24.576 16.384 39.424 16.384 14.848 0 29.184-6.144 39.424-16.384z m0 0"  ></path><path d="M550.912 579.584l345.088-348.16c10.752-10.752 10.752-28.672 0-39.424-10.752-10.752-28.672-10.752-39.424 0l-345.088 348.16L168.96 183.808c-6.656-8.192-17.408-11.264-27.648-8.704-10.24 2.56-17.92 10.24-20.48 20.48s1.024 20.992 8.704 27.648l342.528 356.864c10.24 10.24 24.576 16.384 39.424 16.384 14.848-0.512 29.184-6.144 39.424-16.896z m0 0"  ></path>
</svg>