<svg viewBox="0 0 1024 1024" xmlns="http://www.w3.org/2000/svg" fill="currentColor">
<path d="M752.128 115.712v57.856l143.36 145.92-80.384 82.432c-10.24-9.728-24.064-14.848-37.888-14.336-15.36 0-30.208 6.144-40.96 17.408-10.752 11.264-16.896 26.624-16.384 41.984V752.64c0 15.36-6.144 29.696-16.384 40.96-10.24 10.752-24.576 16.896-39.936 16.896h-281.6c-14.848 0-29.184-6.144-39.936-16.896-10.752-10.752-16.384-25.6-16.384-40.96V446.976c0-15.872-5.632-30.72-16.896-41.984-10.752-11.264-25.6-17.408-40.96-17.408-13.824 0-27.648 5.12-37.888 14.336L149.504 319.488 291.84 173.568h35.328l1.536 1.536c39.424 60.928 114.176 99.84 194.56 99.84s155.136-37.376 194.048-99.84c0-1.536 1.536-1.536 1.536-1.536h33.792V115.712h-0.512z m-417.792 11.264h-30.208c-18.944 0-32.768 5.632-42.496 16.896L122.88 285.184c-22.016 22.528-22.016 57.344 0 78.336l80.384 82.432c9.216 9.728 22.016 14.848 35.328 15.36 13.312-0.512 26.112-5.632 35.328-15.36h1.536c1.536 0 1.536 0 1.536 1.536v295.424c0 61.44 49.152 112.128 109.056 112.128h272.896c59.904 0 109.056-50.176 109.056-112.128V447.488c0-1.536 0-1.536 1.536-1.536h1.536c9.216 9.728 22.016 14.848 35.328 15.36 13.312 0 26.112-5.632 35.328-15.36L922.112 363.52c22.016-22.528 22.016-57.344 0-78.336l-137.728-141.312c-10.24-10.752-24.576-16.896-39.424-16.896h-34.304c-18.944 0-35.328 9.728-46.592 26.624-28.672 43.52-81.92 71.168-143.36 71.168s-114.688-29.184-143.36-71.168c-4.096-8.192-10.24-14.848-17.92-19.456-7.168-4.608-15.872-7.168-25.088-7.168z m0 0"  ></path>
</svg>