<svg viewBox="0 0 1024 1024" xmlns="http://www.w3.org/2000/svg" fill="currentColor">
<path d="M829.952 229.376c-67.072-30.72-212.992-99.328-272.896-127.488-22.528-10.752-48.128-10.24-70.144 0.512-59.392 28.672-204.288 97.792-273.408 129.024-30.208 13.824-49.152 44.032-48.128 77.312 3.584 109.056 36.864 474.624 323.584 590.848 9.728 4.096 19.968 6.144 30.72 6.144 12.8 0 26.112-3.072 37.888-9.216 71.68-37.376 306.688-190.464 321.024-588.8 0.512-34.304-18.432-64.512-48.64-78.336z m-297.472 619.52c-7.68 4.096-16.384 4.608-24.576 1.024-65.024-26.112-278.016-143.36-290.304-543.232-0.512-11.776 6.144-23.04 17.408-27.648C304.64 247.808 450.56 178.176 509.952 149.504c4.096-2.048 8.192-3.072 12.8-3.072 4.096 0 8.192 1.024 12.288 2.56 59.904 28.16 205.824 96.768 273.408 128 10.752 5.12 17.408 15.872 17.408 27.648-14.336 370.176-228.352 510.464-293.376 544.256z m0 0"  ></path><path d="M647.68 310.784h-55.808l-70.656 91.136-71.168-91.136H394.24L494.08 445.44v9.216H421.376v49.664h72.192v39.424H421.376v49.664h72.192v103.424h52.736v-103.424h74.24v-49.664h-74.24v-39.424h73.728v-49.664h-73.728v-10.752l101.376-133.12z m0 0"  ></path>
</svg>