<svg viewBox="0 0 1024 1024" xmlns="http://www.w3.org/2000/svg" fill="currentColor">
<path d="M490.2912 562.3296H379.136c-15.36 0-27.8016-12.4416-27.8016-27.8016 0-15.36 12.4416-27.8016 27.8016-27.8016h111.1552v-40.704l-154.3168-102.912a27.82208 27.82208 0 0 1-7.0656-38.0928 27.82208 27.82208 0 0 1 37.8368-8.192l151.3472 100.864 151.3472-100.864a27.8272 27.8272 0 0 1 28.16-2.3552c9.1136 4.4032 15.104 13.4144 15.6672 23.5008 0.5632 10.0864-4.4544 19.712-13.0048 25.088l-154.3168 102.912v40.704h111.1552c15.36 0 27.8016 12.4416 27.8016 27.8016 0 15.36-12.4416 27.8016-27.8016 27.8016h-111.1552v55.552h111.1552c15.36 0 27.8016 12.4416 27.8016 27.8016 0 15.36-12.4416 27.8016-27.8016 27.8016h-111.1552v83.3536c0 15.36-12.4416 27.8016-27.8016 27.8016-15.36 0-27.8016-12.4416-27.8016-27.8016v-83.3536H379.136c-15.36 0-27.8016-12.4416-27.8016-27.8016 0-15.36 12.4416-27.8016 27.8016-27.8016h111.1552v-55.5008z m15.36-469.4528l12.4416-6.2976 12.4416 6.2464c144.5888 72.3456 252.3136 108.2368 320.9728 108.2368h27.8016v459.264c0 52.6336-29.7472 100.7104-76.8 124.2624l-284.416 142.2336-284.416-142.2336c-47.0528-23.552-76.8-71.6288-76.8-124.2624v-459.264h27.8016c68.6592 0 176.384-35.8912 320.9728-108.1856z m318.1056 162.4064c-75.264-7.3216-176.7424-42.9568-305.664-106.5472-128.9216 63.5904-230.4 99.1744-305.664 106.5472v405.0944c0 31.5904 17.8688 60.4672 46.1312 74.5984l259.5328 129.6896 259.5328-129.792c28.2624-14.1312 46.1312-43.008 46.1312-74.5984V255.1296v0.1536z m0 0"  ></path>
</svg>