<svg viewBox="0 0 1024 1024" xmlns="http://www.w3.org/2000/svg" fill="currentColor">
<path d="M638.976 751.104zM785.408 624.64v-74.752c0-28.672-23.04-52.736-46.08-52.736h-203.264V438.272c76.288-10.24 132.608-72.192 132.608-149.504 0-84.992-68.096-151.04-155.648-151.04-88.064 0.512-156.16 66.56-156.16 151.04 0 77.312 56.32 138.752 132.608 149.504v58.88H286.208c-27.648 0-46.08 24.064-46.08 52.736v57.344c-66.56 9.216-116.736 66.048-116.736 135.168v1.024c0.512 74.752 61.44 135.68 136.192 135.168 75.776 0 136.192-60.416 136.192-136.192 0-66.56-47.104-121.344-109.568-133.632v-63.488h453.12v82.432c-57.344 13.312-99.84 63.488-99.84 123.904 0 70.656 58.368 127.488 131.584 127.488 73.216 0 131.584-56.32 131.584-127.488-0.512-66.56-51.2-120.32-117.248-126.976z m-440.32 117.248c0 50.688-35.328 86.016-86.016 86.016-45.568 0-86.016-40.448-86.016-86.016s35.328-86.016 86.016-86.016c45.568 0.512 86.016 35.84 86.016 86.016z m55.296-453.12c0-56.832 48.64-103.936 107.008-103.936 58.368 0 107.008 47.104 107.008 103.936 0 56.32-48.64 103.936-107.008 103.936-58.368 0-107.008-47.104-107.008-103.936z m375.296 542.208c-44.032 0-82.944-37.888-82.944-80.384 0-42.496 38.912-80.384 82.944-80.384s82.944 33.28 82.944 80.384c-0.512 47.616-39.424 80.384-82.944 80.384z"  ></path>
</svg>