<?xml version="1.0" standalone="no"?><!DOCTYPE svg PUBLIC "-//W3C//DTD SVG 1.1//EN" "http://www.w3.org/Graphics/SVG/1.1/DTD/svg11.dtd"><svg t="1768466835047" class="icon" viewBox="0 0 1027 1024" version="1.1" xmlns="http://www.w3.org/2000/svg" p-id="10817" width="64.1875" height="64" xmlns:xlink="http://www.w3.org/1999/xlink"><path d="M515.2 0C232.448 0 3.2 229.248 3.2 512s229.248 512 512 512 512-229.248 512-512-229.248-512-512-512z m237.056 534.656c-5.824 5.76-13.824 9.344-22.656 9.344H547.2v182.4c0 17.664-14.336 32-32 32-8.832 0-16.832-3.584-22.656-9.344-5.76-5.824-9.344-13.824-9.344-22.656V544H300.8c-17.664 0-32-14.336-32-32 0-8.832 3.584-16.832 9.344-22.656 5.824-5.76 13.824-9.344 22.656-9.344h182.4V297.6c0-17.664 14.336-32 32-32 8.832 0 16.832 3.584 22.656 9.344 5.76 5.824 9.344 13.824 9.344 22.656V480H729.6c17.664 0 32 14.336 32 32 0 8.832-3.584 16.832-9.344 22.656z" fill="currentColor" p-id="10818"></path></svg>