<svg xmlns="http://www.w3.org/2000/svg" viewBox="0 0 1024 1024"><path fill="currentColor" d="M491.3 204.65c-0.9 96.75-0.9 195.75-0.9 296.55V557c0 96.75 0 148.5 0.9 246.15l117.9 9.9v31.95h-310.5v-31.95l115.65-9.9c3.15-95.85 3.15-148.5 3.15-246.15V501.2c0-99.9 0-198.45-3.15-296.55H174.5l-24.75 56.25H105.65l9-94.05h677.25l9.9 94.05h-44.1l-26.1-56.25H491.3z"  ></path><path fill="currentColor" d="M778.4 552.05c-0.45 44.1-0.45 89.55-0.45 135.45v25.65c0 44.1 0 67.95 0.45 112.5l54 4.5v14.4h-142.2v-14.4l53.1-4.5c1.35-43.65 1.35-67.95 1.35-112.5V687.5c0-45.45 0-90.9-1.35-135.45H633.5l-11.25 25.65H602l4.05-43.2h310.05l4.5 43.2h-20.25l-11.7-25.65h-110.25z"  ></path></svg>