<svg xmlns="http://www.w3.org/2000/svg" viewBox="0 0 1024 1024"><path fill="currentColor" d="M920.021333 416h-304a8.021333 8.021333 0 0 0-8.021333 8.021333v111.957334c0 4.437333 3.584 8.021333 8.021333 8.021333h47.957334a8.021333 8.021333 0 0 0 8.021333-8.021333V480h59.989333v320h-45.994666a8.021333 8.021333 0 0 0-7.978667 8.021333v48c0 4.394667 3.584 7.978667 7.978667 7.978667h164.010666a8.021333 8.021333 0 0 0 7.978667-8.021333v-48a8.021333 8.021333 0 0 0-7.978667-7.978667h-45.994666v-320h59.989333v56.021333c0 4.394667 3.584 7.978667 8.021333 7.978667h48a8.021333 8.021333 0 0 0 7.978667-8.021333V424.021333a8.021333 8.021333 0 0 0-8.021333-8.021333z m-264.021333-120.021333v-128a8.021333 8.021333 0 0 0-8.021333-7.978667H104.021333a8.021333 8.021333 0 0 0-7.978666 8.021333v128c0 4.394667 3.584 7.978667 8.021333 7.978667H160a8.021333 8.021333 0 0 0 8.021333-8.021333v-64h167.978667v560H244.010667a8.021333 8.021333 0 0 0-8.021334 8.021333v56.021333c0 4.394667 3.626667 7.978667 8.021334 7.978667h263.978666a8.021333 8.021333 0 0 0 8.021334-8.021333V800a8.021333 8.021333 0 0 0-8.021334-8.021333H416V232.021333h168.021333v64c0 4.437333 3.584 8.021333 7.978667 8.021334h56.021333a8.021333 8.021333 0 0 0 7.978667-8.021334z"  ></path></svg>