<svg xmlns="http://www.w3.org/2000/svg" viewBox="0 0 1024 1024"><path d="M778.12589508 208.85454107H245.87410492c-20.48683818 0-37.24904358 16.7622054-37.24904359 37.24972254v82.00098853c0 20.48819605 16.7622054 37.25040145 37.24904359 37.25040144h532.25111122c20.48683818 0 37.24904358-16.7622054 37.24904359-37.25040144v-82.00166748c0.00067894-20.48683818-16.7622054-37.24904358-37.24836465-37.24904359zM327.94909727 435.68440609H245.80145896c-20.44746 0-37.17639763 16.73029549-37.17639763 37.17707657v82.14695938c0 20.44746 16.72961656 37.17639763 37.17639763 37.17639763h82.14695938c20.44746 0 37.17639763-16.72961656 37.17639763-37.17639763V472.8621616c0.00067894-20.44813894-16.72893763-37.1777555-37.1757187-37.17775551z m0 223.12492134H245.80145896c-20.44746 0-37.17639763 16.72961656-37.17639763 37.17639761v82.14628046c0 20.44746 16.72961656 37.17707657 37.17639763 37.17707655h82.14695938c20.44746 0 37.17639763-16.73029549 37.17639763-37.17707655V695.98572504c0.00067894-20.44678107-16.72893763-37.17707657-37.1757187-37.17639761z m450.24876483-224.97705372H696.05090273c-20.44746 0-37.17639763 16.72961656-37.17639763 37.17639763v82.14628045c0 20.44746 16.73029549 37.17707657 37.17639763 37.17707656h82.14695937c20.44746 0 37.17639763-16.73029549 37.17639763-37.17707656V471.00867134c0.00067894-20.44746-16.72893763-37.17639763-37.17639763-37.17639763z m0 224.97705372H696.05090273c-20.44746 0-37.17639763 16.72961656-37.17639763 37.17639761v82.14628046c0 20.44746 16.73029549 37.17707657 37.17639763 37.17707655h82.14695937c20.44746 0 37.17639763-16.73029549 37.17639763-37.17707655V695.98572504c0.00067894-20.44678107-16.72893763-37.17707657-37.17639763-37.17639761z m-225.12506135-223.12492134H470.92652031c-20.44813894 0-37.1777555 16.73029549-37.1777555 37.17707657v82.14695938c0 20.44746 16.72961656 37.17639763 37.1777555 37.17639763h82.14628044c20.44746 0 37.17639763-16.72961656 37.17639763-37.17639763V472.8621616c0.00067894-20.44813894-16.72893763-37.1777555-37.17639763-37.17775551z m0 223.12492134H470.92652031c-20.44813894 0-37.1777555 16.72961656-37.1777555 37.17639761v82.14628046c0 20.44746 16.72961656 37.17707657 37.1777555 37.17707655h82.14628044c20.44746 0 37.17639763-16.73029549 37.17639763-37.17707655V695.98572504c0.00067894-20.44678107-16.72893763-37.17707657-37.17639763-37.17639761z" fill="currentColor" ></path></svg>