<svg xmlns="http://www.w3.org/2000/svg" viewBox="0 0 1024 1024"><path fill="currentColor" d="M882.7113266 892.75351716H482.4914093c-13.7500763 0-24.79648591-11.12365723-24.7964859-24.79648591V555.49040985c0-6.56604767 2.62641907-12.90035248 7.26127625-17.61245727 4.63485718-4.63485718 10.96916198-7.18402863 17.53520965-7.18402863h0.07724763l400.21991729 1.08146668c13.7500763 0.07724763 24.79648591 11.12365723 24.79648591 24.7964859v311.38515472c-0.07724763 13.7500763-11.20090485 24.79648591-24.87373354 24.79648591z m-375.4234314-49.59297182h350.54969788V581.36836243l-350.54969788-1.00421907v262.79640199z m-128.69453429 49.59297181H141.2886734c-13.7500763 0-24.79648591-11.12365723-24.7964859-24.7964859V156.04296875c0-6.64329529 2.62641907-12.9776001 7.33852387-17.61245727s10.73741914-7.18402863 17.68970489-7.18402864l237.22743989 2.39467622c13.59558106 0.15449524 24.56474304 11.20090485 24.56474303 24.7964859v709.51938629c0.07724763 13.7500763-11.04640961 24.79648591-24.71923828 24.79648591z m-212.43095399-49.59297181h187.63446808V183.00238799L166.16240692 181.07119751v662.08934784z m716.54891967-349.9317169H482.4914093c-13.7500763 0-24.79648591-11.12365723-24.7964859-24.79648591V156.04296875c0-6.56604767 2.62641907-12.90035248 7.26127625-17.61245727 4.63485718-4.63485718 10.96916198-7.18402863 17.53520965-7.18402864h0.07724763L882.78857422 132.32794952c13.7500763 0.07724763 24.79648591 11.12365723 24.79648591 24.7964859v311.30790711c-0.07724763 13.67282868-11.20090485 24.79648591-24.87373354 24.79648591z m-375.42343139-49.67021943h350.54969787V181.8436737l-350.54969787-1.00421905v262.71915436z"  ></path></svg>