<svg xmlns="http://www.w3.org/2000/svg" viewBox="0 0 1024 1024"><path fill="currentColor" d="M300.12081495 172.99330347a28.25055836 28.25055836 0 0 1 28.2505576 28.25055836v621.51227635a28.25055836 28.25055836 0 0 1-28.2505576 28.25055835H201.24386183a28.25055836 28.25055836 0 0 1-28.25055836-28.25055835V201.24386183a28.25055836 28.25055836 0 0 1 28.25055836-28.25055836h98.87695311m0-56.50111597H201.24386183a84.75167433 84.75167433 0 0 0-84.75167433 84.75167433v621.51227635a84.75167433 84.75167433 0 0 0 84.75167433 84.75167432h98.87695312a84.75167433 84.75167433 0 0 0 84.75167356-84.75167432V201.24386183a84.75167433 84.75167433 0 0 0-84.75167356-84.75167433zM851.00669653 172.99330347v197.75390624H512V172.99330347h339.00669653m1e-8-56.50111597H512a56.50111596 56.50111596 0 0 0-56.50111596 56.50111596v197.75390626a56.50111596 56.50111596 0 0 0 56.50111596 56.50111595h339.00669653a56.50111596 56.50111596 0 0 0 56.50111597-56.50111596V172.99330347a56.50111596 56.50111596 0 0 0-56.50111596-56.50111597zM596.75167433 582.62639475v268.38030179h-84.75167433V582.62639475h84.75167433m0-56.50111594h-84.75167433a56.50111596 56.50111596 0 0 0-56.50111596 56.50111594v268.38030179a56.50111596 56.50111596 0 0 0 56.50111596 56.50111596h84.75167433a56.50111596 56.50111596 0 0 0 56.50111595-56.50111597V582.62639475a56.50111596 56.50111596 0 0 0-56.50111595-56.50111594zM851.00669653 582.62639475v268.38030179h-84.75167432V582.62639475h84.75167433m0-56.50111594h-84.75167432a56.50111596 56.50111596 0 0 0-56.50111597 56.50111594v268.38030179a56.50111596 56.50111596 0 0 0 56.50111597 56.50111596h84.75167432a56.50111596 56.50111596 0 0 0 56.50111596-56.50111597V582.62639475a56.50111596 56.50111596 0 0 0-56.50111596-56.50111594z"  ></path></svg>