<svg xmlns="http://www.w3.org/2000/svg" viewBox="0 0 1024 1024"><path d="M215 215c-163.8 163.8-163.8 430.2 0 594s430.2 163.8 594 0c163.8-163.8 163.8-430.2 0-594s-430.2-163.8-594 0z m448.2 173.99999971L540.19999971 512l151.2 151.2c-15.59999971 15.59999971-40.79999971 15.59999971-56.99999971 0L512 540.19999971l-151.2 151.2c-15.59999971-15.59999971-15.59999971-40.79999971 0-56.99999971L483.80000029 512 332.60000029 360.8c15.59999971-15.59999971 40.79999971-15.59999971 56.99999971 0L512 483.80000029l151.2-151.2c15.59999971 15.59999971 15.59999971 40.79999971 0 56.39999942z" fill="currentColor" ></path></svg>