<svg xmlns="http://www.w3.org/2000/svg" viewBox="0 0 1024 1024"><path fill="currentColor" d="M870.80964101 402.02208114c-0.61484278-2.86636949-1.43463313-5.63135147-2.4579227-7.78221489l-57.54899383-140.08348882c-13.00439537-38.09345663-49.97027814-62.66833841-94.30920482-62.77117432H309.24817276c-43.92975569 0-79.15467024 23.45020474-91.44355953 59.59702136L154.82921553 396.90201236c-0.40917098 1.22823715-0.92262625 2.86636949-1.33179725 4.6087861-5.01868129 15.46231806-7.57799149 31.4380914-7.57799148 47.51452804 0.10211169 57.24193453 32.05076158 109.67013538 83.45567286 136.90933584 0.30633509 0.20639598 0.61484278 0.30633509 0.92262626 0.51128269 21.6056764 11.26342714 46.79757357 16.9976145 74.85366761 16.9976145 38.6047393-0.10211169 75.2650112-13.72207403 103.83383632-38.09345663 28.36532593 24.06359912 64.92203771 37.58072555 103.52677703 37.78567315 38.09345663-0.30633509 74.34238493-13.92557323 102.70771085-37.88778485 28.57099771 24.2699951 65.4333204 37.88778484 104.24300732 37.88778485 28.57099771-0.10211169 54.16989326-6.14408255 75.97979307-17.92024077 51.09857618-27.34131217 82.84300268-79.77023722 82.84300267-136.60227656-0.10211169-15.56515396-2.66142189-31.7437023-7.47515558-46.59190177zM773.32483482 545.89384151c-15.05314708 8.08999837-33.28044713 12.28744089-54.06633317 12.38955259-33.58678222 0-65.12626112-14.33546841-86.62910164-39.32169378-8.70339274-10.13802588-26.31585002-10.13802588-35.01996696 0-21.19650543 24.78127777-52.32608915 39.11747038-85.19664108 39.32169378-33.38183463-0.20639598-64.71636593-14.540416-86.01498306-39.21958208-4.30100262-5.01868129-10.75286865-7.98643827-17.50962139-7.98643827-6.75892532 0-13.21006716 2.96920538-17.50962138 7.98643827-21.40217722 24.98622537-52.94093192 39.42308128-86.32349073 39.52591716-20.06965578 0-37.78567314-3.89110744-52.63387263-11.46982311-0.20639598-0.10211169-0.51128268-0.30633509-0.71695447-0.40917099-36.96588277-19.25058961-60.00619233-56.72992765-60.00619233-97.79186547 0-11.67259813 1.94591581-23.34664464 5.83702326-36.25110089l62.97539771-145.81767619c6.55397772-19.25058961 21.6056764-29.38861549 45.56788801-29.38861549h411.85268463c24.67844188 0.10211169 42.70151854 11.05847955 49.97027814 32.05076158l58.2652241 142.64424741c0.20639598 0.81906617 0.40917098 1.63668395 0.71695448 2.4579227 3.58404815 10.75286865 5.52923977 22.42546678 5.42712806 33.89384151 0 40.65276682-22.52830267 77.92570889-58.98145437 97.38197028zM696.11463202 397.51685512H327.88464379c-12.0839417 0-21.9134599 10.34080087-21.91345989 23.14169705s9.8295182 23.14169705 21.91345989 23.14169705h368.22998823c12.0839417 0 21.9134599-10.34080087 21.91345988-23.14169705s-9.72885489-23.14169705-21.91345988-23.14169704z m90.52310585 251.80165171c-11.87826991 0-22.83536197 11.05847955-22.83536195 22.83536196v114.38030899H260.29973578V672.2567047c0-11.77543402-11.05847955-22.83536197-22.83536195-22.83536197-11.87826991 0-22.83536197 11.05847955-22.83536196 22.83536197v138.95663916c0 11.77543402 9.6267432 21.40217722 21.40217722 21.40217721h552.03828513a21.32758497 21.32758497 0 0 0 21.40217721-21.40217721V672.2567047c0-11.77543402-10.95636786-22.93819784-22.83536195-22.93819787z"  ></path></svg>