<svg xmlns="http://www.w3.org/2000/svg" viewBox="0 0 1024 1024"><path fill="currentColor" d="M729.406047 630.020638c-13.190057-13.606775-43.405371-7.384993-71.837094 13.735687l-92.488093-92.622002 62.203626-62.134273c82.234045 38.829074 185.857589 21.943123 256.744327-49.077126 58.240313-58.102407 79.975577-138.147536 65.140635-210.331795l-156.876238 156.875838-160.699646-160.771597 157.148054-156.876238c-72.525628-15.51588-152.705066 6.427042-210.876426 64.460096-68.013687 67.944334-86.266711 165.625706-54.209046 245.807143l-65.41305 65.210187-148.742752-148.6732 43.405971-43.133156-85.172453-85.033148L151.393339 86.249515 62.464433 175.181619l84.760732 112.992191 85.102501 85.033148 43.130557-42.927695 148.059216 148.33403L138.475298 764.33917l106.565549 106.768211 285.386708-285.453662 92.963771 92.488093c-21.056724 28.709535-27.550321 58.305269-14.082452 72.184859l201.718835 201.236961c16.810602 17.089413 57.55178 3.690498 90.773256-29.530778 32.94946-33.013617 46.070564-73.615888 29.392872-90.502439L729.406047 630.020638z"  ></path></svg>