<svg xmlns="http://www.w3.org/2000/svg" viewBox="0 0 1024 1024"><path d="M810.666667 725.333333a42.666667 42.666667 0 0 1 0 85.333334H213.333333a42.666667 42.666667 0 0 1 0-85.333334h597.333334zM341.333333 469.333333a42.666667 42.666667 0 1 1 0 85.333334H213.333333a42.666667 42.666667 0 1 1 0-85.333334h128z m213.333334 0a42.666667 42.666667 0 1 1 0 85.333334h-85.333334a42.666667 42.666667 0 1 1 0-85.333334h85.333334z m256 0a42.666667 42.666667 0 0 1 0 85.333334h-128a42.666667 42.666667 0 0 1 0-85.333334h128z m0-256a42.666667 42.666667 0 0 1 0 85.333334H213.333333a42.666667 42.666667 0 1 1 0-85.333334h597.333334z" fill="currentColor" ></path></svg>