<svg xmlns="http://www.w3.org/2000/svg" viewBox="0 0 171.93 170.95"><path fill="currentColor" d="M67.4,1H9.77C3.91,1,0,4.91,0,10.77V67.43c0,5.86,3.91,9.77,9.77,9.77H66.43c5.86,0,9.77-3.91,9.77-9.77V10.77C77.17,5.88,72.29,1,67.4,1ZM64.47,65.47H12.7V13.7H63.5V65.47ZM162.16,1H105.5c-5.86,0-9.77,3.91-9.77,9.77V67.43c0,5.86,3.91,9.77,9.77,9.77h56.66c5.86,0,9.77-3.91,9.77-9.77V10.77C171.93,5.88,167.05,1,162.16,1Zm-2.93,64.47h-50.8V13.7h50.8ZM67.4,95.76H9.77c-5.86,0-9.77,3.9-9.77,9.77v56.65C0,168.05,3.91,172,9.77,172H66.43c5.86,0,9.77-3.9,9.77-9.77V105.53C77.17,100.64,72.29,95.76,67.4,95.76Zm-2.93,64.47H12.7v-50.8H63.5v50.8Zm69.36-64.47a38.15,38.15,0,0,0-38.1,38.1c0,20.51,17.59,38.09,38.1,38.09s38.1-17.58,38.1-38.09S154.35,95.76,133.83,95.76Zm0,64.47c-13.67,0-25.4-11.72-25.4-25.4s11.73-25.4,25.4-25.4,25.4,11.73,25.4,25.4S147.51,160.23,133.83,160.23Z" transform="translate(0 -1)"/></svg>