<?xml version="1.0" standalone="no"?><!DOCTYPE svg PUBLIC "-//W3C//DTD SVG 1.1//EN" "http://www.w3.org/Graphics/SVG/1.1/DTD/svg11.dtd"><svg t="1769842567634" class="icon" viewBox="0 0 1330 1024" version="1.1" xmlns="http://www.w3.org/2000/svg" p-id="10603" width="83.125" height="64" xmlns:xlink="http://www.w3.org/1999/xlink"><path d="M76.696356 312.31309h601.755466a233.474764 233.474764 0 0 0 439.65668 0h134.59865a76.696356 76.696356 0 0 0 0-153.392712h-133.285829a233.336572 233.336572 0 0 0-442.213226 0H76.696356a76.696356 76.696356 0 1 0 0 153.392712z m761.090419-153.185425a95.352227 95.352227 0 1 1-34.547909 84.089609q0-3.109312-0.414575-6.218624v-3.800269a97.977868 97.977868 0 0 1 34.962484-74.070716zM1252.707152 713.759784H655.097436a233.405668 233.405668 0 0 0-440.969501 0H76.696356a76.696356 76.696356 0 0 0 0 153.392713h137.431579a233.405668 233.405668 0 0 0 440.969501 0h598.300675a76.696356 76.696356 0 1 0-0.690959-153.392713zM434.612686 885.808367a95.352227 95.352227 0 1 1 95.352226-95.352227 95.559514 95.559514 0 0 1-95.352226 95.352227z" p-id="10604" fill="#1a1a1a"></path></svg>