<svg xmlns="http://www.w3.org/2000/svg" viewBox="0 0 1024 1024"><path fill="currentColor" d="M342.49665169 798.03690042a21.18791862 21.18791862 0 0 1-21.18791864 21.18791791H204.77518167a21.18791862 21.18791862 0 0 1-21.18791863-21.18791791V681.50334831a21.18791862 21.18791862 0 0 1 21.18791863-21.18791862h31.78187758V384.87248893H204.77518167a21.18791862 21.18791862 0 0 1-21.18791863-21.18791862V247.15101821a21.18791862 21.18791862 0 0 1 21.18791863-21.18791863h116.53355138a21.18791862 21.18791862 0 0 1 21.18791863 21.18791863v31.7818783h339.00669663v-31.7818783a21.18791862 21.18791862 0 0 1 21.18791864-21.18791863h116.53355138a21.18791862 21.18791862 0 0 1 21.18791864 21.18791863v116.5335521a21.18791862 21.18791862 0 0 1-21.18791865 21.18791862h-31.78187758v275.44294076h31.78187758a21.18791862 21.18791862 0 0 1 21.18791865 21.18791862v116.53355212a21.18791862 21.18791862 0 0 1-21.18791865 21.1879179H702.69126695a21.18791862 21.18791862 0 0 1-21.18791863-21.18791791v-31.78187831H342.49665169v31.78187831z m444.94628906-84.75167451h-52.96979622v52.9697962h52.96979622v-52.96979621zM236.55705925 713.28522591v52.9697962h52.96979622v-52.9697962H236.55705925z m444.94628907-381.38253318H342.49665169v31.78187758a21.18791862 21.18791862 0 0 1-21.18791864 21.18791862h-31.78187758v275.44294076h31.78187758a21.18791862 21.18791862 0 0 1 21.18791864 21.18791862v31.78187759h339.00669662v-31.78187759a21.18791862 21.18791862 0 0 1 21.18791864-21.18791862h31.78187758V384.87248893h-31.78187758a21.18791862 21.18791862 0 0 1-21.18791864-21.18791862v-31.78187758z m-391.97649285-52.96979621H236.55705925v52.96979621h52.96979622v-52.96979621z m497.91608528 0h-52.96979622v52.96979621h52.96979622v-52.96979621z"  ></path></svg>