<svg id="图层_1" data-name="图层 1" xmlns="http://www.w3.org/2000/svg" viewBox="0 0 173 173"><defs><style>.cls-1{fill:currentColor;}.cls-2{fill:#fff;}</style></defs><circle class="cls-1" cx="86.5" cy="86.5" r="86.5"/><path class="cls-2" d="M137.23,53.18H55.66a2,2,0,0,1-2-1.66l-1.59-8a4.43,4.43,0,0,0-4.34-3.57H33a4.43,4.43,0,0,0,0,8.86H44.08L55.76,108a4.43,4.43,0,0,0,4.33,3.57h59a4.48,4.48,0,0,0,4.52-4.3,4.42,4.42,0,0,0-4.42-4.53H65.42a2.06,2.06,0,0,1-2-1.66l-1.25-6.35a2.07,2.07,0,0,1,2-2.47h59.26A2.05,2.05,0,0,0,125.34,91l14.08-34.53a2.37,2.37,0,0,0-2.19-3.27Z"/><path class="cls-2" d="M57.29,125.06a9.81,9.81,0,1,0,9.81-9.81,9.81,9.81,0,0,0-9.81,9.81Z"/><path class="cls-2" d="M101.38,125.06a9.81,9.81,0,1,0,9.81-9.81,9.81,9.81,0,0,0-9.81,9.81Z"/></svg>