<svg xmlns="http://www.w3.org/2000/svg" viewBox="0 0 1024 1024"><path fill="currentColor" d="M116.4921875 142.859375L169.2265625 90.125 169.2265625 933.875 116.4921875 881.140625 879.8850459 881.140625 827.1506709 933.875 827.1506709 90.125 879.8850459 142.859375 116.4921875 142.859375ZM879.8850459 90.125L879.8850459 933.875 116.4921875 933.875 116.4921875 90.125 879.8850459 90.125Z"  ></path><path fill="currentColor" d="M237.02790237 263.39508987L289.76227737 210.66071487 289.76227737 491.9107146 237.02790237 439.17633959 759.34933103 439.17633959 706.61495603 491.9107146 706.61495603 210.66071487 759.34933103 263.39508987 237.02790237 263.39508987ZM759.34933103 210.66071487L759.34933103 491.9107146 237.02790237 491.9107146 237.02790237 210.66071487 759.34933103 210.66071487Z"  ></path><path fill="currentColor" d="M739.26004397 618.7243291C753.82224118 618.7243291 765.62723147 606.91933879 765.62723147 592.35714243 765.62723147 577.79494768 753.82224118 565.98995493 739.26004397 565.98995493L257.11718777 565.98995493C242.55499222 565.98995493 230.75000027 577.79494768 230.75000027 592.35714243 230.75000027 606.91933879 242.55499222 618.7243291 257.11718777 618.7243291L739.26004397 618.7243291Z"  ></path></svg>