<?xml version="1.0" standalone="no"?><!DOCTYPE svg PUBLIC "-//W3C//DTD SVG 1.1//EN" "http://www.w3.org/Graphics/SVG/1.1/DTD/svg11.dtd"><svg t="1767676438649" class="icon" viewBox="0 0 1024 1024" version="1.1" xmlns="http://www.w3.org/2000/svg" p-id="6397" xmlns:xlink="http://www.w3.org/1999/xlink" width="200" height="200"><path d="M498.206118 30.479059c-205.944471 0-373.458824 166.731294-373.458824 371.651765a367.435294 367.435294 0 0 0 66.017882 211.004235c2.168471 3.674353 4.336941 7.228235 6.866824 10.721882l272.624941 357.677177a37.345882 37.345882 0 0 0 27.949177 12.709647c10.541176 0 20.540235-4.577882 29.214117-14.21553l271.299765-356.231529c2.710588-3.493647 4.999529-7.408941 6.204235-9.637647a368.459294 368.459294 0 0 0 66.740706-211.968c0-204.980706-167.514353-371.651765-373.458823-371.651765z m0 504.651294a133.240471 133.240471 0 0 1-133.421177-132.818824c0-73.185882 59.873882-132.758588 133.421177-132.758588 73.547294 0 133.421176 59.632941 133.421176 132.758588A133.240471 133.240471 0 0 1 498.145882 535.130353z" fill="#333333" p-id="6398"></path></svg>