<svg xmlns="http://www.w3.org/2000/svg" viewBox="0 0 1024 1024"><path fill="currentColor" d="M388.35627128 580.45327498l-144.39362741-146.10495903a38.18409275 38.18409275 0 0 1-10.69582414-31.76659799l16.04373622-123.48329114a38.18409275 38.18409275 0 0 1 33.10357618-32.99661756l122.09283399-15.18807077a38.18409275 38.18409275 0 0 1 32.08747314 11.01669931L582.05764867 388.9980209a25.45606184 25.45606184 0 1 0 36.20536563-35.77753189L472.47892907 206.09942627A89.04273678 89.04273678 0 0 0 398.08947136 180.37596893L275.99663804 195.61751865A89.04273678 89.04273678 0 0 0 198.71930743 272.52049516l-16.04373623 123.42981151A89.04273678 89.04273678 0 0 0 207.70379996 470.07236887l144.39362741 146.1049597a25.45606184 25.45606184 0 0 0 36.15188599-35.77753254z m306.27492784-77.3308089l85.5665939 86.52921797a38.18409275 38.18409275 0 0 1 0 53.85347487l-138.40396572 138.40396639a38.18409275 38.18409275 0 0 1-53.96043347 0l-87.17096759-88.13359234a25.45606184 25.45606184 0 0 0-36.15188599 35.77753256l87.17096759 88.13359167 0.32087514 0.3743541a89.04273678 89.04273678 0 0 0 125.9433303 0l138.40396573-138.4039664a89.04273678 89.04273678 0 0 0 0.32087513-125.62245583l-85.56659455-86.52921798a25.45606184 25.45606184 0 0 0-36.15188599 35.77753187z"  ></path><path fill="currentColor" d="M476.00855158 474.02982379a92.73279621 92.73279621 0 1 0-131.13080548 0 92.73279621 92.73279621 0 0 0 131.13080548 0z m-35.9914491-35.93796945a41.82067253 41.82067253 0 1 1 0-59.14790798 41.82067253 41.82067253 0 0 1 0 59.14790798z m-126.3176844 348.41647552l480.29598855-480.24250959a25.45606184 25.45606184 0 0 0-35.99144842-35.99144841l-480.24250958 480.24250891a25.45606184 25.45606184 0 1 0 35.93796945 35.99144909z"  ></path></svg>