<svg xmlns="http://www.w3.org/2000/svg" viewBox="0 0 1024 1024"><path d="M574.12768554 278.56799316H453.74499511c-18.20983887 0-31.80541991 13.59558106-31.80541992 29.49829102 0 15.90270997 13.59558106 29.49829102 29.49829102 29.49829102h120.38269043c15.90270997 0 29.49829102-13.59558106 29.49829102-29.49829102 2.30712891-15.8203125-11.28845215-29.49829102-27.19116212-29.49829101zM331.13757324 278.56799316h-84.04541015C192.6274414 278.56799316 149.45117187 321.74426269 149.45117187 376.20898437v84.04541016c0 15.90270997 13.59558106 29.49829102 29.49829102 29.49829102 15.90270997 0 31.80541991-13.59558106 31.80541992-29.49829102v-84.04541015c0-20.43457031 15.90270997-36.33728028 36.33728028-36.33728028h84.04541015c15.90270997 0 29.49829102-13.59558106 29.49829101-29.49829102 0-18.12744141-13.59558106-31.80541991-29.49829101-31.80541992zM331.13757324 684.45788575h-84.04541015c-20.43457031 0-36.33728028-15.90270997-36.33728028-36.33728028v-84.04541017c0-15.90270997-13.59558106-29.49829102-29.49829101-29.498291-15.90270997 0-31.80541991 13.59558106-31.80541993 29.498291v84.04541017c0 54.46472167 43.17626953 97.64099122 97.64099122 97.64099121h84.04541015c15.90270997 0 29.49829102-13.59558106 29.49829101-29.49829102 0-18.20983887-13.59558106-31.80541991-29.49829101-31.80541992zM574.12768554 684.45788575H453.74499511c-15.90270997 0-29.49829102 13.59558106-29.49829101 29.498291 0 15.90270997 13.59558106 29.49829102 29.49829101 29.49829102h120.38269043c15.90270997 0 29.49829102-13.59558106 29.49829103-29.49829102 0-15.90270997-13.59558106-29.49829102-29.49829103-29.49829101zM846.69848633 534.5769043c-15.90270997 0-29.49829102 13.59558106-29.49829102 29.49829102v84.04541015c0 20.43457031-15.90270997 36.33728028-36.33728028 36.33728028H694.51037598c-15.90270997 0-29.49829102 13.59558106-29.49829102 29.49829101 0 15.90270997 13.59558106 29.49829102 29.49829101 29.49829102h84.04541017c52.23999023 0 97.64099122-43.17626953 97.6409912-97.64099123v-81.73828123c0-15.90270997-13.59558106-29.49829102-29.49829101-29.49829102zM778.55578614 278.56799316h-84.04541017c-15.90270997 0-29.49829102 13.59558106-29.49829101 29.49829102 0 15.90270997 13.59558106 29.49829102 29.49829101 29.49829102h84.04541016c20.43457031 0 36.33728028 15.90270997 36.33728028 36.33728027v86.27014161c0 15.90270997 13.59558106 29.49829102 29.49829101 29.49829101 18.20983887 0 31.80541991-13.59558106 31.80541992-29.49829102v-84.04541015c0-54.38232422-43.17626953-97.55859375-97.64099121-97.55859375z" fill="currentColor" ></path><path d="M783.82922364 243.96105957h-536.40747071c-23.89526367 0-43.258667-19.36340333-43.25866699-43.258667s19.36340333-43.258667 43.25866699-43.25866698h536.40747071c23.89526367 0 43.258667 19.36340333 43.25866699 43.25866698s-19.36340333 43.258667-43.25866699 43.258667zM783.82922364 866.88586426h-536.40747071c-23.89526367 0-43.258667-19.36340333-43.25866699-43.25866699s19.36340333-43.258667 43.25866699-43.258667h536.40747071c23.89526367 0 43.258667 19.36340333 43.25866699 43.258667s-19.36340333 43.258667-43.25866699 43.25866698z" fill="currentColor" ></path></svg>