<svg xmlns="http://www.w3.org/2000/svg" viewBox="0 0 1024 1024"><path fill="currentColor" d="M452.00640869 644.70111084H185.44238281c-15.96038818 0-29.02038574 13.05999756-29.02038574 29.02038574v178.03619385c0 15.96038818 13.05999756 29.02038574 29.02038574 29.02038574h266.56402588c15.96038818 0 29.02038574-13.05999756 29.02038574-29.02038574V673.72149658c0-15.96038818-13.05999756-29.02038574-29.02038574-29.02038574z m-30.00091553 160.69152832c0 9.00604248-7.36633301 16.37237549-16.37237548 16.37237548H231.80743408c-9.00604248 0-16.37237549-7.36633301-16.37237549-16.37237548V720.08654786c0-9.00604248 7.36633301-16.37237549 16.37237549-16.37237549h173.8256836c9.00604248 0 16.37237549 7.36633301 16.37237549 16.37237548v85.30609131zM835.62426758 143.04064941H569.0602417c-15.96038818 0-29.02038574 13.05999756-29.02038574 29.02038575v178.03619385c0 15.96038818 13.05999756 29.02038574 29.02038574 29.02038573h266.56402588c15.96038818 0 29.02038574-13.05999756 29.02038574-29.02038573V172.06103516c0-15.96038818-13.05999756-29.02038574-29.02038574-29.02038574z m-30.00091553 160.69152832c0 9.00604248-7.36633301 16.37237549-16.37237549 16.3723755H615.43353271c-9.00604248 0-16.37237549-7.36633301-16.37237548-16.3723755V218.43432617c0-9.00604248 7.36633301-16.37237549 16.37237548-16.37237549h173.8256836c9.00604248 0 16.37237549 7.36633301 16.37237549 16.37237549v85.29785156zM441.28649902 143.04064941h-245.13244629c-21.85180664 0-39.73205567 17.88024903-39.73205566 39.73205567V545.94775391c0 21.85180664 17.88024903 39.73205567 39.73205566 39.73205566h245.1324463c21.85180664 0 39.73205567-17.88024903 39.73205566-39.73205566V182.78094482c0.00823974-21.86004638-17.87200927-39.74029541-39.73205567-39.74029541z m-19.28100585 356.47613526c0 14.93041992-12.21130372 27.14172364-27.14172364 27.14172363H242.58502197c-14.93041992 0-27.14172364-12.21130372-27.14172363-27.14172363V229.20367432c0-14.93041992 12.21130372-27.14172364 27.14172363-27.14172364h152.27874756c14.93041992 0 27.14172364 12.21130372 27.14172364 27.14172364v270.31311035zM824.91259766 438.13891602h-245.1324463c-21.85180664 0-39.73205567 17.88024903-39.73205566 39.73205566v363.16680908c0 21.85180664 17.88024903 39.73205567 39.73205567 39.73205567h245.13244629c21.85180664 0 39.73205567-17.88024903 39.73205566-39.73205567V477.87097167c0-21.85180664-17.88024903-39.73205567-39.73205566-39.73205565z m-19.28924561 356.47613525c0 14.93041992-12.21130372 27.14172364-27.14172363 27.14172363H626.20288086c-14.93041992 0-27.14172364-12.21130372-27.14172364-27.14172363V524.30194092c0-14.93041992 12.21130372-27.14172364 27.14172364-27.14172363h152.27874756c14.93041992 0 27.14172364 12.21130372 27.14172363 27.14172363v270.31311035z"  ></path></svg>