<svg xmlns="http://www.w3.org/2000/svg" viewBox="0 0 1024 1024"><path fill="currentColor" d="M784.8 193.6H239.5c-26.1 0-44.8 18.7-44.8 44.8v549c0 26.1 18.7 44.8 44.8 44.8h549c26.1 0 44.8-18.7 44.8-44.8V242.2c0.1-26.1-22.3-48.6-48.5-48.6zM239.5 791.2c0-3.7 0-3.7 0 0z m545.3-3.7L609.3 600.7l-85.9 74.7-130.7-123.2L262 675.4l-18.7 22.4V242.2h549v545.3h-7.5zM642.9 514.8c48.6 0 85.9-37.3 85.9-85.9S691.5 343 642.9 343 557 380.4 557 428.9c0 44.9 37.3 85.9 85.9 85.9zM164.9 302v-44.8h-56C82.7 257.1 64 275.8 64 302v422c0 26.1 18.7 44.8 44.8 44.8h56V724h-56V302h56.1z m690.9 422v44.8h59.8c26.1 0 44.8-18.7 44.8-44.8V302c0-26.1-18.7-44.8-44.8-44.8h-56V302h56v422h-59.8z"  ></path></svg>