<svg xmlns="http://www.w3.org/2000/svg" viewBox="0 0 1024 1024"><path fill="currentColor" d="M811.99999971 737v37.50000029a37.50000029 37.50000029 0 0 1-37.49999942 37.49999942H249.49999971a37.50000029 37.50000029 0 0 1-37.49999942-37.49999942v-37.50000029H99.50000029a37.50000029 37.50000029 0 0 1-37.50000029-37.50000029V324.50000029a37.50000029 37.50000029 0 0 1 37.50000029-37.50000029h112.5V249.49999971a37.50000029 37.50000029 0 0 1 37.49999942-37.49999942h525.00000058a37.50000029 37.50000029 0 0 1 37.49999942 37.49999942v37.50000029h112.5a37.50000029 37.50000029 0 0 1 37.50000029 37.50000029v374.99999942a37.50000029 37.50000029 0 0 1-37.50000029 37.50000029h-112.5zM755.74999971 268.25000029h-487.49999942v487.49999942h487.49999942v-487.49999942zM618.3125 512L737 706.92499971V737H287v-30.07500029l88.9875-113.9625 134.62499971 101.1375L618.35000029 512zM212.00000029 680.75v-337.5H118.25v337.5H212.00000029zM418.24999971 361.99999971a56.25 56.25 0 1 1 0 112.5 56.25 56.25 0 0 1 0-112.5zM811.99999971 680.75h93.75000029v-337.5H811.99999971v337.5z"  ></path></svg>