<svg xmlns="http://www.w3.org/2000/svg" viewBox="0 0 1280 1024"><path d="M624.5 180.575c170.859375 0 309.375 138.4875 309.375 309.375 0 104.79375-52.115625 197.4375-131.821875 253.378125l50.23125 59.990625a28.125 28.125 0 1 1-43.14375 36.1125l-56.7-67.725a308.25 308.25 0 0 1-127.940625 27.61875c-50.90625 0-98.94375-12.31875-141.3-34.0875l-62.15625 74.19375a28.125 28.125 0 0 1-45.196875-33.271875l2.08125-2.840625 57.375-68.56875A308.86875 308.86875 0 0 1 315.125 489.95c0-170.8875 138.515625-309.375 309.375-309.375z m0 56.25a253.125 253.125 0 1 0 0 506.25 253.125 253.125 0 0 0 0-506.25z m26.15625 87.35625a28.125 28.125 0 0 1 13.78125 34.734375l-1.29375 3.0375-49.275 98.04375H680.75a28.125 28.125 0 0 1 23.90625 43.003125l-1.828125 2.559375-112.5 142.425a28.125 28.125 0 0 1-46.153125-31.95l1.996875-2.896875 76.5-96.890625H568.25a28.125 28.125 0 0 1-26.4375-37.771875l1.321875-2.98125 69.75-138.825a28.125 28.125 0 0 1 37.771875-12.4875z m-196.25625-167.23125a28.125 28.125 0 0 1-1.8 37.125l-2.615625 2.390625-89.15625 71.296875a28.125 28.125 0 0 1-37.771875-41.56875l2.64375-2.3625 89.15625-71.296875a28.125 28.125 0 0 1 39.54375 4.415625z m384.525-4.415625l89.184375 71.296875a28.125 28.125 0 0 1-35.128125 43.93125l-89.15625-71.296875a28.125 28.125 0 0 1 35.1-43.93125z" fill="currentColor" ></path></svg>