<?xml version="1.0" standalone="no"?><!DOCTYPE svg PUBLIC "-//W3C//DTD SVG 1.1//EN" "http://www.w3.org/Graphics/SVG/1.1/DTD/svg11.dtd"><svg t="1767602685476" class="icon" viewBox="0 0 1024 1024" version="1.1" xmlns="http://www.w3.org/2000/svg" p-id="6912" xmlns:xlink="http://www.w3.org/1999/xlink" width="200" height="200"><path d="M262.849969 322.073195a241.554896 241.554896 0 1 1 483.109792 0 241.554896 241.554896 0 0 1-483.109792 0M504.404865 11.502614a310.570581 310.570581 0 1 0 0 621.141162 310.570581 310.570581 0 0 0 0-621.141162M114.236194 980.022722A425.596722 425.596722 0 0 1 504.404865 724.664689a425.596722 425.596722 0 0 1 390.168671 255.358033 34.507842 34.507842 0 0 0 63.264377-27.606273A494.612407 494.612407 0 0 0 504.404865 655.649004c-202.906113 0-377.147712 122.157762-453.433048 296.767445a34.507842 34.507842 0 0 0 63.218367 27.606273" p-id="6913"></path></svg>