<?xml version="1.0" standalone="no"?><!DOCTYPE svg PUBLIC "-//W3C//DTD SVG 1.1//EN" "http://www.w3.org/Graphics/SVG/1.1/DTD/svg11.dtd"><svg t="1767602678853" class="icon" viewBox="0 0 1024 1024" version="1.1" xmlns="http://www.w3.org/2000/svg" p-id="6767" xmlns:xlink="http://www.w3.org/1999/xlink" width="200" height="200"><path d="M512 61.952c248.32 0 450.048 201.728 450.048 450.048s-201.728 450.048-450.048 450.048-450.048-201.728-450.048-450.048S263.68 61.952 512 61.952m161.28 488.448l0.512-9.728H350.208l0.512 9.728c4.096 98.816 24.576 185.856 53.248 248.832 14.336 31.744 30.72 57.344 48.64 75.264s37.888 29.184 59.392 29.184c21.504 0 41.472-10.752 59.392-29.184 17.92-17.92 34.304-44.032 48.64-75.264 28.672-62.464 49.152-150.016 53.248-248.832m-380.928-0.512l-0.512-8.704H120.832l1.024 10.24c14.336 141.824 104.448 265.216 236.032 321.024l25.6 10.752-14.336-24.064c-43.52-74.752-72.192-185.344-76.8-309.248m609.792 1.536l1.024-10.24H732.16l-0.512 8.704c-4.608 123.904-33.28 233.984-77.312 309.248l-14.336 24.064 25.6-10.752c131.584-56.32 222.208-179.2 236.544-321.024m-532.48-386.56l14.336-24.064-30.208 12.8C224.768 210.432 136.192 332.8 122.368 473.088l-1.024 10.24H291.84l0.512-8.704c4.608-124.416 33.28-235.008 77.312-309.76m201.728-15.872c-17.92-17.92-37.888-29.184-59.392-29.184h-3.072c-20.992 1.024-40.448 12.8-57.856 31.232-17.408 18.432-33.792 44.544-47.616 75.776-28.16 62.976-47.616 148.992-52.224 246.272l-0.512 9.728h323.584l-0.512-9.728c-4.096-98.816-24.576-185.856-53.248-248.832-14.848-31.232-31.232-56.832-49.152-75.264m94.72 2.56l-25.6-10.752 16.384 28.672c42.496 75.264 69.632 183.296 74.24 304.64l0.512 8.704h171.008l-1.024-10.24c-13.824-141.824-104.448-264.704-235.52-321.024" p-id="6768"></path></svg>