<?xml version="1.0" standalone="no"?><!DOCTYPE svg PUBLIC "-//W3C//DTD SVG 1.1//EN" "http://www.w3.org/Graphics/SVG/1.1/DTD/svg11.dtd"><svg t="1767602890058" class="icon" viewBox="0 0 1024 1024" version="1.1" xmlns="http://www.w3.org/2000/svg" p-id="7347" xmlns:xlink="http://www.w3.org/1999/xlink" width="200" height="200"><path d="M870.4 911.36c-10.24 0-20.48-5.12-25.6-10.24l-153.6-153.6c-138.24 112.64-343.04 102.4-471.04-25.6-138.24-138.24-138.24-363.52 0-501.76 138.24-138.24 363.52-138.24 501.76 0 128 128 138.24 332.8 25.6 471.04l153.6 153.6c15.36 15.36 15.36 40.96 0 56.32-10.24 5.12-20.48 10.24-30.72 10.24z m-404.48-716.8c-71.68 0-143.36 25.6-194.56 81.92-107.52 107.52-107.52 281.6 0 389.12 107.52 107.52 281.6 107.52 389.12 0 107.52-107.52 107.52-281.6 0-389.12-51.2-56.32-122.88-81.92-194.56-81.92z" p-id="7348"></path></svg>