<?xml version="1.0" standalone="no"?><!DOCTYPE svg PUBLIC "-//W3C//DTD SVG 1.1//EN" "http://www.w3.org/Graphics/SVG/1.1/DTD/svg11.dtd"><svg t="1767602704232" class="icon" viewBox="0 0 1024 1024" version="1.1" xmlns="http://www.w3.org/2000/svg" p-id="7057" xmlns:xlink="http://www.w3.org/1999/xlink" width="200" height="200"><path d="M896 887.466667H128c-17.066667 0-34.133333-12.8-34.133333-34.133334s12.8-34.133333 34.133333-34.133333h768c17.066667 0 34.133333 12.8 34.133333 34.133333s-17.066667 34.133333-34.133333 34.133334z m0-341.333334H128c-17.066667 0-34.133333-12.8-34.133333-34.133333s12.8-34.133333 34.133333-34.133333h768c17.066667 0 34.133333 12.8 34.133333 34.133333s-17.066667 34.133333-34.133333 34.133333z m0-341.333333H128c-17.066667 0-34.133333-17.066667-34.133333-34.133333s17.066667-34.133333 34.133333-34.133334h768c17.066667 0 34.133333 12.8 34.133333 34.133334s-17.066667 34.133333-34.133333 34.133333z" p-id="7058"></path></svg>