<?xml version="1.0" standalone="no"?><!DOCTYPE svg PUBLIC "-//W3C//DTD SVG 1.1//EN" "http://www.w3.org/Graphics/SVG/1.1/DTD/svg11.dtd"><svg t="1767602726672" class="icon" viewBox="0 0 1024 1024" version="1.1" xmlns="http://www.w3.org/2000/svg" p-id="7202" xmlns:xlink="http://www.w3.org/1999/xlink" width="200" height="200"><path d="M42.666667 93.866667c-17.066667 0-34.133333 17.066667-34.133334 34.133333s17.066667 34.133333 34.133334 34.133333h102.4c4.266667 0 8.533333 4.266667 8.533333 8.533334l34.133333 145.066666 93.866667 384c8.533333 34.133333 38.4 55.466667 72.533333 55.466667h473.6c34.133333 0 64-21.333333 72.533334-55.466667L1002.666667 341.333333c8.533333-29.866667-8.533333-59.733333-38.4-64H247.466667l-29.866667-123.733333c-8.533333-34.133333-38.4-59.733333-72.533333-59.733333H42.666667z m307.2 593.066666L264.533333 341.333333H938.666667l-93.866667 345.6c0 4.266667-4.266667 8.533333-8.533333 8.533334H358.4c-4.266667-4.266667-8.533333-4.266667-8.533333-8.533334m12.8 251.733334c34.133333 0 64-29.866667 64-64S396.8 810.666667 362.666667 810.666667 298.666667 840.533333 298.666667 874.666667 328.533333 938.666667 362.666667 938.666667m426.666666 0c34.133333 0 64-29.866667 64-64s-29.866667-64-64-64-64 29.866667-64 64 29.866667 64 64 64" p-id="7203"></path></svg>