<svg id="图层_1" data-name="图层 1" xmlns="http://www.w3.org/2000/svg" viewBox="0 0 159.42 187.15"><path d="M96.53,141.59H68.81a6.93,6.93,0,0,0,0,13.86H96.53a6.93,6.93,0,1,0,0-13.86Zm34.66-34.66H68.81a6.93,6.93,0,0,0,0,13.86h62.38a6.93,6.93,0,1,0,0-13.86Zm0-34.66H68.81a6.94,6.94,0,0,0,0,13.87h62.38a6.94,6.94,0,0,0,0-13.87Z" transform="translate(-20.29 -6.43)"/><path d="M145.05,20.29H140.2A20.64,20.64,0,0,0,120.79,6.43H79.21A20.64,20.64,0,0,0,59.8,20.29H55A34.75,34.75,0,0,0,20.29,55v104A34.75,34.75,0,0,0,55,193.57h90.1a34.75,34.75,0,0,0,34.66-34.65V55A34.75,34.75,0,0,0,145.05,20.29Zm-65.84,0h41.58a6.93,6.93,0,1,1,0,13.86H79.21a6.93,6.93,0,1,1,0-13.86Zm86.64,138.63a20.86,20.86,0,0,1-20.8,20.79H55a20.86,20.86,0,0,1-20.8-20.79V55A20.86,20.86,0,0,1,55,34.15H59.8A20.64,20.64,0,0,0,79.21,48h41.58A20.64,20.64,0,0,0,140.2,34.15h4.85A20.86,20.86,0,0,1,165.85,55Z" transform="translate(-20.29 -6.43)"/></svg>