<svg id="图层_1" data-name="图层 1" xmlns="http://www.w3.org/2000/svg" viewBox="0 0 181.05 180.82"><path d="M101.15,22.65a3,3,0,0,1,2.7,1.73L125,69.32A2.92,2.92,0,0,0,127.19,71l47.4,7.25a3,3,0,0,1,1.68,5L141.79,118.6a3,3,0,0,0-.8,2.57L149.1,171a3,3,0,0,1-2.49,3.41,3,3,0,0,1-1.89-.33l-42.14-23.3a3,3,0,0,0-2.86,0L57.57,174a2.9,2.9,0,0,1-1.44.38,3,3,0,0,1-3-3,2.32,2.32,0,0,1,0-.46l8.11-49.78a3,3,0,0,0-.8-2.56L26,83.26a3,3,0,0,1,.06-4.21,3,3,0,0,1,1.62-.81L75.11,71a3,3,0,0,0,2.24-1.67L98.44,24.37a3,3,0,0,1,2.71-1.73Zm0-14.53A17.42,17.42,0,0,0,85.3,18.19L66.81,57.55,25.5,63.87A17.5,17.5,0,0,0,15.61,93.4L46,124.57l-7.18,44a17.53,17.53,0,0,0,25.78,18.14l36.53-20.18,36.53,20.21a17.52,17.52,0,0,0,25.77-18.15l-7.18-44,30.42-31.19a17.5,17.5,0,0,0-9.9-29.52l-41.31-6.34L117,18.19A17.41,17.41,0,0,0,101.15,8.12Z" transform="translate(-10.62 -8.12)"/></svg>