<svg id="图层_1" data-name="图层 1" xmlns="http://www.w3.org/2000/svg" viewBox="0 0 192.58 180.57"><path d="M170.34,121.82a6.56,6.56,0,0,0-6.49,6.6V167.3a9.51,9.51,0,0,1-9.34,9.64H45.7a9.44,9.44,0,0,1-9.34-9.64V128.42a6.5,6.5,0,1,0-13,0v40a21.64,21.64,0,0,0,21.41,21.83H155.52a21.71,21.71,0,0,0,21.42-21.83v-40a6.87,6.87,0,0,0-6.6-6.6Zm.41-109.21-1.93-2.95H33.52L31.59,12.2C-2.92,57.27,2,84.88,7.94,97.46s18.47,20.81,31.36,20.81h1.22a47.75,47.75,0,0,0,31.77-13.9,38.74,38.74,0,0,0,29.13,13.09,39.35,39.35,0,0,0,29.94-13.81c7,5.69,19.8,14.32,33.4,14.32,9.34,0,17.36-4,23.85-11.57,24.06-28.63-16.14-91.05-17.86-93.79ZM135.93,54.12v-.4A6.49,6.49,0,0,0,123,52.5h-.1V93.2a26.63,26.63,0,0,1-21.52,11c-13.19,0-20.3-9-22.43-12.18V53.72a6.5,6.5,0,1,0-13,0V91.78a35,35,0,0,1-25.89,13.4h-1c-6.6,0-15.23-4.16-19.69-13.5s-7.92-30.76,20.3-68.82h121.9c12.69,20.7,30.15,59.07,16.95,74.7-3.95,4.67-8.52,7-14,7-12.29,0-25.48-11.37-28.83-14.42l.2-36Z" transform="translate(-3.69 -9.66)"/></svg>