<svg xmlns="http://www.w3.org/2000/svg" viewBox="0 0 1024 1024"><path fill="currentColor" d="M785.43597412 366.15649414v-23.59039307a81.37573242 81.37573242 0 0 0-81.35925293-81.40045165h-53.83026123a187.46246338 187.46246338 0 0 0-348.12103272-1e-8H248.328125a81.39221192 81.39221192 0 0 0-81.38397217 81.38397217v455.74035645a81.40045166 81.40045166 0 0 0 81.38397217 81.4086914h515.23132325c51.08642578 0 92.56530762-41.35528565 92.56530761-92.40875244V470.19976807C856.09179688 427.77331542 826.51934815 379.34008789 785.43597412 366.15649414zM476.19006347 188.49108886a142.09442138 142.09442138 0 0 1 123.89282228 72.6828003H352.29724121a142.09442138 142.09442138 0 0 1 123.89282227-72.6828003z m263.97674561 609.79888916a36.12304688 36.12304688 0 0 1-36.09832763 36.10656739H248.328125a36.13952637 36.13952637 0 0 1-36.11480713-36.10656739V342.56610107A36.19720459 36.19720459 0 0 1 248.328125 306.42657471h42.12158203a189.90966797 189.90966797 0 0 0-1.53259278 24.09301758 22.63458252 22.63458252 0 0 0 45.26916505 0 142.46520997 142.46520997 0 0 1 2.05169677-24.09301758h279.90417481a142.46520997 142.46520997 0 0 1 2.05169678 24.09301758 22.63458252 22.63458252 0 0 0 45.26916503 0 185.90515137 185.90515137 0 0 0-1.49963378-24.09301758h42.10510253a36.12304688 36.12304688 0 0 1 36.09832764 36.12304687z m86.06414795-11.00006103a62.62207031 62.62207031 0 0 1-59.09545898 62.4407959 81.07086182 81.07086182 0 0 0 18.30047607-51.42425537V398.58813477c23.39263916 12.91168213 40.79498291 44.57702637 40.79498291 71.6116333z"  ></path><path fill="currentColor" d="M419.14630127 518.59179688h-32.29156494v65.76141357L401.03533935 572.15014648l27.19116211 32.29156495-41.35528564 35.83465576v127.2052002h-65.77789306v-42.53356934h23.23608398V644.65991211h-36.62567139v-42.57476807h36.62567139V518.59179688h-41.74255372v-42.52532959h41.74255372v-61.79809571h42.52532959v61.79809571h32.29156494z m155.16265869 248.4942627V637.12878418h-61.43554687v73.25134277l-39.7732544 55.92315674L438.44378662 741.88891602l31.90429687-44.49462891v-60.26550294h-38.99047851v-42.52532958h38.99047851V518.59179688h-32.68707274v-42.52532959h211.8685913V518.59179688h-32.68707275v76.00341796h38.98223877v42.52532959h-38.98223877v129.96551514z m-55.13214111-322.52014161l-30.71777344 29.13574219-28.74847412-30.71777344 30.32226563-29.13574219z m-6.30340576 150.03753662h61.43554688V518.59179688h-61.43554688z m114.99389649-150.03753662l-30.71777344 29.13574219L568.03027344 442.98388672l30.71777343-29.13574219z"  ></path></svg>