<svg xmlns="http://www.w3.org/2000/svg" viewBox="0 0 1338 1024"><path fill="currentColor" d="M923.2720003 476.63866699l-131.890667 0L791.3813333 803.157333l-182.13599999 0-2e-8-326.518666-124.51866701 0 124.45066702-147.79733399 0-0.48 0.408 0 90.52399999-107.44933301 223.16266701 255.72666699z"  ></path><path fill="currentColor" d="M704.0000003 1024C986.8280003 1024 1216.0000003 794.82799999 1216.00000029 512c0-282.76-229.17200001-512-511.99999999-512-282.829333 0-512 229.169333-512 512C192.0000003 794.82799999 421.2400003 1024 704.0000003 1024z m0-955.666667c245.077333 0 443.733333 198.72400001 443.733333 443.73466698 0 245.077333-198.656 443.733333-443.732 443.733333-245.078667 0-443.734667-198.656-443.734667-443.73333299C260.3360003 266.989333 458.9213333 68.333333 704.0000003 68.333333z"  ></path></svg>