<svg xmlns="http://www.w3.org/2000/svg" viewBox="0 0 1024 1024"><path fill="currentColor" d="M787.58984375 156.04296875A67.42089844 67.42089844 0 0 1 854.7734375 223.4375v577.125a67.42089844 67.42089844 0 0 1-67.18359375 67.39453125H236.41015625A67.42089844 67.42089844 0 0 1 169.2265625 800.5625V223.4375A67.42089844 67.42089844 0 0 1 236.41015625 156.04296875z m0 52.734375H236.41015625A14.68652345 14.68652345 0 0 0 221.9609375 223.4375v577.125c0 8.04199219 6.59179689 14.66015625 14.44921875 14.66015625h551.1796875a14.68652345 14.68652345 0 0 0 14.44921875-14.66015625V223.4375a14.68652345 14.68652345 0 0 0-14.44921875-14.66015625z m-104.12402344 88.51464844c22.46484375 0 40.84277344 18.45703125 40.84277344 41.05371094 2.03027344 22.54394531-12.26074219 38.97070313-32.6953125 43.08398437-16.29492188 84.11132813-89.80664063 147.70898438-177.58300781 147.70898438s-163.29199219-63.59765625-177.58300782-149.76562501c-18.37792969-4.11328125-30.61230469-20.51367188-30.61230468-41.02734374 0-22.5703125 18.3515625-41.05371094 40.81640625-41.05371094 22.46484375 0 40.81640625 18.45703125 40.81640625 41.05371094 0 12.28710938-4.06054688 22.54394531-12.234375 30.77050781 10.20410156 67.68457031 69.3984375 118.99511719 138.796875 118.99511718 71.45507813 0 128.61914063-53.34082031 138.82324218-123.10839843-6.1171875-8.20019531-10.20410156-16.40039063-10.20410156-26.65722656 0-22.5703125 18.37792969-41.05371094 40.81640625-41.05371094z"  ></path></svg>