<svg xmlns="http://www.w3.org/2000/svg" viewBox="0 0 1024 1024"><path fill="currentColor" d="M921.6 256H102.4a51.2 51.2 0 0 1 0-102.4h819.2a51.2 51.2 0 0 1 0 102.4z m-307.2-153.6H409.6a51.2 51.2 0 0 1 0-102.4h204.8a51.2 51.2 0 0 1 0 102.4zM358.4 768V409.6a51.2 51.2 0 0 1 102.4 0v358.4a51.2 51.2 0 0 1-102.4 0z m204.8 0V409.6a51.2 51.2 0 0 1 102.4 0v358.4a51.2 51.2 0 0 1-102.4 0zM204.8 307.2a51.2 51.2 0 0 1 51.2 51.2v512a51.2 51.2 0 0 0 51.2 51.2h409.6a51.2 51.2 0 0 0 51.2-51.2V358.4a51.2 51.2 0 0 1 102.4 0v512a153.6 153.6 0 0 1-153.6 153.6H307.2a153.6 153.6 0 0 1-153.6-153.6V358.4a51.2 51.2 0 0 1 51.2-51.2z"  ></path></svg>