<svg xmlns="http://www.w3.org/2000/svg" viewBox="0 0 1024 1024"><path fill="currentColor" d="M708.96289063 265.90625v492.1875H167.46875V265.90625h541.49414063m0-49.21875H167.46875c-27.15820313 0-49.21875 22.06054688-49.21875 49.21875v492.1875c0 27.15820313 22.06054688 49.21875 49.21875 49.21875h541.49414063c27.15820313 0 49.21875-22.06054688 49.21875-49.21875V265.90625c0-27.15820313-22.06054688-49.21875-49.21875-49.21875z"  ></path><path fill="currentColor" d="M856.53125 367.94726562v288.10546876l-98.34960938-46.14257813V414.08984375L856.53125 367.94726562m24.609375-63.36914062c-3.42773438 0-7.03125 0.703125-10.45898438 2.37304688l-161.71874999 75.84960937v258.3984375l161.71874999 75.84960938c3.42773438 1.58203125 7.03125 2.37304688 10.45898438 2.37304687 12.91992188 0 24.609375-10.45898438 24.609375-24.609375V329.27539062c0-14.23828125-11.68945313-24.69726563-24.609375-24.69726562zM364.34375 462.78125c27.15820313 0 49.21875 22.06054688 49.21875 49.21875s-22.06054688 49.21875-49.21875 49.21875-49.21875-22.06054688-49.21875-49.21875 22.06054688-49.21875 49.21875-49.21875m0-49.21875c-54.40429688 0-98.4375 44.03320313-98.4375 98.4375s44.03320313 98.4375 98.4375 98.4375 98.4375-44.03320313 98.4375-98.4375-44.03320313-98.4375-98.4375-98.4375z"  ></path></svg>