<svg id="图层_1" data-name="图层 1" xmlns="http://www.w3.org/2000/svg" viewBox="0 0 165.37 179.62"><path d="M148.66,187.38H54.22a22.44,22.44,0,0,1-21.56-18.31L19,85.77a17.76,17.76,0,0,1,3.69-14.35,17.38,17.38,0,0,1,13.42-6.09H166.75a17.37,17.37,0,0,1,13.44,6.1,17.67,17.67,0,0,1,3.65,14.39L170.22,169c-1.77,10.31-11.23,18.35-21.56,18.35ZM36.13,78.16a4.67,4.67,0,0,0-3.69,1.53,4.8,4.8,0,0,0-.87,4l13.64,83.3a9.75,9.75,0,0,0,9,7.61h94.44a9.8,9.8,0,0,0,9-7.66l13.62-83.2a4.85,4.85,0,0,0-.86-4,4.68,4.68,0,0,0-3.7-1.54ZM62.9,116.68a12.83,12.83,0,1,1,12.72-12.83A12.79,12.79,0,0,1,62.9,116.68ZM63,103.85h0l0,6.4Zm76.65,12.83a12.83,12.83,0,1,1,12.72-12.83A12.78,12.78,0,0,1,139.6,116.68Zm.05-12.83h0v0ZM146,59.08a6.39,6.39,0,0,1-6.37-6.42c0-18.36-20.32-32.07-38.5-32.07-18.59,0-37.82,12-37.82,32a6.37,6.37,0,1,1-12.73,0c0-28.06,25.71-44.83,50.56-44.83,24.23,0,51.22,18.44,51.22,44.9A6.39,6.39,0,0,1,146,59.08Z" transform="translate(-18.76 -7.76)"/></svg>