<svg id="图层_1" data-name="图层 1" xmlns="http://www.w3.org/2000/svg" viewBox="0 0 175.15 152.83"><path d="M44.26,83.69h-.68a7.35,7.35,0,0,1-7.33-7.33,8,8,0,0,1,2.07-5.11A7.3,7.3,0,0,1,43.55,69h.68a7.33,7.33,0,0,1,0,14.65ZM168.38,43.78a6.72,6.72,0,0,1-6.72-6.72h0V23.64a10.17,10.17,0,0,0-10.1-10.22h-128A10.17,10.17,0,0,0,13.44,23.64h0V35.35A6.72,6.72,0,0,1,0,35.35V23.64A23.61,23.61,0,0,1,23.54,0h128A23.62,23.62,0,0,1,175.1,23.64V37.06A6.72,6.72,0,0,1,168.38,43.78Z" transform="translate(0)"/><path d="M58.46,105.94H11.91A11.93,11.93,0,0,1,0,94V58.79A12,12,0,0,1,11.91,46.85H58.46A23.64,23.64,0,0,1,82,70.5V82.2a23.63,23.63,0,0,1-23.52,23.74Zm-45-13.44h45A10.16,10.16,0,0,0,68.55,82.28V70.52A10.16,10.16,0,0,0,58.46,60.3h-45Zm138.15,60.33h-128A23.61,23.61,0,0,1,.07,129.18v-11.7a6.72,6.72,0,0,1,13.44,0h0v11.7a10.18,10.18,0,0,0,10.1,10.23h128a10.18,10.18,0,0,0,10.1-10.23V115.71a6.72,6.72,0,0,1,13.44,0v13.42a23.62,23.62,0,0,1-23.51,23.65Z" transform="translate(0)"/><path d="M141.54,103.23a6.52,6.52,0,0,1-3.7-1.14l-27.57-18.3a10.34,10.34,0,0,1-3.61-14.17A10.23,10.23,0,0,1,110.27,66l27.14-18a6.72,6.72,0,1,1,8.06,10.76c-.21.15-.42.29-.64.42L121.17,74.94l24.1,16a6.69,6.69,0,0,1-3.73,12.29Z" transform="translate(0)"/><path d="M166.22,81.62H111.93a6.72,6.72,0,0,1,0-13.44h54.31a6.72,6.72,0,1,1,0,13.44Z" transform="translate(0)"/></svg>