<svg xmlns="http://www.w3.org/2000/svg" viewBox="0 0 1024 1024"><path fill="currentColor" d="M477.30078125 404.6328125a151.94531223 151.94531223 0 0 1 214.55859402 0 151.83984348 151.83984348 0 0 1 17.82421875 192.65624973l113.51953071 113.484375a28.08984402 28.08984402 0 0 1-19.86328071 48.02343777 28.01953098 28.01953098 0 0 1-19.89843804-8.26171902l-113.44921848-113.484375a151.48828152 151.48828152 0 0 1-192.69140625-17.89453098 151.875 151.875 0 0 1 0-214.5234375zM841.55468723 265.90624973c41.09765598 0 74.53124973 33.43359375 74.53125054 74.53125054v338.37890571a35.15625027 35.15625027 0 1 1-70.31250054 0V340.43750027a4.21875 4.21875 0 0 0-4.21875-4.21875H182.19921875a4.21875 4.21875 0 0 0-4.18359348 4.21875v338.37890571c0 2.35546902 1.8984375 4.21875 4.18359348 4.21875h462.1640625a35.15625027 35.15625027 0 0 1 0 70.31250054H182.19921875A74.60156277 74.60156277 0 0 1 107.70312473 678.81640598V340.43750027C107.70312473 299.33984348 141.10156277 265.90624973 182.19921875 265.90624973z m-256.99218723 150.609375a95.30859348 95.30859348 0 0 0-67.5 162.87890652c36.10546902 36.03515598 98.89453098 36.03515598 135 0a95.66015625 95.66015625 0 0 0 0-135 95.44921875 95.44921875 0 0 0-67.5-27.87890652z"  ></path></svg>