<svg id="图层_1" data-name="图层 1" xmlns="http://www.w3.org/2000/svg" viewBox="0 0 173 173"><defs><style>.cls-1{fill:currentColor;}.cls-2{fill:#fff;}</style></defs><circle class="cls-1" cx="86.5" cy="86.5" r="86.5"/><path class="cls-2" d="M39,57.56h75.74A15.6,15.6,0,0,0,129.22,67C137.91,67,145,60.39,145,52.11S137.91,37,129.21,37a16.1,16.1,0,0,0-14.38,8.7H39a6,6,0,1,0,0,11.9ZM137.1,111.4H62.48a14.86,14.86,0,0,0-14.08-8.91,15,15,0,1,0,0,30,16.11,16.11,0,0,0,14.2-9.16h74.5a5.89,5.89,0,0,0,5.86-5.94v0a5.89,5.89,0,0,0-5.83-6ZM48,122.48a5,5,0,1,1,5-5A5,5,0,0,1,48,122.48Zm-9-30H74.32a16.21,16.21,0,0,0,29,0H139a6.21,6.21,0,0,0,0-12.41H103.15a16.21,16.21,0,0,0-28.71,0H39a6.2,6.2,0,0,0,0,12.4Z"/></svg>