<svg xmlns="http://www.w3.org/2000/svg" viewBox="0 0 1596 1024"><path d="M1145.9099659 733.67426439H403.36278312V306.81625402h742.54718278v426.87380555zM1172.96768423 258.67152242H376.14710987C365.01127155 258.67152242 355.97623676 267.80133038 355.97623676 279.03194238v480.5311716c0 11.24640718 9.0350348 20.37621514 20.17087311 20.37621515h796.82057436c11.13583832 0 20.17087312-9.12980796 20.1708731-20.37621515V279.03194238c0-11.24640718-9.0350348-20.36041942-20.1708731-20.36041996z" fill="currentColor" ></path><path d="M513.93139181 400.83116202h124.2791158v126.36412362H513.93139181v-126.36412361z m191.83653527 1e-8h124.27911581v126.36412361h-124.27911581v-126.36412361z m189.34084396 0H1019.38788683v126.36412361h-124.27911579v-126.36412361zM513.93139181 574.58183252h126.36412363v47.38654636h-126.36412363z" fill="currentColor" ></path></svg>