<svg xmlns="http://www.w3.org/2000/svg" viewBox="0 0 1024 1024"><path d="M872 481.8125H693.03125001c-16.5 0-30 13.5-30.00000002 30s13.5 30 30 30H872c16.5 0 30-13.5 30-30s-13.5-30-30-30zM670.90625001 383.09374999c11.625 11.625 30.75 11.625 42.46874999 2e-8l105.9375-105.9375c11.625-11.625 11.625-30.75 0-42.46875001-11.625-11.625-30.75-11.625-42.46875001 0l-105.93749998 105.9375c-11.71875001 11.625-11.71875001 30.75 0 42.46875001zM713.28125001 640.71875001c-11.625-11.625-30.75-11.625-42.46875001-2e-8-11.625 11.625-11.625 30.75 0 42.46875001l105.9375 105.9375c11.625 11.625 30.75 11.625 42.46875001 0s11.625-30.75 0-42.46875001l-105.93750002-105.93749998zM581.84375001 153.6875c-0.1875-0.09375001-0.375-0.09375001-0.56250002-0.1875-0.09375001 0-0.1875-0.09375001-0.375-0.09375001-10.3125-3.375-22.125-1.03125001-30.1875 7.12500002l-201.56249998 201.56249998h-193.12500002c-0.75-0.09375001-1.5-0.09375001-2.15624999-0.09374999-16.5 0-30 13.5-30 30v240c0 16.5 13.5 30 30 30h195.75l201.375 201.375c5.71875001 5.71875001 13.40625001 8.625 21 8.53125001h0.09375001c16.5 0 30-13.5 29.99999998-30.00000002V182.09374999c0-13.125-8.53125001-24.375-20.24999998-28.40624999zM383 610.53125001c-6-6-13.96875001-8.8125-21.9375-8.53125001H183.875V422.09374999h174c4.875 0.5625 9.75 0 14.34375001-1.78124999 0.09375001 0 0.09375001 0 0.18749998-0.09374999h0.09375001c5.4375-2.0625 10.21875001-5.625 13.59375001-10.3125L542 254v515.625L383 610.53125001z" fill="currentColor" ></path></svg>