<svg xmlns="http://www.w3.org/2000/svg" viewBox="0 0 1024 1024"><path fill="currentColor" d="M873.88964844 150.11035156C867.95703125 144.17773437 860.54125977 141.21142578 852.38391114 141.21142578H324.38098144c-17.05627442 0-30.40466309 13.34838867-30.40466308 30.40466309s13.34838867 30.40466309 30.40466309 30.40466308h496.85668945V682.56274414c0 17.05627442 13.34838867 30.40466309 30.40466308 30.40466309s30.40466309-13.34838867 30.4046631-30.40466309V171.61608886c0.74157715-8.15734864-2.22473145-15.57312012-8.15734864-21.5057373zM756.72045898 236.13330078H171.61608886c-8.15734864 0-15.57312012 3.70788575-21.5057373 8.89892578-5.93261719 5.93261719-8.89892578 14.08996583-8.89892578 22.24731446v584.36279296c0 2.22473145 0 4.44946289 0.74157715 5.93261719 0 0.74157715 0.74157715 1.4831543 0.74157715 2.22473145l1.4831543 2.9663086c0.74157715 1.4831543 1.4831543 1.4831543 1.48315429 2.96630859 0.74157715 0.74157715 0.74157715 1.4831543 1.4831543 2.22473144 2.22473145 2.96630859 5.19104004 5.93261719 8.89892578 8.89892578 0.74157715 0.74157715 1.4831543 0.74157715 2.22473145 1.4831543 1.4831543 0.74157715 1.4831543 1.4831543 2.96630859 1.4831543l2.9663086 1.48315429c0.74157715 0 1.4831543 0.74157715 2.22473144 0.74157716 2.22473145 0.74157715 3.70788575 0.74157715 5.93261719 0.74157714H756.72045898c8.15734864 0 16.31469727-2.96630859 21.50573731-8.89892578 5.93261719-5.93261719 8.89892578-13.34838867 8.89892578-21.50573731V267.27954102c0-17.05627442-14.08996583-30.40466309-30.40466309-31.14624024zM202.02075195 297.6842041h523.5534668v146.09069824L497.16845703 672.18066406l-73.4161377-73.4161377c-5.93261719-5.93261719-13.34838867-8.89892578-21.5057373-8.89892577-8.15734864 0-15.57312012 2.96630859-21.5057373 8.89892578L202.02075195 777.48461914V297.6842041z m523.5534668 524.29504395H245.03222656l157.21435547-157.21435547 73.4161377 73.4161377c5.93261719 5.93261719 13.34838867 8.89892578 21.5057373 8.89892577 8.15734864 0 16.31469727-2.96630859 21.5057373-8.89892578l206.90002442-206.90002441v290.69824219zM420.04443359 464.5390625c0-45.23620606-37.07885742-82.31506348-82.31506348-82.31506348s-82.31506348 37.07885742-82.31506347 82.31506348 37.07885742 82.31506348 82.31506348 82.31506348c45.9777832 0 82.31506348-37.07885742 82.31506347-82.31506348z m-58.58459473 22.98889161c-9.64050293 9.64050293-23.73046875 12.60681153-36.33728027 7.41577147-12.60681153-5.19104004-20.76416016-17.79785156-20.76416015-31.14624023 0-18.53942872 14.83154297-33.37097168 33.37097168-33.37097168 13.34838867 0 25.9552002 8.15734864 31.14624024 20.76416016 5.19104004 12.60681153 2.22473145 26.69677734-7.41577149 36.33728028z"  ></path></svg>