<svg xmlns="http://www.w3.org/2000/svg" viewBox="0 0 1338 1024"><path fill="currentColor" d="M484.72799964 547.361333l131.890667 0L616.61866664 220.842667l182.13599999 0 2e-8 326.518666 124.51866701 0-124.45066702 147.79733399 0 0.48000001-0.408-1e-8-90.52399999 107.44933301-223.16266701-255.726667z"  ></path><path fill="currentColor" d="M703.99999964 0C421.17199964 0 191.99999964 229.17200001 191.99999964 512c0 282.76 229.17200001 512 512 512 282.829333 0 512-229.169333 512-512C1215.99999964 229.17200001 986.75999964 0 703.99999964 0z m0 955.666667c-245.077333 0-443.733333-198.72400001-443.733333-443.73466699 0-245.077333 198.656-443.733333 443.732-443.73333299 245.078667 0 443.734667 198.656 443.734667 443.73333299C1147.66399964 757.010667 949.07866664 955.666667 703.99999964 955.666667z"  ></path></svg>