<svg xmlns="http://www.w3.org/2000/svg" viewBox="0 0 1024 1024"><path fill="currentColor" d="M768 540.444444l170.666667 99.555556v199.111111L768 938.666667l-170.666667-99.555556v-199.111111l170.666667-99.555556z m0 65.848889l-113.777778 66.360889v133.774222l113.777778 66.360889 113.777778-66.360889v-133.774222l-113.777778-66.360889zM768 170.666667a28.444444 28.444444 0 0 1 28.444444 28.444444v284.444445h-56.888888V227.555556H284.444444v568.888888h227.555556v56.888889H256a28.444444 28.444444 0 0 1-28.444444-28.444444V199.111111a28.444444 28.444444 0 0 1 28.444444-28.444444h512z m0 512a56.888889 56.888889 0 1 1 0 113.777777 56.888889 56.888889 0 0 1 0-113.777777z m-256-227.555556v56.888889h-142.222222v-56.888889h142.222222z m113.777778-142.222222v56.888889h-256v-56.888889h256z"  ></path></svg>