<svg xmlns="http://www.w3.org/2000/svg" viewBox="0 0 1024 1024"><path fill="currentColor" d="M512 42.666667h0.810667a35.029333 35.029333 0 0 1 5.546666 0.469333l2.218667 0.384c0.938667 0.170667 1.877333 0.426667 2.773333 0.64a26.368 26.368 0 0 1 1.962667 0.597333c0.853333 0.256 1.664 0.597333 2.517333 0.896a34.858667 34.858667 0 0 1 4.821334 2.304l1.536 0.896a40.874667 40.874667 0 0 1 7.936 6.272l-3.84-3.413333 0.384 0.298667 3.498666 3.114666 128 128a42.624 42.624 0 1 1-60.330666 60.330667L554.666667 188.330667V469.333333h280.96l-55.125334-55.168a42.666667 42.666667 0 0 1-3.541333-56.32l3.541333-4.010666a42.624 42.624 0 0 1 60.330667 0l128 128c1.194667 1.194667 2.346667 2.517333 3.413333 3.84l0.682667 0.896a32.085333 32.085333 0 0 1 2.133333 3.2c0.298667 0.512 0.64 1.024 0.896 1.578666a49.536 49.536 0 0 1 2.261334 4.821334l0.938666 2.56 0.597334 1.962666 0.682666 2.773334 0.384 2.218666A38.229333 38.229333 0 0 1 981.333333 512l-0.170666-3.669333a20.864 20.864 0 0 1 0.128 2.304L981.333333 512l-0.042666 1.450667-0.128 2.218666a53.461333 53.461333 0 0 1-0.298667 2.730667l-0.384 2.218667c-0.170667 0.938667-0.426667 1.877333-0.64 2.773333a26.368 26.368 0 0 1-0.597333 1.962667c-0.256 0.853333-0.597333 1.664-0.896 2.517333a34.858667 34.858667 0 0 1-2.304 4.821333l-0.896 1.536a40.874667 40.874667 0 0 1-6.272 7.936l3.413333-3.84-0.298667 0.384-3.114666 3.498667-128 128a42.624 42.624 0 1 1-60.330667-60.330667L835.626667 554.666667H554.666667v280.96l55.168-55.125334a42.666667 42.666667 0 0 1 56.32-3.541333l4.010666 3.541333a42.624 42.624 0 0 1 0 60.330667l-128 128a48.725333 48.725333 0 0 1-3.84 3.413333l-0.896 0.682667a32.085333 32.085333 0 0 1-3.2 2.133333c-0.512 0.298667-1.024 0.64-1.578666 0.896a49.536 49.536 0 0 1-4.821334 2.261334l-2.56 0.938666-1.962666 0.597334a65.621333 65.621333 0 0 1-2.773334 0.682666l-2.218666 0.384A38.229333 38.229333 0 0 1 512 981.333333l3.626667-0.170666-2.218667 0.128L512 981.333333l-1.408-0.042666-2.261333-0.128a51.754667 51.754667 0 0 1-2.688-0.298667l-2.218667-0.384c-0.938667-0.170667-1.877333-0.426667-2.773333-0.64a26.368 26.368 0 0 1-1.962667-0.597333c-0.853333-0.256-1.664-0.597333-2.517333-0.896a34.858667 34.858667 0 0 1-4.821334-2.304l-1.536-0.896a40.874667 40.874667 0 0 1-7.936-6.272l3.84 3.413333a42.112 42.112 0 0 1-3.84-3.413333l-128-128a42.624 42.624 0 1 1 60.330667-60.330667L469.333333 835.626667V554.666667H188.330667l55.168 55.168a42.666667 42.666667 0 0 1 3.541333 56.32l-3.541333 4.010666a42.624 42.624 0 0 1-60.330667 0l-128-128-3.114667-3.498666-0.298666-0.384-0.682667-0.896a32.085333 32.085333 0 0 1-2.133333-3.2c-0.298667-0.512-0.64-1.024-0.896-1.578667a49.536 49.536 0 0 1-2.261334-4.821333l-0.938666-2.56-0.597334-1.962667a65.621333 65.621333 0 0 1-0.682666-2.773333l-0.384-2.218667A37.333333 37.333333 0 0 1 42.666667 512l0.170666 3.797333a66.261333 66.261333 0 0 1-0.170666-2.986666V512v-0.810667c0-0.981333 0.085333-1.962667 0.170666-2.986666l0.298667-2.56 0.384-2.218667c0.170667-0.938667 0.426667-1.877333 0.64-2.773333a26.368 26.368 0 0 1 0.597333-1.962667c0.256-0.853333 0.597333-1.664 0.896-2.517333a34.858667 34.858667 0 0 1 2.304-4.821334l0.896-1.536a40.874667 40.874667 0 0 1 6.272-7.936l-3.413333 3.84a42.112 42.112 0 0 1 3.413333-3.84l128-128a42.624 42.624 0 1 1 60.330667 60.330667L188.330667 469.333333H469.333333V188.330667L414.165333 243.498667a42.666667 42.666667 0 0 1-56.32 3.541333l-4.010666-3.541333a42.624 42.624 0 0 1 0-60.330667l128-128 3.498666-3.114667 0.384-0.298666 0.896-0.682667a32.085333 32.085333 0 0 1 3.2-2.133333c0.512-0.298667 1.024-0.64 1.578667-0.896a49.536 49.536 0 0 1 4.821333-2.261334l2.56-0.938666 1.962667-0.597334 2.773333-0.682666 2.218667-0.384A37.333333 37.333333 0 0 1 512 42.666667l-3.797333 0.170666 3.029333-0.170666H512z"  ></path></svg>