<svg xmlns="http://www.w3.org/2000/svg" viewBox="0 0 1024 1024"><path fill="currentColor" d="M901.4 420.00000031a19.99999969 19.99999969 0 0 0 10.99999969-18V312.00000031a79.99999969 79.99999969 0 0 0-79.99999969-80.00000062H192.00000031a79.99999969 79.99999969 0 0 0-80.00000062 80.00000062v86.4a19.99999969 19.99999969 0 0 0 12.6 18.6 102.6 102.6 0 0 1 0 189.99999938 19.99999969 19.99999969 0 0 0-12.6 18.6V711.99999969a79.99999969 79.99999969 0 0 0 80.00000062 80.00000062h639.99999938a79.99999969 79.99999969 0 0 0 80.00000062-80.00000062v-90a19.99999969 19.99999969 0 0 0-11.00000062-18 102.19999969 102.19999969 0 0 1 0-183.99999938zM872 390.2a142.39999969 142.39999969 0 0 0 0 243.6V711.99999969a40.00000031 40.00000031 0 0 1-40.00000031 40.00000031H192.00000031a40.00000031 40.00000031 0 0 1-40.00000031-40.00000031v-73.8a142.2 142.2 0 0 0 0-252.39999938V312.00000031a40.00000031 40.00000031 0 0 1 40.00000031-40.00000031h639.99999938a40.00000031 40.00000031 0 0 1 40.00000031 40.00000031z"  ></path><path fill="currentColor" d="M312.00000031 291.99999969a19.99999969 19.99999969 0 0 0-20.00000062 20.00000062v39.99999938a19.99999969 19.99999969 0 0 0 40.00000031 0v-39.99999938a19.99999969 19.99999969 0 0 0-19.99999969-20.00000062zM312.00000031 524a19.99999969 19.99999969 0 0 0-20.00000062 19.99999969v64.00000031a19.99999969 19.99999969 0 0 0 40.00000031 0v-64.00000031a19.99999969 19.99999969 0 0 0-19.99999969-19.99999969zM312.00000031 396.00000031a19.99999969 19.99999969 0 0 0-20.00000062 19.99999969v64.00000031a19.99999969 19.99999969 0 0 0 40.00000031 0v-64.00000031a19.99999969 19.99999969 0 0 0-19.99999969-19.99999969zM312.00000031 651.99999969a19.99999969 19.99999969 0 0 0-20.00000062 20.00000062v39.99999938a19.99999969 19.99999969 0 0 0 40.00000031 0v-39.99999938a19.99999969 19.99999969 0 0 0-19.99999969-20.00000062zM687.60000031 477.39999969a19.99999969 19.99999969 0 0 0 0-39.99999938h-60l52.59999938-63a19.99999969 19.99999969 0 1 0-30.6-25.60000031l-74.19999938 88.60000031h-6l-74.4-90.20000062a19.99999969 19.99999969 0 0 0-28.2-2.59999969 19.99999969 19.99999969 0 0 0-3.20000062 27.40000031l53.4 64.59999938h-61.59999938a19.99999969 19.99999969 0 0 0 0 40.00000031H552.00000031v57.19999969h-96.6a19.99999969 19.99999969 0 0 0 0 40.00000031H552.00000031V651.99999969a19.99999969 19.99999969 0 0 0 39.99999938 0v-77.4h95.80000031a19.99999969 19.99999969 0 0 0 0-39.99999938H591.99999969v-57.20000062z"  ></path></svg>