<svg xmlns="http://www.w3.org/2000/svg" viewBox="0 0 1024 1024"><path fill="currentColor" d="M381.226667 711.594667l24.149333 24.106666a51.2 51.2 0 0 1 0 72.405334l-199.125333 199.125333a51.2 51.2 0 0 1-72.405334 0L25.173333 898.645333a51.2 51.2 0 0 1 0-72.405333l199.125334-199.125333a51.2 51.2 0 0 1 72.405333 0l24.149333 24.106666 90.496-90.453333L145.92 295.253333a51.2 51.2 0 0 1 0-72.405333L345.045333 23.722667a51.2 51.2 0 0 1 72.405334 0l54.272 54.272L526.08 23.722667a51.2 51.2 0 0 1 72.405333 0l410.325334 410.282666a51.2 51.2 0 0 1 0 72.405334l-54.314667 54.314666a42.666667 42.666667 0 0 1-60.330667 60.330667l-54.314666 54.314667a51.2 51.2 0 0 1-72.405334 0L357.077333 265.045333a51.2 51.2 0 0 1 0-72.405333l54.314667-54.272-30.165333-30.165333L230.357333 258.986667l241.365334 241.365333a85.333333 85.333333 0 0 1 0 120.661333l-90.496 90.538667z m181.034666-603.392l-120.704 120.661333 362.069334 362.026667 120.661333-120.661334-362.026667-362.026666zM109.653333 862.421333l60.330667 60.330667 150.869333-150.826667-60.330666-60.330666-150.869334 150.826666z"  ></path></svg>