<svg id="图层_1" data-name="图层 1" xmlns="http://www.w3.org/2000/svg" viewBox="0 0 147.27 151.41">
  <path
    fill="currentColor"
    d="M113.25,113a5.88,5.88,0,0,0-3.13-6.51,44.87,44.87,0,1,0-32.5-.09,65.11,65.11,0,0,0-7.44,2.28,68.84,68.84,0,0,0-43.71,51.45A5.84,5.84,0,0,0,31.12,167a5.21,5.21,0,0,0,1.11.1A5.84,5.84,0,0,0,38,162.37a57.1,57.1,0,0,1,68.3-44.86,5.89,5.89,0,0,0,7-4.47ZM60.73,64.5A33.28,33.28,0,1,1,94,97.76,33.32,33.32,0,0,1,60.73,64.5Zm110.48,79.79a7.88,7.88,0,0,1-.05-13l2.46-1.72-1-2.81a32.68,32.68,0,0,0-6.09-10.43l-1.94-2.23-2.67,1.25A7.87,7.87,0,0,1,150.73,109l-.28-2.94-2.91-.55a33.09,33.09,0,0,0-12.07,0l-2.91.55-.27,2.94a7.83,7.83,0,0,1-7.85,7.15,7.71,7.71,0,0,1-3.32-.74l-2.68-1.25-1.93,2.23a32.89,32.89,0,0,0-6.1,10.43l-1,2.81,2.46,1.72a7.87,7.87,0,0,1-.06,13L109.34,146l1,2.83a32.58,32.58,0,0,0,6,10.45l2,2.3,2.73-1.33a7.81,7.81,0,0,1,3.44-.78,7.9,7.9,0,0,1,7.87,7.35l.19,3,3,.55a33.17,33.17,0,0,0,12,0l3-.55.2-3a7.9,7.9,0,0,1,7.87-7.35,8.13,8.13,0,0,1,3.44.78l2.73,1.33,2-2.3a32.61,32.61,0,0,0,6-10.45l1-2.83-2.43-1.68Zm-8.84,7.81a16.34,16.34,0,0,0-3.77-.45,15.74,15.74,0,0,0-15.1,11.41,28.93,28.93,0,0,1-3.95,0,15.73,15.73,0,0,0-15.09-11.41,16.34,16.34,0,0,0-3.77.45,26.66,26.66,0,0,1-2-3.44,15.66,15.66,0,0,0,.1-21.62,24.57,24.57,0,0,1,2-3.51,16.16,16.16,0,0,0,3.6.41,15.7,15.7,0,0,0,15-11.1,23.39,23.39,0,0,1,4.1,0,15.72,15.72,0,0,0,18.59,10.69,23.66,23.66,0,0,1,2,3.51,15.69,15.69,0,0,0,.1,21.62,22.39,22.39,0,0,1-1.93,3.44ZM141.53,124a13.91,13.91,0,1,0,13.9,13.91A13.93,13.93,0,0,0,141.53,124Zm0,20a6.09,6.09,0,1,1,6.09-6.09A6.1,6.1,0,0,1,141.53,144Z"
    transform="translate(-26.36 -19.5)"
  />
</svg>