<svg id="图层_1" data-name="图层 1" xmlns="http://www.w3.org/2000/svg" viewBox="0 0 173 173"><defs><style>.cls-1{fill:#1456f0;}.cls-2{fill:#fff;}</style></defs><circle class="cls-1" cx="86.5" cy="86.5" r="86.5"/><path class="cls-2" d="M41.16,124.44v6.82a2.7,2.7,0,0,0,2.7,2.69h39v-51H41.14v41.5ZM90,82.94v51h38.87a2.69,2.69,0,0,0,2.69-2.69v-.95a4.93,4.93,0,0,0,.13-1.09V82.94ZM133.35,55.8H127l-.39,0H110.44c5.44-1.22,9.7-3.72,10.41-8.32.82-5.26-5.54-13.22-13.25-12.22-9.22,1.26-16,9.22-20.75,15.41C82.12,44.63,75.94,37.55,67.1,35.49c-8.56-2-14.43,6.71-14.28,12.1.16,4.58,4.35,7,9.93,8.25H46.41a1.51,1.51,0,0,0-.42-.05H39.66A2.7,2.7,0,0,0,37,58.48V79.29H82.58V56.5c1.68-.17,3.17-.36,4.37-.52a.19.19,0,0,0,.08,0h.15v0h0v0c.94.16,2,.29,3.17.4v23H136V65.89a2.17,2.17,0,0,0,.06-.57V58.5a2.69,2.69,0,0,0-2.69-2.7ZM59,49.17c-1.55-1.69-.51-4,.47-5.74,1.81-3.08,4.31-4.94,8.56-3.2C74,42.66,78.36,47.8,81.92,52.41c-7.56.81-18.82,1.13-22.91-3.24Zm32.82,3.15c3.67-4.62,7.94-9.3,13.84-12.18,6.17-3,11.91,5.1,9,9-2.26,3-9.42,3.23-13.29,3.39a69.08,69.08,0,0,1-9.54-.2Zm0,0"/></svg>