<svg id="图层_1" data-name="图层 1" xmlns="http://www.w3.org/2000/svg" viewBox="0 0 166.49 122.94"><path d="M77.59,121.92c-10.89,0-23.05-5.76-37.14-17.93-1.92-1.92-2.56-5.12-.64-7s5.12-2.57,7-.65C59,107.19,69.9,111.67,77.59,111.67c9,0,17.29-6.4,26.25-12.16,9-6.41,17.93-12.17,27.54-12.17C144.82,87.34,157,92.46,166,104c1.93,1.92,1.29,5.12-.64,7s-5.12,1.28-7-.64c-7-9-16-12.8-27.53-12.8-7.05,0-14.09,5.12-22.42,10.88C99.36,114.87,89.11,121.92,77.59,121.92ZM80.79,88A14.73,14.73,0,1,1,95.52,73.25,14.49,14.49,0,0,1,80.79,88Zm0-19.85c-3.2,0-5.12,1.92-5.12,5.12s1.92,5.13,5.12,5.13,5.12-1.93,5.12-5.13C85.27,70.05,83.35,68.13,80.79,68.13Z" transform="translate(-16.76 -33.55)"/><path d="M166.59,33.55H33.41A17,17,0,0,0,16.76,50.2v89.65A17,17,0,0,0,33.41,156.5H166.59a17,17,0,0,0,16.65-16.65V50.2A17,17,0,0,0,166.59,33.55Zm5.77,106.3c0,3.2-1.92,5.76-5.77,5.76H33.41c-3.21,0-5.77-1.92-5.77-5.76V50.2c0-3.2,1.92-5.76,5.77-5.76H166.59c3.21,0,5.77,1.92,5.77,5.76Z" transform="translate(-16.76 -33.55)"/></svg>