<svg xmlns="http://www.w3.org/2000/svg" viewBox="0 0 1024 1024"><path d="M774.940444 711.395556H249.059556c-20.536889 0-37.205333 16.014222-37.205334 35.726222 0 19.740444 16.668444 35.726222 37.205334 35.726222h525.880888c20.565333 0 37.262222-15.985778 37.262223-35.726222 0-19.712-16.696889-35.726222-37.262223-35.726222z m0-235.093334H249.059556c-20.536889 0-37.205333 15.985778-37.205334 35.726222 0 19.712 16.668444 35.726222 37.205334 35.726223h525.880888c20.565333 0 37.262222-16.014222 37.262223-35.726223 0-19.740444-16.696889-35.726222-37.262223-35.726222zM249.059556 312.604444h277.930666c20.536889 0 37.205333-15.985778 37.205334-35.697777 0-19.768889-16.668444-35.726222-37.205334-35.726223H249.059556c-20.536889 0-37.205333 15.957333-37.205334 35.726223 0 19.712 16.668444 35.697778 37.205334 35.697777z m672.085333 556.600889c0 45.966222-38.912 83.342222-86.755556 83.342223H189.610667c-47.872 0-86.812444-37.376-86.812445-83.342223V154.794667c0-45.937778 38.968889-83.342222 86.812445-83.342223h644.721777c47.872 0 86.755556 37.404444 86.755556 83.342223v714.410666zM834.389333 0H189.610667C100.693333 0 28.444444 69.461333 28.444444 154.794667v714.410666C28.444444 954.538667 100.721778 1024 189.639111 1024h644.721778C923.221333 1024 995.555556 954.538667 995.555556 869.205333V154.794667C995.555556 69.461333 923.221333 0 834.360889 0z" fill="currentColor" ></path></svg>