<svg xmlns="http://www.w3.org/2000/svg" viewBox="0 0 1024 1024"><path d="M933.831111 232.106667c-21.418667 0-38.826667 17.009778-39.111111 38.172444a38.855111 38.855111 0 0 0 38.115556 39.111111c4.067556 2.389333 13.027556 15.701333 13.027555 36.835556v352.568889c0 21.219556-8.96 34.446222-13.056 36.864a38.855111 38.855111 0 0 0-38.115555 39.111111c0.284444 21.162667 17.692444 38.144 39.082666 38.144 50.631111 0 90.225778-50.119111 90.225778-114.119111V346.225778c0.028444-64-39.594667-114.119111-90.168889-114.119111zM91.164444 309.390222a38.855111 38.855111 0 0 0 38.115556-39.111111A38.883556 38.883556 0 0 0 90.225778 232.106667C39.594667 232.106667 0 282.225778 0 346.225778v352.568889c0 64 39.623111 114.119111 90.225778 114.119111 21.390222 0 38.826667-16.981333 39.082666-38.144a38.855111 38.855111 0 0 0-38.115555-39.111111c-4.067556-2.417778-13.027556-15.644444-13.027556-36.864V346.225778c0-21.134222 8.931556-34.446222 13.027556-36.835556z m694.328889 536.206222c-0.028444 24.433778-20.053333 44.202667-44.743111 44.231112H288.995556a44.515556 44.515556 0 0 1-44.714667-44.231112V178.403556a44.515556 44.515556 0 0 1 44.714667-44.231112h451.754666c24.689778 0.028444 44.714667 19.797333 44.714667 44.231112v667.192888zM288.995556 56.888889c-67.811556 0.113778-122.766222 54.442667-122.823112 121.514667v667.192888c0.056889 67.072 55.011556 121.400889 122.823112 121.514667h451.754666c67.811556-0.113778 122.766222-54.442667 122.823111-121.514667V178.403556C863.573333 111.331556 808.590222 57.002667 740.778667 56.888889H288.995556z" fill="currentColor" ></path><path d="M750.876444 493.397333a39.424 39.424 0 0 0-55.04 5.034667l-115.143111 137.073778c-6.542222 6.343111-15.701333 13.340444-24.32 13.340444h-0.568889c-9.329778-0.284444-18.659556-8.476444-21.617777-11.690666l-0.455111-0.654223-69.632-72.305777c-18.232889-20.707556-48.042667-44.174222-87.011556-40.362667-48.128 4.750222-76.970667 48.725333-82.688 58.282667L270.222222 618.752a38.4 38.4 0 0 0 11.633778 53.134222 39.367111 39.367111 0 0 0 53.873778-10.979555l24.689778-37.432889 0.512-0.739556 0.711111-1.223111c4.949333-8.277333 16.099556-20.081778 23.210666-20.707555 3.384889-0.284444 10.808889 3.356444 20.679111 14.677333l0.625778 0.711111 68.608 71.310222c6.826667 7.793778 34.730667 36.551111 76.8 38.599111 1.479111 0.085333 3.043556 0.142222 4.636445 0.142223 21.048889 0 50.858667-7.025778 81.208889-37.489778l1.223111-1.194667 117.361777-139.747555a38.4 38.4 0 0 0-5.148444-54.414223M396.686222 354.048a50.005333 50.005333 0 0 0 65.052445 26.624 49.038222 49.038222 0 0 0 26.936889-64.312889 50.062222 50.062222 0 0 0-85.504-11.121778 48.753778 48.753778 0 0 0-6.485334 48.810667" fill="currentColor" ></path></svg>