<svg xmlns="http://www.w3.org/2000/svg" viewBox="0 0 1024 1024"><path fill="currentColor" d="M909.16389599 421.46382957l-82.35538549-81.85003282a67.43357693 67.43357693 0 0 0-47.47440125-19.53191519h-84.42436843v-68.52327099a104.91313156 104.91313156 0 0 0-104.92121064-104.92121064H200.04049213a104.91313156 104.91313156 0 0 0-104.9212098 104.92121064v427.08111712a104.87184138 104.87184138 0 0 0 96.14261892 104.4616355c0.22978757-81.02333743 66.22450132-146.87982038 147.297208-146.87982037 81.253125 0 147.33939468 66.08716782 147.33939469 147.33939468h47.38194799c0-81.253125 66.08716782-147.33939468 147.33939552-147.33939468s147.33670193 66.09165518 147.33670193 147.34119011h4.73397555c53.12662894 0 96.18929543-42.78620325 96.18929544-95.59508038V468.66625657a66.85462106 66.85462106 0 0 0-19.71592438-47.19793882z m-468.72017961 33.59471456a37.68779938 37.68779938 0 0 1-37.63932825 37.63932825H255.8321145a27.57446768 27.57446768 0 1 1 0-55.1489362h129.41688812V316.31283218a27.57446768 27.57446768 0 0 1 55.1489362 0v138.74571195z m418.85635006 66.77652887h-104.55319144a37.68779938 37.68779938 0 0 1-37.63932825-37.64022555V387.13307825a27.57446768 27.57446768 0 1 1 55.14893618 0v79.55216125h86.99780594a27.57446768 27.57446768 0 0 1 0.04577757 55.14893619z"  ></path><path fill="currentColor" d="M245.17034612 783.6085105A93.75319145 93.75319145 0 1 0 338.92353757 689.85531906a93.75319145 93.75319145 0 0 0-93.75319144 93.75319144z"  ></path><path fill="currentColor" d="M586.86396243 783.6085105a93.75319145 93.75319145 0 1 0 93.75319144-93.75319144 93.75319145 93.75319145 0 0 0-93.75319144 93.75319144z"  ></path></svg>