<svg xmlns="http://www.w3.org/2000/svg" viewBox="0 0 1024 1024"><path fill="currentColor" d="M553.1328125 903.55273438c-4.99946594-0.07879257-9.73706245-2.60247231-12.99613953-6.93683625-3.1092167-4.5012188-4.42165375-10.28320313-3.61518859-15.93927383l12.67169953-84.97083664c0.63343048-3.95507813 2.35759735-7.57026672 4.93612288-10.31487465l203.66334916-232.21097946c18.4621811-19.90980148 47.34197617-19.90980148 65.79643249 0l17.27565765 18.75572205c17.98015594 20.81050873 17.98015594 54.21546936 0 75.02752304l-203.50421905 233.71267319c-2.27880478 2.65886306-5.19721985 4.48576927-8.38522911 5.25283813l-71.72132492 17.25248336-4.12116051 0.37156105zM641.79763032 120.44726562H197.14410973c-7.20643043-0.09501458-14.13554192 3.06904793-19.28486824 8.79618646-5.14932632 5.73486328-8.1001854 13.56545449-8.18670274 21.77610397v493.4995079c0.1815319 86.93215371 61.9440937 157.34876633 138.18208695 157.55424499h169.7755909c6.15431785 0.00772476 12.06298828-2.75233268 16.44601822-7.68073082L771.096241 481.332695c4.46954727-4.91294861 7.01640129-11.66748047 7.07201957-18.75572204V278.00151062C778.00217819 191.86809731 717.33189774 121.77592468 641.79763032 120.44726562z m-4.54061509 374.35586929c0 18.01955223-14.6098423 32.62939453-32.62939453 32.62939453h-285.42995454c-18.01877976 0-32.62939453-14.6098423-32.62939453-32.62939453v-2.83962249c0-18.01955223 14.61061478-32.62939453 32.62939453-32.62939453h285.42995454c18.01955223 0 32.62939453 14.6098423 32.62939453 32.62939453v2.83962249z m0-153.21138381c0 18.01877976-14.6098423 32.62939453-32.62939453 32.62939453h-285.42995454c-18.01877976 0-32.62939453-14.61061478-32.62939453-32.62939453v-2.8396225c0-18.01955223 14.61061478-32.62939453 32.62939453-32.62939453h285.42995454c18.01955223 0 32.62939453 14.6098423 32.62939453 32.62939453v2.8396225z"  ></path></svg>