<svg xmlns="http://www.w3.org/2000/svg" viewBox="0 0 1024 1024"><path fill="currentColor" d="M315.73333333 230.4m-76.8 0a76.8 76.8 0 1 0 153.6 0 76.8 76.8 0 1 0-153.6 0Z"  ></path><path fill="currentColor" d="M477.86666667 187.73333333m-51.2 0a51.2 51.2 0 1 0 102.4 0 51.2 51.2 0 1 0-102.4 0Z"  ></path><path fill="currentColor" d="M622.93333333 196.26666667m-42.66666666 0a42.66666667 42.66666667 0 1 0 85.33333333 0 42.66666667 42.66666667 0 1 0-85.33333333 0Z"  ></path><path fill="currentColor" d="M716.8 256m-34.13333333 0a34.13333333 34.13333333 0 1 0 68.26666666 0 34.13333333 34.13333333 0 1 0-68.26666666 0Z"  ></path><path fill="currentColor" d="M614.4 290.13333333c-170.66666667-51.2-256 34.13333333-256 34.13333334s-51.2 51.2 0 136.53333333 85.33333333 51.2 85.33333333 119.46666667-51.2 51.2-51.2 153.6c0 136.53333333 102.4 136.53333333 153.6 136.53333333s102.4-34.13333333 136.53333334-102.4 0-136.53333333 17.06666666-187.73333333 85.33333333-238.93333333-85.33333333-290.13333334z"  ></path></svg>