<svg xmlns="http://www.w3.org/2000/svg" viewBox="0 0 1024 1024"><path fill="currentColor" d="M689.97851563 472.44921875c-118.65234375 0-217.52929688 98.87695313-217.52929688 217.52929688s98.87695313 217.52929688 217.52929688 217.52929687 217.52929688-98.87695313 217.52929687-217.52929688-98.87695313-217.52929688-217.52929688-217.52929687z m75.93749999 229.79003906h-57.34863281v15.8203125h45.87890625c10.28320313 0 18.58886719 8.30566406 18.58886719 18.58886719s-8.30566406 18.58886719-18.58886719 18.58886719h-45.87890625v34.8046875c0 10.28320313-8.30566406 18.58886719-18.58886719 18.58886719s-18.58886719-8.30566406-18.58886718-18.58886719v-34.8046875h-45.87890625c-10.28320313 0-18.58886719-8.30566406-18.58886719-18.58886719s8.30566406-18.58886719 18.58886719-18.58886719h45.87890625v-15.8203125h-57.34863282c-10.28320313 0-18.58886719-8.30566406-18.58886718-18.58886718s8.30566406-18.58886719 18.58886718-18.58886719h57.34863282V658.33789063l-52.20703125-52.20703126c-7.11914063-7.11914063-7.11914063-18.984375 0-26.10351562 7.11914063-7.11914063 18.984375-7.11914063 26.10351562 0l44.296875 44.296875 47.4609375-47.4609375c7.11914063-7.11914063 18.984375-7.11914063 26.10351563 0s7.11914063 18.984375 0 26.10351563l-54.97558594 54.97558593v7.11914063h57.34863281c10.28320313 0 18.58886719 8.30566406 18.58886719 18.58886718 0.39550781 10.28320313-7.91015625 18.58886719-18.19335938 18.58886719z"  ></path><path fill="currentColor" d="M697.88867188 116.4921875H175.81835937C144.17773437 116.4921875 116.4921875 144.17773437 116.4921875 175.81835937v609.08203125c0 31.640625 27.68554688 59.32617188 59.32617188 59.32617188h284.76562499c-31.640625-47.4609375-51.41601563-102.83203125-51.41601562-158.203125 0-154.24804688 122.60742188-276.85546875 276.85546875-276.85546875 23.73046875 0 47.4609375 3.95507813 71.19140625 7.91015625V175.81835937c-3.95507813-31.640625-27.68554688-59.32617188-59.32617188-59.32617187zM349.84179687 610.87695313c0 15.8203125-11.86523438 27.68554688-27.68554687 27.68554687H262.83007812c-15.8203125 0-27.68554688-11.86523438-27.68554687-27.68554688s11.86523438-27.68554688 27.68554688-27.68554687h59.32617187c13.84277344 0.39550781 27.68554688 11.86523438 27.68554688 27.68554687z m27.68554688-146.33789063H262.83007812c-15.8203125 0-27.68554688-11.86523438-27.68554687-27.68554688s11.86523438-27.68554688 27.68554688-27.68554687h114.69726562c15.8203125 0 27.68554688 11.86523438 27.68554688 27.68554688s-11.86523438 27.68554688-27.68554688 27.68554687z m233.34960938-174.0234375H262.83007812c-15.8203125 0-27.68554688-11.86523438-27.68554687-27.68554688s11.86523438-27.68554688 27.68554688-27.68554687h348.04687499c15.8203125 0 27.68554688 11.86523438 27.68554688 27.68554688s-11.86523438 27.68554688-27.68554687 27.68554687z"  ></path></svg>