<svg xmlns="http://www.w3.org/2000/svg" viewBox="0 0 1024 1024"><path fill="currentColor" d="M583.98242188 478.07421875c96.85546875 20.91796875 209.53125 89.03320313 209.53124999 285.46875 0 52.3828125-65.47851563 52.3828125-277.55859374 52.3828125-214.71679688 0-277.55859375 0-277.55859376-52.3828125 0-193.79882813 112.58789063-264.46289063 209.53125001-285.46875-75.9375-41.92382813-102.12890625-138.77929688-65.47851563-217.35351563s128.3203125-107.40234375 198.984375-65.47851562 99.4921875 138.77929688 60.20507813 214.71679688c-13.18359375 31.46484375-34.1015625 52.3828125-57.65625 68.11523437z"  ></path><path fill="currentColor" d="M364.87109375 474.91015625c8.26171875-2.4609375 10.37109375-13.18359375 3.515625-18.45703125-60.8203125-46.58203125-79.453125-133.2421875-46.14257813-204.69726563 4.921875-10.546875 10.81054688-20.21484375 17.578125-28.91601562 5.625-7.20703125-0.17578125-17.66601563-9.31640625-16.875-39.375 3.33984375-76.55273438 27.59765625-95.53710937 68.29101563-26.54296875 56.86523438-12.48046875 125.5078125 34.62890625 163.82812499 6.50390625 5.36132813 4.5703125 15.73242188-3.515625 18.28125001-72.68554688 22.67578125-147.91992188 83.05664063-147.91992188 225.70312499 0 21.88476563 13.44726563 32.43164063 50.27343751 37.61718751 5.88867188 0.79101563 11.33789063-3.42773438 11.953125-9.40429688 14.50195313-146.953125 101.51367188-210.84960938 184.48242187-235.37109375zM659.21679688 474.91015625c-8.26171875-2.4609375-10.37109375-13.18359375-3.51562501-18.45703125 60.8203125-46.58203125 79.453125-133.2421875 46.14257813-204.69726563-4.921875-10.546875-10.81054688-20.21484375-17.578125-28.91601562-5.625-7.20703125 0.17578125-17.66601563 9.31640625-16.875 39.375 3.33984375 76.55273438 27.59765625 95.53710938 68.29101563 26.54296875 56.86523438 12.48046875 125.5078125-34.62890626 163.82812499-6.50390625 5.36132813-4.5703125 15.73242188 3.515625 18.28125001 72.68554688 22.67578125 147.91992188 83.05664063 147.91992188 225.70312499 0 21.88476563-13.44726563 32.43164063-50.2734375 37.61718751-5.88867188 0.79101563-11.33789063-3.42773438-11.953125-9.40429688-14.50195313-146.953125-101.51367188-210.84960938-184.48242188-235.37109375z"  ></path></svg>