<svg xmlns="http://www.w3.org/2000/svg" viewBox="0 0 1024 1024"><path fill="currentColor" d="M696.09090869 184.72727305v40.90909043a81.81818174 81.81818174 0 0 1-77.72727217 81.71590957L614.27272695 307.45454521H409.72727305a81.81818174 81.81818174 0 0 1-81.71590958-77.72727216L327.90909131 225.63636348V184.72727305h-40.90909131a81.81818174 81.81818174 0 0 0-81.81818174 81.81818174v531.81818174a81.81818174 81.81818174 0 0 0 81.81818174 81.81818173h450a81.81818174 81.81818174 0 0 0 81.81818174-81.81818173V266.54545479a81.81818174 81.81818174 0 0 0-81.81818174-81.81818174h-40.90909131zM317.68181826 532.45454521h388.63636348a30.68181826 30.68181826 0 0 1 0 61.36363653h-388.63636348a30.68181826 30.68181826 0 0 1 0-61.36363653z m0-122.72727216h184.09090869a30.68181826 30.68181826 0 0 1 0 61.36363564h-184.09090869a30.68181826 30.68181826 0 0 1 0-61.36363564z m102.27272695-265.90909131a51.13636347 51.13636347 0 0 0-51.03409042 47.78181826L368.81818174 194.95454521v20.4545461a51.13636347 51.13636347 0 0 0 47.78181826 51.03409043L419.95454521 266.54545479h184.09090958a51.13636347 51.13636347 0 0 0 51.03409042-47.78181826L655.18181826 215.40909131v-20.4545461a51.13636347 51.13636347 0 0 0-47.78181826-51.03409042L604.04545479 143.81818174h-184.09090958z"  ></path></svg>