<svg xmlns="http://www.w3.org/2000/svg" viewBox="0 0 1024 1024"><path fill="currentColor" d="M697.88867188 116.4921875H175.81835937C144.17773437 116.4921875 116.4921875 144.17773437 116.4921875 175.81835937v609.08203125c0 31.640625 27.68554688 59.32617188 59.32617188 59.32617188h284.76562499c-31.640625-47.4609375-51.41601563-102.83203125-51.41601562-158.203125 0-154.24804688 122.60742188-276.85546875 276.85546875-276.85546875 23.73046875 0 47.4609375 3.95507813 71.19140625 7.91015625V175.81835937c-3.95507813-31.640625-27.68554688-59.32617188-59.32617188-59.32617187zM349.84179687 610.87695313c0 15.8203125-11.86523438 27.68554688-27.68554687 27.68554687H262.83007812c-15.8203125 0-27.68554688-11.86523438-27.68554687-27.68554688s11.86523438-27.68554688 27.68554688-27.68554687h59.32617187c13.84277344 0.39550781 27.68554688 11.86523438 27.68554688 27.68554687z m27.68554688-146.33789063H262.83007812c-15.8203125 0-27.68554688-11.86523438-27.68554687-27.68554688s11.86523438-27.68554688 27.68554688-27.68554687h114.69726562c15.8203125 0 27.68554688 11.86523438 27.68554688 27.68554688s-11.86523438 27.68554688-27.68554688 27.68554687z m233.34960938-174.0234375H262.83007812c-15.8203125 0-27.68554688-11.86523438-27.68554687-27.68554688s11.86523438-27.68554688 27.68554688-27.68554687h348.04687499c15.8203125 0 27.68554688 11.86523438 27.68554688 27.68554688s-11.86523438 27.68554688-27.68554687 27.68554687z"  ></path><path fill="currentColor" d="M689.97851563 472.44921875c-118.65234375 0-217.52929688 98.87695313-217.52929688 217.52929688s98.87695313 217.52929688 217.52929688 217.52929687 217.52929688-98.87695313 217.52929687-217.52929688-98.87695313-217.52929688-217.52929688-217.52929687z m52.99804687 310.86914063h-63.28125c-7.11914063 0-14.23828125-3.95507813-18.19335938-10.28320313-4.35058594-7.11914063-4.35058594-15.42480469 0-22.54394531 3.95507813-6.328125 11.07421875-10.28320313 18.58886719-10.28320313h62.88574219c19.77539063 0 35.99121094-16.21582031 35.99121094-35.99121093s-16.21582031-35.99121094-35.99121094-35.99121094h-109.95117188v15.8203125c0 5.14160156-3.1640625 9.4921875-7.51464843 11.46972656-4.74609375 1.97753906-9.88769531 0.79101563-13.44726563-2.76855469l-34.01367187-34.40917968c-6.328125-6.72363281-6.328125-17.40234375 0-23.73046875l34.01367187-34.01367188c3.55957031-3.55957031 8.70117188-4.74609375 13.44726563-2.76855469 4.74609375 1.97753906 7.91015625 6.328125 7.51464844 11.46972657v15.82031249h109.95117187c43.50585938 0 79.1015625 35.59570313 79.1015625 79.10156251 0.39550781 43.50585938-35.20019531 79.1015625-79.1015625 79.1015625z"  ></path></svg>