<svg xmlns="http://www.w3.org/2000/svg" viewBox="0 0 1024 1024"><path fill="currentColor" d="M748.5009291 498.19888508c-102.56737884 0-185.3740709 83.12035282-185.37407006 185.37407005s83.12035282 185.3740709 185.37407006 185.3740709 185.3740709-83.12035282 185.3740709-185.3740709-83.12035282-185.3740709-185.3740709-185.37407006z m95.66682222 276.96328994l-1.88197038 2.19563196-2.19563196 1.88197036c-10.35083661 8.46886624-24.77927472 8.46886624-35.13011214 0l-2.19563196-1.88197036-82.17936804-82.17936804v-125.46468403c1.25464718-14.11477734 13.48745334-25.09293713 27.60223068-25.09293713 14.42843894 0 26.34758349 10.97815979 27.60223067 25.09293713v102.56737885l66.18262117 65.86895956 1.88196953 2.19563196a26.66124509 26.66124509 0 0 1 0.31366243 34.81644974z"  ></path><path fill="currentColor" d="M508.54972085 694.23745334c0-129.22862476 104.76301081-233.99163555 233.99163638-233.99163556 40.14869925 0 77.78810412 10.03717502 110.7225835 27.91589228V194.26068763c0-34.81644973-28.54321545-63.67332678-63.6733276-63.67332679H153.79832678C118.66821545 130.58736084 90.125 159.1305763 90.125 194.26068763v508.44563195c0 34.81644973 28.54321545 63.67332678 63.67332678 63.6733276h31.67983301c19.13336444 0 31.679833 12.86013016 31.679833 31.67983219V852.32295514c0 34.81644973 25.40659873 50.81319663 57.08643091 34.81644974l196.97955387-104.76301081c12.86013016-7.52788064 31.679833-13.17379175 48.30390307-15.05576211-6.90055747-23.21096677-10.97815979-47.6765799-10.97815979-73.08317862zM213.39405206 243.81923788h317.73931238c19.13336444 0 31.679833 12.86013016 31.67983219 31.67983302 0 19.13336444-15.99674689 31.679833-31.67983219 31.67983217H213.39405206c-19.13336444 0-31.679833-12.86013016-31.679833-31.67983217S197.39730518 243.81923788 213.39405206 243.81923788z m1e-8 254.37964719c-19.13336444 0-31.679833-12.86013016-31.67983301-31.67983301 0-19.13336444 15.99674689-31.679833 31.67983301-31.67983301h317.73931237c19.13336444 0 31.679833 12.86013016 31.67983219 31.67983301 0 19.13336444-15.99674689 31.679833-31.67983219 31.67983301H213.39405206z"  ></path></svg>