<svg xmlns="http://www.w3.org/2000/svg" viewBox="0 0 1024 1024"><path fill="currentColor" d="M398.285 354.23h245.79c16.56 0 32.535-7.02 43.155-19.71 25.38-30.15 49.41-67.14 54.81-100.35 10.89-66.33-17.55-100.035-100.08-100.035-82.485 0-54.585 54.135-86.625 58.59-23.895 3.33-23.04-28.215-60.615-58.5-27-21.645-57.15 39.555-92.79 39.915-41.58 0.54-99.99-10.935-99.99 60.075 0 28.665 25.11 67.455 52.56 99.585 11.025 12.87 26.91 20.43 43.785 20.43zM704.87 417.5a69.21 69.21 0 0 0-51.93-23.22H390.68c-18.99 0-37.26 7.65-50.4 21.375-82.35 86.355-158.4 209.61-158.4 299.475 0 79.29 79.65 179.325 177.885 179.325h304.47c98.235 0 177.885-99.225 177.885-179.325 0-91.485-61.155-211.275-137.25-297.63z m-80.1 109.08l-52.695 95.67a12.645 12.645 0 0 0 11.025 18.72h14.94a12.645 12.645 0 0 1 0 25.29h-37.62a13.23 13.23 0 0 0-13.275 13.185v6.255c0 6.93 5.625 12.645 12.645 12.645h38.25a12.645 12.645 0 0 1 0 25.29h-38.25a12.645 12.645 0 0 0-12.6 12.6v32.175a12.645 12.645 0 0 1-12.69 12.645h-22.905a12.645 12.645 0 0 1-12.6-12.6v-32.175a12.645 12.645 0 0 0-12.645-12.645h-37.89a12.645 12.645 0 0 1 0-25.29h37.8a12.735 12.735 0 0 0 12.735-12.645l0.045-6.165a13.23 13.23 0 0 0-13.23-13.32h-37.35a12.645 12.645 0 0 1 0-25.29h14.58a12.6 12.6 0 0 0 11.025-18.765l-52.74-95.67a12.645 12.645 0 0 1 11.025-18.72h25.155c4.77 0 9.18 2.7 11.25 6.93l42.93 85.68a12.645 12.645 0 0 0 22.59 0l42.93-85.68a12.6 12.6 0 0 1 11.25-6.93h25.155a12.735 12.735 0 0 1 11.16 18.81z"  ></path></svg>