<svg xmlns="http://www.w3.org/2000/svg" viewBox="0 0 1024 1024"><path d="M881.012364 116.363636c14.708364 0 26.624 11.915636 26.624 26.624v138.379637a26.624 26.624 0 1 1-53.294546 0v-111.709091l-315.717818-0.046546v684.730182h111.709091c13.265455 0 24.250182 9.681455 26.344727 22.341818l0.325818 4.328728a26.624 26.624 0 0 1-26.624 26.624l-137.821091-0.046546L512 907.636364H373.666909a26.624 26.624 0 1 1 0-53.294546h111.662546V169.611636H169.658182v111.755637a26.624 26.624 0 1 1-53.294546 0V142.987636c0-14.708364 11.915636-26.624 26.624-26.624z" fill="currentColor" ></path></svg>