<svg xmlns="http://www.w3.org/2000/svg" viewBox="0 0 1024 1024"><path d="M640 554.666667H938.666667V256H640v298.666667zM981.333333 170.666667A42.666667 42.666667 0 0 1 1024 213.333333V597.333333a42.666667 42.666667 0 0 1-42.666667 42.666667H597.333333a42.666667 42.666667 0 0 1-42.666666-42.666667V213.333333A42.666667 42.666667 0 0 1 597.333333 170.666667h384zM938.666667 768a42.666667 42.666667 0 0 1 0 85.333333H640a42.666667 42.666667 0 0 1 0-85.333333H938.666667z m-554.666667 0a42.666667 42.666667 0 0 1 0 85.333333H85.333333a42.666667 42.666667 0 0 1 0-85.333333h298.666667zM85.333333 554.666667h298.666667V256H85.333333v298.666667zM426.666667 170.666667a42.666667 42.666667 0 0 1 42.666666 42.666666V597.333333a42.666667 42.666667 0 0 1-42.666666 42.666667H42.666667A42.666667 42.666667 0 0 1 0 597.333333V213.333333A42.666667 42.666667 0 0 1 42.666667 170.666667H426.666667z" fill="currentColor" ></path></svg>