<svg xmlns="http://www.w3.org/2000/svg" viewBox="0 0 1024 1024"><path d="M512 381.984523l41.383965 86.380139c5.432534 11.32015 16.240718 19.113419 28.727014 20.763089l95.367997 12.486296-69.741226 65.873033a36.890036 36.890036 0 0 0-10.978838 33.590696l17.492191 94.144966-84.502928-45.678796c-11.092609-5.972943-24.432183-5.972943-35.49635 0l-84.531371 45.650353 17.520634-94.116523a36.890036 36.890036 0 0 0-10.978838-33.562253l-69.741226-65.873034 95.339555-12.514738a37.174462 37.174462 0 0 0 28.727013-20.763089L512 382.012965z m0-122.900422c-14.363507 0-27.418655 8.191465-33.562254 21.047515l-66.299672 138.230976-152.622926 19.99514c-14.221294 1.877211-26.081853 11.689904-30.518896 25.257018a36.890036 36.890036 0 0 0 9.78425 38.283723l111.637157 105.493558-28.044392 150.575059c-2.588275 14.022196 3.128685 28.300375 14.704818 36.690939 11.604576 8.362121 27.020458 9.386054 39.620525 2.559833L512 724.205739l135.272947 73.069008c12.600066 6.797778 28.015949 5.773845 39.592083-2.616718 11.604576-8.362121 17.321536-22.6403 14.704818-36.662496l-27.987507-150.631945 111.637157-105.436673c10.381545-9.812693 14.192851-24.688166 9.755808-38.25528a37.14602 37.14602 0 0 0-30.490454-25.257018l-152.622926-19.995139-66.299672-138.287862A37.25979 37.25979 0 0 0 512 259.112543z" fill="currentColor" ></path><path d="M102.853375 148.044238h818.29325V74.008182H102.853375v74.036056z m74.405809 74.007614h669.481632v513.218053c0 12.998263-6.826221 25.029477-18.032601 31.741928l-297.537911 177.623961a37.37356 37.37356 0 0 1-38.340608 0L195.291785 767.011833a36.975364 36.975364 0 0 1-18.032601-31.741928V222.051852zM65.678913 0.000569c-9.869578 0-19.34096 3.896635-26.309394 10.836626a36.946922 36.946922 0 0 0-10.893511 26.167181v148.043669c0 20.421778 16.667356 37.003807 37.202905 37.003807h37.174462v513.218053a110.926092 110.926092 0 0 0 54.211572 95.197342l297.537911 177.652403a112.063796 112.063796 0 0 0 114.822727 0l297.566353-177.652403a110.926092 110.926092 0 0 0 54.154687-95.197342V222.051852h37.174462c20.535548 0 37.202905-16.582029 37.202905-37.003807V36.975933c0-9.812693-3.925077-19.227189-10.893511-26.167181A37.288233 37.288233 0 0 0 958.321087 0.000569H65.678913z" fill="currentColor" ></path></svg>