<svg xmlns="http://www.w3.org/2000/svg" viewBox="0 0 1024 1024"><path d="M922.083556 837.205333a85.048889 85.048889 0 0 1-84.935112 84.935111H186.794667a85.048889 85.048889 0 0 1-84.935111-84.935111V186.794667A85.048889 85.048889 0 0 1 186.794667 101.831111h650.410666a85.048889 85.048889 0 0 1 84.935111 84.935111v650.410667h-0.056888zM837.205333 28.444444H186.794667A158.520889 158.520889 0 0 0 28.444444 186.794667v650.410666A158.520889 158.520889 0 0 0 186.794667 995.555556h650.410666A158.520889 158.520889 0 0 0 995.555556 837.205333V186.794667A158.606222 158.606222 0 0 0 837.205333 28.444444z" fill="currentColor" ></path><path d="M250.112 733.212444h87.04v-96.995555h-87.04v96.995555z m123.761778-170.382222H213.390222c-20.252444 0-36.693333 16.440889-36.693333 36.693334v170.382222c0 20.252444 16.440889 36.693333 36.693333 36.693333h160.483556c20.252444 0 36.693333-16.440889 36.693333-36.693333v-170.382222c0-20.309333-16.384-36.693333-36.693333-36.693334zM531.171556 733.212444h249.571555v-96.995555h-249.571555v96.995555z m286.293333-170.382222H494.478222c-20.252444 0-36.693333 16.440889-36.693333 36.693334v170.382222c0 20.252444 16.440889 36.693333 36.693333 36.693333h322.986667c20.252444 0 36.693333-16.440889 36.693333-36.693333v-170.382222a36.693333 36.693333 0 0 0-36.693333-36.693334zM250.112 387.783111h87.04v-96.995555h-87.04v96.995555z m123.761778-170.382222H213.390222c-20.252444 0-36.693333 16.440889-36.693333 36.693333v170.382222c0 20.252444 16.440889 36.693333 36.693333 36.693334h160.483556c20.252444 0 36.693333-16.440889 36.693333-36.693334v-170.382222c0-20.309333-16.384-36.693333-36.693333-36.693333zM531.171556 387.783111h249.571555v-96.995555h-249.571555v96.995555z m286.293333-170.382222H494.478222c-20.252444 0-36.693333 16.440889-36.693333 36.693333v170.382222c0 20.252444 16.440889 36.693333 36.693333 36.693334h322.986667c20.252444 0 36.693333-16.440889 36.693333-36.693334v-170.382222a36.693333 36.693333 0 0 0-36.693333-36.693333z" fill="currentColor" ></path></svg>