<svg id="图层_1" data-name="图层 1" xmlns="http://www.w3.org/2000/svg" viewBox="0 0 173 173"><defs><style>.cls-1{fill:currentColor;}.cls-2{fill:#fff;}</style></defs><circle class="cls-1" cx="86.5" cy="86.5" r="86.5"/><path class="cls-2" d="M51.93,43.07h20q8.85,0,8.85,8.87v20q0,8.85-8.85,8.85h-20q-8.9,0-8.9-8.89v-20Q43,43.08,51.93,43.07Zm0,44.28h20q8.85,0,8.85,8.86v20q0,8.86-8.85,8.86h-20q-8.9,0-8.9-8.88v-20q0-8.83,8.9-8.83ZM96.2,43.07h20q8.86,0,8.86,8.87v20q0,8.85-8.86,8.85h-20q-8.86,0-8.86-8.85v-20q0-8.86,8.88-8.87Zm10,50.57a12.56,12.56,0,1,1-12.54,12.58v0a12.55,12.55,0,0,1,12.54-12.56h0m0-6.27A18.83,18.83,0,1,0,125,106.2h0A18.83,18.83,0,0,0,106.19,87.36ZM51.93,43.08h20q8.85,0,8.85,8.87v20q0,8.86-8.85,8.86h-20q-8.9,0-8.9-8.9v-20q0-8.82,8.9-8.83Zm0,44.28h20q8.85,0,8.85,8.86v20q0,8.85-8.85,8.86h-20q-8.9,0-8.9-8.89v-20q0-8.83,8.9-8.83ZM96.2,43.08h20Q125,43.08,125,52v20q0,8.86-8.86,8.86h-20q-8.86,0-8.86-8.86V52q0-8.88,8.88-8.88Zm10,50.56a12.57,12.57,0,1,1-12.54,12.58v0a12.55,12.55,0,0,1,12.54-12.56h0m0-6.27A18.83,18.83,0,1,0,125,106.2h0A18.83,18.83,0,0,0,106.19,87.36Zm20.42,42.54a3.37,3.37,0,0,1-2.36-1l-7.11-7.11a3.33,3.33,0,0,1,4.7-4.7l7.14,7.13a3.33,3.33,0,0,1-2.35,5.67Z"/></svg>