<svg xmlns="http://www.w3.org/2000/svg" viewBox="0 0 1024 1024"><path d="M400.412444 326.030222a74.609778 74.609778 0 0 1-74.382222 74.382222H177.208889a74.609778 74.609778 0 0 1-74.410667-74.382222V177.208889a74.609778 74.609778 0 0 1 74.410667-74.410667h148.764444a74.609778 74.609778 0 0 1 74.410667 74.410667v148.764444zM326.030222 28.444444H177.208889C95.402667 28.444444 28.444444 95.402667 28.444444 177.208889v148.821333c0 81.806222 66.958222 148.764444 148.764445 148.764445h148.821333c81.806222 0 148.764444-66.958222 148.764445-148.764445V177.208889c0-81.834667-66.958222-148.792889-148.764445-148.792889z m595.114667 818.346667a74.609778 74.609778 0 0 1-74.382222 74.353778h-148.764445a74.609778 74.609778 0 0 1-74.410666-74.382222v-148.764445a74.609778 74.609778 0 0 1 74.382222-74.410666h148.792889a74.609778 74.609778 0 0 1 74.382222 74.382222v148.792889zM846.791111 549.176889h-148.764444c-81.863111 0-148.792889 66.929778-148.792889 148.764444v148.792889c0 81.834667 66.929778 148.792889 148.764444 148.792889h148.792889C928.597333 995.555556 995.555556 928.597333 995.555556 846.791111v-148.821333c0-81.834667-66.958222-148.764444-148.764445-148.764445z m74.382222-223.175111a74.609778 74.609778 0 0 1-74.382222 74.382222h-148.764444a74.609778 74.609778 0 0 1-74.410667-74.382222V177.208889a74.609778 74.609778 0 0 1 74.382222-74.410667h148.792889a74.609778 74.609778 0 0 1 74.382222 74.410667v148.764444zM846.791111 28.444444h-148.764444c-81.863111 0-148.792889 66.958222-148.792889 148.764445v148.821333c0 81.806222 66.929778 148.764444 148.764444 148.764445h148.792889c81.834667 0 148.792889-66.958222 148.792889-148.764445V177.208889C995.555556 95.402667 928.597333 28.444444 846.791111 28.444444zM400.412444 846.791111a74.609778 74.609778 0 0 1-74.382222 74.353778H177.208889a74.609778 74.609778 0 0 1-74.410667-74.382222v-148.764445a74.609778 74.609778 0 0 1 74.410667-74.410666h148.764444a74.609778 74.609778 0 0 1 74.410667 74.382222v148.792889z m-74.382222-297.585778H177.208889C95.402667 549.205333 28.444444 616.106667 28.444444 697.969778v148.792889C28.444444 928.597333 95.402667 995.555556 177.208889 995.555556h148.821333c81.806222 0 148.764444-66.958222 148.764445-148.764445v-148.821333c0-81.834667-66.958222-148.764444-148.764445-148.764445z" fill="currentColor" ></path></svg>