<svg xmlns="http://www.w3.org/2000/svg" viewBox="0 0 1024 1024"><path d="M96.824889 903.111111a21.902222 21.902222 0 0 0-21.617778 22.044445 21.902222 21.902222 0 0 0 21.617778 22.072888h830.350222a21.902222 21.902222 0 0 0 21.617778-22.072888 21.902222 21.902222 0 0 0-21.617778-22.072889h-62.407111c-20.764444 0-37.603556-17.208889-37.603556-38.4v-39.196445c0-116.935111-62.72-224.142222-163.612444-279.751111A38.570667 38.570667 0 0 1 643.811556 512c0-14.08 7.594667-27.079111 19.740444-33.792 100.807111-55.381333 163.669333-162.844444 163.612444-279.751111V159.288889c0-21.162667 16.867556-38.4 37.603556-38.4h62.407111a21.902222 21.902222 0 0 0 21.617778-22.044445 21.902222 21.902222 0 0 0-21.617778-22.072888H96.824889a21.902222 21.902222 0 0 0-21.617778 22.072888 21.902222 21.902222 0 0 0 21.617778 22.072889h70.371555c20.736 0 37.575111 17.208889 37.575112 38.4v39.196445c0 116.906667 62.748444 224.142222 163.640888 279.751111 12.145778 6.712889 19.740444 19.683556 19.740445 33.763555 0 14.08-7.594667 27.050667-19.740445 33.792-100.835556 55.381333-163.669333 162.844444-163.640888 279.751112v39.196444c0 21.162667-16.839111 38.4-37.575112 38.4H96.824889v-0.085333zM927.175111 1024H96.824889C43.434667 1024 0 979.655111 0 925.155556c0-54.499556 43.434667-98.816 96.824889-98.816h32.768v-0.853334c0-124.216889 56.945778-239.559111 151.893333-313.514666-95.744-74.609778-151.893333-190.577778-151.836444-313.543112V197.688889H96.881778C43.491556 197.688889 0.056889 153.344 0.056889 98.844444 0.056889 44.344889 43.52 0 96.824889 0h830.350222C980.565333 0 1024 44.344889 1024 98.844444c0 54.499556-43.434667 98.816-96.824889 98.816h-24.803555v0.853334c0 124.216889-56.974222 239.559111-151.893334 313.514666 95.772444 74.581333 151.950222 190.549333 151.893334 313.543112v0.824888h24.803555c53.390222 0 96.824889 44.316444 96.824889 98.844445C1024 979.712 980.565333 1024 927.175111 1024z" fill="currentColor" ></path><path d="M667.818667 791.608889H358.257778c-20.764444 0-37.603556-17.237333-37.603556-38.4 0-21.191111 16.867556-38.4 37.603556-38.4h309.560889c20.764444 0 37.603556 17.208889 37.603555 38.4 0 21.162667-16.867556 38.4-37.603555 38.4m0-474.737778H358.257778c-20.764444 0-37.603556-17.237333-37.603556-38.4 0-21.162667 16.867556-38.4 37.603556-38.4h309.560889c20.764444 0 37.603556 17.237333 37.603555 38.4 0 21.162667-16.867556 38.4-37.603555 38.4" fill="currentColor" ></path></svg>