<svg xmlns="http://www.w3.org/2000/svg" viewBox="0 0 1024 1024"><path d="M359.424 308.224a38.826667 38.826667 0 0 1 54.072889 4.835556L512 429.397333l98.503111-116.337777a38.826667 38.826667 0 0 1 54.072889-4.835556c16.298667 13.368889 18.488889 37.205333 4.920889 53.248l-86.186667 101.774222H640a38.115556 38.115556 0 0 1 38.343111 35.555556l0.056889 2.218666a38.115556 38.115556 0 0 1-38.4 37.802667h-83.2v50.375111H640a38.115556 38.115556 0 0 1 38.343111 35.555556l0.056889 2.247111a38.115556 38.115556 0 0 1-38.4 37.802667h-83.2v50.375111c0 19.996444-15.843556 36.551111-36.124444 37.717333l-2.275556 0.056889a38.115556 38.115556 0 0 1-38.4-37.774222v-50.375111H384a38.144 38.144 0 0 1-38.343111-35.584l-0.056889-2.218667a38.115556 38.115556 0 0 1 38.4-37.802667h96v-50.375111H384a38.144 38.144 0 0 1-38.343111-35.555555l-0.056889-2.247112a38.115556 38.115556 0 0 1 38.4-37.774222h56.689778l-86.186667-101.802666a37.347556 37.347556 0 0 1 3.100445-51.626667l1.820444-1.592889zM883.2 160.910222H140.8a64.568889 64.568889 0 0 0-45.255111 18.460445 62.492444 62.492444 0 0 0-18.773333 44.515555v142.961778c73.386667 17.066667 128.028444 81.92 128.028444 159.374222 0 77.425778-54.613333 142.336-128 159.374222v142.961778c0 16.696889 6.741333 32.711111 18.744889 44.515556a64.568889 64.568889 0 0 0 45.255111 18.460444h742.4c16.981333 0 33.251556-6.627556 45.226667-18.460444 12.032-11.804444 18.773333-27.818667 18.773333-44.515556v-142.961778c-73.386667-17.066667-128-81.92-128-159.374222 0-77.425778 54.613333-142.307556 128-159.374222V223.886222c0-16.696889-6.741333-32.711111-18.773333-44.515555a64.512 64.512 0 0 0-45.226667-18.460445z m0-75.576889C960.967111 85.333333 1024 147.370667 1024 223.886222v176.355556a38.115556 38.115556 0 0 1-38.4 37.802666c-49.493333 0-89.6 39.480889-89.6 88.177778 0 48.696889 40.106667 88.177778 89.6 88.177778 21.219556 0 38.4 16.924444 38.4 37.802667v176.355555C1024 905.073778 960.967111 967.111111 883.2 967.111111H140.8C63.032889 967.111111 0 905.102222 0 828.558222v-176.355555a38.115556 38.115556 0 0 1 38.4-37.831111c49.493333 0 89.6-39.452444 89.6-88.149334 0-48.696889-40.106667-88.177778-89.6-88.177778A38.115556 38.115556 0 0 1 0 400.241778v-176.355556C0 147.370667 63.032889 85.333333 140.8 85.333333h742.4z" fill="currentColor" ></path></svg>