<svg xmlns="http://www.w3.org/2000/svg" viewBox="0 0 1024 1024"><path d="M961.08 548c0 156.849-127.152 284-284 284L72 832a8 8 0 0 1-8-8l0-72a8 8 0 0 1 8-8L677.08 744c108.247 0 196-87.752 196-196s-87.753-196-196-196l-275.897 0-0.001 115.552a16 16 0 0 1-3.055 9.403l-0.252 0.338c-5.38 7.01-15.424 8.332-22.434 2.952L167.539 320.693a16 16 0 0 1-2.952-2.952c-5.38-7.01-4.058-17.054 2.952-22.434L375.441 135.755a16 16 0 0 1 9.74-3.307c8.83700001 0 16 7.16299999 16 16L401.184 264 677.08 264c156.84800001 0 284 127.151 284 284z" fill="currentColor" ></path></svg>