<svg xmlns="http://www.w3.org/2000/svg" viewBox="0 0 1024 1024"><path fill="currentColor" d="M397.024 478.848l203.648 92.8 42.048 80.224-34.528 182.048a229.216 229.216 0 0 1-187.104 96.192c-126.944 0-230.24-103.104-230.24-229.792 0-12.672 0.96-25.312 2.912-37.856l203.264-183.584v-0.032z m272.48 171.456l147.936 21.248a118.4 118.4 0 0 1 5.12 26.048 121.472 121.472 0 0 1-27.776 89.76 122.656 122.656 0 0 1-142.912 34.464l17.6-171.52z m175.2-267.136l6.208 3.36a145.344 145.344 0 0 1 72.96 125.76c0.32 59.264-37.312 113.76-92.512 134.912l-151.584-35.328-30.272-57.728 195.2-170.976z m-651.584-22.272l149.6 40.256 24.64 57.088-195.744 166.912a146.464 146.464 0 0 1-75.36-131.52c1.696-59.168 41.152-112.768 96.864-132.736zM591.392 92.16c126.432 0 229.312 102.88 229.312 229.344 0 11.904-0.96 24-2.88 36.704l-208.704 183.136-202.496-92.192-36.544-78.08 35.456-183.616A228.8 228.8 0 0 1 591.36 92.16z m-266.752 73.664a116.32 116.32 0 0 1 56.32 13.824l-30.336 169.504-141.6-33.184a128.896 128.896 0 0 1-2.88-26.208c-0.64-67.744 52.544-123.328 118.496-123.936z"  ></path></svg>