<svg xmlns="http://www.w3.org/2000/svg" viewBox="0 0 1024 1024"><path fill="currentColor" d="M128 508q0 78.016 19.008 128h290.016Q452.032 576 452.032 512q0-67.008-15.008-124H143.008Q128 455.008 128 508z m582.016-120h-219.008q15.008 51.008 15.008 124 0 32.992-3.488 61.504t-11.488 62.496h219.008q34.016 0 62.016-16.512t44-44.512 16-63.008-16-63.008-44-44.512-62.016-16.512zM172.992 331.008h248.992Q372.992 224.992 319.968 160 268.96 194.016 232.96 235.008q-40 44.992-60 96z m580 0q47.008 0 86.496-18.016t69.504-51.008q-58.016-82.016-151.488-129.504t-202.496-47.488q-52.992 0-100.992 12.992-44.992 12-91.008 36 64 70.016 108 192zM166.016 692.992h250.016q-43.008 108-102.016 164.992-44.992-28.992-83.008-70.016-40-44-64.992-95.008z m588.992 0q47.008 0 87.008 18.016t68.992 51.008q-60 80-156 128.512t-200 48.512q-50.016 0-100.992-14.016-38.016-11.008-91.008-32.992 62.016-68 108-192z"  ></path></svg>