<svg xmlns="http://www.w3.org/2000/svg" viewBox="0 0 1063 1024"><path fill="currentColor" d="M376.78365393 775.94230759L132.3125 531.47115366c-19.47115366-19.47115366-19.47115366-49.75961573 0-69.23076939l5.4086542-4.32692302c19.47115366-19.47115366 49.75961573-19.47115366 69.23076856 0l244.47115392 244.47115392c19.47115366 19.47115366 19.47115366 49.75961573 0 69.23076938l-5.40865336 5.4086542c-19.47115366 18.38942332-49.75961573 18.38942332-69.23076939-1.08173116z"  ></path><path fill="currentColor" d="M386.51923117 785.67788483l-5.4086542-5.40865421c-19.47115366-19.47115366-19.47115366-49.75961573 0-69.23076937L862.4807691 230.75000027c19.47115366-19.47115366 49.75961573-19.47115366 69.23076938 0l5.40865421 5.40865339c19.47115366 19.47115366 19.47115366 49.75961573 0 69.23076937L455.74999973 785.67788483c-19.47115366 19.47115366-49.75961573 19.47115366-69.23076856 0z"  ></path></svg>