<svg xmlns="http://www.w3.org/2000/svg" viewBox="0 0 1024 1024"><path d="M69.688424 130.253069h528.152924c16.440779 0 28.159812 14.222127 28.159812 28.444255 0 16.554556-14.051462 28.387366-28.159812 28.387367H69.688424c-16.440779 0-28.159812-14.222127-28.159812-28.415811 0-14.222127 14.079906-28.415811 28.159812-28.415811M419.438982 0.006827h223.002957c16.440779 0 28.159812 14.222127 28.159813 28.444254 0 16.554556-14.051462 28.387366-28.159813 28.387367h-223.002957c-16.412335 0-28.159812-14.222127-28.159813-28.415811 0-14.222127 14.079906-28.415811 28.159813-28.41581M776.243714 0.006827h82.175452c16.440779 0 28.159812 14.222127 28.159812 28.444254 0 18.915429-11.719033 30.748239-28.159812 30.74824H776.243714c-16.412335 0-30.492241-11.83281-30.492241-28.415811C745.751473 14.228954 759.831379 0.006827 776.243714 0.006827M464.039573 260.499312h133.801775c16.440779 0 28.159812 14.222127 28.159812 30.805128 0 16.554556-14.051462 28.415811-28.159812 28.415811h-133.801775c-16.412335 0-28.159812-14.222127-28.159812-28.444255 0-18.943874 14.079906-30.776684 28.159812-30.776684" fill="currentColor" ></path><path d="M696.457579 130.253069h63.3738c16.412335 0 28.159812 14.222127 28.159812 28.444255 0 16.554556-14.079906 28.387366-28.159812 28.387367h-63.3738c-16.440779 0-28.159812-14.222127-28.159812-28.415811 0-14.222127 11.719033-28.415811 28.159812-28.415811" fill="currentColor" ></path><path d="M144.781257 44.977193a30.207799 30.207799 0 0 1 0 42.666383l-72.760404 73.386177 70.427975 71.053749a30.207799 30.207799 0 0 1 0 42.609493 29.582025 29.582025 0 0 1-42.239718 0L8.647053 182.3345a30.207799 30.207799 0 0 1 0-42.609494l2.360874-2.389317s0-2.360873 2.332429-2.360873L104.902412 42.61632c9.386604-9.471937 28.159812-9.471937 39.907289 2.360873" fill="currentColor" ></path><path d="M614.851012 350.781377l76.771044-17.37944 13.937685 57.485839-76.799488 17.37944-13.937685-57.485839zM220.61364 159.266209c56.945398-33.166001 127.48715-14.079906 160.340265 43.3206l85.70254 149.730558c10.524374 18.488766 32.142008 27.761593 50.74455 22.414073l29.098473-6.030182 15.957227 56.319624-71.537301 17.066553c-19.797201 3.327978-40.191732-3.925307-50.744551-22.385629L333.366666 233.079051a57.855614 57.855614 0 0 0-80.212798-21.674523c-28.444255 16.583001-41.073504 51.313436-24.661169 80.013689l246.469468 430.702907-50.801439 29.582025-246.469468-430.702907C144.781257 263.571292 163.725131 192.43221 220.642085 159.294654h-0.028445z m537.311974 157.353618l86.100759-20.0532c19.797201-3.299534 40.191732 3.925307 50.772995 22.414073l122.054297 213.275023c5.859516 10.239932 6.513734 20.821195 7.139508 31.402457l-21.219414 138.153746c-1.422213 11.747477 1.251547 21.134081 7.111064 31.402457l10.552819 18.488766-40.646841 23.66562-36.408646-63.57291 0.881772-3.271089 21.560745-132.83467c1.422213-11.775921-1.279991-21.162526-7.139508-31.402457l-90.367397-157.950947c-10.581263-18.460321-32.142008-27.733148-50.772995-22.357185l-42.438828 11.036371-17.151886-58.367611z" fill="currentColor" ></path><path d="M552.899425 1024l-15.274565-26.680711-160.425597-62.406695c-8.76083-5.831072-17.493217-11.662144-23.381177-21.930521l-62.748026-100.180665a198.398677 198.398677 0 0 1 16.412335-236.513979l19.740312-22.414073 20.280754-11.83281 29.354471 51.256548-12.23103 7.111063-12.686137 15.64434c-39.423737 44.799701-45.79525 114.11835-11.235481 165.090455l61.610256 98.132679 159.543825 65.677785c10.808817 4.636414 20.735862 12.543916 26.595379 22.755404l15.24612 26.680711L552.899425 1024z" fill="currentColor" ></path></svg>