<svg xmlns="http://www.w3.org/2000/svg" viewBox="0 0 1024 1024"><path d="M895.62602164 419.31635933l-295.87360791-295.87360791C584.95873291 108.64907136 560.30259898 118.51152524 555.37137282 143.16765917l-4.93122694 44.38104092-4.93122695 54.24349479c0 9.86245388-4.93122694 14.79368004-9.86245386 19.72490699L298.94757887 429.17881321c-4.93122694 4.93122694-9.86245388 4.93122694-19.72490698 4.93122695h-9.86245387l-44.38104092-4.93122695c-24.65613393 0-39.44981475 29.58736087-19.72490699 44.38104091l34.51858703 34.51858781 98.62453649 98.62453572L116.4921875 907.5078125l295.87360792-221.90520613 133.14312351 133.14312352c19.72490699 19.72490699 49.31226785 4.93122694 44.38104092-19.72490699l-4.93122694-44.38104092v-9.86245387c0-4.93122694 0-14.79368004 4.93122694-19.72490698L757.55167119 488.35353493c4.93122694-4.93122694 9.86245388-9.86245388 19.72490698-9.86245386l54.24349479-4.93122695 44.38104169-4.93122694c29.58736087-4.93122694 39.44981475-29.58736087 19.72490699-49.31226785z m-197.24907219 24.65613393l-167.66171056 236.69888618s0 4.93122694-4.93122695 4.93122694L338.39739362 498.21598806s4.93122694 0 4.93122694-4.93122695l236.69888618-167.66171056c24.65613393-14.79368004 39.44981475-39.44981475 44.38104092-69.03717561l138.07435046 138.07435046c-24.65613393 9.86245388-49.31226785 24.65613393-64.10594868 49.31226786z" fill="currentColor" ></path></svg>