<svg xmlns="http://www.w3.org/2000/svg" viewBox="0 0 1024 1024"><path d="M753.777778 235.690667a34.531556 34.531556 0 0 1 0 69.063111h-138.154667a34.531556 34.531556 0 0 1 0-69.063111H753.777778zM373.845333 304.753778a69.063111 69.063111 0 1 0 0 138.154666 69.063111 69.063111 0 0 0 0-138.154666zM753.777778 373.845333a34.531556 34.531556 0 0 1 0 69.063111h-138.154667a34.531556 34.531556 0 0 1 0-69.063111H753.777778zM373.845333 235.690667a138.154667 138.154667 0 1 1 0 276.309333 138.154667 138.154667 0 0 1 0-276.309333z m172.686223 345.400889a34.531556 34.531556 0 1 1 0 69.063111H270.222222a34.531556 34.531556 0 0 1 0-69.063111h276.309334z m207.246222 138.154666a34.531556 34.531556 0 0 1 0 69.063111h-483.555556a34.531556 34.531556 0 0 1 0-69.063111h483.555556z m103.623111-621.710222H166.599111a69.063111 69.063111 0 0 0-68.579555 60.984889l-0.483556 8.078222v690.801778c0 34.986667 26.197333 64.483556 60.984889 68.579555l8.078222 0.483556h690.801778a69.091556 69.091556 0 0 0 68.579555-60.984889l0.483556-8.078222V166.599111a69.063111 69.063111 0 0 0-60.984889-68.579555l-8.078222-0.483556z m0-69.091556A138.154667 138.154667 0 0 1 995.555556 166.599111v690.801778A138.154667 138.154667 0 0 1 857.400889 995.555556H166.599111A138.154667 138.154667 0 0 1 28.444444 857.400889V166.599111A138.154667 138.154667 0 0 1 166.599111 28.444444h690.801778z" fill="currentColor" ></path></svg>