<svg xmlns="http://www.w3.org/2000/svg" viewBox="0 0 1024 1024"><path d="M511.232 378.510222c-6.286222 0-12.600889-1.536-17.322667-3.811555L199.310222 227.555556l294.599111-147.911112c4.721778-2.275556 11.036444-3.783111 18.119111-3.783111 6.286222 0 12.600889 1.507556 17.351112 3.783111L823.921778 227.555556l-295.395556 147.143111c-3.925333 2.275556-10.24 3.811556-17.322666 3.811555z m409.6-114.545778c16.554667-8.334222 24.433778-22.755556 22.840889-36.408888 1.592889-14.421333-6.286222-28.074667-22.840889-36.408889L564.792889 12.145778C549.034667 3.783111 530.944 0 512.028444 0s-37.034667 3.783111-53.560888 12.145778L101.632 190.378667c-16.526222 8.362667-23.608889 22.755556-22.840889 37.176889-0.768 13.653333 6.314667 28.074667 22.840889 36.408888l356.039111 178.261334c15.758222 8.334222 34.673778 12.117333 53.560889 12.117333h1.592889c18.887111 0 37.006222-3.783111 53.560889-12.117333L920.832 263.964444z m24.433778 483.925334c0 10.638222-5.518222 18.204444-10.24 20.48l-304.839111 159.288889v-309.475556c0-10.609778 5.518222-18.204444 10.24-20.48l304.839111-160.028444v310.215111z m29.923555-405.788445c-7.111111 0-14.961778 1.507556-22.044444 5.290667L603.392 530.204444c-32.284444 16.696889-51.996444 50.830222-51.996444 87.978667v354.247111c0 29.582222 23.637333 51.569778 48.867555 51.569778 7.082667 0 14.961778-1.507556 22.044445-5.319111l349.724444-182.784A98.56 98.56 0 0 0 1024.028444 748.657778V392.903111c0-29.582222-23.637333-50.801778-48.839111-50.801778zM393.870222 927.658667L89.059556 769.137778c-4.721778-3.043556-10.24-9.870222-10.24-20.48V437.674667l304.839111 158.520889c6.314667 3.783111 10.24 12.145778 10.24 20.48v310.983111z m26.794667-398.222223l-349.752889-182.044444a47.189333 47.189333 0 0 0-22.044444-5.290667C23.637333 342.101333 0.028444 363.320889 0.028444 392.903111V748.657778c0 37.176889 19.683556 70.542222 51.996445 87.239111l349.724444 182.044444a48.355556 48.355556 0 0 0 22.044445 6.058667c25.230222 0 48.839111-21.987556 48.839111-51.569778V616.675556c0-36.408889-19.683556-70.542222-51.968-87.239112z" fill="currentColor" ></path></svg>