<svg xmlns="http://www.w3.org/2000/svg" viewBox="0 0 1024 1024"><path d="M926.065778 328.874667h0.142222a42.666667 42.666667 0 0 0 0-60.359111h-0.056889l-256-256a42.666667 42.666667 0 0 0-60.359111 0L85.304889 536.917333v316.302223h316.359111l524.401778-524.316445v-0.056889zM640 102.968889l195.640889 195.640889-110.336 110.364444L529.664 213.333333 640 102.968889zM170.666667 768v-195.697778l298.666666-298.666666 195.640889 195.697777L366.336 768H170.695111z m-128 256h938.666666a42.666667 42.666667 0 0 0 0-85.333333h-938.666666a42.666667 42.666667 0 0 0 0 85.333333z" fill="currentColor" ></path></svg>