<svg xmlns="http://www.w3.org/2000/svg" viewBox="0 0 1024 1024"><path d="M377.287111 272.952889l-36.579555 90.510222h73.187555l-36.608-90.510222z m274.232889-16.327111h-54.300444v166.684444h54.328888c23.864889 0 40.419556-5.319111 49.664-15.928889 5.632-6.769778 10.183111-16.213333 13.653334-28.387555 3.498667-12.174222 5.205333-25.144889 5.205333-38.826667 0.170667-14.222222-1.905778-28.387556-6.144-41.955555-4.096-12.714667-9.500444-22.158222-16.184889-28.359112-9.756444-8.817778-25.173333-13.226667-46.222222-13.226666z m0-46.222222c27.221333 0 48.298667 2.730667 63.175111 8.135111 27.477333 10.126222 45.824 28.643556 55.068445 55.580444a207.644444 207.644444 0 0 1 10.410666 66.389333c0 23.324444-3.328 45.340444-10.012444 66.048-6.656 21.248-17.720889 36.920889-33.137778 47.018667-9.813333 6.257778-20.707556 10.524444-32.142222 12.629333-11.662222 2.218667-29.468444 3.299556-53.361778 3.299556h-108.999111V210.403556h108.999111z m-243.029333 0l106.296889 259.128888h-63.914667l-25.031111-59.847111h-97.450667l-25.031111 59.818667H239.416889l106.296889-259.100444h62.776889zM266.894222 661.76h490.211556v-70.627556H266.894222v70.627556z m0 176.412444h490.211556v-70.627555H266.894222v70.627555zM827.050667 70.627556H196.949333a70.343111 70.343111 0 0 0-70.030222 70.627555v741.489778a70.343111 70.343111 0 0 0 70.030222 70.627555h630.101334a70.343111 70.343111 0 0 0 70.030222-70.627555V141.255111a70.343111 70.343111 0 0 0-70.030222-70.627555z m0-70.627556C904.419556 0 967.111111 63.232 967.111111 141.255111v741.489778C967.111111 960.739556 904.391111 1024 827.050667 1024H196.949333C119.580444 1024 56.888889 960.739556 56.888889 882.744889V141.255111C56.888889 63.232 119.580444 0 196.949333 0h630.101334z" fill="currentColor" ></path></svg>