<svg xmlns="http://www.w3.org/2000/svg" viewBox="0 0 1024 1024"><path d="M628.821618 526.222222h146.261333v-146.972444h-146.261333V526.222222z m-375.239111 0h146.289777v-146.972444H253.582507V526.222222z m558.08-220.444444c20.195556 0 36.579556 16.440889 36.579555 36.750222v220.444444c0 20.280889-16.384 36.721778-36.579555 36.721778h-219.420445c-20.195556 0-36.579556-16.440889-36.579555-36.721778v-220.444444c0-20.309333 16.384-36.750222 36.579555-36.750222h219.420445z m-375.210667 0c20.195556 0 36.551111 16.440889 36.551111 36.750222v220.444444c0 20.280889-16.355556 36.721778-36.551111 36.721778H217.002951c-20.195556 0-36.551111-16.440889-36.551111-36.721778v-220.444444c0-20.309333 16.355556-36.750222 36.551111-36.750222h219.448889z m119.210667 440.888889h292.579555v-73.472H555.662507v73.472z m-375.210667 0h292.551111v-73.472H180.45184v73.472zM87.77984 878.933333h848.440889V173.511111H87.77984v705.422222zM950.869618 85.333333A73.301333 73.301333 0 0 1 1024.000284 158.805333v734.833778A73.301333 73.301333 0 0 1 950.869618 967.111111H73.102507A73.301333 73.301333 0 0 1 0.000284 893.639111V158.805333A73.301333 73.301333 0 0 1 73.130951 85.333333H950.898062z" fill="currentColor" ></path></svg>