<svg xmlns="http://www.w3.org/2000/svg" viewBox="0 0 1024 1024"><path d="M1014.17103 490.554974L869.417103 336.86562c-6.254799-6.254799-33.061082-6.254799-39.315881 0 0 0-0.893543 48.251309-1.787086 107.22513H575.441536V190.324607c58.973822-0.893543 107.225131-1.787086 107.225131-1.787085 6.254799-6.254799 6.254799-33.061082 0-39.315882L528.977312 4.467714c-6.254799-6.254799-15.190227-6.254799-21.445026 0L353.842932 149.22164c-6.254799 6.254799-0.893543 30.380454 0 39.315882 3.574171 2.680628 47.357766 3.574171 102.757417 3.574171v251.979057H196.579407c0-55.399651-0.893543-100.076789-3.574171-102.757417-8.935428-0.893543-33.061082-6.254799-39.315882 0L9.82897 494.129145c-6.254799 6.254799-6.254799 15.190227 0 21.445026l143.860384 153.689354c6.254799 6.254799 33.061082 6.254799 39.315882 0 0 0 0.893543-48.251309 1.787085-107.225131h261.808028v262.701571c-55.399651 0-100.076789 0.893543-102.757417 3.574171-0.893543 8.935428-6.254799 33.061082 0 39.315881l153.689354 144.753927c6.254799 6.254799 15.190227 6.254799 21.445026 0l153.689355-144.753927c6.254799-6.254799 6.254799-33.061082 0-39.315881 0 0-48.251309-0.893543-107.225131-1.787085V562.038394h251.085515c0 55.399651 0.893543 100.076789 3.574171 102.757418 8.935428 0.893543 33.061082 6.254799 39.315881 0l144.753927-153.689355c5.361257-5.361257 5.361257-15.190227 0-20.551483z" fill="currentColor" ></path></svg>