<svg xmlns="http://www.w3.org/2000/svg" viewBox="0 0 1024 1024"><path d="M916.78117653 75.09333333a32.12549013 32.12549013 0 0 1 32.12549014 32.12549014v809.56235306a32.12549013 32.12549013 0 0 1-32.12549014 32.12549014H107.21882347a32.12549013 32.12549013 0 0 1-32.12549014-32.12549014V107.21882347a32.12549013 32.12549013 0 0 1 32.12549014-32.12549014h809.56235306z m-32.157616 64.25098027h-745.3113728v745.3113728h745.3113728V139.3443136z" fill="currentColor" ></path><path d="M916.78117653 75.09333333a32.12549013 32.12549013 0 0 1 32.12549014 32.12549014v154.20235306a32.12549013 32.12549013 0 0 1-32.12549014 32.12549014H107.21882347a32.12549013 32.12549013 0 0 1-32.12549014-32.12549014V107.21882347a32.12549013 32.12549013 0 0 1 32.12549014-32.12549014h809.56235306z m-32.157616 64.25098027h-745.3113728v89.9513728h745.3113728V139.3443136z" fill="currentColor" ></path><path d="M238.93333333 472.9996544h78.032816v78.032816H238.93333333zM472.9996544 472.9996544h78.032816v78.032816h-78.032816zM707.03385067 472.9996544H785.06666667v78.032816h-78.032816z" fill="currentColor" ></path><path d="M916.78117653 738.2598272a32.12549013 32.12549013 0 0 1 32.12549014 32.12549013v154.20235307a32.12549013 32.12549013 0 0 1-32.12549014 32.12549013H107.21882347a32.12549013 32.12549013 0 0 1-32.12549014-32.12549013v-154.20235307a32.12549013 32.12549013 0 0 1 32.12549014-32.12549013h809.56235306z m-32.157616 64.21885547h-745.3113728v89.95137173h745.3113728v-89.95137173z" fill="currentColor" ></path></svg>