<svg xmlns="http://www.w3.org/2000/svg" viewBox="0 0 1027 1024"><path d="M514.8125 62C266.3 62 64.8125 263.4875 64.8125 512s201.4875 450 450 450 450-201.4875 450-450-201.4875-450-450-450z m208.35 469.9125c-5.11875001 5.0625-12.15 8.2125-19.9125 8.2125H542.9375v160.3125c0 15.525-12.6 28.125-28.125 28.125-7.7625 0-14.79375001-3.15-19.9125-8.2125-5.0625-5.11875001-8.2125-12.15-8.2125-19.9125V540.125H326.375c-15.525 0-28.125-12.6-28.125-28.125 0-7.7625 3.15-14.79375001 8.2125-19.9125 5.11875001-5.0625 12.15-8.2125 19.9125-8.2125h160.3125V323.5625c0-15.525 12.6-28.125 28.125-28.125 7.7625 0 14.79375001 3.15 19.9125 8.2125 5.0625 5.11875001 8.2125 12.15 8.2125 19.9125V483.875H703.25c15.525 0 28.125 12.6 28.125 28.125 0 7.7625-3.15 14.79375001-8.2125 19.9125z" fill="currentColor" ></path></svg>