<svg xmlns="http://www.w3.org/2000/svg" viewBox="0 0 1024 1024"><path d="M775.94312052 889.06160075H248.05687948c-23.994829 0-44.56182489-23.994829-44.56182487-51.41749114s20.56699587-51.41749115 44.56182487-51.41749114h524.45840789c23.994829 0 44.56182489 23.994829 44.56182636 51.41749114 3.42783314 27.42266213-17.1391642 51.41749115-41.13399321 51.41749114z m0-325.6441096H251.48471263c-23.994829 0-44.56182489-23.994829-44.56182636-51.41749115s20.56699587-51.41749115 44.56182636-51.41749115h524.45840789c23.994829 0 44.56182489 23.994829 44.56182487 51.41749115s-20.56699587 51.41749115-44.56182487 51.41749115z m0-325.64410962H248.05687948c-23.994829 0-44.56182489-23.994829-44.56182487-51.41749114s20.56699587-51.41749115 44.56182487-51.41749114h524.45840789c23.994829 0 44.56182489 23.994829 44.56182636 51.41749114 3.42783314 30.85049529-17.1391642 51.41749115-41.13399321 51.41749114z" fill="currentColor" ></path></svg>