<svg xmlns="http://www.w3.org/2000/svg" viewBox="0 0 1024 1024"><path d="M303.96875 91.90625H122.65625c-15.5625 0-28.125 12.5625-28.125 28.125V303.875c0 15.5625 12.5625 28.125 28.125 28.125h181.3125c15.5625 0 28.125-12.5625 28.125-28.125V120.03125c0-15.5625-12.65625-28.125-28.125-28.125zM303.96875 393.21875H122.65625c-15.5625 0-28.125 12.5625-28.125 28.125v183.84375c0 15.5625 12.5625 28.125 28.125 28.125h181.3125c15.5625 0 28.125-12.5625 28.125-28.125V421.34375c0-15.5625-12.65625-28.125-28.125-28.125zM303.96875 691.625H122.65625c-15.5625 0-28.125 12.5625-28.125 28.125v183.84375c0 15.5625 12.5625 28.125 28.125 28.125h181.3125c15.5625 0 28.125-12.5625 28.125-28.125V719.75c0-15.46875-12.65625-28.125-28.125-28.125zM601.0625 91.8125H419.84375c-15.5625 0-28.125 12.5625-28.125 28.125V303.875c0 15.5625 12.5625 28.125 28.125 28.125H601.0625c15.5625 0 28.125-12.5625 28.125-28.125V119.9375c0-15.46875-12.5625-28.125-28.125-28.125zM601.0625 393.21875H419.84375c-15.5625 0-28.125 12.5625-28.125 28.125v183.84375c0 15.5625 12.5625 28.125 28.125 28.125H601.0625c15.5625 0 28.125-12.5625 28.125-28.125V421.34375c0-15.5625-12.5625-28.125-28.125-28.125zM601.0625 691.625H419.84375c-15.5625 0-28.125 12.5625-28.125 28.125v183.84375c0 15.5625 12.5625 28.125 28.125 28.125H601.0625c15.5625 0 28.125-12.5625 28.125-28.125V719.75c0-15.46875-12.5625-28.125-28.125-28.125zM901.90625 91.8125H720.6875c-15.5625 0-28.125 12.5625-28.125 28.125V303.875c0 15.5625 12.5625 28.125 28.125 28.125H902c15.5625 0 28.125-12.5625 28.125-28.125V119.9375c-0.09375-15.46875-12.65625-28.125-28.21875-28.125zM901.90625 393.21875H720.6875c-15.5625 0-28.125 12.5625-28.125 28.125v183.84375c0 15.5625 12.5625 28.125 28.125 28.125H902c15.5625 0 28.125-12.5625 28.125-28.125V421.34375c-0.09375-15.5625-12.65625-28.125-28.21875-28.125zM901.90625 691.625H720.6875c-15.5625 0-28.125 12.5625-28.125 28.125v183.84375c0 15.5625 12.5625 28.125 28.125 28.125H902c15.5625 0 28.125-12.5625 28.125-28.125V719.75c-0.09375-15.46875-12.65625-28.125-28.21875-28.125z" fill="currentColor" ></path></svg>