<svg xmlns="http://www.w3.org/2000/svg" viewBox="0 0 1024 1024"><path d="M278.36768281 368.348915l467.26367532 0c21.06539812 0 38.13414469-17.07450375 38.13414468-38.13414469s-17.0687475-38.13414469-38.13414469-38.13414468L278.36768281 292.08062562c-21.05964188 0-38.13414469 17.07450375-38.13414468 38.13414469S257.30804094 368.348915 278.36768281 368.348915z" fill="currentColor" ></path><path d="M278.36768281 724.25321188l200.52516375 0.01247156c21.05292656 0 38.13414469-17.07450375 38.13414469-38.13414469s-17.0687475-38.13414469-38.13414469-38.13414469l-200.52516375-0.01247156c-21.05964188 0-38.13414469 17.07450375-38.13414468 38.13414469C240.23353812 707.17870906 257.30228469 724.25321188 278.36768281 724.25321188z" fill="currentColor" ></path><path d="M278.36768281 546.30729969l467.26367532 0c21.06539812 0 38.13414469-17.07450375 38.13414468-38.13414469s-17.0687475-38.13414469-38.13414469-38.13414469L278.36768281 470.03900937c-21.05964188 0-38.13414469 17.07450375-38.13414468 38.13414469S257.30804094 546.30729969 278.36768281 546.30729969z" fill="currentColor" ></path><path d="M749.11955281 105.23578625L274.87948812 105.23578625c-100.54846781 0-182.35220531 81.8037375-182.35220531 182.35220531l0 448.79907469c0 100.56093937 81.8037375 182.37714844 182.35220531 182.37714844l202.13974969 0c21.06539812 0 38.13414469-17.0687475 38.13414469-38.13414469 0-21.06539812-17.0687475-38.13414469-38.13414469-38.13414469L274.87948812 842.49592344c-58.49825812 0-106.08487406-47.60484375-106.08487406-106.10981719L168.79461313 287.58799156c0-58.49825812 47.58661594-106.08487406 106.08487406-106.08487406l474.24006562 0c58.49154281 0 106.08487406 47.58661594 106.08487406 106.08487406l0 318.80049281-74.55489187 1e-8c-91.11422438 0-165.24700219 74.13277781-165.24700219 165.25275843l0 104.68230563c0 9.08312156 3.30495938 17.31050344 8.60440594 23.85902343 6.66843844 11.08912125 18.69772312 18.58164187 32.58334875 18.58164188l41.68373812 0c31.13281219 0 78.40284281-31.90221 140.48235282-94.83841969 61.52020969-62.35196531 92.71537875-108.91495594 92.71537875-138.39001125l0-397.94779125C931.47271719 187.03952281 849.66802062 105.23578625 749.11955281 105.23578625zM695.97830281 842.49688344l-4.30747968 0 0-70.85563969c0-49.06401469 39.92141344-88.98542812 88.97871281-88.98542812l74.5021275 0C842.11602125 717.89944063 728.91756969 831.68213563 695.97830281 842.49688344z" fill="currentColor" ></path></svg>