<svg xmlns="http://www.w3.org/2000/svg" viewBox="0 0 1025 1024"><path fill="currentColor" d="M146.47166087 271.6014007a260.1532966 260.1532966 0 0 1 179.99037077-132.62982302A25.36435437 25.36435437 0 0 0 316.77349428 89.17621382 310.69263126 310.69263126 0 0 0 101.78264729 247.55759501a25.36266357 25.36266357 0 1 0 44.67210563 24.02689691zM940.83029176 247.55759501A310.69263126 310.69263126 0 0 0 725.83944479 89.17621382a25.36435437 25.36435437 0 1 0-9.68853819 49.79536385 260.13638864 260.13638864 0 0 1 180.00727955 132.62982303 25.36266357 25.36266357 0 0 0 44.67210562-24.0268969zM886.334381 526.73289011c0-205.75883689-166.80178537-372.57753103-372.57753104-372.57753103S141.19622689 320.97405323 141.19622689 526.73289011a371.69829246 371.69829246 0 0 0 127.98000165 281.11976559L205.27922396 871.83420173a35.5094198 35.5094198 0 0 0 50.21807436 50.21807438l65.75693363-65.7569328a35.15265198 35.15265198 0 0 0 5.52906079-7.25372206 372.89879132 372.89879132 0 0 0 369.87218014 2.35027386 35.25410302 35.25410302 0 0 0 4.05802634 4.9034482l65.7569328 65.7569328a35.5094198 35.5094198 0 0 0 50.21807439-50.21807438l-61.41146376-61.41146292a371.73210919 371.73210919 0 0 0 131.05733834-283.6898487zM474.57998839 697.37289176l-4.64982139-156.26782534-99.87817043 3.1956957 171.16416403-199.33362953 14.59198553 161.20509108 101.65355723 3.26333001z"  ></path></svg>