<svg xmlns="http://www.w3.org/2000/svg" viewBox="0 0 1024 1024"><path d="M903.822222 96.597333H652.231111a23.608889 23.608889 0 0 0-23.608889 22.869334V374.414222c0 12.8 10.183111 23.210667 22.897778 23.552H903.822222a23.608889 23.608889 0 0 0 23.580445-22.869333V120.177778a23.608889 23.608889 0 0 0-22.869334-23.580445h-0.711111z m0-68.152889A91.733333 91.733333 0 0 1 995.555556 120.177778v254.236444a91.733333 91.733333 0 0 1-91.733334 91.733334H652.231111a91.733333 91.733333 0 0 1-91.733333-91.733334V120.177778A91.733333 91.733333 0 0 1 652.231111 28.444444h251.591111z m0 597.560889H652.231111a23.608889 23.608889 0 0 0-23.608889 22.897778v254.919111c0 12.8 10.183111 23.210667 22.897778 23.580445H903.822222a23.608889 23.608889 0 0 0 23.580445-22.869334V649.585778a23.608889 23.608889 0 0 0-22.869334-23.552h-0.711111zM371.768889 96.597333H120.177778a23.608889 23.608889 0 0 0-23.580445 22.869334v784.355555c0 12.8 10.183111 23.210667 22.869334 23.580445H371.768889a23.608889 23.608889 0 0 0 23.608889-22.869334V120.177778a23.608889 23.608889 0 0 0-22.897778-23.580445h-0.711111z m532.053333 461.283556A91.733333 91.733333 0 0 1 995.555556 649.585778v254.236444A91.733333 91.733333 0 0 1 903.822222 995.555556H652.231111a91.733333 91.733333 0 0 1-91.733333-91.733334v-254.236444a91.733333 91.733333 0 0 1 91.733333-91.704889h251.591111zM371.768889 28.444444a91.733333 91.733333 0 0 1 91.733333 91.733334v783.644444A91.733333 91.733333 0 0 1 371.768889 995.555556H120.177778A91.733333 91.733333 0 0 1 28.444444 903.822222V120.177778A91.733333 91.733333 0 0 1 120.177778 28.444444h251.591111z" fill="currentColor" ></path></svg>