<svg xmlns="http://www.w3.org/2000/svg" viewBox="0 0 1024 1024"><path d="M771.764246 328.550333l197.228956-112.921684c18.943537-11.292168 24.632287-33.904949 13.254787-50.82898-11.3775-18.829762-34.132499-24.461624-51.198748-13.197899L733.848728 264.551898c-18.971981 11.292168-24.660731 33.904949-13.283231 50.828979 11.3775 16.952474 34.132499 24.461624 51.198749 13.169456z m199.106244 451.800512L773.669977 667.400717a36.919986 36.919986 0 0 0-51.198749 13.169456c-11.3775 18.829762-3.783019 41.414099 13.283231 50.828979l197.200513 112.921685a36.919986 36.919986 0 0 0 51.198749-13.141013c11.3775-16.952474 5.68875-39.536811-13.283231-50.828979z m15.188962-319.992178h-227.549993c-20.877712 0-37.943961 16.924031-37.943962 37.63108s17.066249 37.63108 37.943962 37.63108h227.549993c20.849268 0 37.915518-16.924031 37.915518-37.63108s-17.066249-37.659524-37.915518-37.659524z m-455.099987 374.575732l-159.284995-95.997653c-36.03823-20.707049-75.859479-33.904949-117.586459-33.904949H147.907496a71.763579 71.763579 0 0 1-72.048017-71.507585V368.087145c0-31.999218 26.538018-58.33813 58.764786-58.33813H227.549993c43.604267 0 83.425516-11.292168 121.369478-33.904949l183.917282-114.798972v673.889305h-1.877288zM491.138217 97.018215L307.192491 211.84563c-24.660731 15.075187-51.198748 22.584337-79.642498 22.584337H136.529996c-75.859479 0-136.529996 60.243861-136.529996 133.685621v265.38018c0 80.95091 66.359267 146.855077 147.907496 146.855077h106.180515c28.443749 0 55.010211 7.50915 79.642498 22.584337l159.284995 95.997653c11.3775 7.537594 24.660731 11.292168 39.821249 11.292168 41.72698 0 75.859479-33.876505 75.859479-75.290604V161.016651c0-13.1979-3.783019-28.244643-11.3775-39.536812-24.660731-35.782236-70.170729-47.074405-106.180515-24.461624z" fill="currentColor" ></path></svg>