<svg id="图层_1" data-name="图层 1" xmlns="http://www.w3.org/2000/svg" viewBox="0 0 149.97 162.47"><path d="M156.27,180H43.76A18.76,18.76,0,0,1,25,161.26v-125A18.75,18.75,0,0,1,43.76,17.54H156.24A18.75,18.75,0,0,1,175,36.28v125A18.75,18.75,0,0,1,156.27,180ZM43.76,30a6.28,6.28,0,0,0-6.25,6.25v125a6.26,6.26,0,0,0,6.25,6.25H156.24a6.24,6.24,0,0,0,6.25-6.25v-125A6.26,6.26,0,0,0,156.24,30Z" transform="translate(-25.01 -17.54)"/><path d="M125.2,105.16h-69a6.25,6.25,0,0,1,0-12.5h69a6.25,6.25,0,0,1,0,12.5Z" transform="translate(-25.01 -17.54)"/><path d="M143.54,142.41H56.19a6.25,6.25,0,1,1,0-12.49h87.35a6.25,6.25,0,1,1,0,12.49Z" transform="translate(-25.01 -17.54)"/><path d="M50,58.39A9.38,9.38,0,1,0,59.35,49,9.38,9.38,0,0,0,50,58.39Z" transform="translate(-25.01 -17.54)"/><path d="M90.46,58.39A9.38,9.38,0,1,0,99.83,49,9.38,9.38,0,0,0,90.46,58.39Z" transform="translate(-25.01 -17.54)"/><path d="M131.11,58.39A9.38,9.38,0,1,0,140.48,49,9.38,9.38,0,0,0,131.11,58.39Z" transform="translate(-25.01 -17.54)"/></svg>