<svg xmlns="http://www.w3.org/2000/svg" viewBox="0 0 1024 1024"><path d="M939.918103 655.075658V111.986031c0-13.311996-10.410664-24.376882-22.983104-24.376882h-508.87097a23.039994 23.039994 0 0 1-22.300438-23.751105c0-12.572441 9.671108-23.665771 22.300438-23.665771H916.195443c37.717323 0 67.982203 32.142213 67.982204 72.334202v543.004294c0 12.572441-9.671108 23.665771-22.300439 23.665771a22.471105 22.471105 0 0 1-21.93066-24.177771v0.056889z m-120.376855 127.45952V239.388662c0-13.255107-10.410664-24.405327-23.039994-24.405326h-508.870969a23.039994 23.039994 0 0 1-22.328883-23.665771c0-12.572441 9.671108-23.72266 22.328883-23.72266h508.188303c37.717323 0 67.89687 32.199102 67.89687 72.305757v543.374072c0 12.572441-9.671108 23.665771-22.215105 23.665771-12.572441 0-21.959105-10.126219-21.959105-24.405327zM107.747668 343.409967c-12.572441 0-22.983105 11.150219-22.983105 24.405326v551.110958h1.479111a22.414216 22.414216 0 0 0 21.276438 16.355551h568.888731c12.572441 0 22.926216-11.09333 22.926216-24.319993V367.786849c0-13.255107-10.439108-24.405327-22.926216-24.405327H107.747668z m0 639.800711c-37.717323 0-67.925314-32.142213-67.925315-72.248869V367.786849c0-40.191989 30.207992-72.248869 67.925315-72.248869H676.408843c37.717323 0 67.925314 32.142213 67.925315 72.248869v543.146516c0 40.106656-30.207992 72.248869-67.925315 72.248869H107.747668z" fill="currentColor" ></path><path d="M408.00714 52.565603c-6.485332 0-10.638219 5.944887-10.638219 11.292441 0 7.082665 5.57511 11.377775 10.638219 11.377775h508.927859c18.887106 0 34.360879 16.440884 34.360879 36.465768v544.142071a10.695108 10.695108 0 0 0 10.638219 11.377774c6.456887 0 10.638219-6.115554 10.63822-11.377774V112.640253c0-33.023991-25.457771-60.103094-56.405318-60.103094H408.00714zM937.244326 680.163651a35.185768 35.185768 0 0 1-8.931553-25.599993V111.986031c0-6.54222-5.375999-12.344885-11.377774-12.344885h-508.87097c-18.744884 0.085333-33.678213-15.928884-33.678213-35.640879 0-19.854217 14.933329-35.555546 33.564435-35.555546h508.159859C959.999876 28.302499 995.555421 66.247377 995.555421 112.981586v543.146516c0 19.797328-14.961774 35.697768-33.564435 35.697768a34.503102 34.503102 0 0 1-24.689771-11.60533l-0.056889-0.056889zM287.630285 180.053568c-6.54222 0-10.638219 6.087109-10.63822 11.377774 0 6.997331 5.57511 11.377775 10.63822 11.377775h508.870969c18.887106 0 34.360879 16.383995 34.36088 36.465768v543.146515c0 7.224887 4.380443 12.37333 10.638219 12.37333 6.54222 0 10.638219-6.115554 10.638219-11.377774V240.241995c0-33.109324-25.372437-60.188428-56.319984-60.188427H287.630285z m520.533188 602.453166V239.388662c0-6.485332-5.347554-12.287997-11.377774-12.287996h-509.155414c-18.602661 0-33.621324-15.985773-33.621324-35.783101 0-19.854217 15.018662-35.783101 33.621324-35.783102h508.188303c43.747543 0 79.303089 37.944878 79.303089 84.593755v543.146516c0 19.797328-14.961774 35.726212-33.621324 35.726212-18.830217 0-33.33688-15.64444-33.33688-36.465768zM107.747668 355.527297c-6.314665 0-11.377775 5.518221-11.377775 12.287996v544.341183l0.967111 2.901332a11.064886 11.064886 0 0 0 10.638219 8.163553h568.348287c6.343109 0 11.377775-5.489776 11.377775-12.259552V367.786849c0-6.485332-5.262221-12.287997-11.292442-12.287997H107.747668z m-28.558214 575.430951H73.386789V367.843738c0-20.110217 15.473773-36.465768 34.360879-36.465768H676.408843c18.830217 0 34.30399 16.355551 34.303991 36.465768v543.146516c0 20.081772-15.473773 36.465768-34.303991 36.465767H107.747668a33.706657 33.706657 0 0 1-28.558214-16.383995v-0.056889zM107.747668 307.626866c-31.231991 0-56.319984 27.107548-56.319985 60.302205v543.061183c0 33.109324 25.372437 60.188428 56.319985 60.188427H676.408843c31.175102 0 56.319984-27.079104 56.319985-60.273761v-543.004293c0-33.109324-25.372437-60.188428-56.319985-60.188428H107.747668v-0.085333zM28.444579 910.961809V367.786849c0-46.648876 35.555546-84.622199 79.303089-84.622199H676.408843c43.747543 0 79.303089 37.944878 79.303089 84.622199v543.146516c0 46.648876-35.555546 84.593754-79.303089 84.593754H107.747668C64.000124 995.555563 28.444579 957.610685 28.444579 910.961809z" fill="currentColor" ></path></svg>