<svg xmlns="http://www.w3.org/2000/svg" viewBox="0 0 1024 1024"><path d="M512.086471 80.839111c-89.543111 0-162.133333 72.391111-162.133333 161.678222h324.266666c0-89.287111-72.561778-161.678222-162.133333-161.678222z m-219.790222 523.093333c14.592 0 28.074667 7.822222 35.271111 20.48a216.177778 216.177778 0 0 0 184.547556 103.168 216.206222 216.206222 0 0 0 184.519111-103.196444c11.690667-19.057778 36.664889-25.031111 55.751111-13.368889a40.391111 40.391111 0 0 1 13.454222 55.580445 297.301333 297.301333 0 0 1-253.781333 141.824 297.301333 297.301333 0 0 1-253.696-141.824 40.334222 40.334222 0 0 1-1.820445-41.415112c7.082667-13.084444 20.764444-21.248 35.697778-21.248h0.056889z m546.332444-280.576H185.544249a27.022222 27.022222 0 0 0-26.481778 21.475556l-0.426667 3.128889-49.379555 565.902222a26.965333 26.965333 0 0 0 23.779555 29.098667l3.128889 0.199111h751.815111a26.993778 26.993778 0 0 0 27.022223-26.168889l-0.085334-3.128889-49.351111-565.902222a27.022222 27.022222 0 0 0-26.936889-24.604445zM512.086471 0c64.512 0 126.378667 25.543111 171.975111 71.025778a242.147556 242.147556 0 0 1 71.253334 171.52h151.324444c21.333333 0 38.968889 16.440889 40.448 37.632l48.469333 700.615111A40.561778 40.561778 0 0 1 955.137138 1024H69.035804a40.590222 40.590222 0 0 1-40.448-43.207111L77.085582 280.177778a40.476444 40.476444 0 0 1 40.419556-37.660445H268.886471C268.858027 108.572444 377.74336 0 512.086471 0z" fill="currentColor" ></path></svg>