<svg xmlns="http://www.w3.org/2000/svg" viewBox="0 0 1024 1024"><path d="M817.0625 147.6875H744.5v58.21875001c0 22.125-20.53125001 40.125-45.75 40.125s-45.75-18-45.75-40.125v-58.21875001H371v58.21875001c0 22.125-20.53125001 40.125-45.75 40.125S279.5 227.9375 279.5 205.90624999v-58.21874999h-72.5625c-48.9375 0-88.78125001 34.96875001-88.78125001 77.90625001V854.1875c0 42.84375001 39.84375001 77.90625001 88.78125001 77.90625001h610.125c49.03125001 0 88.78125001-34.96875001 88.78125001-77.90625001V225.59374999c0-43.03125001-39.9375-77.90625001-88.78125001-77.90624999z m30.9375 694.59375001c0 13.875-13.96875001 25.125-30.9375 25.125H206.84374999c-17.15625001 0-30.9375-11.25-30.93749998-25.125V368.28124999h672.09374999v474.00000002zM326 230.5625c12.09375001 0 21.84375001-7.5 21.84375001-16.78125001V108.6875c0-9.375-9.75-16.78125001-21.84375001-16.78125001s-21.9375 7.5-21.9375 16.78125001V213.875c0.09375001 9.1875 9.84375001 16.6875 21.9375 16.6875z m371.90625001 0c12.09375001 0 21.9375-7.5 21.93749998-16.78125001V108.6875c0-9.375-9.84375001-16.78125001-21.9375-16.78125001s-21.84375001 7.5-21.84374999 16.78125001V213.875c0 9.1875 9.75 16.6875 21.84374999 16.6875z" fill="currentColor" ></path><path d="M431.84374999 744.875L323.28124999 636.3125c-11.625-11.625-11.625-30.75 2e-8-42.46875001 11.625-11.625 30.75-11.625 42.46874999 0l108.5625 108.56250002c11.625 11.625 11.625 30.75 0 42.46874999-11.71875001 11.625-30.84375001 11.625-42.46875001 0z" fill="currentColor" ></path><path d="M700.71875001 518.46875001L474.3125 744.875c-11.625 11.625-30.75 11.625-42.46875001 0-11.625-11.625-11.625-30.75 0-42.46875001L658.25 476c11.625-11.625 30.75-11.625 42.46875001 0 11.625 11.71875001 11.625 30.75 0 42.46875001z" fill="currentColor" ></path></svg>
