<svg xmlns="http://www.w3.org/2000/svg" viewBox="0 0 1024 1024"><path d="M984.0128 551.355733H39.9872A39.8848 39.8848 0 0 1 0 511.5904c0-21.9648 17.92-39.765333 39.9872-39.765333h944.0256A39.8848 39.8848 0 0 1 1024 511.573333c0 21.9648-17.92 39.765333-39.9872 39.765334M344.0128 989.866667H139.9808c-55.227733 0-100.010667-44.509867-100.010667-99.4304v-223.744c0-21.947733 17.92-39.765333 40.004267-39.765334a39.8848 39.8848 0 0 1 40.004267 39.765334v223.744c0 5.2736 2.0992 10.325333 5.853866 14.062933 3.754667 3.720533 8.840533 5.819733 14.148267 5.819733h203.997867a39.8848 39.8848 0 0 1 40.004266 39.765334c0 21.9648-17.92 39.765333-40.004266 39.7824M79.991467 387.293867a39.8848 39.8848 0 0 1-40.004267-39.765334V150.613333C39.9872 95.709867 84.770133 51.2 139.997867 51.2h203.997866A39.8848 39.8848 0 0 1 384 90.965333c0 21.9648-17.92 39.765333-40.004267 39.765334H139.997867c-5.290667 0-10.3936 2.116267-14.148267 5.8368-3.754667 3.7376-5.853867 8.789333-5.853867 14.062933v196.881067c0 10.5472-4.215467 20.667733-11.707733 28.125866a40.1408 40.1408 0 0 1-28.296533 11.656534m864.017066 0a39.8848 39.8848 0 0 1-40.004266-39.765334V150.613333c0-5.2736-2.0992-10.325333-5.853867-14.062933a20.053333 20.053333 0 0 0-14.148267-5.819733H675.9936a39.8848 39.8848 0 0 1-39.9872-39.765334c0-21.9648 17.92-39.765333 39.9872-39.7824h208.008533c26.5216 0 51.968 10.478933 70.7072 29.1328a99.140267 99.140267 0 0 1 29.303467 70.314667v196.864c0 21.9648-17.92 39.765333-40.004267 39.765333M884.002133 989.866667H675.9936a39.8848 39.8848 0 0 1-39.9872-39.765334c0-21.9648 17.92-39.765333 39.9872-39.765333h208.008533c5.290667 0 10.410667-2.116267 14.148267-5.8368a19.797333 19.797333 0 0 0 5.853867-14.062933v-223.744c0-21.947733 17.92-39.765333 40.004266-39.765334a39.8848 39.8848 0 0 1 40.004267 39.765334v223.744a99.1232 99.1232 0 0 1-29.303467 70.314666A100.266667 100.266667 0 0 1 884.002133 989.866667" fill="currentColor" ></path></svg>