<svg xmlns="http://www.w3.org/2000/svg" viewBox="0 0 1024 1024"><path d="M238.426956 306.631026a76.913756 76.913756 0 0 1-12.686219-9.500442c-11.662219-11.662219-18.204439-27.448881-18.204439-43.889765A62.236427 62.236427 0 0 1 269.744281 191.146614c16.41244 0 32.142213 6.54222 43.747543 18.175995 11.775997 11.60533 18.40355 27.420437 18.431995 43.946654 0 13.994663-4.892443 27.591103-13.823996 38.399989a144.782182 144.782182 0 0 0 140.85685 113.09508 144.839071 144.839071 0 0 0 141.198183-113.066635 61.639094 61.639094 0 0 1 4.607998-82.3182c11.519997-12.060441 27.591103-18.65955 44.259543-18.175995 16.440884 0 32.170658 6.54222 43.775988 18.175995 11.690663 11.60533 18.261328 27.448881 18.20444 43.91821a61.639094 61.639094 0 0 1-30.890658 53.674652 226.275493 226.275493 0 0 1-221.155494 179.086173 226.190159 226.190159 0 0 1-220.529717-179.683506v0.227555zM83.603888 937.813073a83.28531 83.28531 0 0 1-83.427532-80.184867 12.999108 12.999108 0 0 1 0-4.323554L55.273229 81.834644A84.05331 84.05331 0 0 1 138.842984 0h641.222933a85.191087 85.191087 0 0 1 83.399088 78.847978v7.111109l27.420436 384.767893a40.618655 40.618655 0 0 1-67.12887 33.393769 40.305767 40.305767 0 0 1-13.738663-27.989326l-27.875547-389.43278a11.690663 11.690663 0 0 0-2.787555-6.229332H138.359428c-0.910222 0-2.275555 1.905777-2.275555 3.896888v4.437332l-54.812429 766.008676a2.702221 2.702221 0 0 0 2.076444 1.365333h418.815884a40.561767 40.561767 0 1 1 0 81.066644l-418.559884 0.568889z m546.474515-196.977723a110.364414 110.364414 0 0 0 220.728827 0 110.27908 110.27908 0 0 0-110.364413-110.108414 110.27908 110.27908 0 0 0-110.364414 109.880858v0.227556z m324.60791 270.990147l-100.636417-100.351972a42.666655 42.666655 0 0 1-7.623109-11.519997 190.350169 190.350169 0 0 1-105.955526 32.426657c-105.813304-0.170667-191.544836-85.703087-191.715502-191.288835 0.085333-105.614193 85.873754-191.203502 191.715502-191.288836 105.813304 0.085333 191.601725 85.674643 191.715502 191.288836a191.658613 191.658613 0 0 1-32.028435 105.784859c4.266665 1.763555 8.191998 4.351999 11.491552 7.623109l100.408861 100.20975A40.561767 40.561767 0 0 1 983.528971 1023.999716a40.533322 40.533322 0 0 1-28.842658-12.174219z" fill="currentColor" ></path></svg>