<?xml version="1.0" standalone="no"?><!DOCTYPE svg PUBLIC "-//W3C//DTD SVG 1.1//EN" "http://www.w3.org/Graphics/SVG/1.1/DTD/svg11.dtd"><svg t="1767516115044" class="icon" viewBox="0 0 1024 1024" version="1.1" xmlns="http://www.w3.org/2000/svg" p-id="28271" id="mx_n_1767516115046" width="64" height="64" xmlns:xlink="http://www.w3.org/1999/xlink"><path d="M473.142857 54.514286c-231.2 0-418.742857 187.428571-418.742857 418.742857 0 231.2 187.428571 418.742857 418.742857 418.742857 102.742857 0 196.8-37.028571 269.6-98.285714L918.171429 969.142857l50.514285-50.514286-175.428571-175.657142c61.485714-72.914286 98.514286-167.085714 98.514286-269.828572 0.114286-231.2-187.428571-418.628571-418.628572-418.628571z m0 765.828571c-46.857143 0-92.342857-9.142857-135.085714-27.2-41.371429-17.485714-78.514286-42.514286-110.4-74.4-31.885714-31.885714-56.914286-69.028571-74.4-110.4-18.057143-42.742857-27.2-88.228571-27.2-135.085714s9.142857-92.342857 27.2-135.085714c17.485714-41.371429 42.514286-78.514286 74.4-110.4 31.885714-31.885714 69.028571-56.914286 110.4-74.4 42.742857-18.057143 88.228571-27.2 135.085714-27.2s92.342857 9.142857 135.085714 27.2c41.371429 17.485714 78.514286 42.514286 110.4 74.4 31.885714 31.885714 56.914286 69.028571 74.4 110.4 18.057143 42.742857 27.2 88.228571 27.2 135.085714s-9.142857 92.342857-27.2 135.085714c-17.485714 41.371429-42.514286 78.514286-74.4 110.4s-69.028571 56.914286-110.4 74.4c-42.742857 18.057143-88.228571 27.2-135.085714 27.2z" fill="currentColor" p-id="28272"></path></svg>
