<svg xmlns="http://www.w3.org/2000/svg" viewBox="0 0 1024 1024"><path d="M570.644043 337.072798c15.729546 12.600703 18.289509 35.555032 5.688805 51.341466l-98.643881 123.361739h143.187226a36.522129 36.522129 0 0 1 28.472469 59.391126l-146.088516 182.781309A36.522129 36.522129 0 1 1 446.286763 708.267333l98.615437-123.390184h-143.158781a36.522129 36.522129 0 0 1-28.500914-59.391125l146.088516-182.781309a36.493685 36.493685 0 0 1 51.313022-5.688806v0.028445z m-59.334237 588.876663c-201.72503 0-365.22129-163.666924-365.22129-365.562618 0-201.895694 163.49626-365.534174 365.22129-365.534174 201.696586 0 365.22129 163.63848 365.22129 365.534174 0 201.895694-163.524704 365.562618-365.22129 365.562618zM620.136648 26.890697a36.550573 36.550573 0 0 0 25.457403 44.941561 502.321494 502.321494 0 0 1 309.584776 249.397217 36.522129 36.522129 0 1 0 64.567938-34.189719A575.337308 575.337308 0 0 0 665.021321 1.319518a36.493685 36.493685 0 0 0-44.941561 25.514291l0.056888 0.056888zM188.071898 856.659815L83.767656 961.134721a36.579017 36.579017 0 0 0 16.127762 61.666648c12.799812 3.356395 26.339168-0.455104 35.526588-9.955409L241.774218 906.323084a436.103802 436.103802 0 0 0 269.507144 92.727523c101.630504 0 195.15446-34.644823 269.507143-92.727523l106.380656 106.465988c14.335789 13.880685 37.119454 13.653132 51.199246-0.426661a36.579017 36.579017 0 0 0 0.455105-51.256134l-104.389574-104.474906a437.298451 437.298451 0 0 0 115.084527-296.272972c0-242.229323-196.206889-438.63532-438.237103-438.63532S73.044258 318.15752 73.044258 560.358399c0 114.231207 43.604691 218.251009 115.056084 296.272972z m190.290532-784.856001A36.550573 36.550573 0 0 0 358.963604 1.319518 575.365752 575.365752 0 0 0 4.266604 287.039756a36.493685 36.493685 0 1 0 64.567938 34.189719 502.29305 502.29305 0 0 1 309.556332-249.425661z" fill="currentColor" ></path></svg>