<svg id="图层_1" data-name="图层 1" xmlns="http://www.w3.org/2000/svg" viewBox="0 0 184.19 156.64"><path d="M94.57,175.71a8.2,8.2,0,0,0,11.59.41c.14-.13.27-.27.4-.41l83.91-90a8.2,8.2,0,0,0-.07-11.25L142.52,24.22a8.23,8.23,0,0,0-5.94-2.54h-72a8.24,8.24,0,0,0-5.95,2.54L10.75,74.45a8.19,8.19,0,0,0-.06,11.25l83.89,90Zm84.25-95.58-78.26,84-78.25-84L66.3,34h68.53l44,46.16ZM94.56,136.25,49.17,87.57H66l34.57,37.08,34.57-37.08h16.81l-45.37,48.68a8.2,8.2,0,0,1-11.59.4c-.14-.13-.27-.26-.4-.4Z" transform="translate(-8.48 -21.68)"/></svg>