<svg xmlns="http://www.w3.org/2000/svg" viewBox="0 0 1024 1024"><path d="M894.29615352 961.96762197L129.70294737 961.96762197c-21.84798691 0-39.54798633-18.89618818-39.54798633-42.18499863L90.15496104 216.70950693c0-23.28881045 17.70089854-42.18409951 39.54798633-42.18409951l79.09507353 0 0 42.18409951c0 54.37803164 41.31978487 98.43106377 92.27833506 98.43106377 50.95944932 0 92.28013418-44.05303213 92.28013417-98.43106377l0-42.18319951 237.28791885 0 0 42.18409951c0 54.37803164 41.31708662 98.43106377 92.27923506 98.43106377 50.95855019 0 92.27743594-44.05303213 92.27743594-98.43106377l0-42.18409951 79.09687265 0c21.84798691 0 39.54798633 18.89528906 39.54798633 42.18409951l0 703.07221729C933.84413984 943.07143379 916.14414042 961.96762197 894.29615352 961.96762197zM854.74726719 399.50786973L169.25183369 399.50786973l0 478.0906541 685.49543438 0L854.74726719 399.50786973zM380.1723295 596.36999727c10.91769786 0 20.80379531 4.72359727 27.97193495 12.35942051l64.3064001 68.6027874 156.60002548-167.03475029c7.1537502-7.63492324 17.04074677-12.3585205 27.95754464-12.35852052 21.84798691 0 39.54888545 18.89438994 39.54888544 42.1823004 0 11.64440479-4.42140205 22.19335313-11.59044169 29.82557812L500.4091083 766.80804043c-7.1537502 7.63582324-17.03984678 12.35942051-27.95844375 12.35942051-10.91679873 0-20.80289531-4.72359727-27.97193496-12.35942052L352.20129365 668.38147315c-7.15464932-7.63402412-11.57515224-18.1847707-11.57515224-29.82737726C340.62524229 615.26258808 358.32614082 596.36999727 380.1723295 596.36999727zM722.92184492 258.89270645c-21.83359658 0-39.54978545-18.89438994-39.54978544-42.18409952L683.37205948 104.21737666c0-23.28970957 17.71438974-42.18499864 39.54978544-42.18499864 21.84798691 0 39.54798633 18.89528906 39.54798633 42.18499864l0 112.49123115C762.46983125 239.99921651 744.76983184 258.89270645 722.92184492 258.89270645zM301.07635596 258.89270645c-21.84708779 0-39.54798633-18.89438994-39.54798633-42.18409952L261.52836963 104.21737666c0-23.28970957 17.70089854-42.18499864 39.54798633-42.18499864 21.83359658 0 39.54978545 18.89528906 39.54978545 42.18499864l0 112.49123115C340.62524229 239.99921651 322.91085253 258.89270645 301.07635596 258.89270645z" fill="currentColor" ></path></svg>