<svg xmlns="http://www.w3.org/2000/svg" viewBox="0 0 1024 1024"><path d="M817.528 103.263h102.085c22.631 0 40.973 18.432 40.973 41.053V307.45c0 22.673-18.361 41.053-40.973 41.053H102.339c-22.631 0-40.973-18.43-40.973-41.053V144.316c0-22.671 18.372-41.053 40.973-41.053h102.085v61.31h-61.37c-11.117 0-20.377 9.06-20.377 20.247v82.128c0 11.026 9.12 20.246 20.377 20.246h735.845c11.116 0 20.377-9.06 20.377-20.246V184.82c0-11.026-9.12-20.247-20.377-20.247h-61.371v-61.31z m-183.931 0H388.355v61.31h245.242v-61.31zM163.55 389.379h-61.21c-22.602 0-40.974 18.222-40.974 40.694v490.843c0 22.293 18.342 40.695 40.973 40.695h817.274c22.612 0 40.973-18.222 40.973-40.695V430.073c0-22.303-18.342-40.694-40.973-40.694h-61.21v61.31h20.496c11.256 0 20.377 8.981 20.377 20.488v408.647c0 11.297-9.261 20.477-20.377 20.477H143.054c-11.257 0-20.377-8.98-20.377-20.477V471.177c0-11.316 9.26-20.487 20.377-20.487h20.496v-61.31zM694.907 92.985c0-16.895 13.612-30.595 30.655-30.595 16.925 0 30.656 13.73 30.656 30.595v143.178c0 16.893-13.611 30.595-30.656 30.595-16.923 0-30.655-13.732-30.655-30.595V92.985z m-429.172 0c0-16.895 13.612-30.595 30.655-30.595 16.945 0 30.655 13.73 30.655 30.595v143.178c0 16.893-13.61 30.595-30.655 30.595-16.945 0-30.655-13.732-30.655-30.595V92.985z m378.78 602.628c-12.594 39.557-28.321 75.24-47.201 106.994h102.503v22.932H323.034v-22.932h248.195c18.282-30.276 34.767-68.197 49.456-113.739l23.83 6.745z m-247.28-0.46c12.574 23.092 24.57 51.711 35.966 85.88l-22.034 5.39c-9.001-28.182-20.995-56.203-35.964-84.063l22.033-7.207z m103.862-9.44c11.676 29.079 21.255 59.794 28.76 92.165l-22.014 5.39c-8.702-33.25-18.441-63.385-29.238-90.37l22.492-7.185zM395.441 644.8h231.531v21.595H395.441V644.8z m-23.39-149.724c-11.697 23.381-25.188 44.504-40.476 63.385l-20.677-13.033c28.181-34.467 48.697-72.825 61.591-115.096l23.83 4.95c-5.989 16.784-10.638 29.218-13.93 37.32h124.097v22.474h-71.05c9 19.487 15.447 35.824 19.338 49.015l-22.034 8.082c-5.987-19.179-13.192-38.207-21.574-57.098H372.05z m189.737 0c-8.102 16.485-17.083 31.773-26.982 45.861l-20.237-13.49c20.996-28.77 36.563-61.142 46.761-97.115l23.37 4.95c-3.592 11.685-7.943 24.128-13.012 37.32H707.44v22.474h-77.317c10.777 18.89 19.32 36.422 25.625 52.609l-22.471 8.54c-7.205-18.879-16.805-39.265-28.78-61.15h-42.71zM518.62 544.99c57.26 42.252 122.282 75.381 195.128 99.37l-11.695 21.116c-75.24-25.786-138.907-59.196-191.077-100.27-48.857 38.38-112.542 71.65-191.096 99.831l-11.675-21.595c77.617-26.365 142.679-59.195 195.128-98.452h15.287z" fill="currentColor" ></path></svg>