<svg xmlns="http://www.w3.org/2000/svg" viewBox="0 0 1024 1024"><path d="M271.7339249 301.46784893a29.13525527 29.13525527 0 0 1-29.13525527-29.1352544V91.13525527a29.13525527 29.13525527 0 0 1 58.27050967 1e-8v179.60088691a29.13525527 29.13525527 0 0 1-29.1352544 30.73170674zM495.23725039 301.46784893a29.13525527 29.13525527 0 0 1-29.1352544-29.1352544V91.13525527a29.13525527 29.13525527 0 0 1 58.27050967 1e-8v179.60088691a29.13525527 29.13525527 0 0 1-29.13525527 30.73170674zM717.5432375 301.46784893a29.13525527 29.13525527 0 0 1-29.13525527-29.1352544V91.13525527a29.13525527 29.13525527 0 0 1 58.27050967 1e-8v179.60088691A29.13525527 29.13525527 0 0 1 717.5432375 301.46784893zM361.53436836 433.17516641h-75.83148545a25.5432375 25.5432375 0 0 1-25.14412442-25.5432375 25.14412442 25.14412442 0 0 1 25.14412442-26.34146368h75.83148545a25.14412442 25.14412442 0 0 1 25.14412354 25.5432375 25.5432375 25.5432375 0 0 1-25.14412354 26.34146368zM533.15299355 433.17516641h-75.83148545a25.5432375 25.5432375 0 0 1-25.14412441-25.5432375 25.14412442 25.14412442 0 0 1 25.14412441-26.34146368h75.83148546a25.14412442 25.14412442 0 0 1 25.14412353 25.5432375 25.5432375 25.5432375 0 0 1-25.14412353 26.34146368zM704.37250567 433.17516641h-75.83148546a25.5432375 25.5432375 0 0 1-25.14412441-25.5432375 25.14412442 25.14412442 0 0 1 25.5432375-26.34146368h75.83148545a25.5432375 25.5432375 0 0 1 25.5432375 25.5432375 25.5432375 25.5432375 0 0 1-25.94235058 26.34146368zM361.53436836 568.47450078h-75.83148545a25.5432375 25.5432375 0 0 1-25.14412442-25.54323662 25.14412442 25.14412442 0 0 1 25.14412442-25.5432375h75.83148545a25.14412442 25.14412442 0 0 1 25.14412354 25.5432375 25.5432375 25.5432375 0 0 1-25.14412354 25.54323662zM533.15299355 568.47450078h-75.83148545a25.5432375 25.5432375 0 0 1-25.14412441-25.54323662 25.14412442 25.14412442 0 0 1 25.14412441-25.5432375h75.83148546a25.14412442 25.14412442 0 0 1 25.14412353 25.5432375 25.5432375 25.5432375 0 0 1-25.14412353 25.54323662zM704.37250567 568.47450078h-75.83148546a25.5432375 25.5432375 0 0 1-25.14412441-25.54323662 25.14412442 25.14412442 0 0 1 25.14412441-25.5432375h75.83148546a25.5432375 25.5432375 0 0 1 25.5432375 25.5432375 25.5432375 25.5432375 0 0 1-25.5432375 25.54323662zM361.53436836 703.77383604h-75.83148545a25.5432375 25.5432375 0 0 1-25.14412442-25.5432375 25.5432375 25.5432375 0 0 1 25.14412442-25.5432375h75.83148545a25.5432375 25.5432375 0 0 1 25.14412354 25.5432375 25.5432375 25.5432375 0 0 1-25.14412354 25.5432375z" fill="currentColor" ></path><path d="M579.05099756 871.00221729H242.19955654a105.36585381 105.36585381 0 0 1-105.36585381-105.36585382V309.45011065a105.36585381 105.36585381 0 0 1 105.36585381-105.36585381h505.67627461A105.36585381 105.36585381 0 0 1 853.24168496 309.45011065v286.16407997a208.73614219 208.73614219 0 0 1 58.27051054 39.9113086V309.45011065a163.63636347 163.63636347 0 0 0-163.63636435-163.63636348H242.19955654A163.63636347 163.63636347 0 0 0 78.96230615 309.45011065v456.18625283a163.63636347 163.63636347 0 0 0 163.23725039 163.23725039h375.56541036a209.13525527 209.13525527 0 0 1-38.71396934-57.87139658z" fill="currentColor" ></path><path d="M770.62527705 613.17516641a174.4124168 174.4124168 0 1 0 174.4124168 174.41241679 174.4124168 174.4124168 0 0 0-174.4124168-174.41241679zM868.00886914 740.49223906l-94.98891357 119.7339249a19.9556543 19.9556543 0 0 1-13.56984492 7.58314864H757.45454521a19.9556543 19.9556543 0 0 1-12.77161875-4.39024395L677.63192891 807.5432375a19.9556543 19.9556543 0 0 1 25.14412442-30.73170762L753.86252744 820.31485625 837.27716152 714.54988935a19.9556543 19.9556543 0 1 1 31.52993379 24.74501045z" fill="currentColor" ></path></svg>