<svg xmlns="http://www.w3.org/2000/svg" viewBox="0 0 1024 1024"><path d="M38.485333 672.199111c-12.487111 0-24.604444-6.542222-30.947555-18.204444a34.844444 34.844444 0 0 1 13.994666-47.530667l219.164445-119.096889c48.128-26.168889 109.226667-27.790222 159.488-4.437333l111.928889 52.309333c26.737778 12.487111 60.273778 12.942222 87.580444 1.393778l363.320889-153.998222a35.470222 35.470222 0 0 1 46.364445 18.460444c7.68 17.720889-0.568889 38.286222-18.574223 45.994667l-363.463111 153.998222a181.418667 181.418667 0 0 1-145.351111-2.446222l-111.928889-52.337778c-29.297778-13.653333-67.697778-12.714667-95.459555 2.474667L55.438222 667.875556c-5.404444 2.901333-11.178667 4.323556-16.952889 4.323555m224.455111-385.422222c-22.584889 0-40.96 18.204444-40.96 40.618667 0 22.442667 18.375111 40.647111 40.96 40.647111 22.613333 0 40.96-18.204444 40.96-40.647111 0-22.414222-18.346667-40.618667-40.96-40.618667m0 151.324444c-61.553778 0-111.587556-49.635556-111.587555-110.705777 0-61.041778 50.033778-110.648889 111.587555-110.648889s111.587556 49.607111 111.587556 110.648889c0 61.070222-50.033778 110.705778-111.587556 110.705777M976.896 967.111111h-164.750222c-19.541333 0-35.328-15.644444-35.328-35.015111 0-19.399111 15.786667-35.043556 35.328-35.043556h164.664889c19.541333 0 35.299556 15.644444 35.299555 35.043556 0 19.370667-15.758222 35.015111-35.185778 35.015111M594.488889 967.111111h-164.693333c-19.512889 0-35.271111-15.644444-35.271112-35.015111 0-19.399111 15.758222-35.043556 35.271112-35.043556h164.693333c19.541333 0 35.299556 15.644444 35.299555 35.043556 0 19.370667-15.758222 35.015111-35.299555 35.015111M212.110222 967.111111h-164.693333c-19.512889 0-35.271111-15.644444-35.271111-35.015111 0-19.399111 15.758222-35.043556 35.271111-35.043556h164.693333c19.512889 0 35.271111 15.644444 35.271111 35.043556 0 19.370667-15.729778 35.015111-35.271111 35.015111" fill="currentColor" ></path><path d="M935.367111 56.888889H88.632889C39.68 56.888889 0 96.227556 0 144.782222v559.502222c0 48.583111 39.68 87.921778 88.632889 87.921778h846.734222c48.952889 0 88.632889-39.338667 88.632889-87.893333V144.668444C1024 96.227556 984.32 56.888889 935.367111 56.888889z m0 69.944889c9.898667 0 18.005333 8.049778 18.005333 17.863111v559.502222a18.005333 18.005333 0 0 1-18.005333 17.834667H88.632889a18.005333 18.005333 0 0 1-18.005333-17.863111V144.668444c0-9.784889 8.106667-17.834667 18.005333-17.834666h846.734222z" fill="currentColor" ></path></svg>