<svg xmlns="http://www.w3.org/2000/svg" viewBox="0 0 1024 1024"><path d="M804.579556 688.128c24.263111 0 43.918222 19.740444 43.918222 44.088889 0 24.376889-19.655111 44.088889-43.918222 44.088889H687.502222a44.003556 44.003556 0 0 1-43.946666-44.088889c0-24.348444 19.683556-44.088889 43.946666-44.088889h117.077334z m-234.040889 0c24.263111 0 43.918222 19.740444 43.918222 44.088889 0 24.376889-19.626667 44.088889-43.918222 44.088889h-117.077334a44.003556 44.003556 0 0 1-43.918222-44.088889c0-24.348444 19.626667-44.088889 43.918222-44.088889h117.077334z m-234.040889 0a44.088889 44.088889 0 1 1 0 88.177778H219.420444a44.003556 44.003556 0 0 1-43.918222-44.088889c0-24.348444 19.655111-44.088889 43.918222-44.088889h117.077334zM806.229333 142.222222H217.770667C144.668444 142.222222 85.333333 201.870222 85.333333 275.342222v473.315556C85.333333 822.101333 144.668444 881.777778 217.770667 881.777778h588.458666C879.331556 881.777778 938.666667 822.129778 938.666667 748.657778V275.342222C938.666667 201.898667 879.331556 142.222222 806.229333 142.222222z m-1.649777-85.333333C925.781333 56.888889 1024 155.448889 1024 277.105778v469.788444C1024 868.551111 925.781333 967.111111 804.579556 967.111111H219.420444C98.218667 967.111111 0 868.551111 0 746.894222V277.105778C0 155.448889 98.218667 56.888889 219.420444 56.888889h585.159112z" fill="currentColor" ></path></svg>