<svg xmlns="http://www.w3.org/2000/svg" viewBox="0 0 1024 1024"><path d="M489.500444 339.456a145.92 145.92 0 0 1-291.84 0 145.92 145.92 0 1 1 291.84 0z m-87.096888 0a58.851556 58.851556 0 1 0-117.674667-0.028444 58.851556 58.851556 0 0 0 117.674667 0.028444zM83.655111 479.516444L536.746667 932.579556c11.548444 11.605333 33.763556 10.524444 49.436444-5.148445l341.248-341.248c15.644444-15.644444 16.782222-37.888 5.176889-49.408L479.516444 83.626667 83.626667 83.569778v395.889778l0.028444 0.028444z m-71.395555 46.904889A41.784889 41.784889 0 0 1 0 496.839111V41.813333C0 18.773333 18.716444 0 41.813333 0h455.025778c11.093333 0 21.731556 4.408889 29.582222 12.231111l465.351111 465.351111c45.511111 45.568 41.955556 120.604444-5.205333 167.736889L645.319111 986.567111c-47.132444 47.160889-122.168889 50.716444-167.708444 5.176889L12.231111 526.392889z" fill="currentColor" ></path></svg>