<svg xmlns="http://www.w3.org/2000/svg" viewBox="0 0 1024 1024"><path fill="currentColor" d="M931.231 417.219h-294.328l110.025-110.025c-55.603-55.575-129.516-86.203-208.125-86.203s-152.522 30.628-208.125 86.203c-55.575 55.603-86.203 129.516-86.203 208.125 0 78.609 30.628 152.522 86.203 208.125 55.603 55.575 129.516 86.203 208.125 86.203 78.609 0 152.522-30.628 208.125-86.203 4.641-4.641 9.084-9.422 13.387-14.316l73.828 64.603c-71.916 82.153-177.553 134.016-295.313 134.016-216.759 0-392.456-175.697-392.456-392.428 0-216.731 175.697-392.428 392.428-392.428 108.366 0 206.466 43.931 277.481 114.947l114.947-114.947v294.328zM931.231 417.219z"  ></path></svg>