<svg xmlns="http://www.w3.org/2000/svg" viewBox="0 0 1024 1024"><path d="M822.63842773 933.875H201.36157227C140.05786133 933.875 90.125 883.94213867 90.125 822.63842773V201.36157227C90.125 140.05786133 140.05786133 90.125 201.36157227 90.125h621.27685546c61.30371094 0 111.23657227 49.93286133 111.23657227 111.23657227v621.27685546c0 61.30371094-49.93286133 111.23657227-111.23657227 111.23657227zM201.36157227 164.28271484c-20.43457031 0-37.07885742 16.64428711-37.07885743 37.07885743v621.27685546c0 20.43457031 16.64428711 37.07885742 37.07885743 37.07885743h621.27685546c20.43457031 0 37.07885742-16.64428711 37.07885743-37.07885743V201.36157227c0-20.43457031-16.64428711-37.07885742-37.07885743-37.07885743H201.36157227z" fill="currentColor" ></path><path d="M439.8125 279.5H237.3125c-23.34375 0-42.1875-18.84375-42.1875-42.1875s18.84375-42.1875 42.1875-42.1875h202.5c23.34375 0 42.1875 18.84375 42.1875 42.1875s-18.84375 42.1875-42.1875 42.1875z" fill="currentColor" ></path><path d="M237.3125 482c-23.34375 0-42.1875-18.84375-42.1875-42.1875V237.3125c0-23.34375 18.84375-42.1875 42.1875-42.1875s42.1875 18.84375 42.1875 42.1875v202.5c0 23.34375-18.84375 42.1875-42.1875 42.1875z" fill="currentColor" ></path><path d="M430.90625 473.65625c-10.78125 0-21.5625-4.125-29.8125-12.375L257.9375 318.125c-16.5-16.5-16.5-43.21875 0-59.625 16.5-16.5 43.21875-16.5 59.625 0l143.15625 143.15625c16.5 16.5 16.5 43.21875 0 59.625-8.15625 8.25-18.9375 12.375-29.8125 12.375z" fill="currentColor" ></path><path d="M786.6875 828.875H584.1875c-23.34375 0-42.1875-18.84375-42.1875-42.1875s18.84375-42.1875 42.1875-42.1875h202.5c23.34375 0 42.1875 18.84375 42.1875 42.1875s-18.84375 42.1875-42.1875 42.1875z" fill="currentColor" ></path><path d="M786.6875 828.875c-23.34375 0-42.1875-18.84375-42.1875-42.1875V584.1875c0-23.34375 18.84375-42.1875 42.1875-42.1875s42.1875 18.84375 42.1875 42.1875v202.5c0 23.34375-18.84375 42.1875-42.1875 42.1875z" fill="currentColor" ></path><path d="M736.25 777.875c-10.78125 0-21.5625-4.125-29.8125-12.375L563.1875 622.34375c-16.5-16.5-16.5-43.21875 0-59.625 16.5-16.5 43.21875-16.5 59.625 0L766.0625 705.875c16.5 16.5 16.5 43.21875 0 59.625-8.25 8.34375-19.03125 12.375-29.8125 12.375z" fill="currentColor" ></path></svg>