<svg xmlns="http://www.w3.org/2000/svg" viewBox="0 0 1024 1024"><path d="M669.35466667 492.31644445h-137.67111112V315.27822222c0-9.216-4.66488889-19.68355555-22.64177777-19.68355555-9.216 0-16.61155555 10.35377778-16.61155556 19.68355555V512c0 9.32977778 10.46755555 19.68355555 19.68355556 19.68355555H672.42666667c9.216 0 16.61155555-10.35377778 16.61155555-19.68355555 0-9.32977778-10.69511111-19.68355555-19.68355555-19.68355555z" fill="currentColor" ></path><path d="M810.32533333 98.98666667H213.67466667C150.30044445 98.98666667 98.98666667 150.30044445 98.98666667 213.67466667v596.53688888c0 63.37422222 51.31377778 114.688 114.688 114.688h596.53688888c63.37422222 0 114.688-51.31377778 114.688-114.688V213.67466667c0.11377778-63.37422222-51.2-114.688-114.57422222-114.688zM512 787.34222222c-152.12088889 0-275.34222222-123.33511111-275.34222222-275.34222222 0-152.12088889 123.22133333-275.34222222 275.34222222-275.34222222 152.00711111 0 275.34222222 123.22133333 275.34222222 275.34222222 0 152.00711111-123.33511111 275.34222222-275.34222222 275.34222222z" fill="currentColor" ></path></svg>