<svg xmlns="http://www.w3.org/2000/svg" viewBox="0 0 1024 1024"><path d="M694.840889 269.027556H329.130667c-10.951111 0-18.261333 3.697778-25.6 11.036444-7.310222 7.338667-10.951111 14.705778-10.951111 25.713778v73.472c0 22.044444 14.620444 36.750222 36.551111 36.750222 21.959111 0 36.579556-18.375111 36.579555-36.750222v-36.721778h109.710222v367.388444h-36.579555c-18.261333 0-36.551111 14.705778-36.551111 36.750223s14.620444 36.750222 36.551111 36.750222h146.289778c18.289778 0 36.579556-14.705778 36.579555-36.750222s-14.620444-36.750222-36.579555-36.750223h-36.551111V342.528h109.710222v36.721778c0 22.044444 14.620444 36.750222 36.551111 36.750222 21.959111 0 36.579556-18.375111 36.579555-36.750222V305.777778c0-11.008-3.640889-18.375111-10.951111-25.713778-7.338667-7.367111-14.648889-11.036444-25.6-11.036444" fill="currentColor" ></path><path d="M950.869333 856.888889c0 18.375111-14.648889 36.750222-36.579555 36.750222H109.710222c-21.930667 0-36.579556-18.375111-36.579555-36.750222V195.555556c0-18.375111 14.648889-36.750222 36.579555-36.750223h804.579556c21.930667 0 36.579556 18.375111 36.579555 36.750223v661.333333z m0-771.555556H73.102222A73.528889 73.528889 0 0 0 0 158.805333v734.833778A73.528889 73.528889 0 0 0 73.130667 967.111111H950.897778A73.528889 73.528889 0 0 0 1024 893.639111V158.805333A73.528889 73.528889 0 0 0 950.869333 85.333333z" fill="currentColor" ></path></svg>