<svg xmlns="http://www.w3.org/2000/svg" viewBox="0 0 1024 1024"><path d="M449.216 69.312c19.008-12.416 42.176-16 62.784-16 20.608 0 43.776 3.584 62.784 16 21.12 13.76 33.216 36.096 33.216 64 0 19.84-6.016 40.32-15.808 58.048a324.48 324.48 0 0 1 243.648 297.216l0.96 21.248c0.96 23.04 1.792 43.2 5.952 62.464 5.056 23.04 14.272 41.152 33.088 55.296 32.832 24.576 52.16 63.232 52.16 104.32 0 58.88-46.4 110.72-108.8 110.72h-150.4a160 160 0 0 1-313.6 0H204.8c-62.4 0-108.8-51.84-108.8-110.72 0-41.088 19.328-79.744 52.16-104.32 18.816-14.08 28.032-32.256 33.088-55.296 4.16-19.264 4.992-39.36 5.952-62.464l0.96-21.248A324.48 324.48 0 0 1 431.808 191.36a122.24 122.24 0 0 1-15.808-58.048c0-27.904 12.16-50.24 33.216-64z m-27.776 773.376a96 96 0 0 0 181.12 0h-181.12z m110.08-675.2a61.824 61.824 0 0 0 12.48-34.176 16 16 0 0 0-1.344-7.488 7.872 7.872 0 0 0-2.944-2.944c-4.16-2.752-12.992-5.568-27.712-5.568-14.72 0-23.552 2.816-27.712 5.568a7.872 7.872 0 0 0-2.944 2.944 16 16 0 0 0-1.344 7.488c0 9.92 4.416 23.36 12.416 34.176 8.32 11.136 15.872 13.824 19.584 13.824 3.712 0 11.264-2.688 19.584-13.824z m-279.488 324.48l-0.768 17.28c-0.896 23.808-1.984 51.328-7.488 76.608-7.296 33.536-22.848 67.136-57.216 92.928a66.368 66.368 0 0 0-26.56 53.12c0 26.24 20.352 46.72 44.8 46.72h614.4c24.448 0 44.8-20.48 44.8-46.72 0-20.928-9.856-40.576-26.56-53.12-34.368-25.792-49.92-59.392-57.216-92.928-5.504-25.28-6.592-52.8-7.552-76.672l-0.704-17.216a260.288 260.288 0 0 0-519.936 0z" fill="currentColor" ></path></svg>