<svg xmlns="http://www.w3.org/2000/svg" viewBox="0 0 1024 1024"><path d="M896 928H384a32 32 0 0 1-32-32v-128a32 32 0 0 1 64 0v96h448v-704h-448V256a32 32 0 1 1-64 0V128a32 32 0 0 1 32-32h512a32 32 0 0 1 32 32v768a32 32 0 0 1-32 32z" fill="currentColor" ></path><path d="M608 544H192a32 32 0 0 1 0-64h416a32 32 0 0 1 0 64z" fill="currentColor" ></path><path d="M256 672a30.08 30.08 0 0 1-22.4-9.6l-128-128a30.72 30.72 0 0 1 0-44.8l128-128a31.36 31.36 0 1 1 44.8 44.8L173.44 512l104.96 105.6a30.72 30.72 0 0 1 0 44.8 30.08 30.08 0 0 1-22.4 9.6z" fill="currentColor" ></path></svg>