<svg id="图层_1" data-name="图层 1" xmlns="http://www.w3.org/2000/svg" viewBox="0 0 173.72 153.52"><path d="M161.18,172.78H40a26.3,26.3,0,0,1-26.26-26.26v-101A26.3,26.3,0,0,1,40,19.26H161.18a26.3,26.3,0,0,1,26.26,26.26v101A26.3,26.3,0,0,1,161.18,172.78ZM40,31.38A14.16,14.16,0,0,0,25.83,45.52v101A14.16,14.16,0,0,0,40,160.66H161.18a14.16,14.16,0,0,0,14.14-14.14v-101a14.16,14.16,0,0,0-14.14-14.14Z" transform="translate(-13.71 -19.26)"/><path d="M157.14,77.84h-40.4a6.06,6.06,0,1,1,0-12.12h40.4a6.06,6.06,0,0,1,0,12.12Zm0,24.24h-40.4a6.06,6.06,0,1,1,0-12.12h40.4a6.06,6.06,0,0,1,0,12.12Zm0,24.24h-40.4a6.06,6.06,0,0,1,0-12.12h40.4a6.06,6.06,0,1,1,0,12.12Z" transform="translate(-13.71 -19.26)"/><path d="M68.25,110.92A24.62,24.62,0,1,1,92.87,86.3,24.64,24.64,0,0,1,68.25,110.92Zm0-37.12a12.5,12.5,0,1,0,12.5,12.5A12.51,12.51,0,0,0,68.25,73.8Z" transform="translate(-13.71 -19.26)"/><path d="M96.54,130.36a6,6,0,0,1-4.53-2,31.78,31.78,0,0,0-47.51,0,6.06,6.06,0,0,1-9-8.05,43.88,43.88,0,0,1,65.61,0,6,6,0,0,1-.5,8.55A6,6,0,0,1,96.54,130.36Z" transform="translate(-13.71 -19.26)"/></svg>