<svg id="图层_1" data-name="图层 1" xmlns="http://www.w3.org/2000/svg" viewBox="0 0 185.34 159.86"><path d="M179.93,134.66a5.47,5.47,0,0,0-5.79,5.79v25.49H21.23V53.57H174.14V77.9a5.79,5.79,0,1,0,11.58,0V54.73A12.85,12.85,0,0,0,173,42h-9.27c-3.47-12.74-15.06-23.17-29-23.17H37.45c-16.22,0-30.12,13.9-30.12,30.12v117a12.85,12.85,0,0,0,12.74,12.74H173a12.85,12.85,0,0,0,12.74-12.74V140.45C185.72,138.13,183.4,134.66,179.93,134.66ZM37.45,31.56h97.3c6.95,0,12.74,4.64,16.22,10.43H22.39A16.51,16.51,0,0,1,37.45,31.56Z" transform="translate(-7.33 -18.82)"/><path d="M170.66,88.32H139.38a22,22,0,0,0-22,22c0,12.75,9.26,22,22,22h31.28a22,22,0,0,0,22-22C192.67,97.59,183.4,88.32,170.66,88.32Zm0,31.28H139.38a9.27,9.27,0,0,1,0-18.53h31.28a9.27,9.27,0,1,1,0,18.53Z" transform="translate(-7.33 -18.82)"/><path d="M134.75,110.33a5.8,5.8,0,1,0,5.79-5.79A5.8,5.8,0,0,0,134.75,110.33Z" transform="translate(-7.33 -18.82)"/></svg>