<svg xmlns="http://www.w3.org/2000/svg" viewBox="0 0 1024 1024"><path fill="currentColor" d="M880.101 285.796h-739.365l-76.757 200.834c0 60.129 49.894 110.011 111.293 110.011s112.574-48.612 112.574-110.011c0 60.129 49.882 110.011 111.293 110.011 61.386 0 112.562-48.612 112.562-110.011 0 60.129 49.894 110.011 111.293 110.011s111.293-48.612 111.293-110.011c0 60.129 49.882 110.011 112.562 110.011 61.411 0 112.574-48.612 112.574-110.011l-79.32-200.834zM818.703 631.178v255.841h-614.007v-255.841h-63.96v268.626c0 23.031 25.582 51.176 48.602 51.176h643.443c23.032 0 48.601-28.145 48.601-51.176v-268.626h-62.679zM880.101 284.515v0zM191.899 234.632h639.6c21.751 0 38.378-16.639 38.378-38.378s-16.627-38.378-38.378-38.378h-639.6c-21.751 0-38.378 16.639-38.378 38.378s16.627 38.378 38.378 38.378z"  ></path></svg>