<svg xmlns="http://www.w3.org/2000/svg" viewBox="0 0 1024 1024"><path d="M919.552 451.697778h-149.418667c-24.917333 0-47.559111 19.740444-47.559111 46.08 0 13.169778 4.551111 24.149333 13.596445 32.910222 9.045333 8.789333 20.366222 13.169778 33.962666 13.169778h149.418667c24.917333 0 47.559111-19.740444 47.559111-46.08 0-24.149333-22.641778-46.08-47.559111-46.08M104.448 881.777778h815.104c24.917333 0 47.559111-19.740444 47.559111-46.08 0-26.339556-20.366222-46.08-47.559111-46.08H104.448c-24.917333 0-47.559111 19.740444-47.559111 46.08 0 26.339556 22.641778 46.08 47.559111 46.08M919.552 113.777778H104.448C79.530667 113.777778 56.888889 133.518222 56.888889 159.857778c0 24.149333 20.366222 46.08 47.559111 46.08h815.104c24.917333 0 47.559111-19.740444 47.559111-46.08 0-13.169778-4.551111-24.149333-13.596444-32.910222-9.045333-8.789333-20.366222-13.169778-33.962667-13.169778M104.448 543.857778h149.418667c24.917333 0 47.559111-19.740444 47.559111-46.08 0-24.149333-20.366222-46.08-47.559111-46.08H104.448C79.530667 451.697778 56.888889 471.438222 56.888889 497.777778c0 13.169778 4.551111 24.149333 13.596444 32.910222 9.045333 8.789333 20.366222 13.169778 33.962667 13.169778m482.275556-92.16h-149.447112c-24.888889 0-47.559111 19.740444-47.559111 46.08 0 13.169778 4.551111 24.149333 13.596445 32.910222 9.073778 8.789333 20.394667 13.169778 33.962666 13.169778h149.447112c24.888889 0 47.559111-19.740444 47.559111-46.08 0-24.149333-22.670222-46.08-47.559111-46.08" fill="currentColor" ></path></svg>