<svg xmlns="http://www.w3.org/2000/svg" viewBox="0 0 1024 1024"><path d="M866.645333 28.444444H753.777778c-22.584889 0-40.334222 17.749333-40.334222 40.334223 0 22.584889 17.749333 40.334222 40.334222 40.334222h112.867555c26.595556 0 48.355556 21.76 48.355556 48.355555v112.725334c0 22.556444 17.777778 40.334222 40.334222 40.334222 22.584889 0 40.220444-17.777778 40.220445-40.334222V157.297778A129.223111 129.223111 0 0 0 866.645333 28.444444m88.576 362.609778c-22.584889 0-40.362667 17.777778-40.362666 40.334222v161.223112c0 22.556444 17.777778 40.334222 40.362666 40.334222 22.556444 0 40.334222-17.777778 40.334223-40.334222v-161.223112c0-22.556444-17.777778-40.334222-40.334223-40.334222m0 322.275556c-22.584889 0-40.362667 17.777778-40.362666 40.334222v112.867556c0 26.595556-21.76 48.355556-48.355556 48.355555H753.777778c-22.584889 0-40.334222 17.749333-40.334222 40.334222 0 22.584889 17.749333 40.192 40.334222 40.192h112.867555A129.223111 129.223111 0 0 0 995.555556 866.531556v-112.867556c0-22.556444-17.777778-40.334222-40.334223-40.334222m-362.666666 201.557333h-161.109334c-22.556444 0-40.334222 17.749333-40.334222 40.334222 0 22.584889 17.777778 40.334222 40.334222 40.334223h161.223111c22.584889 0 40.362667-17.749333 40.362667-40.334223 0-22.584889-17.92-40.334222-40.476444-40.334222m-322.332445 0H157.354667c-26.595556 0-48.355556-21.76-48.355556-48.355555v-112.867556c0-22.556444-17.777778-40.334222-40.362667-40.334222-22.556444 0-40.192 17.777778-40.192 40.334222v112.867556a129.223111 129.223111 0 0 0 128.910223 128.881777H270.222222c22.584889 0 40.334222-17.749333 40.334222-40.334222 0-22.556444-17.749333-40.192-40.334222-40.192m-201.443555-282.083555c22.584889 0 40.334222-17.749333 40.334222-40.334223v-161.080889c0-22.556444-17.749333-40.334222-40.334222-40.334222-22.556444 0-40.334222 17.777778-40.334223 40.334222v161.223112c0 22.442667 17.777778 40.192 40.334223 40.192M270.222222 28.444444H157.354667A129.308444 129.308444 0 0 0 28.444444 157.326222V270.222222c0 22.556444 17.777778 40.334222 40.334223 40.334222 22.584889 0 40.334222-17.777778 40.334222-40.334222V157.297778c0-26.567111 21.788444-48.355556 48.355555-48.355556H270.222222c22.584889 0 40.334222-17.749333 40.334222-40.334222C310.556444 46.08 292.807111 28.444444 270.222222 28.444444m322.332445 0h-161.109334c-22.556444 0-40.334222 17.749333-40.334222 40.334223 0 22.584889 17.777778 40.334222 40.334222 40.334222h161.223111c22.584889 0 40.362667-17.749333 40.362667-40.334222 0-22.584889-17.92-40.334222-40.476444-40.334223" fill="currentColor" ></path></svg>