<svg xmlns="http://www.w3.org/2000/svg" viewBox="0 0 1024 1024"><path d="M929.87392 374.6816c13.5168 9.97376 16.22016 28.7744 6.0416 41.984-27.8528 36.1472-65.59744 68.77184-110.20288 96.11264l62.8736 87.8592c8.99072 12.53376 6.84032 29.696-4.5056 39.69024l-2.64192 2.06848-0.53248 0.38912a30.72 30.72 0 0 1-42.35264-7.4752l-66.9696-93.55264a607.06816 607.06816 0 0 1-108.7488 38.33856l26.97216 98.38592a30.28992 30.28992 0 0 1-18.432 36.29056l-3.33824 1.06496a30.72 30.72 0 0 1-37.41696-21.6064l-27.9552-102.15424a619.08992 619.08992 0 0 1-91.07456 6.79936c-30.72 0-61.19424-2.3552-91.0336-6.79936l-27.99616 102.15424a30.72 30.72 0 0 1-34.52928 22.20032l-3.11296-0.65536a30.28992 30.28992 0 0 1-22.2208-34.11968l0.69632-3.1744 26.95168-98.38592a606.90432 606.90432 0 0 1-108.7488-38.33856l-66.9696 93.55264a30.72 30.72 0 0 1-39.69024 9.09312l-2.92864-1.82272a29.81888 29.81888 0 0 1-9.35936-38.85056l1.9456-3.11296 62.89408-87.8592c-44.11392-27.0336-81.55136-59.24864-109.30176-94.9248a29.55264 29.55264 0 0 1 5.8368-42.02496 31.1296 31.1296 0 0 1 42.96704 5.69344c70.20544 90.23488 219.0336 157.3888 374.59968 157.3888 156.18048 0 305.54112-67.6864 375.33696-158.3104a31.1296 31.1296 0 0 1 42.94656-5.89824z" fill="currentColor" ></path></svg>