<svg xmlns="http://www.w3.org/2000/svg" viewBox="0 0 1024 1024"><path d="M512 204.8c242.93376 0 471.04 153.88672 471.04 307.2S754.93376 819.2 512 819.2 40.96 665.31328 40.96 512s228.10624-307.2 471.04-307.2z m0 61.44C299.04896 266.24 102.4 398.90944 102.4 512s196.64896 245.76 409.6 245.76 409.6-132.66944 409.6-245.76-196.64896-245.76-409.6-245.76z m0 71.68a174.08 174.08 0 1 1 0 348.16 174.08 174.08 0 0 1 0-348.16z m0 61.44a112.64 112.64 0 1 0 0 225.28 112.64 112.64 0 0 0 0-225.28z" fill="currentColor" ></path></svg>