<svg xmlns="http://www.w3.org/2000/svg" viewBox="0 0 1024 1024"><path fill="currentColor" d="M238.016 179.008C227.776 168.832 220.16 157.312 215.04 144.64c-5.12-12.736-7.616-25.856-7.616-39.296 0-13.44 2.56-26.752 7.616-39.808 5.12-13.12 12.736-24.768 22.912-34.944C258.368 10.176 282.752 0 311.104 0c28.352 0 52.736 10.176 73.152 30.528l404.928 408.192c10.176 8.704 17.472 19.84 21.824 33.28 4.352 13.44 6.208 27.456 5.44 42.048-0.704 14.528-4.032 28.928-9.792 43.136-5.824 14.208-13.824 26.368-24 36.544l-398.336 401.664c-20.352 21.12-44.736 31.68-73.152 31.68-28.352 0-52.736-10.56-73.088-31.68-10.176-10.176-17.856-21.632-22.912-34.368-5.12-12.736-7.616-25.856-7.616-39.296 0-13.44 2.56-26.752 7.616-39.872 5.12-13.12 12.736-24.768 22.912-34.944l329.6-333.952L238.016 179.008 238.016 179.008zM238.016 179.008"  ></path></svg>