<svg xmlns="http://www.w3.org/2000/svg" viewBox="0 0 1119 1024"><path fill="currentColor" d="M414.86086 410.476462h670.493581c5.843081 0 11.686163-5.843081 11.686162-11.686162v-81.803139c0-5.843081-4.382311-11.686163-11.686162-11.686162H414.86086c-5.843081 0-11.686163 5.843081-11.686163 11.686162v81.803139c0 5.843081 4.382311 11.686163 11.686163 11.686162z m-11.686163 296.536377c0 5.843081 4.382311 11.686163 11.686163 11.686162h670.493581c5.843081 0 11.686163-5.843081 11.686162-11.686162v-81.803139c0-5.843081-4.382311-11.686163-11.686162-11.686162H414.86086c-5.843081 0-11.686163 5.843081-11.686163 11.686162v81.803139zM1105.805225 0H11.688249C5.845168 0 0.002087 5.843081 0.002087 11.686163v81.803138c0 5.843081 4.382311 11.686163 11.686162 11.686163h1094.116976c5.843081 0 11.686163-5.843081 11.686163-11.686163V11.686163c0-5.843081-4.382311-11.686163-11.686163-11.686163z m0 918.824536H11.688249c-5.843081 0-11.686163 5.843081-11.686162 11.686163v81.803138c0 5.843081 4.382311 11.686163 11.686162 11.686163h1094.116976c5.843081 0 11.686163-5.843081 11.686163-11.686163v-81.803138c0-5.843081-4.382311-11.686163-11.686163-11.686163zM42.364426 701.169757l217.654779-179.67475a13.146933 13.146933 0 0 0 4.382311-10.225392 13.146933 13.146933 0 0 0-4.382311-10.225392L42.364426 321.369472c-8.764622-7.303852-20.450785 0-20.450784 10.225392v357.888731c0 10.225392 11.686163 17.529244 20.450784 10.225392z"  ></path></svg>