<svg viewBox="0 0 1024 1024" xmlns="http://www.w3.org/2000/svg">
  <path d="M938.667 426.667h-85.334V341.333c0-46.933-38.4-85.333-85.333-85.333h-512c-46.933 0-85.333 38.4-85.333 85.333v341.334c0 46.933 38.4 85.333 85.333 85.333h512c46.933 0 85.333-38.4 85.333-85.333v-85.334h85.334c23.466 0 42.666-19.2 42.666-42.666v-85.333c0-23.467-19.2-42.667-42.666-42.667z m-170.667 256c0 23.467-19.2 42.667-42.667 42.667h-512c-23.466 0-42.666-19.2-42.666-42.667V341.333c0-23.466 19.2-42.666 42.666-42.666h512c23.467 0 42.667 19.2 42.667 42.666v341.334z m128-170.667h-85.333v85.333h85.333V512zM298.667 384h384v42.667h-384V384z m0 128h298.666v42.667H298.667V512z m0 128h213.333v42.667H298.667v-42.667z" fill="currentColor"/>
</svg>

