<svg xmlns="http://www.w3.org/2000/svg" xmlns:xlink="http://www.w3.org/1999/xlink" viewBox="0 0 601 600"><defs><style>.cls-1{fill:url(#未命名的渐变_14);}.cls-2{opacity:0.08;}.cls-3{fill:url(#未命名的渐变_148);}.cls-4{fill:url(#未命名的渐变_9);}.cls-5{fill:url(#未命名的渐变_105);}.cls-6{opacity:0.15;}.cls-7{fill:url(#未命名的渐变_28);}.cls-8{fill:url(#未命名的渐变_26);}.cls-9{fill:url(#未命名的渐变_23);}.cls-10{fill:url(#未命名的渐变_6);}.cls-11{fill:url(#未命名的渐变_4);}.cls-12{fill:url(#未命名的渐变_62);}.cls-13{fill:url(#未命名的渐变_77);}.cls-14{fill:url(#未命名的渐变_95);}.cls-15{fill:url(#未命名的渐变_122);}</style><linearGradient id="未命名的渐变_14" x1="518.97" y1="191.74" x2="334.97" y2="524.74" gradientUnits="userSpaceOnUse"><stop offset="0" stop-color="#754aff"/><stop offset="1" stop-color="#2143ff"/></linearGradient><linearGradient id="未命名的渐变_148" x1="374.76" y1="110.96" x2="472.76" y2="114.96" gradientUnits="userSpaceOnUse"><stop offset="0" stop-color="#707eff"/><stop offset="1" stop-color="#663dff"/></linearGradient><linearGradient id="未命名的渐变_9" x1="320.56" y1="473.13" x2="484.56" y2="212.13" gradientUnits="userSpaceOnUse"><stop offset="0" stop-color="#425dff"/><stop offset="1" stop-color="#6f4aff"/></linearGradient><linearGradient id="未命名的渐变_105" x1="747.97" y1="191.74" x2="563.97" y2="524.74" gradientTransform="translate(830 600.18) rotate(180)" gradientUnits="userSpaceOnUse"><stop offset="0" stop-color="#78d9ff"/><stop offset="1" stop-color="#87e0ff"/></linearGradient><linearGradient id="未命名的渐变_28" x1="603.76" y1="110.96" x2="701.76" y2="114.96" gradientTransform="translate(830 600.18) rotate(180)" gradientUnits="userSpaceOnUse"><stop offset="0" stop-color="#8fdeff"/><stop offset="1" stop-color="#56acfd"/></linearGradient><linearGradient id="未命名的渐变_26" x1="549.56" y1="473.13" x2="713.56" y2="212.13" gradientTransform="translate(830 600.18) rotate(180)" gradientUnits="userSpaceOnUse"><stop offset="0" stop-color="#97e9ff"/><stop offset="1" stop-color="#4ee0ff"/></linearGradient><linearGradient id="未命名的渐变_23" x1="752.97" y1="-1546.76" x2="568.97" y2="-1213.76" gradientTransform="translate(835 -1138.32) rotate(180)" gradientUnits="userSpaceOnUse"><stop offset="0" stop-color="#43d1fa"/><stop offset="1" stop-color="#2b7cfd"/></linearGradient><linearGradient id="未命名的渐变_6" x1="608.76" y1="-1627.54" x2="706.76" y2="-1623.54" gradientTransform="translate(835 -1138.32) rotate(180)" gradientUnits="userSpaceOnUse"><stop offset="0" stop-color="#4ca1fd"/><stop offset="1" stop-color="#2b7cfd"/></linearGradient><linearGradient id="未命名的渐变_4" x1="554.56" y1="-1265.37" x2="718.56" y2="-1526.37" gradientTransform="translate(835 -1138.32) rotate(180)" gradientUnits="userSpaceOnUse"><stop offset="0" stop-color="#2c9afb"/><stop offset="1" stop-color="#3fb9ff"/></linearGradient><radialGradient id="未命名的渐变_62" cx="300.5" cy="300" r="300" gradientUnits="userSpaceOnUse"><stop offset="0.85" stop-color="#8fdeff" stop-opacity="0"/><stop offset="1" stop-color="#bff9f9"/></radialGradient><radialGradient id="未命名的渐变_77" cx="407.65" cy="479.15" r="530.01" gradientUnits="userSpaceOnUse"><stop offset="0.78" stop-color="#f7fdff" stop-opacity="0"/><stop offset="1" stop-color="#f9f9f9"/></radialGradient><radialGradient id="未命名的渐变_95" cx="463.65" cy="529.43" r="592.05" gradientUnits="userSpaceOnUse"><stop offset="0.85" stop-color="#d2e3fb" stop-opacity="0"/><stop offset="0.87" stop-color="#d6e6fb" stop-opacity="0.19"/><stop offset="0.88" stop-color="#dae8fb" stop-opacity="0.38"/><stop offset="0.9" stop-color="#ddeafb" stop-opacity="0.53"/><stop offset="0.92" stop-color="#dfecfb" stop-opacity="0.65"/><stop offset="0.93" stop-color="#e1edfb" stop-opacity="0.73"/><stop offset="0.95" stop-color="#e2eefb" stop-opacity="0.78"/><stop offset="0.96" stop-color="#e2eefb" stop-opacity="0.8"/><stop offset="1" stop-color="#e0edfb" stop-opacity="0.99"/></radialGradient><radialGradient id="未命名的渐变_122" cx="463.65" cy="206.21" r="592.05" gradientTransform="matrix(1, 0, 0, -1, 0, 276.54)" gradientUnits="userSpaceOnUse"><stop offset="0.88" stop-color="#d2e3fb" stop-opacity="0"/><stop offset="0.89" stop-color="#d4e2fb" stop-opacity="0.17"/><stop offset="0.91" stop-color="#d5e0fb" stop-opacity="0.39"/><stop offset="0.92" stop-color="#d7defb" stop-opacity="0.58"/><stop offset="0.94" stop-color="#d9ddfb" stop-opacity="0.73"/><stop offset="0.95" stop-color="#dadcfb" stop-opacity="0.85"/><stop offset="0.97" stop-color="#dadcfb" stop-opacity="0.93"/><stop offset="0.98" stop-color="#dbdbfb" stop-opacity="0.98"/><stop offset="1" stop-color="#dbdbfb"/><stop offset="1" stop-color="#e0edfb" stop-opacity="0.99"/></radialGradient></defs><g id="图层_2" data-name="图层 2"><g id="图层_2_图像" data-name="图层 2 图像"><path class="cls-1" d="M564.05,288.3a251,251,0,0,0-16.51-79,260.17,260.17,0,0,0-34.4-62.66c-12.37-16.71-26.87-31.38-42.4-45.13a201.21,201.21,0,0,0-21.68-16.78,77.2,77.2,0,0,1,18.47,83.87l-1.79-1.7c.73.78.44,3-.06,4.34-4.65,12.21-11.74,23-20,33a294.29,294.29,0,0,1-23.22,25.17c-18,17.1-38.15,31.48-58.9,45.12-12,7.89-23.44,16.73-34.65,25.75-14.75,11.87-26,26.9-35.92,42.86-11.75,18.89-19.31,39.45-24,61.17-3.42,15.7-3.73,31.6-2.72,47.38,1.53,23.88,8.41,46.35,23.86,65.15,11.22,13.66,26.39,21.27,43.68,24.7,2.79.56,5.53,1.32,8.3,2h31c6.48-1.33,13-2.51,19.43-4,25.38-5.94,49.2-15.68,70.08-31.4,14.52-10.92,28.13-23.09,39.11-37.72q13.94-18.6,26.85-38c3.34-5,15.69-30.45,18.57-37.9a258.61,258.61,0,0,0,14.27-53.72A268.32,268.32,0,0,0,564.05,288.3Z"/><path class="cls-3" d="M465.74,166.89c-6.72-7.23-13.08-15-20.71-21.15-15.55-12.54-34-20.28-51.86-28.82q-19.69-9.4-38.93-19.73c-1-.53-1.94-1.08-2.88-1.67-.43-.27-.86-.54-1.27-.82s-.89-.6-1.32-.92l-1.19-.89-.16-.13c-.4-.3-.78-.62-1.16-.94s-.8-.68-1.19-1A33.63,33.63,0,0,1,342.29,88c-.36-.4-.7-.8-1-1.22-.12-.14-.23-.29-.34-.43l-.09-.11-.51-.67a.76.76,0,0,0-.08-.11c-.23-.32-.46-.64-.68-1a33.2,33.2,0,0,1-3-5.33c-5-11.14-.44-20.31,11.66-21.76,8.4-1,17-.7,25.52-.2a123.23,123.23,0,0,1,32.9,6.9c6.63,2.28,13.13,5,19.56,7.91a162.41,162.41,0,0,1,22.83,12.75,77.2,77.2,0,0,1,18.48,83.88"/><path class="cls-4" d="M521.69,263.15a255.62,255.62,0,0,1-75,181l0,0q-4.05,4-8.27,7.9-8.91,8.14-18.57,15.44a173.07,173.07,0,0,1-143.49,27.18c-.59-1.31-1.16-2.62-1.69-4-.16-.39-.32-.79-.47-1.19s-.39-1-.57-1.5c-.5-1.32-1-2.66-1.41-4l-.66-2.06v0q-.32-1-.6-2c0-.06,0-.12-.05-.18-.19-.67-.37-1.33-.55-2-.38-1.41-.72-2.82-1-4.24-.48-2.14-.92-4.29-1.29-6.46-.13-.73-.25-1.45-.36-2.18-.27-1.68-.5-3.38-.7-5.08-.12-1-.23-2-.33-3a1.94,1.94,0,0,1,0-.24l-.15-1.59a.34.34,0,0,1,0-.1c-.05-.53-.09-1.06-.13-1.59s-.08-1.1-.12-1.65c-1-15.78-.7-31.68,2.72-47.38,4.74-21.72,12.3-42.28,24-61.17,9.93-16,21.17-31,35.92-42.86,11.21-9,22.64-17.86,34.65-25.75,20.75-13.64,40.89-28,58.9-45.12a282,282,0,0,0,20.7-22.17l2.52-3A126.88,126.88,0,0,0,461.34,181a77.14,77.14,0,0,0-12.29-96.24l.55.36h0A255.16,255.16,0,0,1,521.69,263.15Z"/><path class="cls-5" d="M37,311.89a250.92,250.92,0,0,0,16.51,79,260.17,260.17,0,0,0,34.4,62.66c12.37,16.71,26.87,31.38,42.4,45.13a201.21,201.21,0,0,0,21.68,16.78,77.18,77.18,0,0,1-18.47-83.86l1.79,1.69c-.72-.78-.44-3,.06-4.34,4.65-12.21,11.74-23,20-33a294,294,0,0,1,23.21-25.17c18-17.09,38.15-31.48,58.9-45.11,12-7.9,23.44-16.74,34.65-25.76,14.75-11.86,26-26.89,35.92-42.85,11.75-18.89,19.32-39.45,24-61.18,3.42-15.7,3.73-31.6,2.72-47.38-1.53-23.88-8.41-46.35-23.86-65.15-11.22-13.66-26.39-21.26-43.68-24.7-2.79-.55-5.53-1.32-8.3-2H228c-6.48,1.33-13,2.51-19.43,4-25.38,6-49.2,15.69-70.08,31.4-14.52,10.92-28.13,23.09-39.11,37.73q-13.94,18.59-26.85,38c-3.34,5-15.69,30.45-18.57,37.9a258.78,258.78,0,0,0-14.27,53.72A268.38,268.38,0,0,0,37,311.89Z"/><path class="cls-7" d="M135.26,433.29c6.72,7.23,13.08,15,20.71,21.15,15.55,12.54,34,20.28,51.86,28.82q19.69,9.4,38.93,19.73c1,.53,1.94,1.08,2.88,1.67.43.27.86.54,1.27.82s.89.6,1.32.92l1.19.89.16.13c.4.3.78.62,1.16.94s.8.68,1.19,1.05a33.63,33.63,0,0,1,2.78,2.82c.36.4.7.8,1,1.22.12.14.23.29.34.43l.09.11.51.67a.76.76,0,0,0,.08.11c.23.32.46.64.68,1a33.2,33.2,0,0,1,3,5.33c5,11.14.44,20.31-11.66,21.76-8.4,1-17,.7-25.52.2a123.23,123.23,0,0,1-32.9-6.9c-6.63-2.28-13.13-5-19.56-7.91A162.41,162.41,0,0,1,152,515.47a77.19,77.19,0,0,1-18.48-83.87"/><path class="cls-8" d="M79.31,337a255.62,255.62,0,0,1,75-181s0,0,0,0q4-4,8.27-7.9,8.91-8.15,18.57-15.44a173.07,173.07,0,0,1,143.49-27.18c.59,1.31,1.16,2.62,1.69,4,.16.39.32.79.47,1.19s.39,1,.57,1.5c.5,1.32,1,2.66,1.41,4l.66,2.06v0q.32,1,.6,2c0,.06,0,.12.05.18.19.67.37,1.33.55,2,.38,1.41.72,2.82,1,4.24.48,2.14.92,4.29,1.29,6.46.13.73.25,1.45.36,2.18.27,1.68.5,3.38.7,5.08.12,1,.23,2,.33,3a1.94,1.94,0,0,1,0,.24l.15,1.59a.34.34,0,0,1,0,.1c.05.53.09,1.06.13,1.59s.08,1.1.12,1.65c1,15.78.7,31.68-2.72,47.38-4.74,21.72-12.3,42.28-24,61.17-9.93,16-21.17,31-35.92,42.86-11.21,9-22.64,17.86-34.65,25.75-20.75,13.64-40.89,28-58.9,45.12A282,282,0,0,0,157.87,393l-2.52,3a126.88,126.88,0,0,0-15.69,23.26A77.14,77.14,0,0,0,152,515.47l-.55-.36h0A255.16,255.16,0,0,1,79.31,337Z"/><path class="cls-9" d="M37,311.89a250.92,250.92,0,0,0,16.51,79,260.17,260.17,0,0,0,34.4,62.66c12.37,16.71,26.87,31.38,42.4,45.13a201.21,201.21,0,0,0,21.68,16.78,77.18,77.18,0,0,1-18.47-83.86l1.79,1.69c-.72-.78-.44-3,.06-4.34,4.65-12.21,11.74-23,20-33a294,294,0,0,1,23.21-25.17c18-17.09,38.15-31.48,58.9-45.11,12-7.9,23.44-16.74,34.65-25.76,14.75-11.86,26-26.89,35.92-42.85,11.75-18.89,19.32-39.45,24-61.18,3.42-15.7,3.73-31.6,2.72-47.38-1.53-23.88-8.41-46.35-23.86-65.15-11.22-13.66-26.39-21.26-43.68-24.7-2.79-.55-5.53-1.32-8.3-2H228c-6.48,1.33-13,2.51-19.43,4-25.38,6-49.2,15.69-70.08,31.4-14.52,10.92-28.13,23.09-39.11,37.73q-13.94,18.59-26.85,38c-3.34,5-15.69,30.45-18.57,37.9a258.78,258.78,0,0,0-14.27,53.72A268.38,268.38,0,0,0,37,311.89Z"/><path class="cls-10" d="M135.26,433.29c6.72,7.23,13.08,15,20.71,21.15,15.55,12.54,34,20.28,51.86,28.82q19.69,9.4,38.93,19.73c1,.53,1.94,1.08,2.88,1.67.43.27.86.54,1.27.82s.89.6,1.32.92l1.19.89.16.13c.4.3.78.62,1.16.94s.8.68,1.19,1.05a33.63,33.63,0,0,1,2.78,2.82c.36.4.7.8,1,1.22.12.14.23.29.34.43l.09.11.51.67a.76.76,0,0,0,.08.11c.23.32.46.64.68,1a33.2,33.2,0,0,1,3,5.33c5,11.14.44,20.31-11.66,21.76-8.4,1-17,.7-25.52.2a123.23,123.23,0,0,1-32.9-6.9c-6.63-2.28-13.13-5-19.56-7.91A162.41,162.41,0,0,1,152,515.47a77.19,77.19,0,0,1-18.48-83.87"/><path class="cls-11" d="M79.31,337a255.62,255.62,0,0,1,75-181s0,0,0,0q4-4,8.27-7.9,8.91-8.15,18.57-15.44a173.07,173.07,0,0,1,143.49-27.18c.59,1.31,1.16,2.62,1.69,4,.16.39.32.79.47,1.19s.39,1,.57,1.5c.5,1.32,1,2.66,1.41,4l.66,2.06v0q.32,1,.6,2c0,.06,0,.12.05.18.19.67.37,1.33.55,2,.38,1.41.72,2.82,1,4.24.48,2.14.92,4.29,1.29,6.46.13.73.25,1.45.36,2.18.27,1.68.5,3.38.7,5.08.12,1,.23,2,.33,3a1.94,1.94,0,0,1,0,.24l.15,1.59a.34.34,0,0,1,0,.1c.05.53.09,1.06.13,1.59s.08,1.1.12,1.65c1,15.78.7,31.68-2.72,47.38-4.74,21.72-12.3,42.28-24,61.17-9.93,16-21.17,31-35.92,42.86-11.21,9-22.64,17.86-34.65,25.75-20.75,13.64-40.89,28-58.9,45.12A282,282,0,0,0,157.87,393l-2.52,3a126.88,126.88,0,0,0-15.69,23.26A77.14,77.14,0,0,0,152,515.47l-.55-.36h0A255.16,255.16,0,0,1,79.31,337Z"/></g></g></svg>