<?xml version="1.0" standalone="no"?><!DOCTYPE svg PUBLIC "-//W3C//DTD SVG 1.1//EN" "http://www.w3.org/Graphics/SVG/1.1/DTD/svg11.dtd"><svg t="1767505422296" class="icon" viewBox="0 0 1024 1024" version="1.1" xmlns="http://www.w3.org/2000/svg" p-id="17147" xmlns:xlink="http://www.w3.org/1999/xlink" width="64" height="64"><path d="M927.432348 178.086957A96.567652 96.567652 0 0 1 1024 274.654609v108.633043a24.130783 24.130783 0 0 1-13.267478 21.726609h-0.489739a123.325217 123.325217 0 0 0 0 222.074435c8.192 4.140522 13.356522 12.55513 13.267478 21.726608v108.633044a96.567652 96.567652 0 0 1-96.567652 96.567652H96.612174A96.567652 96.567652 0 0 1 0 757.403826V653.133913c0-9.883826 6.010435-18.788174 15.226435-22.438956a123.814957 123.814957 0 0 0 0-229.286957A24.175304 24.175304 0 0 1 0 378.88V274.69913A96.567652 96.567652 0 0 1 96.567652 178.086957zM376.965565 312.453565l-3.561739 3.383652a37.487304 37.487304 0 0 0-2.448696 47.994435l46.747827 56.542609H371.756522a37.487304 37.487304 0 0 0-37.487305 37.531826l0.267131 4.719304a37.487304 37.487304 0 0 0 37.220174 32.768h103.201391v42.295652H371.756522a37.487304 37.487304 0 0 0-37.487305 37.531827l0.267131 4.719304a37.487304 37.487304 0 0 0 37.220174 32.768h103.201391v81.029565c0 20.702609 16.829217 37.487304 37.531826 37.487304l4.674783-0.26713a37.487304 37.487304 0 0 0 32.812521-37.220174v-80.094609l102.266435 0.044522a37.487304 37.487304 0 0 0 37.487305-37.487304l-0.267131-4.719305a37.487304 37.487304 0 0 0-37.220174-32.768l-102.266435-0.044521v-42.340174h102.043827a37.487304 37.487304 0 0 0 37.487304-37.442783l-0.311652-4.719304a37.487304 37.487304 0 0 0-37.175652-32.768l-43.898435-0.044522 45.189565-54.093913a37.487304 37.487304 0 0 0-22.038261-62.419478l-5.164522-0.445218a37.487304 37.487304 0 0 0-27.469913 11.575653l-85.659826 102.221913-83.122087-100.841739-3.428174-3.56174a37.487304 37.487304 0 0 0-49.463652-1.335652z" fill="currentColor" p-id="17148"></path></svg>