<?xml version="1.0" standalone="no"?><!DOCTYPE svg PUBLIC "-//W3C//DTD SVG 1.1//EN" "http://www.w3.org/Graphics/SVG/1.1/DTD/svg11.dtd"><svg t="1762244875244" class="icon" viewBox="321 322 606 606" version="1.1" xmlns="http://www.w3.org/2000/svg" p-id="3826" xmlns:xlink="http://www.w3.org/1999/xlink" width="200" height="200"><path class="check-background" d="M321.8 928.6H928V322.3z" p-id="3827"></path><path class="check-icon" d="M685.5 844.2l-80.9-80.9c-7.4-7.4-7.4-19.5 0-27 7.4-7.4 19.5-7.4 27 0l80.9 80.9c7.4 7.4 7.4 19.5 0 27-7.5 7.4-19.7 7.4-27 0z" fill="currentColor" p-id="3828"></path><path class="check-icon" d="M874.2 682.5L712.4 844.2c-7.4 7.4-19.5 7.4-27 0-7.4-7.4-7.4-19.5 0-27l161.7-161.7c7.4-7.4 19.5-7.4 27 0 7.5 7.5 7.5 19.5 0.1 27z" fill="currentColor" p-id="3829"></path></svg>