<?xml version="1.0" standalone="no"?><!DOCTYPE svg PUBLIC "-//W3C//DTD SVG 1.1//EN" "http://www.w3.org/Graphics/SVG/1.1/DTD/svg11.dtd"><svg t="1767505324377" class="icon" viewBox="0 0 1024 1024" version="1.1" xmlns="http://www.w3.org/2000/svg" p-id="13695" id="mx_n_1767505324378" width="64" height="64" xmlns:xlink="http://www.w3.org/1999/xlink"><path d="M387.2 192c19.2 0 32 12.8 32 32s-12.8 32-32 32H278.4c-9.6 0-22.4 12.8-22.4 32v448c0 19.2 12.8 32 22.4 32h108.8c19.2 0 32 12.8 32 32s-12.8 32-32 32H278.4C230.4 832 192 787.2 192 736V288c0-51.2 38.4-96 86.4-96h108.8z m272 137.6l163.2 160c9.6 9.6 12.8 19.2 9.6 32v9.6c0 19.2-12.8 32-32 32h-3.2l-137.6 134.4c-12.8 12.8-32 12.8-44.8 0-12.8-12.8-12.8-32 0-44.8l92.8-89.6h-316.8c-19.2 0-32-12.8-32-32s12.8-32 32-32h348.8l-124.8-121.6c-12.8-12.8-12.8-28.8-3.2-41.6l3.2-3.2c9.6-16 32-16 44.8-3.2z" p-id="13696"></path></svg>