<?xml version="1.0" standalone="no"?><!DOCTYPE svg PUBLIC "-//W3C//DTD SVG 1.1//EN" "http://www.w3.org/Graphics/SVG/1.1/DTD/svg11.dtd"><svg t="1767505401941" class="icon" viewBox="0 0 1024 1024" version="1.1" xmlns="http://www.w3.org/2000/svg" p-id="15691" xmlns:xlink="http://www.w3.org/1999/xlink" width="64" height="64"><path d="M718.848 137.216v46.592c0 49.664-38.912 90.624-88.576 93.184H393.216c-49.664 0-90.624-38.912-93.184-88.576v-51.2h-46.592c-51.2 0-93.184 41.472-93.184 93.184v605.184c0 51.2 41.472 93.184 93.184 93.184h512c51.2 0 93.184-41.472 93.184-93.184V230.4c0-51.2-41.472-93.184-93.184-93.184h-46.592zM288.256 532.48h442.368c19.456 0 34.816 15.872 34.816 34.816 0 19.456-15.872 34.816-34.816 34.816H288.256c-19.456 0-34.816-15.872-34.816-34.816 0-18.944 15.872-34.816 34.816-34.816z m0-139.264h209.408c19.456 0 34.816 15.872 34.816 34.816 0 19.456-15.872 34.816-34.816 34.816H288.256c-19.456 0-34.816-15.872-34.816-34.816 0-19.456 15.872-34.816 34.816-34.816zM404.48 90.624c-30.72 0-55.808 23.552-57.856 54.272v26.624c0 30.72 23.552 55.808 54.272 57.856H614.4c30.72 0 55.808-23.552 57.856-54.272V148.48c0-30.72-23.552-55.808-54.272-57.856H404.48z" p-id="15692"></path></svg>