<?xml version="1.0" standalone="no"?><!DOCTYPE svg PUBLIC "-//W3C//DTD SVG 1.1//EN" "http://www.w3.org/Graphics/SVG/1.1/DTD/svg11.dtd"><svg t="1767505397455" class="icon" viewBox="0 0 1024 1024" version="1.1" xmlns="http://www.w3.org/2000/svg" p-id="15396" xmlns:xlink="http://www.w3.org/1999/xlink" width="64" height="64"><path d="M287 70.18181826h450A155.45454521 155.45454521 0 0 1 892.45454521 225.63636348v572.72727304a155.45454521 155.45454521 0 0 1-155.45454521 155.45454522H287A155.45454521 155.45454521 0 0 1 131.54545479 798.36363652V225.63636348A155.45454521 155.45454521 0 0 1 287 70.18181826z m0 65.45454522A90 90 0 0 0 197 225.63636348v572.72727304A90 90 0 0 0 287 888.36363653h450a90 90 0 0 0 90-90V225.63636348A90 90 0 0 0 737 135.63636347H287z" p-id="15397"></path><path d="M327.90909131 401.54545479h368.18181738a32.72727305 32.72727305 0 1 0 0-65.4545461H327.90909131a32.72727305 32.72727305 0 1 0 0 65.4545461zM327.90909131 606.09090869h204.5454539a32.72727305 32.72727305 0 1 0 0-65.45454521H327.90909131a32.72727305 32.72727305 0 1 0 0 65.45454521z" p-id="15398"></path></svg>