<?xml version="1.0" standalone="no"?><!DOCTYPE svg PUBLIC "-//W3C//DTD SVG 1.1//EN" "http://www.w3.org/Graphics/SVG/1.1/DTD/svg11.dtd"><svg t="1767505408435" class="icon" viewBox="0 0 1024 1024" version="1.1" xmlns="http://www.w3.org/2000/svg" p-id="16127" xmlns:xlink="http://www.w3.org/1999/xlink" width="64" height="64"><path d="M811.008 256c63.488 0 115.2 51.712 115.2 115.2V486.4c0 17.408-13.824 31.232-31.232 31.232-34.816 0-62.976 28.16-62.976 62.976 0 34.816 28.16 62.976 62.976 62.976 17.408 0 31.232 13.824 31.232 31.232v115.2c0 63.488-51.712 115.2-115.2 115.2H203.776c-63.488 0-115.2-51.712-115.2-115.2v-115.2c0-17.408 13.824-31.232 31.232-31.232 34.816 0 62.976-28.16 62.976-62.976 0-34.816-28.16-62.976-62.976-62.976-17.408 0-31.232-13.824-31.232-31.232V371.2c0-59.392 45.056-108.544 102.912-114.688l619.52-0.512z m-236.032 158.208c-0.512-0.512-1.024-0.512-1.536 0L507.392 479.744 441.856 414.208c-0.512-0.512-1.024-0.512-1.536 0l-38.912 38.912c-0.512 0.512-0.512 1.024 0 1.536l49.152 49.152H376.32c-0.512 0-1.024 0.512-1.024 1.024v55.296c0 0.512 0.512 1.024 1.024 1.024h101.888v38.4H376.832c-1.024 0-1.536 0.512-1.536 1.536v54.784c0 1.024 0.512 1.536 1.536 1.536h101.888v61.44c0 0.512 0.512 1.024 1.024 1.024h55.296c0.512 0 1.024-0.512 1.024-1.024v-61.44h101.888c1.024 0 1.536-0.512 1.536-1.536v-54.784c0-1.024-0.512-1.536-1.536-1.536h-101.888v-38.4h101.888c0.512 0 1.024-0.512 1.024-1.024V504.832c0-0.512-0.512-1.024-1.024-1.024h-73.216l49.152-49.152c0.512-0.512 0.512-1.024 0-1.536l-38.912-38.912zM218.624 136.192c11.264-30.72 55.808-46.08 101.376-29.696l363.52 100.864H192.512l26.112-71.168z" p-id="16128"></path></svg>