<?xml version="1.0" standalone="no"?><!DOCTYPE svg PUBLIC "-//W3C//DTD SVG 1.1//EN" "http://www.w3.org/Graphics/SVG/1.1/DTD/svg11.dtd"><svg t="1767505372666" class="icon" viewBox="0 0 1024 1024" version="1.1" xmlns="http://www.w3.org/2000/svg" p-id="14372" xmlns:xlink="http://www.w3.org/1999/xlink" width="64" height="64"><path d="M813.568 188.928H344.064c-61.952 0-120.32 31.232-154.624 82.944L50.688 461.824c-25.088 37.376-25.088 86.016 0 123.904l138.752 189.952a186.0096 186.0096 0 0 0 154.624 82.944h470.016c81.92 0 148.992-66.56 148.992-148.992V337.92a149.5552 149.5552 0 0 0-149.504-148.992z m-77.312 424.448c14.848 14.848 16.384 38.912 3.584 55.808l-3.584 4.096c-16.384 16.384-43.008 16.384-59.904 0l-89.6-89.6-89.6 89.6c-14.848 14.848-38.912 16.384-55.808 3.584l-4.096-3.584a42.8032 42.8032 0 0 1-3.584-55.808l3.584-4.096 89.6-89.6-89.6-89.6a42.8544 42.8544 0 0 1-3.584-55.808l3.584-4.096c15.36-15.36 38.912-16.896 55.808-3.584l4.096 3.584 89.6 89.6 89.6-89.6c14.848-14.848 38.912-16.384 55.808-3.584l4.096 3.584c14.848 14.848 16.384 38.912 3.584 55.808l-3.584 4.096-89.6 89.6 89.6 89.6z" p-id="14373"></path></svg>