<?xml version="1.0" standalone="no"?><!DOCTYPE svg PUBLIC "-//W3C//DTD SVG 1.1//EN" "http://www.w3.org/Graphics/SVG/1.1/DTD/svg11.dtd"><svg t="1767505399753" class="icon" viewBox="0 0 1024 1024" version="1.1" xmlns="http://www.w3.org/2000/svg" p-id="15546" xmlns:xlink="http://www.w3.org/1999/xlink" width="64" height="64"><path d="M851.968 223.744l-192.512 117.248-117.248-121.344c-8.192-8.192-25.088-12.8-37.888-12.8s-29.184 4.096-37.888 12.8L349.184 340.992 156.672 223.744c-33.28-20.992-79.36 8.192-71.168 46.08l138.24 502.784c4.096 16.896 25.088 29.184 46.08 29.184h468.992c20.992 0 41.984-12.8 46.08-29.184l138.24-502.784c8.192-37.888-37.888-67.072-71.168-46.08zM629.76 650.752H378.368c-16.896 0-33.28-12.8-33.28-33.28s12.8-33.28 33.28-33.28H629.76c16.896 0 33.28 12.8 33.28 33.28 0.512 20.992-16.384 33.28-33.28 33.28z" p-id="15547"></path></svg>