<?xml version="1.0" standalone="no"?><!DOCTYPE svg PUBLIC "-//W3C//DTD SVG 1.1//EN" "http://www.w3.org/Graphics/SVG/1.1/DTD/svg11.dtd"><svg t="1767505414208" class="icon" viewBox="0 0 1024 1024" version="1.1" xmlns="http://www.w3.org/2000/svg" p-id="16562" xmlns:xlink="http://www.w3.org/1999/xlink" width="64" height="64"><path d="M510.976 87.04c136.704 0 248.32 110.592 248.32 247.296 0 95.744-54.784 182.784-140.8 224.256l-99.84 126.464c-1.536 2.048-2.56 5.12-2.56 8.192v180.224c0 5.12-4.096 9.728-9.728 9.728H143.872c-4.608 0-8.192-3.584-8.192-8.192 1.024-47.616 10.752-94.208 29.696-138.24 18.944-45.056 46.08-84.992 80.384-119.296 34.304-34.304 74.752-61.952 119.296-80.896l1.024-0.512c-111.104-79.872-136.192-235.008-56.32-346.112A248.1664 248.1664 0 0 1 510.976 87.04z m90.624 321.024c-10.24-9.728-26.112-9.728-36.352 0-27.648 27.648-72.192 27.648-99.328 0-10.24-10.24-26.112-10.24-36.352 0s-10.24 26.112 0 36.352c47.616 47.616 124.416 47.616 172.032 0 10.24-10.24 10.24-26.624 0-36.352z" p-id="16563"></path><path d="M880.128 728.064c4.608 0 8.192-3.584 8.192-8.192v-55.808c0-4.608-3.584-8.192-8.192-8.192h-176.64l47.104-59.904c2.56-3.584 2.048-8.704-1.536-11.264-1.536-1.024-3.072-1.536-5.12-1.536h-72.704c-5.12 0-9.728 2.048-12.8 6.144l-68.608 87.04c-10.752 13.824-8.704 34.304 5.632 45.056 5.632 4.608 12.8 6.656 19.968 6.656h264.704z m-288.256 64c-4.608 0-8.192 3.584-8.192 8.192v55.808c0 4.608 3.584 8.192 8.192 8.192h176.64l-47.104 60.416c-2.56 3.584-2.048 8.704 1.536 11.264 1.536 1.024 3.072 1.536 5.12 1.536h72.704c5.12 0 9.728-2.048 12.8-6.144l68.608-87.04c10.752-13.824 8.704-34.304-5.632-45.056-5.632-4.608-12.8-6.656-19.968-6.656l-264.704-0.512z" p-id="16564"></path></svg>