<?xml version="1.0" standalone="no"?><!DOCTYPE svg PUBLIC "-//W3C//DTD SVG 1.1//EN" "http://www.w3.org/Graphics/SVG/1.1/DTD/svg11.dtd"><svg t="1767505388263" class="icon" viewBox="0 0 1024 1024" version="1.1" xmlns="http://www.w3.org/2000/svg" p-id="14808" xmlns:xlink="http://www.w3.org/1999/xlink" width="64" height="64"><path d="M890.311 748.772a56.889 56.889 0 0 1 6.656 113.436l-6.599 0.341H192.512a56.889 56.889 0 0 1-6.6-113.38l6.6-0.397h697.856z m0-284.445a56.889 56.889 0 0 1 6.656 113.437l-6.599 0.34H192.512a56.889 56.889 0 0 1-6.6-113.379l6.6-0.398h697.856z m0-284.444a56.889 56.889 0 0 1 6.656 113.436l-6.599 0.341H192.512a56.889 56.889 0 0 1-6.6-113.38l6.6-0.397h697.856z" p-id="14809"></path></svg>