<?xml version="1.0" standalone="no"?><!DOCTYPE svg PUBLIC "-//W3C//DTD SVG 1.1//EN" "http://www.w3.org/Graphics/SVG/1.1/DTD/svg11.dtd"><svg t="1767505418750" class="icon" viewBox="0 0 1024 1024" version="1.1" xmlns="http://www.w3.org/2000/svg" p-id="16853" xmlns:xlink="http://www.w3.org/1999/xlink" width="64" height="64"><path d="M849.92 870.4H706.56a30.72 30.72 0 0 1 0-61.44h112.64V696.32a30.72 30.72 0 0 1 61.44 0v143.36a30.72 30.72 0 0 1-30.72 30.72z m0-512a30.72 30.72 0 0 1-30.72-30.72V215.04H706.56a30.72 30.72 0 0 1 0-61.44h143.36a30.72 30.72 0 0 1 30.72 30.72v143.36a30.72 30.72 0 0 1-30.72 30.72zM317.44 215.04H204.8v112.64a30.72 30.72 0 0 1-61.44 0V184.32a30.72 30.72 0 0 1 30.72-30.72h143.36a30.72 30.72 0 0 1 0 61.44z m-20.48 368.64h430.08v143.36H296.96V583.68z m0-286.72h430.08v143.36H296.96V296.96z m522.24 184.32a30.72 30.72 0 0 1 0 61.44H204.8a30.72 30.72 0 0 1 0-61.44h614.4zM174.08 665.6a30.72 30.72 0 0 1 30.72 30.72v112.64h112.64a30.72 30.72 0 0 1 0 61.44H174.08a30.72 30.72 0 0 1-30.72-30.72V696.32a30.72 30.72 0 0 1 30.72-30.72z" fill="currentColor" p-id="16854"></path></svg>