<?xml version="1.0" standalone="no"?><!DOCTYPE svg PUBLIC "-//W3C//DTD SVG 1.1//EN" "http://www.w3.org/Graphics/SVG/1.1/DTD/svg11.dtd"><svg t="1767505423997" class="icon" viewBox="0 0 1024 1024" version="1.1" xmlns="http://www.w3.org/2000/svg" p-id="17292" xmlns:xlink="http://www.w3.org/1999/xlink" width="64" height="64"><path d="M509.717333 106.666667a192 192 0 0 1 192 192h119.466667a32 32 0 0 1 31.914667 29.802666l38.250666 554.666667A32 32 0 0 1 859.434667 917.333333H160a32 32 0 0 1-31.914667-34.197333l38.250667-554.666667A32 32 0 0 1 198.250667 298.666667h119.466666a192 192 0 0 1 192-192z m-173.525333 478.122666a32 32 0 0 0-26.730667 49.6A234.517333 234.517333 0 0 0 509.717333 746.666667c84.757333 0 159.018667-44.928 200.256-112.277334a32 32 0 0 0-54.613333-33.408A170.56 170.56 0 0 1 509.738667 682.666667a170.56 170.56 0 0 1-145.642667-81.664 32.085333 32.085333 0 0 0-27.882667-16.213334zM509.717333 170.666667a128 128 0 0 0-128 128h256a128 128 0 0 0-128-128z" fill="currentColor" p-id="17293"></path></svg>