<?xml version="1.0" standalone="no"?><!DOCTYPE svg PUBLIC "-//W3C//DTD SVG 1.1//EN" "http://www.w3.org/Graphics/SVG/1.1/DTD/svg11.dtd"><svg t="1767505393036" class="icon" viewBox="0 0 1024 1024" version="1.1" xmlns="http://www.w3.org/2000/svg" p-id="15102" xmlns:xlink="http://www.w3.org/1999/xlink" width="64" height="64"><path d="M594.176 731.477333a27.306667 27.306667 0 0 1-27.392-27.477333V402.261333a27.306667 27.306667 0 1 1 54.869333 0v301.653334a27.477333 27.477333 0 0 1-27.477333 27.562666z m-164.522667 0a27.306667 27.306667 0 0 1-27.392-27.477333V402.261333a27.306667 27.306667 0 1 1 54.784 0v301.653334a27.477333 27.477333 0 0 1-27.392 27.562666z m438.954667-466.346666H731.477333v-54.869334a81.92 81.92 0 0 0-81.664-82.261333H374.784a82.261333 82.261333 0 0 0-82.261333 82.261333v54.869334H155.392a27.306667 27.306667 0 1 0 0 54.869333h713.216a27.306667 27.306667 0 1 0 0-54.869333zM347.306667 210.261333c0-15.018667 12.373333-27.392 27.392-27.392h275.029333c15.018667 0 26.794667 12.032 26.794667 27.392v54.869334H347.392v-54.869334zM704 896h-384a82.261333 82.261333 0 0 1-82.261333-82.261333V401.92a27.306667 27.306667 0 1 1 54.869333 0v411.818667c0 15.189333 12.373333 27.392 27.392 27.392h384.085333a27.306667 27.306667 0 0 0 27.477334-27.392V402.944a27.306667 27.306667 0 1 1 54.784 0v410.794667a82.602667 82.602667 0 0 1-82.432 82.261333z" fill="currentColor" p-id="15103"></path></svg>