<?xml version="1.0" standalone="no"?><!DOCTYPE svg PUBLIC "-//W3C//DTD SVG 1.1//EN" "http://www.w3.org/Graphics/SVG/1.1/DTD/svg11.dtd"><svg t="1766642254511" class="icon" fill="currentColor" viewBox="0 0 1024 1024" version="1.1" xmlns="http://www.w3.org/2000/svg" p-id="6403" xmlns:xlink="http://www.w3.org/1999/xlink" width="64" height="64"><path d="M512 604.16A270.933333 270.933333 0 1 0 355.84 554.666667 380.8 380.8 0 0 0 88.106667 922.666667a37.333333 37.333333 0 0 0 74.666666 0c0-185.813333 143.146667-316.8 347.733334-318.506667z m-196.906667-270.08a195.2 195.2 0 1 1 195.2 195.413333 195.626667 195.626667 0 0 1-195.2-195.413333z" p-id="6404"></path><path d="M525.226667 719.786667h365.013333a39.68 39.68 0 0 0 12.373333-2.346667h1.28a37.12 37.12 0 0 0 10.666667-6.613333 40.32 40.32 0 0 0 8.106667-10.88 35.2 35.2 0 0 0 2.986666-12.586667 3.626667 3.626667 0 0 0 0-1.493333v-1.066667a34.56 34.56 0 0 0-2.133333-11.52 2.986667 2.986667 0 0 0 0-1.493333 34.986667 34.986667 0 0 0-6.826667-11.52l-75.093333-86.4a37.333333 37.333333 0 1 0-55.04 50.346666l18.986667 21.333334H525.226667a37.333333 37.333333 0 1 0 0 74.666666zM898.56 802.133333H533.333333a34.346667 34.346667 0 0 0-11.52 1.92h-1.493333a44.373333 44.373333 0 0 0-11.52 6.826667 37.546667 37.546667 0 0 0-7.893333 11.093333 42.666667 42.666667 0 0 0-2.986667 12.8v2.56a42.666667 42.666667 0 0 0 1.92 11.52 2.986667 2.986667 0 0 1 0 1.493334 36.053333 36.053333 0 0 0 7.04 11.306666l75.946667 83.2a37.333333 37.333333 0 0 0 27.52 12.16 36.48 36.48 0 0 0 25.173333-9.813333 37.12 37.12 0 0 0 2.56-52.693333l-18.986667-21.333334h279.466667a37.333333 37.333333 0 0 0 0-74.666666z" p-id="6405"></path></svg>