<?xml version="1.0" standalone="no"?><!DOCTYPE svg PUBLIC "-//W3C//DTD SVG 1.1//EN" "http://www.w3.org/Graphics/SVG/1.1/DTD/svg11.dtd"><svg t="1767505412037" class="icon" viewBox="0 0 1024 1024" version="1.1" xmlns="http://www.w3.org/2000/svg" p-id="16417" xmlns:xlink="http://www.w3.org/1999/xlink" width="64" height="64"><path d="M791.552 744.448c46.08 0 82.944-40.96 82.944-92.16V192.512c0-50.688-37.376-92.16-82.944-92.16H209.92c-46.08 0-82.944 40.96-82.944 92.16v459.776c0 50.688 37.376 92.16 82.944 92.16h82.944v92.16H168.448c-23.04 0-41.472 20.48-41.472 46.08s18.432 46.08 41.472 46.08h664.064c23.04 0 41.472-20.48 41.472-46.08s-18.432-46.08-41.472-46.08h-124.416v-92.16h83.456zM396.288 422.4c-11.264 0-20.992-10.24-20.992-23.04s9.216-23.04 20.992-23.04h82.944v-6.656L393.728 274.944c-8.192-8.704-8.192-23.04 0-32.256 8.192-8.704 20.992-8.704 29.184 0l75.264 82.944h3.072L573.44 245.248c8.192-8.704 20.992-8.704 29.184 0 8.192 8.704 8.192 23.552 0 32.256l-81.92 89.088v9.728h82.944c11.264 0 20.992 10.24 20.992 23.04s-9.216 23.04-20.992 23.04h-82.944v46.08h82.944c11.264 0 20.992 10.24 20.992 23.04s-9.216 23.04-20.992 23.04h-82.944v63.488c0 12.8-9.216 23.04-20.992 23.04-11.264 0-20.992-10.24-20.992-23.04v-63.488H396.288c-11.264 0-20.992-10.24-20.992-23.04s9.216-23.04 20.992-23.04h82.944v-46.08H396.288z m228.864 413.696H376.32v-92.16h248.832v92.16z" p-id="16418"></path></svg>