<?xml version="1.0" standalone="no"?><!DOCTYPE svg PUBLIC "-//W3C//DTD SVG 1.1//EN" "http://www.w3.org/Graphics/SVG/1.1/DTD/svg11.dtd"><svg t="1767505410232" class="icon" viewBox="0 0 1024 1024" version="1.1" xmlns="http://www.w3.org/2000/svg" p-id="16272" xmlns:xlink="http://www.w3.org/1999/xlink" width="64" height="64"><path d="M796.672 137.216h-108.032v59.904c0 14.848-12.288 26.624-27.136 26.624H361.984c-14.848 0-27.136-12.288-27.136-26.624V137.216h-107.52c-32.256 0-58.88 26.112-58.88 58.368v673.792c0 31.744 26.624 58.368 58.88 58.368h569.856c32.256 0 58.88-26.112 58.88-58.368V195.072c-0.512-31.744-27.136-57.856-59.392-57.856zM658.944 174.08V118.272c0-11.776-9.216-21.504-20.992-21.504H385.536c-11.264 0-20.992 9.728-20.992 21.504V174.08c0 11.776 9.216 21.504 20.992 21.504h252.416c11.776 0 20.992-9.728 20.992-21.504z m66.56 392.704c0 73.728-57.856 133.632-128.512 133.632h-235.52c-14.336 0-26.112-12.288-26.112-27.648 0-15.36 11.776-27.648 26.624-27.648h234.496c41.472 0 75.776-35.328 75.776-78.336 0-43.52-34.304-78.336-75.776-78.336H393.728l55.808 58.368c11.264 11.776 11.264 30.72 0 42.496a28.16 28.16 0 0 1-40.96 0L306.688 482.816c-11.264-11.776-11.264-30.72 0-42.496l101.888-105.984a28.16 28.16 0 0 1 40.96 0c11.264 11.776 11.264 30.72 0 42.496l-54.272 56.32h201.216c71.168 0 129.024 60.416 129.024 133.632z" p-id="16273"></path></svg>