<?xml version="1.0" standalone="no"?><!DOCTYPE svg PUBLIC "-//W3C//DTD SVG 1.1//EN" "http://www.w3.org/Graphics/SVG/1.1/DTD/svg11.dtd"><svg t="1767505404547" class="icon" viewBox="0 0 1024 1024" version="1.1" xmlns="http://www.w3.org/2000/svg" p-id="15836" xmlns:xlink="http://www.w3.org/1999/xlink" width="64" height="64"><path d="M505.344 352.256c-41.984 0.512-76.288 35.84-76.8 78.848-0.512 44.544 34.304 80.896 77.824 80.896 43.008 0 77.824-35.84 77.824-79.872 0-44.544-35.328-80.384-78.848-79.872z" p-id="15837"></path><path d="M837.12 112.64H175.616c-37.376 0-67.584 31.232-67.584 69.12v500.736c0 38.4 30.208 69.12 67.584 69.12h660.992c37.376 0 67.584-31.232 67.584-69.12V181.76c0-37.888-30.208-69.12-67.072-69.12z m-172.032 357.376c5.632 9.728 12.8 17.92 21.504 24.064 3.072 2.048 3.584 5.632 2.048 9.216l-31.744 55.808c-1.536 3.072-5.12 4.096-8.704 3.072-34.304-16.384-75.776-3.584-94.72 30.208-5.632 9.728-8.704 20.48-9.728 31.232-0.512 3.584-3.072 6.144-6.656 6.144H474.624c-3.584 0-6.144-2.56-6.656-6.144-3.072-38.4-34.816-69.12-72.704-69.12-11.264 0-21.504 2.56-31.232 7.168-3.072 1.536-6.656 0.512-8.704-2.56l-31.744-55.808c-1.536-3.072-1.024-7.168 2.048-9.216 31.232-22.528 40.96-65.024 22.016-99.328-5.632-9.728-13.312-18.432-21.504-24.576-3.072-2.048-3.584-5.632-2.048-9.216l31.232-55.808c1.536-3.072 5.12-4.096 8.704-2.56 34.304 16.384 75.776 4.096 94.72-30.208 5.632-10.24 8.704-20.992 9.728-31.744 0.512-3.584 3.072-6.144 6.656-6.144h62.976c3.584 0 6.144 2.56 6.656 6.144 3.072 38.912 34.304 69.12 72.704 69.12 11.264 0 22.016-2.56 31.232-7.168 3.072-1.536 6.656-0.512 8.704 2.56l31.232 55.808c1.536 3.072 1.024 7.168-2.048 9.216-31.232 22.528-40.96 66.048-21.504 99.84z m87.04 454.656H260.096c-22.528 0-40.96-18.944-40.96-41.984s18.432-41.984 40.96-41.984h492.032c22.528 0 40.96 18.944 40.96 41.984s-18.432 41.984-40.96 41.984z" p-id="15838"></path></svg>