<?xml version="1.0" standalone="no"?><!DOCTYPE svg PUBLIC "-//W3C//DTD SVG 1.1//EN" "http://www.w3.org/Graphics/SVG/1.1/DTD/svg11.dtd"><svg t="1767505416247" class="icon" viewBox="0 0 1024 1024" version="1.1" xmlns="http://www.w3.org/2000/svg" p-id="16708" xmlns:xlink="http://www.w3.org/1999/xlink" width="64" height="64"><path d="M929.745455 278.109091h-32.581819V151.272727c0-51.2-44.218182-94.254545-96.581818-94.254545L79.127273 197.818182C9.309091 217.6 0 272.290909 0 292.072727V872.727273c0 51.2 44.218182 94.254545 96.581818 94.254545h830.836364c52.363636 0 96.581818-43.054545 96.581818-94.254545V370.036364c2.327273-48.872727-40.727273-91.927273-94.254545-91.927273zM102.4 258.327273l705.163636-140.8c17.454545 0 29.090909 13.963636 29.090909 31.418182v126.836363H131.490909c-23.272727 2.327273-32.581818-17.454545-29.090909-17.454545z m778.472727 410.763636c-26.763636 23.272727-67.490909 23.272727-90.763636 0-26.763636-25.6-26.763636-66.327273 0-88.436364 26.763636-25.6 67.490909-25.6 90.763636 0 23.272727 22.109091 23.272727 61.672727 0 88.436364z m0 0" fill="currentColor" p-id="16709"></path></svg>