<?xml version="1.0" standalone="no"?><!DOCTYPE svg PUBLIC "-//W3C//DTD SVG 1.1//EN" "http://www.w3.org/Graphics/SVG/1.1/DTD/svg11.dtd"><svg t="1767505406298" class="icon" viewBox="0 0 1024 1024" version="1.1" xmlns="http://www.w3.org/2000/svg" p-id="15982" xmlns:xlink="http://www.w3.org/1999/xlink" width="64" height="64"><path d="M454.656 801.792H174.08c-19.968 0-36.352-16.384-36.352-36.352V433.664h683.52v-174.08c0-49.152-39.936-89.088-89.088-89.088h-68.608V117.76h-52.736v52.736H295.424V117.76H242.688v52.736H174.08c-49.152 0-89.088 39.936-89.088 89.088v505.856c0 48.64 39.936 88.576 89.088 88.576h280.576c14.848 0 26.624-11.776 26.624-26.624s-11.776-25.6-26.624-25.6z m-238.08-289.28h183.808v52.736H216.576v-52.736z m0 157.696h183.808v52.736H216.576v-52.736zM742.4 591.36h-52.736v131.584h131.072v-52.736H742.4v-78.848z m122.368-44.032c-39.936-39.936-92.672-61.44-148.992-61.44s-109.056 22.016-148.992 61.44c-39.936 39.936-61.44 92.672-61.44 148.992s22.016 109.056 61.44 148.992c39.936 39.936 92.672 61.44 148.992 61.44s109.056-22.016 148.992-61.44c39.936-39.936 61.44-92.672 61.44-148.992s-21.504-109.056-61.44-148.992z m-148.48 306.688c-87.04 0-157.696-70.656-157.696-157.696s70.656-157.696 157.696-157.696 157.696 70.656 157.696 157.696-70.656 157.696-157.696 157.696z" p-id="15983"></path></svg>